%TF.GenerationSoftware,KiCad,Pcbnew,(5.0.1)-3*%
%TF.CreationDate,2018-11-11T20:09:42+02:00*%
%TF.ProjectId,Fet-levy,4665742D6C6576792E6B696361645F70,rev?*%
%TF.SameCoordinates,Original*%
%TF.FileFunction,Legend,Top*%
%TF.FilePolarity,Positive*%
%FSLAX46Y46*%
G04 Gerber Fmt 4.6, Leading zero omitted, Abs format (unit mm)*
G04 Created by KiCad (PCBNEW (5.0.1)-3) date 11.11.2018 20.09.42*
%MOMM*%
%LPD*%
G01*
G04 APERTURE LIST*
%ADD10C,0.300000*%
%ADD11C,0.200000*%
%ADD12C,0.120000*%
%ADD13C,0.150000*%
G04 APERTURE END LIST*
D10*
X184277142Y-56400000D02*
X184134285Y-56328571D01*
X183920000Y-56328571D01*
X183705714Y-56400000D01*
X183562857Y-56542857D01*
X183491428Y-56685714D01*
X183420000Y-56971428D01*
X183420000Y-57185714D01*
X183491428Y-57471428D01*
X183562857Y-57614285D01*
X183705714Y-57757142D01*
X183920000Y-57828571D01*
X184062857Y-57828571D01*
X184277142Y-57757142D01*
X184348571Y-57685714D01*
X184348571Y-57185714D01*
X184062857Y-57185714D01*
X184991428Y-57828571D02*
X184991428Y-56328571D01*
X185848571Y-57828571D01*
X185848571Y-56328571D01*
X186562857Y-57828571D02*
X186562857Y-56328571D01*
X186920000Y-56328571D01*
X187134285Y-56400000D01*
X187277142Y-56542857D01*
X187348571Y-56685714D01*
X187420000Y-56971428D01*
X187420000Y-57185714D01*
X187348571Y-57471428D01*
X187277142Y-57614285D01*
X187134285Y-57757142D01*
X186920000Y-57828571D01*
X186562857Y-57828571D01*
X225957142Y-57257142D02*
X227100000Y-57257142D01*
X226528571Y-57828571D02*
X226528571Y-56685714D01*
X228600000Y-57828571D02*
X227742857Y-57828571D01*
X228171428Y-57828571D02*
X228171428Y-56328571D01*
X228028571Y-56542857D01*
X227885714Y-56685714D01*
X227742857Y-56757142D01*
X229171428Y-56471428D02*
X229242857Y-56400000D01*
X229385714Y-56328571D01*
X229742857Y-56328571D01*
X229885714Y-56400000D01*
X229957142Y-56471428D01*
X230028571Y-56614285D01*
X230028571Y-56757142D01*
X229957142Y-56971428D01*
X229100000Y-57828571D01*
X230028571Y-57828571D01*
X230457142Y-56328571D02*
X230957142Y-57828571D01*
X231457142Y-56328571D01*
D11*
X181610000Y-130810000D02*
X154940000Y-130810000D01*
X181610000Y-67310000D02*
X181610000Y-130810000D01*
X154940000Y-67310000D02*
X181610000Y-67310000D01*
D12*
%TO.C,Q12*%
X229181000Y-116110000D02*
X229181000Y-117620000D01*
X225480000Y-116110000D02*
X225480000Y-117620000D01*
X222210000Y-117620000D02*
X232450000Y-117620000D01*
X232450000Y-116110000D02*
X232450000Y-120751000D01*
X222210000Y-116110000D02*
X222210000Y-120751000D01*
X222210000Y-120751000D02*
X232450000Y-120751000D01*
X222210000Y-116110000D02*
X232450000Y-116110000D01*
%TO.C,Q14*%
X203781000Y-138970000D02*
X203781000Y-140480000D01*
X200080000Y-138970000D02*
X200080000Y-140480000D01*
X196810000Y-140480000D02*
X207050000Y-140480000D01*
X207050000Y-138970000D02*
X207050000Y-143611000D01*
X196810000Y-138970000D02*
X196810000Y-143611000D01*
X196810000Y-143611000D02*
X207050000Y-143611000D01*
X196810000Y-138970000D02*
X207050000Y-138970000D01*
%TO.C,Q13*%
X184110000Y-138970000D02*
X194350000Y-138970000D01*
X184110000Y-143611000D02*
X194350000Y-143611000D01*
X184110000Y-138970000D02*
X184110000Y-143611000D01*
X194350000Y-138970000D02*
X194350000Y-143611000D01*
X184110000Y-140480000D02*
X194350000Y-140480000D01*
X187380000Y-138970000D02*
X187380000Y-140480000D01*
X191081000Y-138970000D02*
X191081000Y-140480000D01*
%TO.C,Q15*%
X209510000Y-138970000D02*
X219750000Y-138970000D01*
X209510000Y-143611000D02*
X219750000Y-143611000D01*
X209510000Y-138970000D02*
X209510000Y-143611000D01*
X219750000Y-138970000D02*
X219750000Y-143611000D01*
X209510000Y-140480000D02*
X219750000Y-140480000D01*
X212780000Y-138970000D02*
X212780000Y-140480000D01*
X216481000Y-138970000D02*
X216481000Y-140480000D01*
%TO.C,Q16*%
X229181000Y-138970000D02*
X229181000Y-140480000D01*
X225480000Y-138970000D02*
X225480000Y-140480000D01*
X222210000Y-140480000D02*
X232450000Y-140480000D01*
X232450000Y-138970000D02*
X232450000Y-143611000D01*
X222210000Y-138970000D02*
X222210000Y-143611000D01*
X222210000Y-143611000D02*
X232450000Y-143611000D01*
X222210000Y-138970000D02*
X232450000Y-138970000D01*
%TO.C,Q7*%
X209510000Y-93250000D02*
X219750000Y-93250000D01*
X209510000Y-97891000D02*
X219750000Y-97891000D01*
X209510000Y-93250000D02*
X209510000Y-97891000D01*
X219750000Y-93250000D02*
X219750000Y-97891000D01*
X209510000Y-94760000D02*
X219750000Y-94760000D01*
X212780000Y-93250000D02*
X212780000Y-94760000D01*
X216481000Y-93250000D02*
X216481000Y-94760000D01*
%TO.C,Q9*%
X191081000Y-116110000D02*
X191081000Y-117620000D01*
X187380000Y-116110000D02*
X187380000Y-117620000D01*
X184110000Y-117620000D02*
X194350000Y-117620000D01*
X194350000Y-116110000D02*
X194350000Y-120751000D01*
X184110000Y-116110000D02*
X184110000Y-120751000D01*
X184110000Y-120751000D02*
X194350000Y-120751000D01*
X184110000Y-116110000D02*
X194350000Y-116110000D01*
%TO.C,Q8*%
X229181000Y-93250000D02*
X229181000Y-94760000D01*
X225480000Y-93250000D02*
X225480000Y-94760000D01*
X222210000Y-94760000D02*
X232450000Y-94760000D01*
X232450000Y-93250000D02*
X232450000Y-97891000D01*
X222210000Y-93250000D02*
X222210000Y-97891000D01*
X222210000Y-97891000D02*
X232450000Y-97891000D01*
X222210000Y-93250000D02*
X232450000Y-93250000D01*
%TO.C,Q1*%
X191081000Y-70390000D02*
X191081000Y-71900000D01*
X187380000Y-70390000D02*
X187380000Y-71900000D01*
X184110000Y-71900000D02*
X194350000Y-71900000D01*
X194350000Y-70390000D02*
X194350000Y-75031000D01*
X184110000Y-70390000D02*
X184110000Y-75031000D01*
X184110000Y-75031000D02*
X194350000Y-75031000D01*
X184110000Y-70390000D02*
X194350000Y-70390000D01*
%TO.C,Q5*%
X184110000Y-93250000D02*
X194350000Y-93250000D01*
X184110000Y-97891000D02*
X194350000Y-97891000D01*
X184110000Y-93250000D02*
X184110000Y-97891000D01*
X194350000Y-93250000D02*
X194350000Y-97891000D01*
X184110000Y-94760000D02*
X194350000Y-94760000D01*
X187380000Y-93250000D02*
X187380000Y-94760000D01*
X191081000Y-93250000D02*
X191081000Y-94760000D01*
%TO.C,Q11*%
X209510000Y-116110000D02*
X219750000Y-116110000D01*
X209510000Y-120751000D02*
X219750000Y-120751000D01*
X209510000Y-116110000D02*
X209510000Y-120751000D01*
X219750000Y-116110000D02*
X219750000Y-120751000D01*
X209510000Y-117620000D02*
X219750000Y-117620000D01*
X212780000Y-116110000D02*
X212780000Y-117620000D01*
X216481000Y-116110000D02*
X216481000Y-117620000D01*
%TO.C,Q4*%
X222210000Y-70390000D02*
X232450000Y-70390000D01*
X222210000Y-75031000D02*
X232450000Y-75031000D01*
X222210000Y-70390000D02*
X222210000Y-75031000D01*
X232450000Y-70390000D02*
X232450000Y-75031000D01*
X222210000Y-71900000D02*
X232450000Y-71900000D01*
X225480000Y-70390000D02*
X225480000Y-71900000D01*
X229181000Y-70390000D02*
X229181000Y-71900000D01*
%TO.C,Q2*%
X196810000Y-70390000D02*
X207050000Y-70390000D01*
X196810000Y-75031000D02*
X207050000Y-75031000D01*
X196810000Y-70390000D02*
X196810000Y-75031000D01*
X207050000Y-70390000D02*
X207050000Y-75031000D01*
X196810000Y-71900000D02*
X207050000Y-71900000D01*
X200080000Y-70390000D02*
X200080000Y-71900000D01*
X203781000Y-70390000D02*
X203781000Y-71900000D01*
%TO.C,Q10*%
X196810000Y-116110000D02*
X207050000Y-116110000D01*
X196810000Y-120751000D02*
X207050000Y-120751000D01*
X196810000Y-116110000D02*
X196810000Y-120751000D01*
X207050000Y-116110000D02*
X207050000Y-120751000D01*
X196810000Y-117620000D02*
X207050000Y-117620000D01*
X200080000Y-116110000D02*
X200080000Y-117620000D01*
X203781000Y-116110000D02*
X203781000Y-117620000D01*
%TO.C,Q3*%
X216481000Y-70390000D02*
X216481000Y-71900000D01*
X212780000Y-70390000D02*
X212780000Y-71900000D01*
X209510000Y-71900000D02*
X219750000Y-71900000D01*
X219750000Y-70390000D02*
X219750000Y-75031000D01*
X209510000Y-70390000D02*
X209510000Y-75031000D01*
X209510000Y-75031000D02*
X219750000Y-75031000D01*
X209510000Y-70390000D02*
X219750000Y-70390000D01*
%TO.C,Q6*%
X203781000Y-93250000D02*
X203781000Y-94760000D01*
X200080000Y-93250000D02*
X200080000Y-94760000D01*
X196810000Y-94760000D02*
X207050000Y-94760000D01*
X207050000Y-93250000D02*
X207050000Y-97891000D01*
X196810000Y-93250000D02*
X196810000Y-97891000D01*
X196810000Y-97891000D02*
X207050000Y-97891000D01*
X196810000Y-93250000D02*
X207050000Y-93250000D01*
%TO.C,J1*%
X236390000Y-53820000D02*
X243410000Y-53820000D01*
X243410000Y-53820000D02*
X243410000Y-55020000D01*
X243410000Y-55020000D02*
X245110000Y-55020000D01*
X245110000Y-55020000D02*
X245110000Y-72580000D01*
X245110000Y-72580000D02*
X243410000Y-72580000D01*
X243410000Y-72580000D02*
X243410000Y-73780000D01*
X243410000Y-73780000D02*
X236390000Y-73780000D01*
X236390000Y-73780000D02*
X236390000Y-53820000D01*
X241300000Y-53620000D02*
X241000000Y-53020000D01*
X241000000Y-53020000D02*
X241600000Y-53020000D01*
X241600000Y-53020000D02*
X241300000Y-53620000D01*
%TO.C,J2*%
X241600000Y-75880000D02*
X241300000Y-76480000D01*
X241000000Y-75880000D02*
X241600000Y-75880000D01*
X241300000Y-76480000D02*
X241000000Y-75880000D01*
X236390000Y-96640000D02*
X236390000Y-76680000D01*
X243410000Y-96640000D02*
X236390000Y-96640000D01*
X243410000Y-95440000D02*
X243410000Y-96640000D01*
X245110000Y-95440000D02*
X243410000Y-95440000D01*
X245110000Y-77880000D02*
X245110000Y-95440000D01*
X243410000Y-77880000D02*
X245110000Y-77880000D01*
X243410000Y-76680000D02*
X243410000Y-77880000D01*
X236390000Y-76680000D02*
X243410000Y-76680000D01*
%TO.C,J3*%
X241600000Y-98740000D02*
X241300000Y-99340000D01*
X241000000Y-98740000D02*
X241600000Y-98740000D01*
X241300000Y-99340000D02*
X241000000Y-98740000D01*
X236390000Y-119500000D02*
X236390000Y-99540000D01*
X243410000Y-119500000D02*
X236390000Y-119500000D01*
X243410000Y-118300000D02*
X243410000Y-119500000D01*
X245110000Y-118300000D02*
X243410000Y-118300000D01*
X245110000Y-100740000D02*
X245110000Y-118300000D01*
X243410000Y-100740000D02*
X245110000Y-100740000D01*
X243410000Y-99540000D02*
X243410000Y-100740000D01*
X236390000Y-99540000D02*
X243410000Y-99540000D01*
%TO.C,J4*%
X241600000Y-121600000D02*
X241300000Y-122200000D01*
X241000000Y-121600000D02*
X241600000Y-121600000D01*
X241300000Y-122200000D02*
X241000000Y-121600000D01*
X236390000Y-142360000D02*
X236390000Y-122400000D01*
X243410000Y-142360000D02*
X236390000Y-142360000D01*
X243410000Y-141160000D02*
X243410000Y-142360000D01*
X245110000Y-141160000D02*
X243410000Y-141160000D01*
X245110000Y-123600000D02*
X245110000Y-141160000D01*
X243410000Y-123600000D02*
X245110000Y-123600000D01*
X243410000Y-122400000D02*
X243410000Y-123600000D01*
X236390000Y-122400000D02*
X243410000Y-122400000D01*
%TO.C,J5*%
X175320000Y-83880000D02*
X173990000Y-83880000D01*
X175320000Y-82550000D02*
X175320000Y-83880000D01*
X175320000Y-81280000D02*
X172660000Y-81280000D01*
X172660000Y-81280000D02*
X172660000Y-73600000D01*
X175320000Y-81280000D02*
X175320000Y-73600000D01*
X175320000Y-73600000D02*
X172660000Y-73600000D01*
%TO.C,J6*%
X175320000Y-96580000D02*
X173990000Y-96580000D01*
X175320000Y-95250000D02*
X175320000Y-96580000D01*
X175320000Y-93980000D02*
X172660000Y-93980000D01*
X172660000Y-93980000D02*
X172660000Y-86300000D01*
X175320000Y-93980000D02*
X175320000Y-86300000D01*
X175320000Y-86300000D02*
X172660000Y-86300000D01*
%TO.C,J7*%
X175320000Y-101540000D02*
X172660000Y-101540000D01*
X175320000Y-109220000D02*
X175320000Y-101540000D01*
X172660000Y-109220000D02*
X172660000Y-101540000D01*
X175320000Y-109220000D02*
X172660000Y-109220000D01*
X175320000Y-110490000D02*
X175320000Y-111820000D01*
X175320000Y-111820000D02*
X173990000Y-111820000D01*
%TO.C,J8*%
X175320000Y-114240000D02*
X172660000Y-114240000D01*
X175320000Y-121920000D02*
X175320000Y-114240000D01*
X172660000Y-121920000D02*
X172660000Y-114240000D01*
X175320000Y-121920000D02*
X172660000Y-121920000D01*
X175320000Y-123190000D02*
X175320000Y-124520000D01*
X175320000Y-124520000D02*
X173990000Y-124520000D01*
%TO.C,J13*%
X177740000Y-93920000D02*
X179070000Y-93920000D01*
X177740000Y-95250000D02*
X177740000Y-93920000D01*
X177740000Y-96520000D02*
X180400000Y-96520000D01*
X180400000Y-96520000D02*
X180400000Y-96580000D01*
X177740000Y-96520000D02*
X177740000Y-96580000D01*
X177740000Y-96580000D02*
X180400000Y-96580000D01*
%TO.C,J14*%
X177740000Y-104200000D02*
X180400000Y-104200000D01*
X177740000Y-104140000D02*
X177740000Y-104200000D01*
X180400000Y-104140000D02*
X180400000Y-104200000D01*
X177740000Y-104140000D02*
X180400000Y-104140000D01*
X177740000Y-102870000D02*
X177740000Y-101540000D01*
X177740000Y-101540000D02*
X179070000Y-101540000D01*
%TO.C,J15*%
X172780000Y-68520000D02*
X172780000Y-69850000D01*
X171450000Y-68520000D02*
X172780000Y-68520000D01*
X170180000Y-68520000D02*
X170180000Y-71180000D01*
X170180000Y-71180000D02*
X159960000Y-71180000D01*
X170180000Y-68520000D02*
X159960000Y-68520000D01*
X159960000Y-68520000D02*
X159960000Y-71180000D01*
%TO.C,J16*%
X159960000Y-126940000D02*
X159960000Y-129600000D01*
X170180000Y-126940000D02*
X159960000Y-126940000D01*
X170180000Y-129600000D02*
X159960000Y-129600000D01*
X170180000Y-126940000D02*
X170180000Y-129600000D01*
X171450000Y-126940000D02*
X172780000Y-126940000D01*
X172780000Y-126940000D02*
X172780000Y-128270000D01*
%TO.C,J17*%
X159960000Y-60900000D02*
X159960000Y-63560000D01*
X170180000Y-60900000D02*
X159960000Y-60900000D01*
X170180000Y-63560000D02*
X159960000Y-63560000D01*
X170180000Y-60900000D02*
X170180000Y-63560000D01*
X171450000Y-60900000D02*
X172780000Y-60900000D01*
X172780000Y-60900000D02*
X172780000Y-62230000D01*
%TO.C,J18*%
X174010000Y-138350000D02*
X174010000Y-132380000D01*
X174010000Y-132380000D02*
X158890000Y-132380000D01*
X158890000Y-132380000D02*
X158890000Y-138350000D01*
X158890000Y-138350000D02*
X174010000Y-138350000D01*
X170700000Y-138340000D02*
X170700000Y-137590000D01*
X170700000Y-137590000D02*
X162200000Y-137590000D01*
X162200000Y-137590000D02*
X162200000Y-138340000D01*
X162200000Y-138340000D02*
X170700000Y-138340000D01*
X174000000Y-138340000D02*
X174000000Y-137590000D01*
X174000000Y-137590000D02*
X172200000Y-137590000D01*
X172200000Y-137590000D02*
X172200000Y-138340000D01*
X172200000Y-138340000D02*
X174000000Y-138340000D01*
X160700000Y-138340000D02*
X160700000Y-137590000D01*
X160700000Y-137590000D02*
X158900000Y-137590000D01*
X158900000Y-137590000D02*
X158900000Y-138340000D01*
X158900000Y-138340000D02*
X160700000Y-138340000D01*
X174000000Y-136090000D02*
X173250000Y-136090000D01*
X173250000Y-136090000D02*
X173250000Y-133140000D01*
X173250000Y-133140000D02*
X166450000Y-133140000D01*
X158900000Y-136090000D02*
X159650000Y-136090000D01*
X159650000Y-136090000D02*
X159650000Y-133140000D01*
X159650000Y-133140000D02*
X166450000Y-133140000D01*
X173050000Y-138640000D02*
X174300000Y-138640000D01*
X174300000Y-138640000D02*
X174300000Y-137390000D01*
%TO.C,J12*%
D13*
X179530476Y-55332380D02*
X179530476Y-56046666D01*
X179482857Y-56189523D01*
X179387619Y-56284761D01*
X179244761Y-56332380D01*
X179149523Y-56332380D01*
X180530476Y-56332380D02*
X179959047Y-56332380D01*
X180244761Y-56332380D02*
X180244761Y-55332380D01*
X180149523Y-55475238D01*
X180054285Y-55570476D01*
X179959047Y-55618095D01*
X180911428Y-55427619D02*
X180959047Y-55380000D01*
X181054285Y-55332380D01*
X181292380Y-55332380D01*
X181387619Y-55380000D01*
X181435238Y-55427619D01*
X181482857Y-55522857D01*
X181482857Y-55618095D01*
X181435238Y-55760952D01*
X180863809Y-56332380D01*
X181482857Y-56332380D01*
%TO.C,J11*%
X189690476Y-55332380D02*
X189690476Y-56046666D01*
X189642857Y-56189523D01*
X189547619Y-56284761D01*
X189404761Y-56332380D01*
X189309523Y-56332380D01*
X190690476Y-56332380D02*
X190119047Y-56332380D01*
X190404761Y-56332380D02*
X190404761Y-55332380D01*
X190309523Y-55475238D01*
X190214285Y-55570476D01*
X190119047Y-55618095D01*
X191642857Y-56332380D02*
X191071428Y-56332380D01*
X191357142Y-56332380D02*
X191357142Y-55332380D01*
X191261904Y-55475238D01*
X191166666Y-55570476D01*
X191071428Y-55618095D01*
%TO.C,J9*%
X233346666Y-55332380D02*
X233346666Y-56046666D01*
X233299047Y-56189523D01*
X233203809Y-56284761D01*
X233060952Y-56332380D01*
X232965714Y-56332380D01*
X233870476Y-56332380D02*
X234060952Y-56332380D01*
X234156190Y-56284761D01*
X234203809Y-56237142D01*
X234299047Y-56094285D01*
X234346666Y-55903809D01*
X234346666Y-55522857D01*
X234299047Y-55427619D01*
X234251428Y-55380000D01*
X234156190Y-55332380D01*
X233965714Y-55332380D01*
X233870476Y-55380000D01*
X233822857Y-55427619D01*
X233775238Y-55522857D01*
X233775238Y-55760952D01*
X233822857Y-55856190D01*
X233870476Y-55903809D01*
X233965714Y-55951428D01*
X234156190Y-55951428D01*
X234251428Y-55903809D01*
X234299047Y-55856190D01*
X234346666Y-55760952D01*
%TO.C,J10*%
X222710476Y-55332380D02*
X222710476Y-56046666D01*
X222662857Y-56189523D01*
X222567619Y-56284761D01*
X222424761Y-56332380D01*
X222329523Y-56332380D01*
X223710476Y-56332380D02*
X223139047Y-56332380D01*
X223424761Y-56332380D02*
X223424761Y-55332380D01*
X223329523Y-55475238D01*
X223234285Y-55570476D01*
X223139047Y-55618095D01*
X224329523Y-55332380D02*
X224424761Y-55332380D01*
X224520000Y-55380000D01*
X224567619Y-55427619D01*
X224615238Y-55522857D01*
X224662857Y-55713333D01*
X224662857Y-55951428D01*
X224615238Y-56141904D01*
X224567619Y-56237142D01*
X224520000Y-56284761D01*
X224424761Y-56332380D01*
X224329523Y-56332380D01*
X224234285Y-56284761D01*
X224186666Y-56237142D01*
X224139047Y-56141904D01*
X224091428Y-55951428D01*
X224091428Y-55713333D01*
X224139047Y-55522857D01*
X224186666Y-55427619D01*
X224234285Y-55380000D01*
X224329523Y-55332380D01*
%TO.C,Q12*%
X226758571Y-115657619D02*
X226663333Y-115610000D01*
X226568095Y-115514761D01*
X226425238Y-115371904D01*
X226330000Y-115324285D01*
X226234761Y-115324285D01*
X226282380Y-115562380D02*
X226187142Y-115514761D01*
X226091904Y-115419523D01*
X226044285Y-115229047D01*
X226044285Y-114895714D01*
X226091904Y-114705238D01*
X226187142Y-114610000D01*
X226282380Y-114562380D01*
X226472857Y-114562380D01*
X226568095Y-114610000D01*
X226663333Y-114705238D01*
X226710952Y-114895714D01*
X226710952Y-115229047D01*
X226663333Y-115419523D01*
X226568095Y-115514761D01*
X226472857Y-115562380D01*
X226282380Y-115562380D01*
X227663333Y-115562380D02*
X227091904Y-115562380D01*
X227377619Y-115562380D02*
X227377619Y-114562380D01*
X227282380Y-114705238D01*
X227187142Y-114800476D01*
X227091904Y-114848095D01*
X228044285Y-114657619D02*
X228091904Y-114610000D01*
X228187142Y-114562380D01*
X228425238Y-114562380D01*
X228520476Y-114610000D01*
X228568095Y-114657619D01*
X228615714Y-114752857D01*
X228615714Y-114848095D01*
X228568095Y-114990952D01*
X227996666Y-115562380D01*
X228615714Y-115562380D01*
%TO.C,Q14*%
X201358571Y-138517619D02*
X201263333Y-138470000D01*
X201168095Y-138374761D01*
X201025238Y-138231904D01*
X200930000Y-138184285D01*
X200834761Y-138184285D01*
X200882380Y-138422380D02*
X200787142Y-138374761D01*
X200691904Y-138279523D01*
X200644285Y-138089047D01*
X200644285Y-137755714D01*
X200691904Y-137565238D01*
X200787142Y-137470000D01*
X200882380Y-137422380D01*
X201072857Y-137422380D01*
X201168095Y-137470000D01*
X201263333Y-137565238D01*
X201310952Y-137755714D01*
X201310952Y-138089047D01*
X201263333Y-138279523D01*
X201168095Y-138374761D01*
X201072857Y-138422380D01*
X200882380Y-138422380D01*
X202263333Y-138422380D02*
X201691904Y-138422380D01*
X201977619Y-138422380D02*
X201977619Y-137422380D01*
X201882380Y-137565238D01*
X201787142Y-137660476D01*
X201691904Y-137708095D01*
X203120476Y-137755714D02*
X203120476Y-138422380D01*
X202882380Y-137374761D02*
X202644285Y-138089047D01*
X203263333Y-138089047D01*
%TO.C,Q13*%
X188658571Y-138517619D02*
X188563333Y-138470000D01*
X188468095Y-138374761D01*
X188325238Y-138231904D01*
X188230000Y-138184285D01*
X188134761Y-138184285D01*
X188182380Y-138422380D02*
X188087142Y-138374761D01*
X187991904Y-138279523D01*
X187944285Y-138089047D01*
X187944285Y-137755714D01*
X187991904Y-137565238D01*
X188087142Y-137470000D01*
X188182380Y-137422380D01*
X188372857Y-137422380D01*
X188468095Y-137470000D01*
X188563333Y-137565238D01*
X188610952Y-137755714D01*
X188610952Y-138089047D01*
X188563333Y-138279523D01*
X188468095Y-138374761D01*
X188372857Y-138422380D01*
X188182380Y-138422380D01*
X189563333Y-138422380D02*
X188991904Y-138422380D01*
X189277619Y-138422380D02*
X189277619Y-137422380D01*
X189182380Y-137565238D01*
X189087142Y-137660476D01*
X188991904Y-137708095D01*
X189896666Y-137422380D02*
X190515714Y-137422380D01*
X190182380Y-137803333D01*
X190325238Y-137803333D01*
X190420476Y-137850952D01*
X190468095Y-137898571D01*
X190515714Y-137993809D01*
X190515714Y-138231904D01*
X190468095Y-138327142D01*
X190420476Y-138374761D01*
X190325238Y-138422380D01*
X190039523Y-138422380D01*
X189944285Y-138374761D01*
X189896666Y-138327142D01*
%TO.C,Q15*%
X214058571Y-138517619D02*
X213963333Y-138470000D01*
X213868095Y-138374761D01*
X213725238Y-138231904D01*
X213630000Y-138184285D01*
X213534761Y-138184285D01*
X213582380Y-138422380D02*
X213487142Y-138374761D01*
X213391904Y-138279523D01*
X213344285Y-138089047D01*
X213344285Y-137755714D01*
X213391904Y-137565238D01*
X213487142Y-137470000D01*
X213582380Y-137422380D01*
X213772857Y-137422380D01*
X213868095Y-137470000D01*
X213963333Y-137565238D01*
X214010952Y-137755714D01*
X214010952Y-138089047D01*
X213963333Y-138279523D01*
X213868095Y-138374761D01*
X213772857Y-138422380D01*
X213582380Y-138422380D01*
X214963333Y-138422380D02*
X214391904Y-138422380D01*
X214677619Y-138422380D02*
X214677619Y-137422380D01*
X214582380Y-137565238D01*
X214487142Y-137660476D01*
X214391904Y-137708095D01*
X215868095Y-137422380D02*
X215391904Y-137422380D01*
X215344285Y-137898571D01*
X215391904Y-137850952D01*
X215487142Y-137803333D01*
X215725238Y-137803333D01*
X215820476Y-137850952D01*
X215868095Y-137898571D01*
X215915714Y-137993809D01*
X215915714Y-138231904D01*
X215868095Y-138327142D01*
X215820476Y-138374761D01*
X215725238Y-138422380D01*
X215487142Y-138422380D01*
X215391904Y-138374761D01*
X215344285Y-138327142D01*
%TO.C,Q16*%
X226758571Y-138517619D02*
X226663333Y-138470000D01*
X226568095Y-138374761D01*
X226425238Y-138231904D01*
X226330000Y-138184285D01*
X226234761Y-138184285D01*
X226282380Y-138422380D02*
X226187142Y-138374761D01*
X226091904Y-138279523D01*
X226044285Y-138089047D01*
X226044285Y-137755714D01*
X226091904Y-137565238D01*
X226187142Y-137470000D01*
X226282380Y-137422380D01*
X226472857Y-137422380D01*
X226568095Y-137470000D01*
X226663333Y-137565238D01*
X226710952Y-137755714D01*
X226710952Y-138089047D01*
X226663333Y-138279523D01*
X226568095Y-138374761D01*
X226472857Y-138422380D01*
X226282380Y-138422380D01*
X227663333Y-138422380D02*
X227091904Y-138422380D01*
X227377619Y-138422380D02*
X227377619Y-137422380D01*
X227282380Y-137565238D01*
X227187142Y-137660476D01*
X227091904Y-137708095D01*
X228520476Y-137422380D02*
X228330000Y-137422380D01*
X228234761Y-137470000D01*
X228187142Y-137517619D01*
X228091904Y-137660476D01*
X228044285Y-137850952D01*
X228044285Y-138231904D01*
X228091904Y-138327142D01*
X228139523Y-138374761D01*
X228234761Y-138422380D01*
X228425238Y-138422380D01*
X228520476Y-138374761D01*
X228568095Y-138327142D01*
X228615714Y-138231904D01*
X228615714Y-137993809D01*
X228568095Y-137898571D01*
X228520476Y-137850952D01*
X228425238Y-137803333D01*
X228234761Y-137803333D01*
X228139523Y-137850952D01*
X228091904Y-137898571D01*
X228044285Y-137993809D01*
%TO.C,Q7*%
X214534761Y-92797619D02*
X214439523Y-92750000D01*
X214344285Y-92654761D01*
X214201428Y-92511904D01*
X214106190Y-92464285D01*
X214010952Y-92464285D01*
X214058571Y-92702380D02*
X213963333Y-92654761D01*
X213868095Y-92559523D01*
X213820476Y-92369047D01*
X213820476Y-92035714D01*
X213868095Y-91845238D01*
X213963333Y-91750000D01*
X214058571Y-91702380D01*
X214249047Y-91702380D01*
X214344285Y-91750000D01*
X214439523Y-91845238D01*
X214487142Y-92035714D01*
X214487142Y-92369047D01*
X214439523Y-92559523D01*
X214344285Y-92654761D01*
X214249047Y-92702380D01*
X214058571Y-92702380D01*
X214820476Y-91702380D02*
X215487142Y-91702380D01*
X215058571Y-92702380D01*
%TO.C,Q9*%
X189134761Y-115657619D02*
X189039523Y-115610000D01*
X188944285Y-115514761D01*
X188801428Y-115371904D01*
X188706190Y-115324285D01*
X188610952Y-115324285D01*
X188658571Y-115562380D02*
X188563333Y-115514761D01*
X188468095Y-115419523D01*
X188420476Y-115229047D01*
X188420476Y-114895714D01*
X188468095Y-114705238D01*
X188563333Y-114610000D01*
X188658571Y-114562380D01*
X188849047Y-114562380D01*
X188944285Y-114610000D01*
X189039523Y-114705238D01*
X189087142Y-114895714D01*
X189087142Y-115229047D01*
X189039523Y-115419523D01*
X188944285Y-115514761D01*
X188849047Y-115562380D01*
X188658571Y-115562380D01*
X189563333Y-115562380D02*
X189753809Y-115562380D01*
X189849047Y-115514761D01*
X189896666Y-115467142D01*
X189991904Y-115324285D01*
X190039523Y-115133809D01*
X190039523Y-114752857D01*
X189991904Y-114657619D01*
X189944285Y-114610000D01*
X189849047Y-114562380D01*
X189658571Y-114562380D01*
X189563333Y-114610000D01*
X189515714Y-114657619D01*
X189468095Y-114752857D01*
X189468095Y-114990952D01*
X189515714Y-115086190D01*
X189563333Y-115133809D01*
X189658571Y-115181428D01*
X189849047Y-115181428D01*
X189944285Y-115133809D01*
X189991904Y-115086190D01*
X190039523Y-114990952D01*
%TO.C,Q8*%
X227234761Y-92797619D02*
X227139523Y-92750000D01*
X227044285Y-92654761D01*
X226901428Y-92511904D01*
X226806190Y-92464285D01*
X226710952Y-92464285D01*
X226758571Y-92702380D02*
X226663333Y-92654761D01*
X226568095Y-92559523D01*
X226520476Y-92369047D01*
X226520476Y-92035714D01*
X226568095Y-91845238D01*
X226663333Y-91750000D01*
X226758571Y-91702380D01*
X226949047Y-91702380D01*
X227044285Y-91750000D01*
X227139523Y-91845238D01*
X227187142Y-92035714D01*
X227187142Y-92369047D01*
X227139523Y-92559523D01*
X227044285Y-92654761D01*
X226949047Y-92702380D01*
X226758571Y-92702380D01*
X227758571Y-92130952D02*
X227663333Y-92083333D01*
X227615714Y-92035714D01*
X227568095Y-91940476D01*
X227568095Y-91892857D01*
X227615714Y-91797619D01*
X227663333Y-91750000D01*
X227758571Y-91702380D01*
X227949047Y-91702380D01*
X228044285Y-91750000D01*
X228091904Y-91797619D01*
X228139523Y-91892857D01*
X228139523Y-91940476D01*
X228091904Y-92035714D01*
X228044285Y-92083333D01*
X227949047Y-92130952D01*
X227758571Y-92130952D01*
X227663333Y-92178571D01*
X227615714Y-92226190D01*
X227568095Y-92321428D01*
X227568095Y-92511904D01*
X227615714Y-92607142D01*
X227663333Y-92654761D01*
X227758571Y-92702380D01*
X227949047Y-92702380D01*
X228044285Y-92654761D01*
X228091904Y-92607142D01*
X228139523Y-92511904D01*
X228139523Y-92321428D01*
X228091904Y-92226190D01*
X228044285Y-92178571D01*
X227949047Y-92130952D01*
%TO.C,Q1*%
X189134761Y-69937619D02*
X189039523Y-69890000D01*
X188944285Y-69794761D01*
X188801428Y-69651904D01*
X188706190Y-69604285D01*
X188610952Y-69604285D01*
X188658571Y-69842380D02*
X188563333Y-69794761D01*
X188468095Y-69699523D01*
X188420476Y-69509047D01*
X188420476Y-69175714D01*
X188468095Y-68985238D01*
X188563333Y-68890000D01*
X188658571Y-68842380D01*
X188849047Y-68842380D01*
X188944285Y-68890000D01*
X189039523Y-68985238D01*
X189087142Y-69175714D01*
X189087142Y-69509047D01*
X189039523Y-69699523D01*
X188944285Y-69794761D01*
X188849047Y-69842380D01*
X188658571Y-69842380D01*
X190039523Y-69842380D02*
X189468095Y-69842380D01*
X189753809Y-69842380D02*
X189753809Y-68842380D01*
X189658571Y-68985238D01*
X189563333Y-69080476D01*
X189468095Y-69128095D01*
%TO.C,Q5*%
X189134761Y-92797619D02*
X189039523Y-92750000D01*
X188944285Y-92654761D01*
X188801428Y-92511904D01*
X188706190Y-92464285D01*
X188610952Y-92464285D01*
X188658571Y-92702380D02*
X188563333Y-92654761D01*
X188468095Y-92559523D01*
X188420476Y-92369047D01*
X188420476Y-92035714D01*
X188468095Y-91845238D01*
X188563333Y-91750000D01*
X188658571Y-91702380D01*
X188849047Y-91702380D01*
X188944285Y-91750000D01*
X189039523Y-91845238D01*
X189087142Y-92035714D01*
X189087142Y-92369047D01*
X189039523Y-92559523D01*
X188944285Y-92654761D01*
X188849047Y-92702380D01*
X188658571Y-92702380D01*
X189991904Y-91702380D02*
X189515714Y-91702380D01*
X189468095Y-92178571D01*
X189515714Y-92130952D01*
X189610952Y-92083333D01*
X189849047Y-92083333D01*
X189944285Y-92130952D01*
X189991904Y-92178571D01*
X190039523Y-92273809D01*
X190039523Y-92511904D01*
X189991904Y-92607142D01*
X189944285Y-92654761D01*
X189849047Y-92702380D01*
X189610952Y-92702380D01*
X189515714Y-92654761D01*
X189468095Y-92607142D01*
%TO.C,Q11*%
X214058571Y-115657619D02*
X213963333Y-115610000D01*
X213868095Y-115514761D01*
X213725238Y-115371904D01*
X213630000Y-115324285D01*
X213534761Y-115324285D01*
X213582380Y-115562380D02*
X213487142Y-115514761D01*
X213391904Y-115419523D01*
X213344285Y-115229047D01*
X213344285Y-114895714D01*
X213391904Y-114705238D01*
X213487142Y-114610000D01*
X213582380Y-114562380D01*
X213772857Y-114562380D01*
X213868095Y-114610000D01*
X213963333Y-114705238D01*
X214010952Y-114895714D01*
X214010952Y-115229047D01*
X213963333Y-115419523D01*
X213868095Y-115514761D01*
X213772857Y-115562380D01*
X213582380Y-115562380D01*
X214963333Y-115562380D02*
X214391904Y-115562380D01*
X214677619Y-115562380D02*
X214677619Y-114562380D01*
X214582380Y-114705238D01*
X214487142Y-114800476D01*
X214391904Y-114848095D01*
X215915714Y-115562380D02*
X215344285Y-115562380D01*
X215630000Y-115562380D02*
X215630000Y-114562380D01*
X215534761Y-114705238D01*
X215439523Y-114800476D01*
X215344285Y-114848095D01*
%TO.C,Q4*%
X227234761Y-69937619D02*
X227139523Y-69890000D01*
X227044285Y-69794761D01*
X226901428Y-69651904D01*
X226806190Y-69604285D01*
X226710952Y-69604285D01*
X226758571Y-69842380D02*
X226663333Y-69794761D01*
X226568095Y-69699523D01*
X226520476Y-69509047D01*
X226520476Y-69175714D01*
X226568095Y-68985238D01*
X226663333Y-68890000D01*
X226758571Y-68842380D01*
X226949047Y-68842380D01*
X227044285Y-68890000D01*
X227139523Y-68985238D01*
X227187142Y-69175714D01*
X227187142Y-69509047D01*
X227139523Y-69699523D01*
X227044285Y-69794761D01*
X226949047Y-69842380D01*
X226758571Y-69842380D01*
X228044285Y-69175714D02*
X228044285Y-69842380D01*
X227806190Y-68794761D02*
X227568095Y-69509047D01*
X228187142Y-69509047D01*
%TO.C,Q2*%
X201834761Y-69937619D02*
X201739523Y-69890000D01*
X201644285Y-69794761D01*
X201501428Y-69651904D01*
X201406190Y-69604285D01*
X201310952Y-69604285D01*
X201358571Y-69842380D02*
X201263333Y-69794761D01*
X201168095Y-69699523D01*
X201120476Y-69509047D01*
X201120476Y-69175714D01*
X201168095Y-68985238D01*
X201263333Y-68890000D01*
X201358571Y-68842380D01*
X201549047Y-68842380D01*
X201644285Y-68890000D01*
X201739523Y-68985238D01*
X201787142Y-69175714D01*
X201787142Y-69509047D01*
X201739523Y-69699523D01*
X201644285Y-69794761D01*
X201549047Y-69842380D01*
X201358571Y-69842380D01*
X202168095Y-68937619D02*
X202215714Y-68890000D01*
X202310952Y-68842380D01*
X202549047Y-68842380D01*
X202644285Y-68890000D01*
X202691904Y-68937619D01*
X202739523Y-69032857D01*
X202739523Y-69128095D01*
X202691904Y-69270952D01*
X202120476Y-69842380D01*
X202739523Y-69842380D01*
%TO.C,Q10*%
X201358571Y-115657619D02*
X201263333Y-115610000D01*
X201168095Y-115514761D01*
X201025238Y-115371904D01*
X200930000Y-115324285D01*
X200834761Y-115324285D01*
X200882380Y-115562380D02*
X200787142Y-115514761D01*
X200691904Y-115419523D01*
X200644285Y-115229047D01*
X200644285Y-114895714D01*
X200691904Y-114705238D01*
X200787142Y-114610000D01*
X200882380Y-114562380D01*
X201072857Y-114562380D01*
X201168095Y-114610000D01*
X201263333Y-114705238D01*
X201310952Y-114895714D01*
X201310952Y-115229047D01*
X201263333Y-115419523D01*
X201168095Y-115514761D01*
X201072857Y-115562380D01*
X200882380Y-115562380D01*
X202263333Y-115562380D02*
X201691904Y-115562380D01*
X201977619Y-115562380D02*
X201977619Y-114562380D01*
X201882380Y-114705238D01*
X201787142Y-114800476D01*
X201691904Y-114848095D01*
X202882380Y-114562380D02*
X202977619Y-114562380D01*
X203072857Y-114610000D01*
X203120476Y-114657619D01*
X203168095Y-114752857D01*
X203215714Y-114943333D01*
X203215714Y-115181428D01*
X203168095Y-115371904D01*
X203120476Y-115467142D01*
X203072857Y-115514761D01*
X202977619Y-115562380D01*
X202882380Y-115562380D01*
X202787142Y-115514761D01*
X202739523Y-115467142D01*
X202691904Y-115371904D01*
X202644285Y-115181428D01*
X202644285Y-114943333D01*
X202691904Y-114752857D01*
X202739523Y-114657619D01*
X202787142Y-114610000D01*
X202882380Y-114562380D01*
%TO.C,Q3*%
X214534761Y-69937619D02*
X214439523Y-69890000D01*
X214344285Y-69794761D01*
X214201428Y-69651904D01*
X214106190Y-69604285D01*
X214010952Y-69604285D01*
X214058571Y-69842380D02*
X213963333Y-69794761D01*
X213868095Y-69699523D01*
X213820476Y-69509047D01*
X213820476Y-69175714D01*
X213868095Y-68985238D01*
X213963333Y-68890000D01*
X214058571Y-68842380D01*
X214249047Y-68842380D01*
X214344285Y-68890000D01*
X214439523Y-68985238D01*
X214487142Y-69175714D01*
X214487142Y-69509047D01*
X214439523Y-69699523D01*
X214344285Y-69794761D01*
X214249047Y-69842380D01*
X214058571Y-69842380D01*
X214820476Y-68842380D02*
X215439523Y-68842380D01*
X215106190Y-69223333D01*
X215249047Y-69223333D01*
X215344285Y-69270952D01*
X215391904Y-69318571D01*
X215439523Y-69413809D01*
X215439523Y-69651904D01*
X215391904Y-69747142D01*
X215344285Y-69794761D01*
X215249047Y-69842380D01*
X214963333Y-69842380D01*
X214868095Y-69794761D01*
X214820476Y-69747142D01*
%TO.C,Q6*%
X201834761Y-92797619D02*
X201739523Y-92750000D01*
X201644285Y-92654761D01*
X201501428Y-92511904D01*
X201406190Y-92464285D01*
X201310952Y-92464285D01*
X201358571Y-92702380D02*
X201263333Y-92654761D01*
X201168095Y-92559523D01*
X201120476Y-92369047D01*
X201120476Y-92035714D01*
X201168095Y-91845238D01*
X201263333Y-91750000D01*
X201358571Y-91702380D01*
X201549047Y-91702380D01*
X201644285Y-91750000D01*
X201739523Y-91845238D01*
X201787142Y-92035714D01*
X201787142Y-92369047D01*
X201739523Y-92559523D01*
X201644285Y-92654761D01*
X201549047Y-92702380D01*
X201358571Y-92702380D01*
X202644285Y-91702380D02*
X202453809Y-91702380D01*
X202358571Y-91750000D01*
X202310952Y-91797619D01*
X202215714Y-91940476D01*
X202168095Y-92130952D01*
X202168095Y-92511904D01*
X202215714Y-92607142D01*
X202263333Y-92654761D01*
X202358571Y-92702380D01*
X202549047Y-92702380D01*
X202644285Y-92654761D01*
X202691904Y-92607142D01*
X202739523Y-92511904D01*
X202739523Y-92273809D01*
X202691904Y-92178571D01*
X202644285Y-92130952D01*
X202549047Y-92083333D01*
X202358571Y-92083333D01*
X202263333Y-92130952D01*
X202215714Y-92178571D01*
X202168095Y-92273809D01*
%TO.C,J1*%
X245652380Y-64133333D02*
X246366666Y-64133333D01*
X246509523Y-64180952D01*
X246604761Y-64276190D01*
X246652380Y-64419047D01*
X246652380Y-64514285D01*
X246652380Y-63133333D02*
X246652380Y-63704761D01*
X246652380Y-63419047D02*
X245652380Y-63419047D01*
X245795238Y-63514285D01*
X245890476Y-63609523D01*
X245938095Y-63704761D01*
%TO.C,J2*%
X245652380Y-86993333D02*
X246366666Y-86993333D01*
X246509523Y-87040952D01*
X246604761Y-87136190D01*
X246652380Y-87279047D01*
X246652380Y-87374285D01*
X245747619Y-86564761D02*
X245700000Y-86517142D01*
X245652380Y-86421904D01*
X245652380Y-86183809D01*
X245700000Y-86088571D01*
X245747619Y-86040952D01*
X245842857Y-85993333D01*
X245938095Y-85993333D01*
X246080952Y-86040952D01*
X246652380Y-86612380D01*
X246652380Y-85993333D01*
%TO.C,J3*%
X245652380Y-109853333D02*
X246366666Y-109853333D01*
X246509523Y-109900952D01*
X246604761Y-109996190D01*
X246652380Y-110139047D01*
X246652380Y-110234285D01*
X245652380Y-109472380D02*
X245652380Y-108853333D01*
X246033333Y-109186666D01*
X246033333Y-109043809D01*
X246080952Y-108948571D01*
X246128571Y-108900952D01*
X246223809Y-108853333D01*
X246461904Y-108853333D01*
X246557142Y-108900952D01*
X246604761Y-108948571D01*
X246652380Y-109043809D01*
X246652380Y-109329523D01*
X246604761Y-109424761D01*
X246557142Y-109472380D01*
%TO.C,J4*%
X245652380Y-132713333D02*
X246366666Y-132713333D01*
X246509523Y-132760952D01*
X246604761Y-132856190D01*
X246652380Y-132999047D01*
X246652380Y-133094285D01*
X245985714Y-131808571D02*
X246652380Y-131808571D01*
X245604761Y-132046666D02*
X246319047Y-132284761D01*
X246319047Y-131665714D01*
%TO.C,J5*%
X173656666Y-84332380D02*
X173656666Y-85046666D01*
X173609047Y-85189523D01*
X173513809Y-85284761D01*
X173370952Y-85332380D01*
X173275714Y-85332380D01*
X174609047Y-84332380D02*
X174132857Y-84332380D01*
X174085238Y-84808571D01*
X174132857Y-84760952D01*
X174228095Y-84713333D01*
X174466190Y-84713333D01*
X174561428Y-84760952D01*
X174609047Y-84808571D01*
X174656666Y-84903809D01*
X174656666Y-85141904D01*
X174609047Y-85237142D01*
X174561428Y-85284761D01*
X174466190Y-85332380D01*
X174228095Y-85332380D01*
X174132857Y-85284761D01*
X174085238Y-85237142D01*
%TO.C,J6*%
X173656666Y-97032380D02*
X173656666Y-97746666D01*
X173609047Y-97889523D01*
X173513809Y-97984761D01*
X173370952Y-98032380D01*
X173275714Y-98032380D01*
X174561428Y-97032380D02*
X174370952Y-97032380D01*
X174275714Y-97080000D01*
X174228095Y-97127619D01*
X174132857Y-97270476D01*
X174085238Y-97460952D01*
X174085238Y-97841904D01*
X174132857Y-97937142D01*
X174180476Y-97984761D01*
X174275714Y-98032380D01*
X174466190Y-98032380D01*
X174561428Y-97984761D01*
X174609047Y-97937142D01*
X174656666Y-97841904D01*
X174656666Y-97603809D01*
X174609047Y-97508571D01*
X174561428Y-97460952D01*
X174466190Y-97413333D01*
X174275714Y-97413333D01*
X174180476Y-97460952D01*
X174132857Y-97508571D01*
X174085238Y-97603809D01*
%TO.C,J7*%
X173656666Y-112272380D02*
X173656666Y-112986666D01*
X173609047Y-113129523D01*
X173513809Y-113224761D01*
X173370952Y-113272380D01*
X173275714Y-113272380D01*
X174037619Y-112272380D02*
X174704285Y-112272380D01*
X174275714Y-113272380D01*
%TO.C,J8*%
X173656666Y-124972380D02*
X173656666Y-125686666D01*
X173609047Y-125829523D01*
X173513809Y-125924761D01*
X173370952Y-125972380D01*
X173275714Y-125972380D01*
X174275714Y-125400952D02*
X174180476Y-125353333D01*
X174132857Y-125305714D01*
X174085238Y-125210476D01*
X174085238Y-125162857D01*
X174132857Y-125067619D01*
X174180476Y-125020000D01*
X174275714Y-124972380D01*
X174466190Y-124972380D01*
X174561428Y-125020000D01*
X174609047Y-125067619D01*
X174656666Y-125162857D01*
X174656666Y-125210476D01*
X174609047Y-125305714D01*
X174561428Y-125353333D01*
X174466190Y-125400952D01*
X174275714Y-125400952D01*
X174180476Y-125448571D01*
X174132857Y-125496190D01*
X174085238Y-125591428D01*
X174085238Y-125781904D01*
X174132857Y-125877142D01*
X174180476Y-125924761D01*
X174275714Y-125972380D01*
X174466190Y-125972380D01*
X174561428Y-125924761D01*
X174609047Y-125877142D01*
X174656666Y-125781904D01*
X174656666Y-125591428D01*
X174609047Y-125496190D01*
X174561428Y-125448571D01*
X174466190Y-125400952D01*
%TO.C,J13*%
X178260476Y-92372380D02*
X178260476Y-93086666D01*
X178212857Y-93229523D01*
X178117619Y-93324761D01*
X177974761Y-93372380D01*
X177879523Y-93372380D01*
X179260476Y-93372380D02*
X178689047Y-93372380D01*
X178974761Y-93372380D02*
X178974761Y-92372380D01*
X178879523Y-92515238D01*
X178784285Y-92610476D01*
X178689047Y-92658095D01*
X179593809Y-92372380D02*
X180212857Y-92372380D01*
X179879523Y-92753333D01*
X180022380Y-92753333D01*
X180117619Y-92800952D01*
X180165238Y-92848571D01*
X180212857Y-92943809D01*
X180212857Y-93181904D01*
X180165238Y-93277142D01*
X180117619Y-93324761D01*
X180022380Y-93372380D01*
X179736666Y-93372380D01*
X179641428Y-93324761D01*
X179593809Y-93277142D01*
%TO.C,J14*%
X178260476Y-99992380D02*
X178260476Y-100706666D01*
X178212857Y-100849523D01*
X178117619Y-100944761D01*
X177974761Y-100992380D01*
X177879523Y-100992380D01*
X179260476Y-100992380D02*
X178689047Y-100992380D01*
X178974761Y-100992380D02*
X178974761Y-99992380D01*
X178879523Y-100135238D01*
X178784285Y-100230476D01*
X178689047Y-100278095D01*
X180117619Y-100325714D02*
X180117619Y-100992380D01*
X179879523Y-99944761D02*
X179641428Y-100659047D01*
X180260476Y-100659047D01*
%TO.C,J15*%
X173232380Y-70659523D02*
X173946666Y-70659523D01*
X174089523Y-70707142D01*
X174184761Y-70802380D01*
X174232380Y-70945238D01*
X174232380Y-71040476D01*
X174232380Y-69659523D02*
X174232380Y-70230952D01*
X174232380Y-69945238D02*
X173232380Y-69945238D01*
X173375238Y-70040476D01*
X173470476Y-70135714D01*
X173518095Y-70230952D01*
X173232380Y-68754761D02*
X173232380Y-69230952D01*
X173708571Y-69278571D01*
X173660952Y-69230952D01*
X173613333Y-69135714D01*
X173613333Y-68897619D01*
X173660952Y-68802380D01*
X173708571Y-68754761D01*
X173803809Y-68707142D01*
X174041904Y-68707142D01*
X174137142Y-68754761D01*
X174184761Y-68802380D01*
X174232380Y-68897619D01*
X174232380Y-69135714D01*
X174184761Y-69230952D01*
X174137142Y-69278571D01*
%TO.C,J16*%
X173232380Y-129079523D02*
X173946666Y-129079523D01*
X174089523Y-129127142D01*
X174184761Y-129222380D01*
X174232380Y-129365238D01*
X174232380Y-129460476D01*
X174232380Y-128079523D02*
X174232380Y-128650952D01*
X174232380Y-128365238D02*
X173232380Y-128365238D01*
X173375238Y-128460476D01*
X173470476Y-128555714D01*
X173518095Y-128650952D01*
X173232380Y-127222380D02*
X173232380Y-127412857D01*
X173280000Y-127508095D01*
X173327619Y-127555714D01*
X173470476Y-127650952D01*
X173660952Y-127698571D01*
X174041904Y-127698571D01*
X174137142Y-127650952D01*
X174184761Y-127603333D01*
X174232380Y-127508095D01*
X174232380Y-127317619D01*
X174184761Y-127222380D01*
X174137142Y-127174761D01*
X174041904Y-127127142D01*
X173803809Y-127127142D01*
X173708571Y-127174761D01*
X173660952Y-127222380D01*
X173613333Y-127317619D01*
X173613333Y-127508095D01*
X173660952Y-127603333D01*
X173708571Y-127650952D01*
X173803809Y-127698571D01*
%TO.C,J17*%
X173232380Y-63039523D02*
X173946666Y-63039523D01*
X174089523Y-63087142D01*
X174184761Y-63182380D01*
X174232380Y-63325238D01*
X174232380Y-63420476D01*
X174232380Y-62039523D02*
X174232380Y-62610952D01*
X174232380Y-62325238D02*
X173232380Y-62325238D01*
X173375238Y-62420476D01*
X173470476Y-62515714D01*
X173518095Y-62610952D01*
X173232380Y-61706190D02*
X173232380Y-61039523D01*
X174232380Y-61468095D01*
%TO.C,J18*%
X165640476Y-138892380D02*
X165640476Y-139606666D01*
X165592857Y-139749523D01*
X165497619Y-139844761D01*
X165354761Y-139892380D01*
X165259523Y-139892380D01*
X166640476Y-139892380D02*
X166069047Y-139892380D01*
X166354761Y-139892380D02*
X166354761Y-138892380D01*
X166259523Y-139035238D01*
X166164285Y-139130476D01*
X166069047Y-139178095D01*
X167211904Y-139320952D02*
X167116666Y-139273333D01*
X167069047Y-139225714D01*
X167021428Y-139130476D01*
X167021428Y-139082857D01*
X167069047Y-138987619D01*
X167116666Y-138940000D01*
X167211904Y-138892380D01*
X167402380Y-138892380D01*
X167497619Y-138940000D01*
X167545238Y-138987619D01*
X167592857Y-139082857D01*
X167592857Y-139130476D01*
X167545238Y-139225714D01*
X167497619Y-139273333D01*
X167402380Y-139320952D01*
X167211904Y-139320952D01*
X167116666Y-139368571D01*
X167069047Y-139416190D01*
X167021428Y-139511428D01*
X167021428Y-139701904D01*
X167069047Y-139797142D01*
X167116666Y-139844761D01*
X167211904Y-139892380D01*
X167402380Y-139892380D01*
X167497619Y-139844761D01*
X167545238Y-139797142D01*
X167592857Y-139701904D01*
X167592857Y-139511428D01*
X167545238Y-139416190D01*
X167497619Y-139368571D01*
X167402380Y-139320952D01*
%TD*%
M02*
