%TF.GenerationSoftware,KiCad,Pcbnew,(5.0.1)-3*%
%TF.CreationDate,2018-11-11T20:09:42+02:00*%
%TF.ProjectId,Fet-levy,4665742D6C6576792E6B696361645F70,rev?*%
%TF.SameCoordinates,Original*%
%TF.FileFunction,Soldermask,Bot*%
%TF.FilePolarity,Negative*%
%FSLAX46Y46*%
G04 Gerber Fmt 4.6, Leading zero omitted, Abs format (unit mm)*
G04 Created by KiCad (PCBNEW (5.0.1)-3) date 11.11.2018 20.09.42*
%MOMM*%
%LPD*%
G01*
G04 APERTURE LIST*
%ADD10C,0.100000*%
G04 APERTURE END LIST*
D10*
G36*
X204666719Y-141203520D02*
X204855880Y-141260901D01*
X205030212Y-141354083D01*
X205183015Y-141479485D01*
X205308417Y-141632288D01*
X205401599Y-141806619D01*
X205458980Y-141995780D01*
X205473500Y-142143206D01*
X205473500Y-142336793D01*
X205458980Y-142484219D01*
X205401599Y-142673380D01*
X205308417Y-142847712D01*
X205183015Y-143000515D01*
X205030212Y-143125917D01*
X204855881Y-143219099D01*
X204666720Y-143276480D01*
X204470000Y-143295855D01*
X204273281Y-143276480D01*
X204084120Y-143219099D01*
X203909788Y-143125917D01*
X203756985Y-143000515D01*
X203631583Y-142847712D01*
X203538401Y-142673381D01*
X203481020Y-142484220D01*
X203466500Y-142336794D01*
X203466500Y-142143207D01*
X203481020Y-141995781D01*
X203538401Y-141806620D01*
X203631583Y-141632288D01*
X203756985Y-141479485D01*
X203909788Y-141354083D01*
X204084119Y-141260901D01*
X204273280Y-141203520D01*
X204470000Y-141184145D01*
X204666719Y-141203520D01*
X204666719Y-141203520D01*
G37*
G36*
X191966719Y-141203520D02*
X192155880Y-141260901D01*
X192330212Y-141354083D01*
X192483015Y-141479485D01*
X192608417Y-141632288D01*
X192701599Y-141806619D01*
X192758980Y-141995780D01*
X192773500Y-142143206D01*
X192773500Y-142336793D01*
X192758980Y-142484219D01*
X192701599Y-142673380D01*
X192608417Y-142847712D01*
X192483015Y-143000515D01*
X192330212Y-143125917D01*
X192155881Y-143219099D01*
X191966720Y-143276480D01*
X191770000Y-143295855D01*
X191573281Y-143276480D01*
X191384120Y-143219099D01*
X191209788Y-143125917D01*
X191056985Y-143000515D01*
X190931583Y-142847712D01*
X190838401Y-142673381D01*
X190781020Y-142484220D01*
X190766500Y-142336794D01*
X190766500Y-142143207D01*
X190781020Y-141995781D01*
X190838401Y-141806620D01*
X190931583Y-141632288D01*
X191056985Y-141479485D01*
X191209788Y-141354083D01*
X191384119Y-141260901D01*
X191573280Y-141203520D01*
X191770000Y-141184145D01*
X191966719Y-141203520D01*
X191966719Y-141203520D01*
G37*
G36*
X227526719Y-141203520D02*
X227715880Y-141260901D01*
X227890212Y-141354083D01*
X228043015Y-141479485D01*
X228168417Y-141632288D01*
X228261599Y-141806619D01*
X228318980Y-141995780D01*
X228333500Y-142143206D01*
X228333500Y-142336793D01*
X228318980Y-142484219D01*
X228261599Y-142673380D01*
X228168417Y-142847712D01*
X228043015Y-143000515D01*
X227890212Y-143125917D01*
X227715881Y-143219099D01*
X227526720Y-143276480D01*
X227330000Y-143295855D01*
X227133281Y-143276480D01*
X226944120Y-143219099D01*
X226769788Y-143125917D01*
X226616985Y-143000515D01*
X226491583Y-142847712D01*
X226398401Y-142673381D01*
X226341020Y-142484220D01*
X226326500Y-142336794D01*
X226326500Y-142143207D01*
X226341020Y-141995781D01*
X226398401Y-141806620D01*
X226491583Y-141632288D01*
X226616985Y-141479485D01*
X226769788Y-141354083D01*
X226944119Y-141260901D01*
X227133280Y-141203520D01*
X227330000Y-141184145D01*
X227526719Y-141203520D01*
X227526719Y-141203520D01*
G37*
G36*
X230066719Y-141203520D02*
X230255880Y-141260901D01*
X230430212Y-141354083D01*
X230583015Y-141479485D01*
X230708417Y-141632288D01*
X230801599Y-141806619D01*
X230858980Y-141995780D01*
X230873500Y-142143206D01*
X230873500Y-142336793D01*
X230858980Y-142484219D01*
X230801599Y-142673380D01*
X230708417Y-142847712D01*
X230583015Y-143000515D01*
X230430212Y-143125917D01*
X230255881Y-143219099D01*
X230066720Y-143276480D01*
X229870000Y-143295855D01*
X229673281Y-143276480D01*
X229484120Y-143219099D01*
X229309788Y-143125917D01*
X229156985Y-143000515D01*
X229031583Y-142847712D01*
X228938401Y-142673381D01*
X228881020Y-142484220D01*
X228866500Y-142336794D01*
X228866500Y-142143207D01*
X228881020Y-141995781D01*
X228938401Y-141806620D01*
X229031583Y-141632288D01*
X229156985Y-141479485D01*
X229309788Y-141354083D01*
X229484119Y-141260901D01*
X229673280Y-141203520D01*
X229870000Y-141184145D01*
X230066719Y-141203520D01*
X230066719Y-141203520D01*
G37*
G36*
X217366719Y-141203520D02*
X217555880Y-141260901D01*
X217730212Y-141354083D01*
X217883015Y-141479485D01*
X218008417Y-141632288D01*
X218101599Y-141806619D01*
X218158980Y-141995780D01*
X218173500Y-142143206D01*
X218173500Y-142336793D01*
X218158980Y-142484219D01*
X218101599Y-142673380D01*
X218008417Y-142847712D01*
X217883015Y-143000515D01*
X217730212Y-143125917D01*
X217555881Y-143219099D01*
X217366720Y-143276480D01*
X217170000Y-143295855D01*
X216973281Y-143276480D01*
X216784120Y-143219099D01*
X216609788Y-143125917D01*
X216456985Y-143000515D01*
X216331583Y-142847712D01*
X216238401Y-142673381D01*
X216181020Y-142484220D01*
X216166500Y-142336794D01*
X216166500Y-142143207D01*
X216181020Y-141995781D01*
X216238401Y-141806620D01*
X216331583Y-141632288D01*
X216456985Y-141479485D01*
X216609788Y-141354083D01*
X216784119Y-141260901D01*
X216973280Y-141203520D01*
X217170000Y-141184145D01*
X217366719Y-141203520D01*
X217366719Y-141203520D01*
G37*
G36*
X189426719Y-141203520D02*
X189615880Y-141260901D01*
X189790212Y-141354083D01*
X189943015Y-141479485D01*
X190068417Y-141632288D01*
X190161599Y-141806619D01*
X190218980Y-141995780D01*
X190233500Y-142143206D01*
X190233500Y-142336793D01*
X190218980Y-142484219D01*
X190161599Y-142673380D01*
X190068417Y-142847712D01*
X189943015Y-143000515D01*
X189790212Y-143125917D01*
X189615881Y-143219099D01*
X189426720Y-143276480D01*
X189230000Y-143295855D01*
X189033281Y-143276480D01*
X188844120Y-143219099D01*
X188669788Y-143125917D01*
X188516985Y-143000515D01*
X188391583Y-142847712D01*
X188298401Y-142673381D01*
X188241020Y-142484220D01*
X188226500Y-142336794D01*
X188226500Y-142143207D01*
X188241020Y-141995781D01*
X188298401Y-141806620D01*
X188391583Y-141632288D01*
X188516985Y-141479485D01*
X188669788Y-141354083D01*
X188844119Y-141260901D01*
X189033280Y-141203520D01*
X189230000Y-141184145D01*
X189426719Y-141203520D01*
X189426719Y-141203520D01*
G37*
G36*
X202126719Y-141203520D02*
X202315880Y-141260901D01*
X202490212Y-141354083D01*
X202643015Y-141479485D01*
X202768417Y-141632288D01*
X202861599Y-141806619D01*
X202918980Y-141995780D01*
X202933500Y-142143206D01*
X202933500Y-142336793D01*
X202918980Y-142484219D01*
X202861599Y-142673380D01*
X202768417Y-142847712D01*
X202643015Y-143000515D01*
X202490212Y-143125917D01*
X202315881Y-143219099D01*
X202126720Y-143276480D01*
X201930000Y-143295855D01*
X201733281Y-143276480D01*
X201544120Y-143219099D01*
X201369788Y-143125917D01*
X201216985Y-143000515D01*
X201091583Y-142847712D01*
X200998401Y-142673381D01*
X200941020Y-142484220D01*
X200926500Y-142336794D01*
X200926500Y-142143207D01*
X200941020Y-141995781D01*
X200998401Y-141806620D01*
X201091583Y-141632288D01*
X201216985Y-141479485D01*
X201369788Y-141354083D01*
X201544119Y-141260901D01*
X201733280Y-141203520D01*
X201930000Y-141184145D01*
X202126719Y-141203520D01*
X202126719Y-141203520D01*
G37*
G36*
X214826719Y-141203520D02*
X215015880Y-141260901D01*
X215190212Y-141354083D01*
X215343015Y-141479485D01*
X215468417Y-141632288D01*
X215561599Y-141806619D01*
X215618980Y-141995780D01*
X215633500Y-142143206D01*
X215633500Y-142336793D01*
X215618980Y-142484219D01*
X215561599Y-142673380D01*
X215468417Y-142847712D01*
X215343015Y-143000515D01*
X215190212Y-143125917D01*
X215015881Y-143219099D01*
X214826720Y-143276480D01*
X214630000Y-143295855D01*
X214433281Y-143276480D01*
X214244120Y-143219099D01*
X214069788Y-143125917D01*
X213916985Y-143000515D01*
X213791583Y-142847712D01*
X213698401Y-142673381D01*
X213641020Y-142484220D01*
X213626500Y-142336794D01*
X213626500Y-142143207D01*
X213641020Y-141995781D01*
X213698401Y-141806620D01*
X213791583Y-141632288D01*
X213916985Y-141479485D01*
X214069788Y-141354083D01*
X214244119Y-141260901D01*
X214433280Y-141203520D01*
X214630000Y-141184145D01*
X214826719Y-141203520D01*
X214826719Y-141203520D01*
G37*
G36*
X187693500Y-143291000D02*
X185686500Y-143291000D01*
X185686500Y-141189000D01*
X187693500Y-141189000D01*
X187693500Y-143291000D01*
X187693500Y-143291000D01*
G37*
G36*
X200393500Y-143291000D02*
X198386500Y-143291000D01*
X198386500Y-141189000D01*
X200393500Y-141189000D01*
X200393500Y-143291000D01*
X200393500Y-143291000D01*
G37*
G36*
X213093500Y-143291000D02*
X211086500Y-143291000D01*
X211086500Y-141189000D01*
X213093500Y-141189000D01*
X213093500Y-143291000D01*
X213093500Y-143291000D01*
G37*
G36*
X225793500Y-143291000D02*
X223786500Y-143291000D01*
X223786500Y-141189000D01*
X225793500Y-141189000D01*
X225793500Y-143291000D01*
X225793500Y-143291000D01*
G37*
G36*
X241618433Y-138934893D02*
X241708657Y-138952839D01*
X241814267Y-138996585D01*
X241963621Y-139058449D01*
X242193089Y-139211774D01*
X242388226Y-139406911D01*
X242541551Y-139636379D01*
X242647161Y-139891344D01*
X242701000Y-140162012D01*
X242701000Y-140437988D01*
X242647161Y-140708656D01*
X242541551Y-140963621D01*
X242388226Y-141193089D01*
X242193089Y-141388226D01*
X241963621Y-141541551D01*
X241814267Y-141603415D01*
X241708657Y-141647161D01*
X241618433Y-141665107D01*
X241437988Y-141701000D01*
X241162012Y-141701000D01*
X240981567Y-141665107D01*
X240891343Y-141647161D01*
X240785733Y-141603415D01*
X240636379Y-141541551D01*
X240406911Y-141388226D01*
X240211774Y-141193089D01*
X240058449Y-140963621D01*
X239952839Y-140708656D01*
X239899000Y-140437988D01*
X239899000Y-140162012D01*
X239952839Y-139891344D01*
X240058449Y-139636379D01*
X240211774Y-139406911D01*
X240406911Y-139211774D01*
X240636379Y-139058449D01*
X240785733Y-138996585D01*
X240891343Y-138952839D01*
X240981567Y-138934893D01*
X241162012Y-138899000D01*
X241437988Y-138899000D01*
X241618433Y-138934893D01*
X241618433Y-138934893D01*
G37*
G36*
X241610683Y-134973351D02*
X241708657Y-134992839D01*
X241755451Y-135012222D01*
X241963621Y-135098449D01*
X242193089Y-135251774D01*
X242388226Y-135446911D01*
X242541551Y-135676379D01*
X242647161Y-135931344D01*
X242698934Y-136191624D01*
X242701000Y-136202014D01*
X242701000Y-136477986D01*
X242647161Y-136748657D01*
X242623140Y-136806649D01*
X242541551Y-137003621D01*
X242388226Y-137233089D01*
X242193089Y-137428226D01*
X241963621Y-137581551D01*
X241814267Y-137643415D01*
X241708657Y-137687161D01*
X241618433Y-137705107D01*
X241437988Y-137741000D01*
X241162012Y-137741000D01*
X240981567Y-137705107D01*
X240891343Y-137687161D01*
X240785733Y-137643415D01*
X240636379Y-137581551D01*
X240406911Y-137428226D01*
X240211774Y-137233089D01*
X240058449Y-137003621D01*
X239976860Y-136806649D01*
X239952839Y-136748657D01*
X239899000Y-136477986D01*
X239899000Y-136202014D01*
X239901067Y-136191624D01*
X239952839Y-135931344D01*
X240058449Y-135676379D01*
X240211774Y-135446911D01*
X240406911Y-135251774D01*
X240636379Y-135098449D01*
X240844549Y-135012222D01*
X240891343Y-134992839D01*
X240989317Y-134973351D01*
X241162012Y-134939000D01*
X241437988Y-134939000D01*
X241610683Y-134973351D01*
X241610683Y-134973351D01*
G37*
G36*
X161626627Y-134877037D02*
X161739853Y-134911384D01*
X161796467Y-134928557D01*
X161916728Y-134992839D01*
X161952991Y-135012222D01*
X161988729Y-135041552D01*
X162090186Y-135124814D01*
X162173448Y-135226271D01*
X162202778Y-135262009D01*
X162286443Y-135418534D01*
X162337963Y-135588374D01*
X162337963Y-135588376D01*
X162346631Y-135676378D01*
X162351000Y-135720743D01*
X162351000Y-136059258D01*
X162337963Y-136191627D01*
X162334812Y-136202014D01*
X162286443Y-136361467D01*
X162224161Y-136477986D01*
X162202778Y-136517991D01*
X162173448Y-136553729D01*
X162090186Y-136655186D01*
X161952989Y-136767779D01*
X161796466Y-136851443D01*
X161755733Y-136863799D01*
X161626626Y-136902963D01*
X161450000Y-136920359D01*
X161273373Y-136902963D01*
X161144266Y-136863799D01*
X161103533Y-136851443D01*
X160947011Y-136767779D01*
X160947009Y-136767778D01*
X160904749Y-136733096D01*
X160809814Y-136655186D01*
X160697221Y-136517989D01*
X160613557Y-136361466D01*
X160596384Y-136304852D01*
X160562037Y-136191626D01*
X160549000Y-136059257D01*
X160549000Y-135720742D01*
X160562037Y-135588373D01*
X160613557Y-135418534D01*
X160613557Y-135418533D01*
X160697222Y-135262008D01*
X160809812Y-135124817D01*
X160904750Y-135046904D01*
X160947010Y-135012222D01*
X160983273Y-134992839D01*
X161103534Y-134928557D01*
X161160148Y-134911384D01*
X161273374Y-134877037D01*
X161450000Y-134859641D01*
X161626627Y-134877037D01*
X161626627Y-134877037D01*
G37*
G36*
X164126627Y-134877037D02*
X164239853Y-134911384D01*
X164296467Y-134928557D01*
X164416728Y-134992839D01*
X164452991Y-135012222D01*
X164488729Y-135041552D01*
X164590186Y-135124814D01*
X164673448Y-135226271D01*
X164702778Y-135262009D01*
X164786443Y-135418534D01*
X164837963Y-135588374D01*
X164837963Y-135588376D01*
X164846631Y-135676378D01*
X164851000Y-135720743D01*
X164851000Y-136059258D01*
X164837963Y-136191627D01*
X164834812Y-136202014D01*
X164786443Y-136361467D01*
X164724161Y-136477986D01*
X164702778Y-136517991D01*
X164673448Y-136553729D01*
X164590186Y-136655186D01*
X164452989Y-136767779D01*
X164296466Y-136851443D01*
X164255733Y-136863799D01*
X164126626Y-136902963D01*
X163950000Y-136920359D01*
X163773373Y-136902963D01*
X163644266Y-136863799D01*
X163603533Y-136851443D01*
X163447011Y-136767779D01*
X163447009Y-136767778D01*
X163404749Y-136733096D01*
X163309814Y-136655186D01*
X163197221Y-136517989D01*
X163113557Y-136361466D01*
X163096384Y-136304852D01*
X163062037Y-136191626D01*
X163049000Y-136059257D01*
X163049000Y-135720742D01*
X163062037Y-135588373D01*
X163113557Y-135418534D01*
X163113557Y-135418533D01*
X163197222Y-135262008D01*
X163309812Y-135124817D01*
X163404750Y-135046904D01*
X163447010Y-135012222D01*
X163483273Y-134992839D01*
X163603534Y-134928557D01*
X163660148Y-134911384D01*
X163773374Y-134877037D01*
X163950000Y-134859641D01*
X164126627Y-134877037D01*
X164126627Y-134877037D01*
G37*
G36*
X166626627Y-134877037D02*
X166739853Y-134911384D01*
X166796467Y-134928557D01*
X166916728Y-134992839D01*
X166952991Y-135012222D01*
X166988729Y-135041552D01*
X167090186Y-135124814D01*
X167173448Y-135226271D01*
X167202778Y-135262009D01*
X167286443Y-135418534D01*
X167337963Y-135588374D01*
X167337963Y-135588376D01*
X167346631Y-135676378D01*
X167351000Y-135720743D01*
X167351000Y-136059258D01*
X167337963Y-136191627D01*
X167334812Y-136202014D01*
X167286443Y-136361467D01*
X167224161Y-136477986D01*
X167202778Y-136517991D01*
X167173448Y-136553729D01*
X167090186Y-136655186D01*
X166952989Y-136767779D01*
X166796466Y-136851443D01*
X166755733Y-136863799D01*
X166626626Y-136902963D01*
X166450000Y-136920359D01*
X166273373Y-136902963D01*
X166144266Y-136863799D01*
X166103533Y-136851443D01*
X165947011Y-136767779D01*
X165947009Y-136767778D01*
X165904749Y-136733096D01*
X165809814Y-136655186D01*
X165697221Y-136517989D01*
X165613557Y-136361466D01*
X165596384Y-136304852D01*
X165562037Y-136191626D01*
X165549000Y-136059257D01*
X165549000Y-135720742D01*
X165562037Y-135588373D01*
X165613557Y-135418534D01*
X165613557Y-135418533D01*
X165697222Y-135262008D01*
X165809812Y-135124817D01*
X165904750Y-135046904D01*
X165947010Y-135012222D01*
X165983273Y-134992839D01*
X166103534Y-134928557D01*
X166160148Y-134911384D01*
X166273374Y-134877037D01*
X166450000Y-134859641D01*
X166626627Y-134877037D01*
X166626627Y-134877037D01*
G37*
G36*
X169126627Y-134877037D02*
X169239853Y-134911384D01*
X169296467Y-134928557D01*
X169416728Y-134992839D01*
X169452991Y-135012222D01*
X169488729Y-135041552D01*
X169590186Y-135124814D01*
X169673448Y-135226271D01*
X169702778Y-135262009D01*
X169786443Y-135418534D01*
X169837963Y-135588374D01*
X169837963Y-135588376D01*
X169846631Y-135676378D01*
X169851000Y-135720743D01*
X169851000Y-136059258D01*
X169837963Y-136191627D01*
X169834812Y-136202014D01*
X169786443Y-136361467D01*
X169724161Y-136477986D01*
X169702778Y-136517991D01*
X169673448Y-136553729D01*
X169590186Y-136655186D01*
X169452989Y-136767779D01*
X169296466Y-136851443D01*
X169255733Y-136863799D01*
X169126626Y-136902963D01*
X168950000Y-136920359D01*
X168773373Y-136902963D01*
X168644266Y-136863799D01*
X168603533Y-136851443D01*
X168447011Y-136767779D01*
X168447009Y-136767778D01*
X168404749Y-136733096D01*
X168309814Y-136655186D01*
X168197221Y-136517989D01*
X168113557Y-136361466D01*
X168096384Y-136304852D01*
X168062037Y-136191626D01*
X168049000Y-136059257D01*
X168049000Y-135720742D01*
X168062037Y-135588373D01*
X168113557Y-135418534D01*
X168113557Y-135418533D01*
X168197222Y-135262008D01*
X168309812Y-135124817D01*
X168404750Y-135046904D01*
X168447010Y-135012222D01*
X168483273Y-134992839D01*
X168603534Y-134928557D01*
X168660148Y-134911384D01*
X168773374Y-134877037D01*
X168950000Y-134859641D01*
X169126627Y-134877037D01*
X169126627Y-134877037D01*
G37*
G36*
X172208600Y-134867989D02*
X172241649Y-134878014D01*
X172272106Y-134894294D01*
X172298799Y-134916201D01*
X172320706Y-134942894D01*
X172336986Y-134973351D01*
X172347011Y-135006400D01*
X172351000Y-135046904D01*
X172351000Y-136733096D01*
X172347011Y-136773600D01*
X172336986Y-136806649D01*
X172320706Y-136837106D01*
X172298799Y-136863799D01*
X172272106Y-136885706D01*
X172241649Y-136901986D01*
X172208600Y-136912011D01*
X172168096Y-136916000D01*
X170731904Y-136916000D01*
X170691400Y-136912011D01*
X170658351Y-136901986D01*
X170627894Y-136885706D01*
X170601201Y-136863799D01*
X170579294Y-136837106D01*
X170563014Y-136806649D01*
X170552989Y-136773600D01*
X170549000Y-136733096D01*
X170549000Y-135046904D01*
X170552989Y-135006400D01*
X170563014Y-134973351D01*
X170579294Y-134942894D01*
X170601201Y-134916201D01*
X170627894Y-134894294D01*
X170658351Y-134878014D01*
X170691400Y-134867989D01*
X170731904Y-134864000D01*
X172168096Y-134864000D01*
X172208600Y-134867989D01*
X172208600Y-134867989D01*
G37*
G36*
X241618433Y-131014893D02*
X241708657Y-131032839D01*
X241814267Y-131076585D01*
X241963621Y-131138449D01*
X242193089Y-131291774D01*
X242388226Y-131486911D01*
X242541551Y-131716379D01*
X242647161Y-131971344D01*
X242701000Y-132242012D01*
X242701000Y-132517988D01*
X242647161Y-132788656D01*
X242541551Y-133043621D01*
X242388226Y-133273089D01*
X242193089Y-133468226D01*
X241963621Y-133621551D01*
X241814267Y-133683415D01*
X241708657Y-133727161D01*
X241618433Y-133745107D01*
X241437988Y-133781000D01*
X241162012Y-133781000D01*
X240981567Y-133745107D01*
X240891343Y-133727161D01*
X240785733Y-133683415D01*
X240636379Y-133621551D01*
X240406911Y-133468226D01*
X240211774Y-133273089D01*
X240058449Y-133043621D01*
X239952839Y-132788656D01*
X239899000Y-132517988D01*
X239899000Y-132242012D01*
X239952839Y-131971344D01*
X240058449Y-131716379D01*
X240211774Y-131486911D01*
X240406911Y-131291774D01*
X240636379Y-131138449D01*
X240785733Y-131076585D01*
X240891343Y-131032839D01*
X240981567Y-131014893D01*
X241162012Y-130979000D01*
X241437988Y-130979000D01*
X241618433Y-131014893D01*
X241618433Y-131014893D01*
G37*
G36*
X241618433Y-127054893D02*
X241708657Y-127072839D01*
X241814267Y-127116585D01*
X241963621Y-127178449D01*
X242193089Y-127331774D01*
X242388226Y-127526911D01*
X242541551Y-127756379D01*
X242603415Y-127905733D01*
X242610789Y-127923533D01*
X242647161Y-128011344D01*
X242701000Y-128282012D01*
X242701000Y-128557988D01*
X242647161Y-128828656D01*
X242541551Y-129083621D01*
X242388226Y-129313089D01*
X242193089Y-129508226D01*
X241963621Y-129661551D01*
X241814267Y-129723415D01*
X241708657Y-129767161D01*
X241618433Y-129785107D01*
X241437988Y-129821000D01*
X241162012Y-129821000D01*
X240981567Y-129785107D01*
X240891343Y-129767161D01*
X240785733Y-129723415D01*
X240636379Y-129661551D01*
X240406911Y-129508226D01*
X240211774Y-129313089D01*
X240058449Y-129083621D01*
X239952839Y-128828656D01*
X239899000Y-128557988D01*
X239899000Y-128282012D01*
X239952839Y-128011344D01*
X239989212Y-127923533D01*
X239996585Y-127905733D01*
X240058449Y-127756379D01*
X240211774Y-127526911D01*
X240406911Y-127331774D01*
X240636379Y-127178449D01*
X240785733Y-127116585D01*
X240891343Y-127072839D01*
X240981567Y-127054893D01*
X241162012Y-127019000D01*
X241437988Y-127019000D01*
X241618433Y-127054893D01*
X241618433Y-127054893D01*
G37*
G36*
X161400442Y-127375518D02*
X161466627Y-127382037D01*
X161579853Y-127416384D01*
X161636467Y-127433557D01*
X161775087Y-127507652D01*
X161792991Y-127517222D01*
X161828729Y-127546552D01*
X161930186Y-127629814D01*
X162013448Y-127731271D01*
X162042778Y-127767009D01*
X162042779Y-127767011D01*
X162126443Y-127923533D01*
X162126443Y-127923534D01*
X162177963Y-128093373D01*
X162195359Y-128270000D01*
X162177963Y-128446627D01*
X162144183Y-128557986D01*
X162126443Y-128616467D01*
X162052348Y-128755087D01*
X162042778Y-128772991D01*
X162013448Y-128808729D01*
X161930186Y-128910186D01*
X161828729Y-128993448D01*
X161792991Y-129022778D01*
X161792989Y-129022779D01*
X161636467Y-129106443D01*
X161579853Y-129123616D01*
X161466627Y-129157963D01*
X161400442Y-129164482D01*
X161334260Y-129171000D01*
X161245740Y-129171000D01*
X161179558Y-129164482D01*
X161113373Y-129157963D01*
X161000147Y-129123616D01*
X160943533Y-129106443D01*
X160787011Y-129022779D01*
X160787009Y-129022778D01*
X160751271Y-128993448D01*
X160649814Y-128910186D01*
X160566552Y-128808729D01*
X160537222Y-128772991D01*
X160527652Y-128755087D01*
X160453557Y-128616467D01*
X160435817Y-128557986D01*
X160402037Y-128446627D01*
X160384641Y-128270000D01*
X160402037Y-128093373D01*
X160453557Y-127923534D01*
X160453557Y-127923533D01*
X160537221Y-127767011D01*
X160537222Y-127767009D01*
X160566552Y-127731271D01*
X160649814Y-127629814D01*
X160751271Y-127546552D01*
X160787009Y-127517222D01*
X160804913Y-127507652D01*
X160943533Y-127433557D01*
X161000147Y-127416384D01*
X161113373Y-127382037D01*
X161179558Y-127375518D01*
X161245740Y-127369000D01*
X161334260Y-127369000D01*
X161400442Y-127375518D01*
X161400442Y-127375518D01*
G37*
G36*
X169020442Y-127375518D02*
X169086627Y-127382037D01*
X169199853Y-127416384D01*
X169256467Y-127433557D01*
X169395087Y-127507652D01*
X169412991Y-127517222D01*
X169448729Y-127546552D01*
X169550186Y-127629814D01*
X169633448Y-127731271D01*
X169662778Y-127767009D01*
X169662779Y-127767011D01*
X169746443Y-127923533D01*
X169746443Y-127923534D01*
X169797963Y-128093373D01*
X169815359Y-128270000D01*
X169797963Y-128446627D01*
X169764183Y-128557986D01*
X169746443Y-128616467D01*
X169672348Y-128755087D01*
X169662778Y-128772991D01*
X169633448Y-128808729D01*
X169550186Y-128910186D01*
X169448729Y-128993448D01*
X169412991Y-129022778D01*
X169412989Y-129022779D01*
X169256467Y-129106443D01*
X169199853Y-129123616D01*
X169086627Y-129157963D01*
X169020442Y-129164482D01*
X168954260Y-129171000D01*
X168865740Y-129171000D01*
X168799558Y-129164482D01*
X168733373Y-129157963D01*
X168620147Y-129123616D01*
X168563533Y-129106443D01*
X168407011Y-129022779D01*
X168407009Y-129022778D01*
X168371271Y-128993448D01*
X168269814Y-128910186D01*
X168186552Y-128808729D01*
X168157222Y-128772991D01*
X168147652Y-128755087D01*
X168073557Y-128616467D01*
X168055817Y-128557986D01*
X168022037Y-128446627D01*
X168004641Y-128270000D01*
X168022037Y-128093373D01*
X168073557Y-127923534D01*
X168073557Y-127923533D01*
X168157221Y-127767011D01*
X168157222Y-127767009D01*
X168186552Y-127731271D01*
X168269814Y-127629814D01*
X168371271Y-127546552D01*
X168407009Y-127517222D01*
X168424913Y-127507652D01*
X168563533Y-127433557D01*
X168620147Y-127416384D01*
X168733373Y-127382037D01*
X168799558Y-127375518D01*
X168865740Y-127369000D01*
X168954260Y-127369000D01*
X169020442Y-127375518D01*
X169020442Y-127375518D01*
G37*
G36*
X163940442Y-127375518D02*
X164006627Y-127382037D01*
X164119853Y-127416384D01*
X164176467Y-127433557D01*
X164315087Y-127507652D01*
X164332991Y-127517222D01*
X164368729Y-127546552D01*
X164470186Y-127629814D01*
X164553448Y-127731271D01*
X164582778Y-127767009D01*
X164582779Y-127767011D01*
X164666443Y-127923533D01*
X164666443Y-127923534D01*
X164717963Y-128093373D01*
X164735359Y-128270000D01*
X164717963Y-128446627D01*
X164684183Y-128557986D01*
X164666443Y-128616467D01*
X164592348Y-128755087D01*
X164582778Y-128772991D01*
X164553448Y-128808729D01*
X164470186Y-128910186D01*
X164368729Y-128993448D01*
X164332991Y-129022778D01*
X164332989Y-129022779D01*
X164176467Y-129106443D01*
X164119853Y-129123616D01*
X164006627Y-129157963D01*
X163940442Y-129164482D01*
X163874260Y-129171000D01*
X163785740Y-129171000D01*
X163719558Y-129164482D01*
X163653373Y-129157963D01*
X163540147Y-129123616D01*
X163483533Y-129106443D01*
X163327011Y-129022779D01*
X163327009Y-129022778D01*
X163291271Y-128993448D01*
X163189814Y-128910186D01*
X163106552Y-128808729D01*
X163077222Y-128772991D01*
X163067652Y-128755087D01*
X162993557Y-128616467D01*
X162975817Y-128557986D01*
X162942037Y-128446627D01*
X162924641Y-128270000D01*
X162942037Y-128093373D01*
X162993557Y-127923534D01*
X162993557Y-127923533D01*
X163077221Y-127767011D01*
X163077222Y-127767009D01*
X163106552Y-127731271D01*
X163189814Y-127629814D01*
X163291271Y-127546552D01*
X163327009Y-127517222D01*
X163344913Y-127507652D01*
X163483533Y-127433557D01*
X163540147Y-127416384D01*
X163653373Y-127382037D01*
X163719558Y-127375518D01*
X163785740Y-127369000D01*
X163874260Y-127369000D01*
X163940442Y-127375518D01*
X163940442Y-127375518D01*
G37*
G36*
X166480442Y-127375518D02*
X166546627Y-127382037D01*
X166659853Y-127416384D01*
X166716467Y-127433557D01*
X166855087Y-127507652D01*
X166872991Y-127517222D01*
X166908729Y-127546552D01*
X167010186Y-127629814D01*
X167093448Y-127731271D01*
X167122778Y-127767009D01*
X167122779Y-127767011D01*
X167206443Y-127923533D01*
X167206443Y-127923534D01*
X167257963Y-128093373D01*
X167275359Y-128270000D01*
X167257963Y-128446627D01*
X167224183Y-128557986D01*
X167206443Y-128616467D01*
X167132348Y-128755087D01*
X167122778Y-128772991D01*
X167093448Y-128808729D01*
X167010186Y-128910186D01*
X166908729Y-128993448D01*
X166872991Y-129022778D01*
X166872989Y-129022779D01*
X166716467Y-129106443D01*
X166659853Y-129123616D01*
X166546627Y-129157963D01*
X166480442Y-129164482D01*
X166414260Y-129171000D01*
X166325740Y-129171000D01*
X166259558Y-129164482D01*
X166193373Y-129157963D01*
X166080147Y-129123616D01*
X166023533Y-129106443D01*
X165867011Y-129022779D01*
X165867009Y-129022778D01*
X165831271Y-128993448D01*
X165729814Y-128910186D01*
X165646552Y-128808729D01*
X165617222Y-128772991D01*
X165607652Y-128755087D01*
X165533557Y-128616467D01*
X165515817Y-128557986D01*
X165482037Y-128446627D01*
X165464641Y-128270000D01*
X165482037Y-128093373D01*
X165533557Y-127923534D01*
X165533557Y-127923533D01*
X165617221Y-127767011D01*
X165617222Y-127767009D01*
X165646552Y-127731271D01*
X165729814Y-127629814D01*
X165831271Y-127546552D01*
X165867009Y-127517222D01*
X165884913Y-127507652D01*
X166023533Y-127433557D01*
X166080147Y-127416384D01*
X166193373Y-127382037D01*
X166259558Y-127375518D01*
X166325740Y-127369000D01*
X166414260Y-127369000D01*
X166480442Y-127375518D01*
X166480442Y-127375518D01*
G37*
G36*
X172351000Y-129171000D02*
X170549000Y-129171000D01*
X170549000Y-127369000D01*
X172351000Y-127369000D01*
X172351000Y-129171000D01*
X172351000Y-129171000D01*
G37*
G36*
X242574032Y-123062621D02*
X242603487Y-123071556D01*
X242630624Y-123086062D01*
X242654414Y-123105586D01*
X242673938Y-123129376D01*
X242688444Y-123156513D01*
X242697379Y-123185968D01*
X242701000Y-123222733D01*
X242701000Y-125697267D01*
X242697379Y-125734032D01*
X242688444Y-125763487D01*
X242673938Y-125790624D01*
X242654414Y-125814414D01*
X242630624Y-125833938D01*
X242603487Y-125848444D01*
X242574032Y-125857379D01*
X242537267Y-125861000D01*
X240062733Y-125861000D01*
X240025968Y-125857379D01*
X239996513Y-125848444D01*
X239969376Y-125833938D01*
X239945586Y-125814414D01*
X239926062Y-125790624D01*
X239911556Y-125763487D01*
X239902621Y-125734032D01*
X239899000Y-125697267D01*
X239899000Y-123222733D01*
X239902621Y-123185968D01*
X239911556Y-123156513D01*
X239926062Y-123129376D01*
X239945586Y-123105586D01*
X239969376Y-123086062D01*
X239996513Y-123071556D01*
X240025968Y-123062621D01*
X240062733Y-123059000D01*
X242537267Y-123059000D01*
X242574032Y-123062621D01*
X242574032Y-123062621D01*
G37*
G36*
X174891000Y-124091000D02*
X173089000Y-124091000D01*
X173089000Y-122289000D01*
X174891000Y-122289000D01*
X174891000Y-124091000D01*
X174891000Y-124091000D01*
G37*
G36*
X174100442Y-119755518D02*
X174166627Y-119762037D01*
X174279853Y-119796384D01*
X174336467Y-119813557D01*
X174475087Y-119887652D01*
X174492991Y-119897222D01*
X174528729Y-119926552D01*
X174630186Y-120009814D01*
X174713448Y-120111271D01*
X174742778Y-120147009D01*
X174742779Y-120147011D01*
X174826443Y-120303533D01*
X174826443Y-120303534D01*
X174877963Y-120473373D01*
X174895359Y-120650000D01*
X174877963Y-120826627D01*
X174843616Y-120939853D01*
X174826443Y-120996467D01*
X174752348Y-121135087D01*
X174742778Y-121152991D01*
X174713448Y-121188729D01*
X174630186Y-121290186D01*
X174528729Y-121373448D01*
X174492991Y-121402778D01*
X174492989Y-121402779D01*
X174336467Y-121486443D01*
X174279853Y-121503616D01*
X174166627Y-121537963D01*
X174100443Y-121544481D01*
X174034260Y-121551000D01*
X173945740Y-121551000D01*
X173879557Y-121544481D01*
X173813373Y-121537963D01*
X173700147Y-121503616D01*
X173643533Y-121486443D01*
X173487011Y-121402779D01*
X173487009Y-121402778D01*
X173451271Y-121373448D01*
X173349814Y-121290186D01*
X173266552Y-121188729D01*
X173237222Y-121152991D01*
X173227652Y-121135087D01*
X173153557Y-120996467D01*
X173136384Y-120939853D01*
X173102037Y-120826627D01*
X173084641Y-120650000D01*
X173102037Y-120473373D01*
X173153557Y-120303534D01*
X173153557Y-120303533D01*
X173237221Y-120147011D01*
X173237222Y-120147009D01*
X173266552Y-120111271D01*
X173349814Y-120009814D01*
X173451271Y-119926552D01*
X173487009Y-119897222D01*
X173504913Y-119887652D01*
X173643533Y-119813557D01*
X173700147Y-119796384D01*
X173813373Y-119762037D01*
X173879558Y-119755518D01*
X173945740Y-119749000D01*
X174034260Y-119749000D01*
X174100442Y-119755518D01*
X174100442Y-119755518D01*
G37*
G36*
X202126719Y-118343520D02*
X202315880Y-118400901D01*
X202490212Y-118494083D01*
X202643015Y-118619485D01*
X202768417Y-118772288D01*
X202861599Y-118946619D01*
X202918980Y-119135780D01*
X202933500Y-119283206D01*
X202933500Y-119476793D01*
X202918980Y-119624219D01*
X202861599Y-119813380D01*
X202768417Y-119987712D01*
X202643015Y-120140515D01*
X202490212Y-120265917D01*
X202315881Y-120359099D01*
X202126720Y-120416480D01*
X201930000Y-120435855D01*
X201733281Y-120416480D01*
X201544120Y-120359099D01*
X201369788Y-120265917D01*
X201216985Y-120140515D01*
X201091583Y-119987712D01*
X200998401Y-119813381D01*
X200941020Y-119624220D01*
X200926500Y-119476794D01*
X200926500Y-119283207D01*
X200941020Y-119135781D01*
X200998401Y-118946620D01*
X201091583Y-118772288D01*
X201216985Y-118619485D01*
X201369788Y-118494083D01*
X201544119Y-118400901D01*
X201733280Y-118343520D01*
X201930000Y-118324145D01*
X202126719Y-118343520D01*
X202126719Y-118343520D01*
G37*
G36*
X217366719Y-118343520D02*
X217555880Y-118400901D01*
X217730212Y-118494083D01*
X217883015Y-118619485D01*
X218008417Y-118772288D01*
X218101599Y-118946619D01*
X218158980Y-119135780D01*
X218173500Y-119283206D01*
X218173500Y-119476793D01*
X218158980Y-119624219D01*
X218101599Y-119813380D01*
X218008417Y-119987712D01*
X217883015Y-120140515D01*
X217730212Y-120265917D01*
X217555881Y-120359099D01*
X217366720Y-120416480D01*
X217170000Y-120435855D01*
X216973281Y-120416480D01*
X216784120Y-120359099D01*
X216609788Y-120265917D01*
X216456985Y-120140515D01*
X216331583Y-119987712D01*
X216238401Y-119813381D01*
X216181020Y-119624220D01*
X216166500Y-119476794D01*
X216166500Y-119283207D01*
X216181020Y-119135781D01*
X216238401Y-118946620D01*
X216331583Y-118772288D01*
X216456985Y-118619485D01*
X216609788Y-118494083D01*
X216784119Y-118400901D01*
X216973280Y-118343520D01*
X217170000Y-118324145D01*
X217366719Y-118343520D01*
X217366719Y-118343520D01*
G37*
G36*
X214826719Y-118343520D02*
X215015880Y-118400901D01*
X215190212Y-118494083D01*
X215343015Y-118619485D01*
X215468417Y-118772288D01*
X215561599Y-118946619D01*
X215618980Y-119135780D01*
X215633500Y-119283206D01*
X215633500Y-119476793D01*
X215618980Y-119624219D01*
X215561599Y-119813380D01*
X215468417Y-119987712D01*
X215343015Y-120140515D01*
X215190212Y-120265917D01*
X215015881Y-120359099D01*
X214826720Y-120416480D01*
X214630000Y-120435855D01*
X214433281Y-120416480D01*
X214244120Y-120359099D01*
X214069788Y-120265917D01*
X213916985Y-120140515D01*
X213791583Y-119987712D01*
X213698401Y-119813381D01*
X213641020Y-119624220D01*
X213626500Y-119476794D01*
X213626500Y-119283207D01*
X213641020Y-119135781D01*
X213698401Y-118946620D01*
X213791583Y-118772288D01*
X213916985Y-118619485D01*
X214069788Y-118494083D01*
X214244119Y-118400901D01*
X214433280Y-118343520D01*
X214630000Y-118324145D01*
X214826719Y-118343520D01*
X214826719Y-118343520D01*
G37*
G36*
X189426719Y-118343520D02*
X189615880Y-118400901D01*
X189790212Y-118494083D01*
X189943015Y-118619485D01*
X190068417Y-118772288D01*
X190161599Y-118946619D01*
X190218980Y-119135780D01*
X190233500Y-119283206D01*
X190233500Y-119476793D01*
X190218980Y-119624219D01*
X190161599Y-119813380D01*
X190068417Y-119987712D01*
X189943015Y-120140515D01*
X189790212Y-120265917D01*
X189615881Y-120359099D01*
X189426720Y-120416480D01*
X189230000Y-120435855D01*
X189033281Y-120416480D01*
X188844120Y-120359099D01*
X188669788Y-120265917D01*
X188516985Y-120140515D01*
X188391583Y-119987712D01*
X188298401Y-119813381D01*
X188241020Y-119624220D01*
X188226500Y-119476794D01*
X188226500Y-119283207D01*
X188241020Y-119135781D01*
X188298401Y-118946620D01*
X188391583Y-118772288D01*
X188516985Y-118619485D01*
X188669788Y-118494083D01*
X188844119Y-118400901D01*
X189033280Y-118343520D01*
X189230000Y-118324145D01*
X189426719Y-118343520D01*
X189426719Y-118343520D01*
G37*
G36*
X191966719Y-118343520D02*
X192155880Y-118400901D01*
X192330212Y-118494083D01*
X192483015Y-118619485D01*
X192608417Y-118772288D01*
X192701599Y-118946619D01*
X192758980Y-119135780D01*
X192773500Y-119283206D01*
X192773500Y-119476793D01*
X192758980Y-119624219D01*
X192701599Y-119813380D01*
X192608417Y-119987712D01*
X192483015Y-120140515D01*
X192330212Y-120265917D01*
X192155881Y-120359099D01*
X191966720Y-120416480D01*
X191770000Y-120435855D01*
X191573281Y-120416480D01*
X191384120Y-120359099D01*
X191209788Y-120265917D01*
X191056985Y-120140515D01*
X190931583Y-119987712D01*
X190838401Y-119813381D01*
X190781020Y-119624220D01*
X190766500Y-119476794D01*
X190766500Y-119283207D01*
X190781020Y-119135781D01*
X190838401Y-118946620D01*
X190931583Y-118772288D01*
X191056985Y-118619485D01*
X191209788Y-118494083D01*
X191384119Y-118400901D01*
X191573280Y-118343520D01*
X191770000Y-118324145D01*
X191966719Y-118343520D01*
X191966719Y-118343520D01*
G37*
G36*
X227526719Y-118343520D02*
X227715880Y-118400901D01*
X227890212Y-118494083D01*
X228043015Y-118619485D01*
X228168417Y-118772288D01*
X228261599Y-118946619D01*
X228318980Y-119135780D01*
X228333500Y-119283206D01*
X228333500Y-119476793D01*
X228318980Y-119624219D01*
X228261599Y-119813380D01*
X228168417Y-119987712D01*
X228043015Y-120140515D01*
X227890212Y-120265917D01*
X227715881Y-120359099D01*
X227526720Y-120416480D01*
X227330000Y-120435855D01*
X227133281Y-120416480D01*
X226944120Y-120359099D01*
X226769788Y-120265917D01*
X226616985Y-120140515D01*
X226491583Y-119987712D01*
X226398401Y-119813381D01*
X226341020Y-119624220D01*
X226326500Y-119476794D01*
X226326500Y-119283207D01*
X226341020Y-119135781D01*
X226398401Y-118946620D01*
X226491583Y-118772288D01*
X226616985Y-118619485D01*
X226769788Y-118494083D01*
X226944119Y-118400901D01*
X227133280Y-118343520D01*
X227330000Y-118324145D01*
X227526719Y-118343520D01*
X227526719Y-118343520D01*
G37*
G36*
X230066719Y-118343520D02*
X230255880Y-118400901D01*
X230430212Y-118494083D01*
X230583015Y-118619485D01*
X230708417Y-118772288D01*
X230801599Y-118946619D01*
X230858980Y-119135780D01*
X230873500Y-119283206D01*
X230873500Y-119476793D01*
X230858980Y-119624219D01*
X230801599Y-119813380D01*
X230708417Y-119987712D01*
X230583015Y-120140515D01*
X230430212Y-120265917D01*
X230255881Y-120359099D01*
X230066720Y-120416480D01*
X229870000Y-120435855D01*
X229673281Y-120416480D01*
X229484120Y-120359099D01*
X229309788Y-120265917D01*
X229156985Y-120140515D01*
X229031583Y-119987712D01*
X228938401Y-119813381D01*
X228881020Y-119624220D01*
X228866500Y-119476794D01*
X228866500Y-119283207D01*
X228881020Y-119135781D01*
X228938401Y-118946620D01*
X229031583Y-118772288D01*
X229156985Y-118619485D01*
X229309788Y-118494083D01*
X229484119Y-118400901D01*
X229673280Y-118343520D01*
X229870000Y-118324145D01*
X230066719Y-118343520D01*
X230066719Y-118343520D01*
G37*
G36*
X204666719Y-118343520D02*
X204855880Y-118400901D01*
X205030212Y-118494083D01*
X205183015Y-118619485D01*
X205308417Y-118772288D01*
X205401599Y-118946619D01*
X205458980Y-119135780D01*
X205473500Y-119283206D01*
X205473500Y-119476793D01*
X205458980Y-119624219D01*
X205401599Y-119813380D01*
X205308417Y-119987712D01*
X205183015Y-120140515D01*
X205030212Y-120265917D01*
X204855881Y-120359099D01*
X204666720Y-120416480D01*
X204470000Y-120435855D01*
X204273281Y-120416480D01*
X204084120Y-120359099D01*
X203909788Y-120265917D01*
X203756985Y-120140515D01*
X203631583Y-119987712D01*
X203538401Y-119813381D01*
X203481020Y-119624220D01*
X203466500Y-119476794D01*
X203466500Y-119283207D01*
X203481020Y-119135781D01*
X203538401Y-118946620D01*
X203631583Y-118772288D01*
X203756985Y-118619485D01*
X203909788Y-118494083D01*
X204084119Y-118400901D01*
X204273280Y-118343520D01*
X204470000Y-118324145D01*
X204666719Y-118343520D01*
X204666719Y-118343520D01*
G37*
G36*
X187693500Y-120431000D02*
X185686500Y-120431000D01*
X185686500Y-118329000D01*
X187693500Y-118329000D01*
X187693500Y-120431000D01*
X187693500Y-120431000D01*
G37*
G36*
X213093500Y-120431000D02*
X211086500Y-120431000D01*
X211086500Y-118329000D01*
X213093500Y-118329000D01*
X213093500Y-120431000D01*
X213093500Y-120431000D01*
G37*
G36*
X225793500Y-120431000D02*
X223786500Y-120431000D01*
X223786500Y-118329000D01*
X225793500Y-118329000D01*
X225793500Y-120431000D01*
X225793500Y-120431000D01*
G37*
G36*
X200393500Y-120431000D02*
X198386500Y-120431000D01*
X198386500Y-118329000D01*
X200393500Y-118329000D01*
X200393500Y-120431000D01*
X200393500Y-120431000D01*
G37*
G36*
X174100443Y-117215519D02*
X174166627Y-117222037D01*
X174279853Y-117256384D01*
X174336467Y-117273557D01*
X174475087Y-117347652D01*
X174492991Y-117357222D01*
X174528729Y-117386552D01*
X174630186Y-117469814D01*
X174713448Y-117571271D01*
X174742778Y-117607009D01*
X174742779Y-117607011D01*
X174826443Y-117763533D01*
X174826443Y-117763534D01*
X174877963Y-117933373D01*
X174895359Y-118110000D01*
X174877963Y-118286627D01*
X174843616Y-118399853D01*
X174826443Y-118456467D01*
X174788086Y-118528226D01*
X174742778Y-118612991D01*
X174737448Y-118619485D01*
X174630186Y-118750186D01*
X174528729Y-118833448D01*
X174492991Y-118862778D01*
X174492989Y-118862779D01*
X174336467Y-118946443D01*
X174335883Y-118946620D01*
X174166627Y-118997963D01*
X174100443Y-119004481D01*
X174034260Y-119011000D01*
X173945740Y-119011000D01*
X173879557Y-119004481D01*
X173813373Y-118997963D01*
X173644117Y-118946620D01*
X173643533Y-118946443D01*
X173487011Y-118862779D01*
X173487009Y-118862778D01*
X173451271Y-118833448D01*
X173349814Y-118750186D01*
X173242552Y-118619485D01*
X173237222Y-118612991D01*
X173191914Y-118528226D01*
X173153557Y-118456467D01*
X173136384Y-118399853D01*
X173102037Y-118286627D01*
X173084641Y-118110000D01*
X173102037Y-117933373D01*
X173153557Y-117763534D01*
X173153557Y-117763533D01*
X173237221Y-117607011D01*
X173237222Y-117607009D01*
X173266552Y-117571271D01*
X173349814Y-117469814D01*
X173451271Y-117386552D01*
X173487009Y-117357222D01*
X173504913Y-117347652D01*
X173643533Y-117273557D01*
X173700147Y-117256384D01*
X173813373Y-117222037D01*
X173879557Y-117215519D01*
X173945740Y-117209000D01*
X174034260Y-117209000D01*
X174100443Y-117215519D01*
X174100443Y-117215519D01*
G37*
G36*
X241608863Y-116072989D02*
X241708657Y-116092839D01*
X241814267Y-116136585D01*
X241963621Y-116198449D01*
X242193089Y-116351774D01*
X242388226Y-116546911D01*
X242541551Y-116776379D01*
X242647161Y-117031344D01*
X242701000Y-117302012D01*
X242701000Y-117577988D01*
X242647161Y-117848656D01*
X242541551Y-118103621D01*
X242388226Y-118333089D01*
X242193089Y-118528226D01*
X241963621Y-118681551D01*
X241814267Y-118743415D01*
X241708657Y-118787161D01*
X241618433Y-118805107D01*
X241437988Y-118841000D01*
X241162012Y-118841000D01*
X240981567Y-118805107D01*
X240891343Y-118787161D01*
X240785733Y-118743415D01*
X240636379Y-118681551D01*
X240406911Y-118528226D01*
X240211774Y-118333089D01*
X240058449Y-118103621D01*
X239952839Y-117848656D01*
X239899000Y-117577988D01*
X239899000Y-117302012D01*
X239952839Y-117031344D01*
X240058449Y-116776379D01*
X240211774Y-116546911D01*
X240406911Y-116351774D01*
X240636379Y-116198449D01*
X240785733Y-116136585D01*
X240891343Y-116092839D01*
X240991137Y-116072989D01*
X241162012Y-116039000D01*
X241437988Y-116039000D01*
X241608863Y-116072989D01*
X241608863Y-116072989D01*
G37*
G36*
X174100443Y-114675519D02*
X174166627Y-114682037D01*
X174279853Y-114716384D01*
X174336467Y-114733557D01*
X174475087Y-114807652D01*
X174492991Y-114817222D01*
X174528729Y-114846552D01*
X174630186Y-114929814D01*
X174713448Y-115031271D01*
X174742778Y-115067009D01*
X174742779Y-115067011D01*
X174826443Y-115223533D01*
X174826443Y-115223534D01*
X174877963Y-115393373D01*
X174895359Y-115570000D01*
X174877963Y-115746627D01*
X174843616Y-115859853D01*
X174826443Y-115916467D01*
X174760947Y-116039000D01*
X174742778Y-116072991D01*
X174726489Y-116092839D01*
X174630186Y-116210186D01*
X174528729Y-116293448D01*
X174492991Y-116322778D01*
X174492989Y-116322779D01*
X174336467Y-116406443D01*
X174279853Y-116423616D01*
X174166627Y-116457963D01*
X174100442Y-116464482D01*
X174034260Y-116471000D01*
X173945740Y-116471000D01*
X173879558Y-116464482D01*
X173813373Y-116457963D01*
X173700147Y-116423616D01*
X173643533Y-116406443D01*
X173487011Y-116322779D01*
X173487009Y-116322778D01*
X173451271Y-116293448D01*
X173349814Y-116210186D01*
X173253511Y-116092839D01*
X173237222Y-116072991D01*
X173219053Y-116039000D01*
X173153557Y-115916467D01*
X173136384Y-115859853D01*
X173102037Y-115746627D01*
X173084641Y-115570000D01*
X173102037Y-115393373D01*
X173153557Y-115223534D01*
X173153557Y-115223533D01*
X173237221Y-115067011D01*
X173237222Y-115067009D01*
X173266552Y-115031271D01*
X173349814Y-114929814D01*
X173451271Y-114846552D01*
X173487009Y-114817222D01*
X173504913Y-114807652D01*
X173643533Y-114733557D01*
X173700147Y-114716384D01*
X173813373Y-114682037D01*
X173879557Y-114675519D01*
X173945740Y-114669000D01*
X174034260Y-114669000D01*
X174100443Y-114675519D01*
X174100443Y-114675519D01*
G37*
G36*
X241618433Y-112114893D02*
X241708657Y-112132839D01*
X241814267Y-112176585D01*
X241963621Y-112238449D01*
X242193089Y-112391774D01*
X242388226Y-112586911D01*
X242541551Y-112816379D01*
X242647161Y-113071344D01*
X242701000Y-113342012D01*
X242701000Y-113617988D01*
X242647161Y-113888656D01*
X242541551Y-114143621D01*
X242388226Y-114373089D01*
X242193089Y-114568226D01*
X241963621Y-114721551D01*
X241814267Y-114783415D01*
X241708657Y-114827161D01*
X241618433Y-114845107D01*
X241437988Y-114881000D01*
X241162012Y-114881000D01*
X240981567Y-114845107D01*
X240891343Y-114827161D01*
X240785733Y-114783415D01*
X240636379Y-114721551D01*
X240406911Y-114568226D01*
X240211774Y-114373089D01*
X240058449Y-114143621D01*
X239952839Y-113888656D01*
X239899000Y-113617988D01*
X239899000Y-113342012D01*
X239952839Y-113071344D01*
X240058449Y-112816379D01*
X240211774Y-112586911D01*
X240406911Y-112391774D01*
X240636379Y-112238449D01*
X240785733Y-112176585D01*
X240891343Y-112132839D01*
X240981567Y-112114893D01*
X241162012Y-112079000D01*
X241437988Y-112079000D01*
X241618433Y-112114893D01*
X241618433Y-112114893D01*
G37*
G36*
X174891000Y-111391000D02*
X173089000Y-111391000D01*
X173089000Y-109589000D01*
X174891000Y-109589000D01*
X174891000Y-111391000D01*
X174891000Y-111391000D01*
G37*
G36*
X241618433Y-108154893D02*
X241708657Y-108172839D01*
X241814267Y-108216585D01*
X241963621Y-108278449D01*
X242193089Y-108431774D01*
X242388226Y-108626911D01*
X242541551Y-108856379D01*
X242647161Y-109111344D01*
X242701000Y-109382012D01*
X242701000Y-109657988D01*
X242647161Y-109928656D01*
X242541551Y-110183621D01*
X242388226Y-110413089D01*
X242193089Y-110608226D01*
X241963621Y-110761551D01*
X241814267Y-110823415D01*
X241708657Y-110867161D01*
X241618433Y-110885107D01*
X241437988Y-110921000D01*
X241162012Y-110921000D01*
X240981567Y-110885107D01*
X240891343Y-110867161D01*
X240785733Y-110823415D01*
X240636379Y-110761551D01*
X240406911Y-110608226D01*
X240211774Y-110413089D01*
X240058449Y-110183621D01*
X239952839Y-109928656D01*
X239899000Y-109657988D01*
X239899000Y-109382012D01*
X239952839Y-109111344D01*
X240058449Y-108856379D01*
X240211774Y-108626911D01*
X240406911Y-108431774D01*
X240636379Y-108278449D01*
X240785733Y-108216585D01*
X240891343Y-108172839D01*
X240981567Y-108154893D01*
X241162012Y-108119000D01*
X241437988Y-108119000D01*
X241618433Y-108154893D01*
X241618433Y-108154893D01*
G37*
G36*
X174100442Y-107055518D02*
X174166627Y-107062037D01*
X174279853Y-107096384D01*
X174336467Y-107113557D01*
X174475087Y-107187652D01*
X174492991Y-107197222D01*
X174528729Y-107226552D01*
X174630186Y-107309814D01*
X174713448Y-107411271D01*
X174742778Y-107447009D01*
X174742779Y-107447011D01*
X174826443Y-107603533D01*
X174826443Y-107603534D01*
X174877963Y-107773373D01*
X174895359Y-107950000D01*
X174877963Y-108126627D01*
X174843616Y-108239853D01*
X174826443Y-108296467D01*
X174754120Y-108431772D01*
X174742778Y-108452991D01*
X174713448Y-108488729D01*
X174630186Y-108590186D01*
X174528729Y-108673448D01*
X174492991Y-108702778D01*
X174492989Y-108702779D01*
X174336467Y-108786443D01*
X174279853Y-108803616D01*
X174166627Y-108837963D01*
X174100442Y-108844482D01*
X174034260Y-108851000D01*
X173945740Y-108851000D01*
X173879558Y-108844482D01*
X173813373Y-108837963D01*
X173700147Y-108803616D01*
X173643533Y-108786443D01*
X173487011Y-108702779D01*
X173487009Y-108702778D01*
X173451271Y-108673448D01*
X173349814Y-108590186D01*
X173266552Y-108488729D01*
X173237222Y-108452991D01*
X173225880Y-108431772D01*
X173153557Y-108296467D01*
X173136384Y-108239853D01*
X173102037Y-108126627D01*
X173084641Y-107950000D01*
X173102037Y-107773373D01*
X173153557Y-107603534D01*
X173153557Y-107603533D01*
X173237221Y-107447011D01*
X173237222Y-107447009D01*
X173266552Y-107411271D01*
X173349814Y-107309814D01*
X173451271Y-107226552D01*
X173487009Y-107197222D01*
X173504913Y-107187652D01*
X173643533Y-107113557D01*
X173700147Y-107096384D01*
X173813373Y-107062037D01*
X173879558Y-107055518D01*
X173945740Y-107049000D01*
X174034260Y-107049000D01*
X174100442Y-107055518D01*
X174100442Y-107055518D01*
G37*
G36*
X241618433Y-104194893D02*
X241708657Y-104212839D01*
X241814267Y-104256585D01*
X241963621Y-104318449D01*
X242193089Y-104471774D01*
X242388226Y-104666911D01*
X242541551Y-104896379D01*
X242603415Y-105045733D01*
X242610789Y-105063533D01*
X242647161Y-105151344D01*
X242701000Y-105422012D01*
X242701000Y-105697988D01*
X242647161Y-105968656D01*
X242541551Y-106223621D01*
X242388226Y-106453089D01*
X242193089Y-106648226D01*
X241963621Y-106801551D01*
X241814267Y-106863415D01*
X241708657Y-106907161D01*
X241618433Y-106925107D01*
X241437988Y-106961000D01*
X241162012Y-106961000D01*
X240981567Y-106925107D01*
X240891343Y-106907161D01*
X240785733Y-106863415D01*
X240636379Y-106801551D01*
X240406911Y-106648226D01*
X240211774Y-106453089D01*
X240058449Y-106223621D01*
X239952839Y-105968656D01*
X239899000Y-105697988D01*
X239899000Y-105422012D01*
X239952839Y-105151344D01*
X239989212Y-105063533D01*
X239996585Y-105045733D01*
X240058449Y-104896379D01*
X240211774Y-104666911D01*
X240406911Y-104471774D01*
X240636379Y-104318449D01*
X240785733Y-104256585D01*
X240891343Y-104212839D01*
X240981567Y-104194893D01*
X241162012Y-104159000D01*
X241437988Y-104159000D01*
X241618433Y-104194893D01*
X241618433Y-104194893D01*
G37*
G36*
X174100443Y-104515519D02*
X174166627Y-104522037D01*
X174279853Y-104556384D01*
X174336467Y-104573557D01*
X174475087Y-104647652D01*
X174492991Y-104657222D01*
X174528729Y-104686552D01*
X174630186Y-104769814D01*
X174713448Y-104871271D01*
X174742778Y-104907009D01*
X174742779Y-104907011D01*
X174826443Y-105063533D01*
X174826443Y-105063534D01*
X174877963Y-105233373D01*
X174895359Y-105410000D01*
X174877963Y-105586627D01*
X174844183Y-105697986D01*
X174826443Y-105756467D01*
X174752348Y-105895087D01*
X174742778Y-105912991D01*
X174713448Y-105948729D01*
X174630186Y-106050186D01*
X174528729Y-106133448D01*
X174492991Y-106162778D01*
X174492989Y-106162779D01*
X174336467Y-106246443D01*
X174279853Y-106263616D01*
X174166627Y-106297963D01*
X174100442Y-106304482D01*
X174034260Y-106311000D01*
X173945740Y-106311000D01*
X173879558Y-106304482D01*
X173813373Y-106297963D01*
X173700147Y-106263616D01*
X173643533Y-106246443D01*
X173487011Y-106162779D01*
X173487009Y-106162778D01*
X173451271Y-106133448D01*
X173349814Y-106050186D01*
X173266552Y-105948729D01*
X173237222Y-105912991D01*
X173227652Y-105895087D01*
X173153557Y-105756467D01*
X173135817Y-105697986D01*
X173102037Y-105586627D01*
X173084641Y-105410000D01*
X173102037Y-105233373D01*
X173153557Y-105063534D01*
X173153557Y-105063533D01*
X173237221Y-104907011D01*
X173237222Y-104907009D01*
X173266552Y-104871271D01*
X173349814Y-104769814D01*
X173451271Y-104686552D01*
X173487009Y-104657222D01*
X173504913Y-104647652D01*
X173643533Y-104573557D01*
X173700147Y-104556384D01*
X173813373Y-104522037D01*
X173879557Y-104515519D01*
X173945740Y-104509000D01*
X174034260Y-104509000D01*
X174100443Y-104515519D01*
X174100443Y-104515519D01*
G37*
G36*
X179971000Y-103771000D02*
X178169000Y-103771000D01*
X178169000Y-101969000D01*
X179971000Y-101969000D01*
X179971000Y-103771000D01*
X179971000Y-103771000D01*
G37*
G36*
X174100442Y-101975518D02*
X174166627Y-101982037D01*
X174279853Y-102016384D01*
X174336467Y-102033557D01*
X174475087Y-102107652D01*
X174492991Y-102117222D01*
X174528729Y-102146552D01*
X174630186Y-102229814D01*
X174713448Y-102331271D01*
X174742778Y-102367009D01*
X174742779Y-102367011D01*
X174826443Y-102523533D01*
X174826443Y-102523534D01*
X174877963Y-102693373D01*
X174895359Y-102870000D01*
X174877963Y-103046627D01*
X174843616Y-103159853D01*
X174826443Y-103216467D01*
X174752348Y-103355087D01*
X174742778Y-103372991D01*
X174713448Y-103408729D01*
X174630186Y-103510186D01*
X174528729Y-103593448D01*
X174492991Y-103622778D01*
X174492989Y-103622779D01*
X174336467Y-103706443D01*
X174279853Y-103723616D01*
X174166627Y-103757963D01*
X174100443Y-103764481D01*
X174034260Y-103771000D01*
X173945740Y-103771000D01*
X173879557Y-103764481D01*
X173813373Y-103757963D01*
X173700147Y-103723616D01*
X173643533Y-103706443D01*
X173487011Y-103622779D01*
X173487009Y-103622778D01*
X173451271Y-103593448D01*
X173349814Y-103510186D01*
X173266552Y-103408729D01*
X173237222Y-103372991D01*
X173227652Y-103355087D01*
X173153557Y-103216467D01*
X173136384Y-103159853D01*
X173102037Y-103046627D01*
X173084641Y-102870000D01*
X173102037Y-102693373D01*
X173153557Y-102523534D01*
X173153557Y-102523533D01*
X173237221Y-102367011D01*
X173237222Y-102367009D01*
X173266552Y-102331271D01*
X173349814Y-102229814D01*
X173451271Y-102146552D01*
X173487009Y-102117222D01*
X173504913Y-102107652D01*
X173643533Y-102033557D01*
X173700147Y-102016384D01*
X173813373Y-101982037D01*
X173879558Y-101975518D01*
X173945740Y-101969000D01*
X174034260Y-101969000D01*
X174100442Y-101975518D01*
X174100442Y-101975518D01*
G37*
G36*
X242574032Y-100202621D02*
X242603487Y-100211556D01*
X242630624Y-100226062D01*
X242654414Y-100245586D01*
X242673938Y-100269376D01*
X242688444Y-100296513D01*
X242697379Y-100325968D01*
X242701000Y-100362733D01*
X242701000Y-102837267D01*
X242697379Y-102874032D01*
X242688444Y-102903487D01*
X242673938Y-102930624D01*
X242654414Y-102954414D01*
X242630624Y-102973938D01*
X242603487Y-102988444D01*
X242574032Y-102997379D01*
X242537267Y-103001000D01*
X240062733Y-103001000D01*
X240025968Y-102997379D01*
X239996513Y-102988444D01*
X239969376Y-102973938D01*
X239945586Y-102954414D01*
X239926062Y-102930624D01*
X239911556Y-102903487D01*
X239902621Y-102874032D01*
X239899000Y-102837267D01*
X239899000Y-100362733D01*
X239902621Y-100325968D01*
X239911556Y-100296513D01*
X239926062Y-100269376D01*
X239945586Y-100245586D01*
X239969376Y-100226062D01*
X239996513Y-100211556D01*
X240025968Y-100202621D01*
X240062733Y-100199000D01*
X242537267Y-100199000D01*
X242574032Y-100202621D01*
X242574032Y-100202621D01*
G37*
G36*
X227526719Y-95483520D02*
X227715880Y-95540901D01*
X227890212Y-95634083D01*
X228043015Y-95759485D01*
X228168417Y-95912288D01*
X228261599Y-96086619D01*
X228318980Y-96275780D01*
X228333500Y-96423206D01*
X228333500Y-96616793D01*
X228318980Y-96764219D01*
X228261599Y-96953380D01*
X228168417Y-97127712D01*
X228043015Y-97280515D01*
X227890212Y-97405917D01*
X227715881Y-97499099D01*
X227526720Y-97556480D01*
X227330000Y-97575855D01*
X227133281Y-97556480D01*
X226944120Y-97499099D01*
X226769788Y-97405917D01*
X226616985Y-97280515D01*
X226491583Y-97127712D01*
X226398401Y-96953381D01*
X226341020Y-96764220D01*
X226326500Y-96616794D01*
X226326500Y-96423207D01*
X226341020Y-96275781D01*
X226398401Y-96086620D01*
X226491583Y-95912288D01*
X226616985Y-95759485D01*
X226769788Y-95634083D01*
X226944119Y-95540901D01*
X227133280Y-95483520D01*
X227330000Y-95464145D01*
X227526719Y-95483520D01*
X227526719Y-95483520D01*
G37*
G36*
X202126719Y-95483520D02*
X202315880Y-95540901D01*
X202490212Y-95634083D01*
X202643015Y-95759485D01*
X202768417Y-95912288D01*
X202861599Y-96086619D01*
X202918980Y-96275780D01*
X202933500Y-96423206D01*
X202933500Y-96616793D01*
X202918980Y-96764219D01*
X202861599Y-96953380D01*
X202768417Y-97127712D01*
X202643015Y-97280515D01*
X202490212Y-97405917D01*
X202315881Y-97499099D01*
X202126720Y-97556480D01*
X201930000Y-97575855D01*
X201733281Y-97556480D01*
X201544120Y-97499099D01*
X201369788Y-97405917D01*
X201216985Y-97280515D01*
X201091583Y-97127712D01*
X200998401Y-96953381D01*
X200941020Y-96764220D01*
X200926500Y-96616794D01*
X200926500Y-96423207D01*
X200941020Y-96275781D01*
X200998401Y-96086620D01*
X201091583Y-95912288D01*
X201216985Y-95759485D01*
X201369788Y-95634083D01*
X201544119Y-95540901D01*
X201733280Y-95483520D01*
X201930000Y-95464145D01*
X202126719Y-95483520D01*
X202126719Y-95483520D01*
G37*
G36*
X230066719Y-95483520D02*
X230255880Y-95540901D01*
X230430212Y-95634083D01*
X230583015Y-95759485D01*
X230708417Y-95912288D01*
X230801599Y-96086619D01*
X230858980Y-96275780D01*
X230873500Y-96423206D01*
X230873500Y-96616793D01*
X230858980Y-96764219D01*
X230801599Y-96953380D01*
X230708417Y-97127712D01*
X230583015Y-97280515D01*
X230430212Y-97405917D01*
X230255881Y-97499099D01*
X230066720Y-97556480D01*
X229870000Y-97575855D01*
X229673281Y-97556480D01*
X229484120Y-97499099D01*
X229309788Y-97405917D01*
X229156985Y-97280515D01*
X229031583Y-97127712D01*
X228938401Y-96953381D01*
X228881020Y-96764220D01*
X228866500Y-96616794D01*
X228866500Y-96423207D01*
X228881020Y-96275781D01*
X228938401Y-96086620D01*
X229031583Y-95912288D01*
X229156985Y-95759485D01*
X229309788Y-95634083D01*
X229484119Y-95540901D01*
X229673280Y-95483520D01*
X229870000Y-95464145D01*
X230066719Y-95483520D01*
X230066719Y-95483520D01*
G37*
G36*
X204666719Y-95483520D02*
X204855880Y-95540901D01*
X205030212Y-95634083D01*
X205183015Y-95759485D01*
X205308417Y-95912288D01*
X205401599Y-96086619D01*
X205458980Y-96275780D01*
X205473500Y-96423206D01*
X205473500Y-96616793D01*
X205458980Y-96764219D01*
X205401599Y-96953380D01*
X205308417Y-97127712D01*
X205183015Y-97280515D01*
X205030212Y-97405917D01*
X204855881Y-97499099D01*
X204666720Y-97556480D01*
X204470000Y-97575855D01*
X204273281Y-97556480D01*
X204084120Y-97499099D01*
X203909788Y-97405917D01*
X203756985Y-97280515D01*
X203631583Y-97127712D01*
X203538401Y-96953381D01*
X203481020Y-96764220D01*
X203466500Y-96616794D01*
X203466500Y-96423207D01*
X203481020Y-96275781D01*
X203538401Y-96086620D01*
X203631583Y-95912288D01*
X203756985Y-95759485D01*
X203909788Y-95634083D01*
X204084119Y-95540901D01*
X204273280Y-95483520D01*
X204470000Y-95464145D01*
X204666719Y-95483520D01*
X204666719Y-95483520D01*
G37*
G36*
X189426719Y-95483520D02*
X189615880Y-95540901D01*
X189790212Y-95634083D01*
X189943015Y-95759485D01*
X190068417Y-95912288D01*
X190161599Y-96086619D01*
X190218980Y-96275780D01*
X190233500Y-96423206D01*
X190233500Y-96616793D01*
X190218980Y-96764219D01*
X190161599Y-96953380D01*
X190068417Y-97127712D01*
X189943015Y-97280515D01*
X189790212Y-97405917D01*
X189615881Y-97499099D01*
X189426720Y-97556480D01*
X189230000Y-97575855D01*
X189033281Y-97556480D01*
X188844120Y-97499099D01*
X188669788Y-97405917D01*
X188516985Y-97280515D01*
X188391583Y-97127712D01*
X188298401Y-96953381D01*
X188241020Y-96764220D01*
X188226500Y-96616794D01*
X188226500Y-96423207D01*
X188241020Y-96275781D01*
X188298401Y-96086620D01*
X188391583Y-95912288D01*
X188516985Y-95759485D01*
X188669788Y-95634083D01*
X188844119Y-95540901D01*
X189033280Y-95483520D01*
X189230000Y-95464145D01*
X189426719Y-95483520D01*
X189426719Y-95483520D01*
G37*
G36*
X191966719Y-95483520D02*
X192155880Y-95540901D01*
X192330212Y-95634083D01*
X192483015Y-95759485D01*
X192608417Y-95912288D01*
X192701599Y-96086619D01*
X192758980Y-96275780D01*
X192773500Y-96423206D01*
X192773500Y-96616793D01*
X192758980Y-96764219D01*
X192701599Y-96953380D01*
X192608417Y-97127712D01*
X192483015Y-97280515D01*
X192330212Y-97405917D01*
X192155881Y-97499099D01*
X191966720Y-97556480D01*
X191770000Y-97575855D01*
X191573281Y-97556480D01*
X191384120Y-97499099D01*
X191209788Y-97405917D01*
X191056985Y-97280515D01*
X190931583Y-97127712D01*
X190838401Y-96953381D01*
X190781020Y-96764220D01*
X190766500Y-96616794D01*
X190766500Y-96423207D01*
X190781020Y-96275781D01*
X190838401Y-96086620D01*
X190931583Y-95912288D01*
X191056985Y-95759485D01*
X191209788Y-95634083D01*
X191384119Y-95540901D01*
X191573280Y-95483520D01*
X191770000Y-95464145D01*
X191966719Y-95483520D01*
X191966719Y-95483520D01*
G37*
G36*
X214826719Y-95483520D02*
X215015880Y-95540901D01*
X215190212Y-95634083D01*
X215343015Y-95759485D01*
X215468417Y-95912288D01*
X215561599Y-96086619D01*
X215618980Y-96275780D01*
X215633500Y-96423206D01*
X215633500Y-96616793D01*
X215618980Y-96764219D01*
X215561599Y-96953380D01*
X215468417Y-97127712D01*
X215343015Y-97280515D01*
X215190212Y-97405917D01*
X215015881Y-97499099D01*
X214826720Y-97556480D01*
X214630000Y-97575855D01*
X214433281Y-97556480D01*
X214244120Y-97499099D01*
X214069788Y-97405917D01*
X213916985Y-97280515D01*
X213791583Y-97127712D01*
X213698401Y-96953381D01*
X213641020Y-96764220D01*
X213626500Y-96616794D01*
X213626500Y-96423207D01*
X213641020Y-96275781D01*
X213698401Y-96086620D01*
X213791583Y-95912288D01*
X213916985Y-95759485D01*
X214069788Y-95634083D01*
X214244119Y-95540901D01*
X214433280Y-95483520D01*
X214630000Y-95464145D01*
X214826719Y-95483520D01*
X214826719Y-95483520D01*
G37*
G36*
X217366719Y-95483520D02*
X217555880Y-95540901D01*
X217730212Y-95634083D01*
X217883015Y-95759485D01*
X218008417Y-95912288D01*
X218101599Y-96086619D01*
X218158980Y-96275780D01*
X218173500Y-96423206D01*
X218173500Y-96616793D01*
X218158980Y-96764219D01*
X218101599Y-96953380D01*
X218008417Y-97127712D01*
X217883015Y-97280515D01*
X217730212Y-97405917D01*
X217555881Y-97499099D01*
X217366720Y-97556480D01*
X217170000Y-97575855D01*
X216973281Y-97556480D01*
X216784120Y-97499099D01*
X216609788Y-97405917D01*
X216456985Y-97280515D01*
X216331583Y-97127712D01*
X216238401Y-96953381D01*
X216181020Y-96764220D01*
X216166500Y-96616794D01*
X216166500Y-96423207D01*
X216181020Y-96275781D01*
X216238401Y-96086620D01*
X216331583Y-95912288D01*
X216456985Y-95759485D01*
X216609788Y-95634083D01*
X216784119Y-95540901D01*
X216973280Y-95483520D01*
X217170000Y-95464145D01*
X217366719Y-95483520D01*
X217366719Y-95483520D01*
G37*
G36*
X225793500Y-97571000D02*
X223786500Y-97571000D01*
X223786500Y-95469000D01*
X225793500Y-95469000D01*
X225793500Y-97571000D01*
X225793500Y-97571000D01*
G37*
G36*
X187693500Y-97571000D02*
X185686500Y-97571000D01*
X185686500Y-95469000D01*
X187693500Y-95469000D01*
X187693500Y-97571000D01*
X187693500Y-97571000D01*
G37*
G36*
X200393500Y-97571000D02*
X198386500Y-97571000D01*
X198386500Y-95469000D01*
X200393500Y-95469000D01*
X200393500Y-97571000D01*
X200393500Y-97571000D01*
G37*
G36*
X213093500Y-97571000D02*
X211086500Y-97571000D01*
X211086500Y-95469000D01*
X213093500Y-95469000D01*
X213093500Y-97571000D01*
X213093500Y-97571000D01*
G37*
G36*
X179971000Y-96151000D02*
X178169000Y-96151000D01*
X178169000Y-94349000D01*
X179971000Y-94349000D01*
X179971000Y-96151000D01*
X179971000Y-96151000D01*
G37*
G36*
X174891000Y-96151000D02*
X173089000Y-96151000D01*
X173089000Y-94349000D01*
X174891000Y-94349000D01*
X174891000Y-96151000D01*
X174891000Y-96151000D01*
G37*
G36*
X241608863Y-93212989D02*
X241708657Y-93232839D01*
X241814267Y-93276585D01*
X241963621Y-93338449D01*
X242193089Y-93491774D01*
X242388226Y-93686911D01*
X242541551Y-93916379D01*
X242647161Y-94171344D01*
X242701000Y-94442012D01*
X242701000Y-94717988D01*
X242647161Y-94988656D01*
X242541551Y-95243621D01*
X242388226Y-95473089D01*
X242193089Y-95668226D01*
X241963621Y-95821551D01*
X241814267Y-95883415D01*
X241708657Y-95927161D01*
X241618433Y-95945107D01*
X241437988Y-95981000D01*
X241162012Y-95981000D01*
X240981567Y-95945107D01*
X240891343Y-95927161D01*
X240785733Y-95883415D01*
X240636379Y-95821551D01*
X240406911Y-95668226D01*
X240211774Y-95473089D01*
X240058449Y-95243621D01*
X239952839Y-94988656D01*
X239899000Y-94717988D01*
X239899000Y-94442012D01*
X239952839Y-94171344D01*
X240058449Y-93916379D01*
X240211774Y-93686911D01*
X240406911Y-93491774D01*
X240636379Y-93338449D01*
X240785733Y-93276585D01*
X240891343Y-93232839D01*
X240991137Y-93212989D01*
X241162012Y-93179000D01*
X241437988Y-93179000D01*
X241608863Y-93212989D01*
X241608863Y-93212989D01*
G37*
G36*
X174100442Y-91815518D02*
X174166627Y-91822037D01*
X174279853Y-91856384D01*
X174336467Y-91873557D01*
X174475087Y-91947652D01*
X174492991Y-91957222D01*
X174528729Y-91986552D01*
X174630186Y-92069814D01*
X174713448Y-92171271D01*
X174742778Y-92207009D01*
X174742779Y-92207011D01*
X174826443Y-92363533D01*
X174826443Y-92363534D01*
X174877963Y-92533373D01*
X174895359Y-92710000D01*
X174877963Y-92886627D01*
X174843616Y-92999853D01*
X174826443Y-93056467D01*
X174760947Y-93179000D01*
X174742778Y-93212991D01*
X174726489Y-93232839D01*
X174630186Y-93350186D01*
X174528729Y-93433448D01*
X174492991Y-93462778D01*
X174492989Y-93462779D01*
X174336467Y-93546443D01*
X174279853Y-93563616D01*
X174166627Y-93597963D01*
X174100442Y-93604482D01*
X174034260Y-93611000D01*
X173945740Y-93611000D01*
X173879557Y-93604481D01*
X173813373Y-93597963D01*
X173700147Y-93563616D01*
X173643533Y-93546443D01*
X173487011Y-93462779D01*
X173487009Y-93462778D01*
X173451271Y-93433448D01*
X173349814Y-93350186D01*
X173253511Y-93232839D01*
X173237222Y-93212991D01*
X173219053Y-93179000D01*
X173153557Y-93056467D01*
X173136384Y-92999853D01*
X173102037Y-92886627D01*
X173084641Y-92710000D01*
X173102037Y-92533373D01*
X173153557Y-92363534D01*
X173153557Y-92363533D01*
X173237221Y-92207011D01*
X173237222Y-92207009D01*
X173266552Y-92171271D01*
X173349814Y-92069814D01*
X173451271Y-91986552D01*
X173487009Y-91957222D01*
X173504913Y-91947652D01*
X173643533Y-91873557D01*
X173700147Y-91856384D01*
X173813373Y-91822037D01*
X173879558Y-91815518D01*
X173945740Y-91809000D01*
X174034260Y-91809000D01*
X174100442Y-91815518D01*
X174100442Y-91815518D01*
G37*
G36*
X241618433Y-89254893D02*
X241708657Y-89272839D01*
X241814267Y-89316585D01*
X241963621Y-89378449D01*
X242193089Y-89531774D01*
X242388226Y-89726911D01*
X242541551Y-89956379D01*
X242556874Y-89993373D01*
X242647161Y-90211343D01*
X242701000Y-90482014D01*
X242701000Y-90757986D01*
X242651580Y-91006443D01*
X242647161Y-91028656D01*
X242541551Y-91283621D01*
X242388226Y-91513089D01*
X242193089Y-91708226D01*
X241963621Y-91861551D01*
X241814267Y-91923415D01*
X241708657Y-91967161D01*
X241618433Y-91985107D01*
X241437988Y-92021000D01*
X241162012Y-92021000D01*
X240981567Y-91985107D01*
X240891343Y-91967161D01*
X240785733Y-91923415D01*
X240636379Y-91861551D01*
X240406911Y-91708226D01*
X240211774Y-91513089D01*
X240058449Y-91283621D01*
X239952839Y-91028656D01*
X239948421Y-91006443D01*
X239899000Y-90757986D01*
X239899000Y-90482014D01*
X239952839Y-90211343D01*
X240043126Y-89993373D01*
X240058449Y-89956379D01*
X240211774Y-89726911D01*
X240406911Y-89531774D01*
X240636379Y-89378449D01*
X240785733Y-89316585D01*
X240891343Y-89272839D01*
X240981567Y-89254893D01*
X241162012Y-89219000D01*
X241437988Y-89219000D01*
X241618433Y-89254893D01*
X241618433Y-89254893D01*
G37*
G36*
X174073237Y-89272839D02*
X174166627Y-89282037D01*
X174279853Y-89316384D01*
X174336467Y-89333557D01*
X174475087Y-89407652D01*
X174492991Y-89417222D01*
X174528729Y-89446552D01*
X174630186Y-89529814D01*
X174713448Y-89631271D01*
X174742778Y-89667009D01*
X174742779Y-89667011D01*
X174826443Y-89823533D01*
X174826443Y-89823534D01*
X174877963Y-89993373D01*
X174895359Y-90170000D01*
X174877963Y-90346627D01*
X174843616Y-90459853D01*
X174826443Y-90516467D01*
X174752348Y-90655087D01*
X174742778Y-90672991D01*
X174713448Y-90708729D01*
X174630186Y-90810186D01*
X174528729Y-90893448D01*
X174492991Y-90922778D01*
X174492989Y-90922779D01*
X174336467Y-91006443D01*
X174279853Y-91023616D01*
X174166627Y-91057963D01*
X174100442Y-91064482D01*
X174034260Y-91071000D01*
X173945740Y-91071000D01*
X173879558Y-91064482D01*
X173813373Y-91057963D01*
X173700147Y-91023616D01*
X173643533Y-91006443D01*
X173487011Y-90922779D01*
X173487009Y-90922778D01*
X173451271Y-90893448D01*
X173349814Y-90810186D01*
X173266552Y-90708729D01*
X173237222Y-90672991D01*
X173227652Y-90655087D01*
X173153557Y-90516467D01*
X173136384Y-90459853D01*
X173102037Y-90346627D01*
X173084641Y-90170000D01*
X173102037Y-89993373D01*
X173153557Y-89823534D01*
X173153557Y-89823533D01*
X173237221Y-89667011D01*
X173237222Y-89667009D01*
X173266552Y-89631271D01*
X173349814Y-89529814D01*
X173451271Y-89446552D01*
X173487009Y-89417222D01*
X173504913Y-89407652D01*
X173643533Y-89333557D01*
X173700147Y-89316384D01*
X173813373Y-89282037D01*
X173906763Y-89272839D01*
X173945740Y-89269000D01*
X174034260Y-89269000D01*
X174073237Y-89272839D01*
X174073237Y-89272839D01*
G37*
G36*
X174100442Y-86735518D02*
X174166627Y-86742037D01*
X174279853Y-86776384D01*
X174336467Y-86793557D01*
X174475087Y-86867652D01*
X174492991Y-86877222D01*
X174528729Y-86906552D01*
X174630186Y-86989814D01*
X174713448Y-87091271D01*
X174742778Y-87127009D01*
X174742779Y-87127011D01*
X174826443Y-87283533D01*
X174826443Y-87283534D01*
X174877963Y-87453373D01*
X174895359Y-87630000D01*
X174877963Y-87806627D01*
X174849168Y-87901550D01*
X174826443Y-87976467D01*
X174810036Y-88007161D01*
X174742778Y-88132991D01*
X174713448Y-88168729D01*
X174630186Y-88270186D01*
X174528729Y-88353448D01*
X174492991Y-88382778D01*
X174492989Y-88382779D01*
X174336467Y-88466443D01*
X174279853Y-88483616D01*
X174166627Y-88517963D01*
X174100442Y-88524482D01*
X174034260Y-88531000D01*
X173945740Y-88531000D01*
X173879558Y-88524482D01*
X173813373Y-88517963D01*
X173700147Y-88483616D01*
X173643533Y-88466443D01*
X173487011Y-88382779D01*
X173487009Y-88382778D01*
X173451271Y-88353448D01*
X173349814Y-88270186D01*
X173266552Y-88168729D01*
X173237222Y-88132991D01*
X173169964Y-88007161D01*
X173153557Y-87976467D01*
X173130832Y-87901550D01*
X173102037Y-87806627D01*
X173084641Y-87630000D01*
X173102037Y-87453373D01*
X173153557Y-87283534D01*
X173153557Y-87283533D01*
X173237221Y-87127011D01*
X173237222Y-87127009D01*
X173266552Y-87091271D01*
X173349814Y-86989814D01*
X173451271Y-86906552D01*
X173487009Y-86877222D01*
X173504913Y-86867652D01*
X173643533Y-86793557D01*
X173700147Y-86776384D01*
X173813373Y-86742037D01*
X173879558Y-86735518D01*
X173945740Y-86729000D01*
X174034260Y-86729000D01*
X174100442Y-86735518D01*
X174100442Y-86735518D01*
G37*
G36*
X241618433Y-85294893D02*
X241708657Y-85312839D01*
X241814267Y-85356585D01*
X241963621Y-85418449D01*
X242193089Y-85571774D01*
X242388226Y-85766911D01*
X242541551Y-85996379D01*
X242647161Y-86251344D01*
X242701000Y-86522012D01*
X242701000Y-86797988D01*
X242685239Y-86877222D01*
X242647161Y-87068657D01*
X242622990Y-87127011D01*
X242541551Y-87323621D01*
X242388226Y-87553089D01*
X242193089Y-87748226D01*
X241963621Y-87901551D01*
X241814267Y-87963415D01*
X241708657Y-88007161D01*
X241618433Y-88025107D01*
X241437988Y-88061000D01*
X241162012Y-88061000D01*
X240981567Y-88025107D01*
X240891343Y-88007161D01*
X240785733Y-87963415D01*
X240636379Y-87901551D01*
X240406911Y-87748226D01*
X240211774Y-87553089D01*
X240058449Y-87323621D01*
X239977010Y-87127011D01*
X239952839Y-87068657D01*
X239914761Y-86877222D01*
X239899000Y-86797988D01*
X239899000Y-86522012D01*
X239952839Y-86251344D01*
X240058449Y-85996379D01*
X240211774Y-85766911D01*
X240406911Y-85571774D01*
X240636379Y-85418449D01*
X240785733Y-85356585D01*
X240891343Y-85312839D01*
X240981567Y-85294893D01*
X241162012Y-85259000D01*
X241437988Y-85259000D01*
X241618433Y-85294893D01*
X241618433Y-85294893D01*
G37*
G36*
X241618433Y-81334893D02*
X241708657Y-81352839D01*
X241814267Y-81396585D01*
X241963621Y-81458449D01*
X242193089Y-81611774D01*
X242388226Y-81806911D01*
X242541551Y-82036379D01*
X242647161Y-82291344D01*
X242701000Y-82562012D01*
X242701000Y-82837988D01*
X242647161Y-83108656D01*
X242541551Y-83363621D01*
X242388226Y-83593089D01*
X242193089Y-83788226D01*
X241963621Y-83941551D01*
X241814267Y-84003415D01*
X241708657Y-84047161D01*
X241618433Y-84065107D01*
X241437988Y-84101000D01*
X241162012Y-84101000D01*
X240981567Y-84065107D01*
X240891343Y-84047161D01*
X240785733Y-84003415D01*
X240636379Y-83941551D01*
X240406911Y-83788226D01*
X240211774Y-83593089D01*
X240058449Y-83363621D01*
X239952839Y-83108656D01*
X239899000Y-82837988D01*
X239899000Y-82562012D01*
X239952839Y-82291344D01*
X240058449Y-82036379D01*
X240211774Y-81806911D01*
X240406911Y-81611774D01*
X240636379Y-81458449D01*
X240785733Y-81396585D01*
X240891343Y-81352839D01*
X240981567Y-81334893D01*
X241162012Y-81299000D01*
X241437988Y-81299000D01*
X241618433Y-81334893D01*
X241618433Y-81334893D01*
G37*
G36*
X174891000Y-83451000D02*
X173089000Y-83451000D01*
X173089000Y-81649000D01*
X174891000Y-81649000D01*
X174891000Y-83451000D01*
X174891000Y-83451000D01*
G37*
G36*
X174100443Y-79115519D02*
X174166627Y-79122037D01*
X174279853Y-79156384D01*
X174336467Y-79173557D01*
X174475087Y-79247652D01*
X174492991Y-79257222D01*
X174528729Y-79286552D01*
X174630186Y-79369814D01*
X174713448Y-79471271D01*
X174742778Y-79507009D01*
X174742779Y-79507011D01*
X174826443Y-79663533D01*
X174826443Y-79663534D01*
X174877963Y-79833373D01*
X174895359Y-80010000D01*
X174877963Y-80186627D01*
X174843616Y-80299853D01*
X174826443Y-80356467D01*
X174752348Y-80495087D01*
X174742778Y-80512991D01*
X174713448Y-80548729D01*
X174630186Y-80650186D01*
X174528729Y-80733448D01*
X174492991Y-80762778D01*
X174492989Y-80762779D01*
X174336467Y-80846443D01*
X174279853Y-80863616D01*
X174166627Y-80897963D01*
X174100442Y-80904482D01*
X174034260Y-80911000D01*
X173945740Y-80911000D01*
X173879558Y-80904482D01*
X173813373Y-80897963D01*
X173700147Y-80863616D01*
X173643533Y-80846443D01*
X173487011Y-80762779D01*
X173487009Y-80762778D01*
X173451271Y-80733448D01*
X173349814Y-80650186D01*
X173266552Y-80548729D01*
X173237222Y-80512991D01*
X173227652Y-80495087D01*
X173153557Y-80356467D01*
X173136384Y-80299853D01*
X173102037Y-80186627D01*
X173084641Y-80010000D01*
X173102037Y-79833373D01*
X173153557Y-79663534D01*
X173153557Y-79663533D01*
X173237221Y-79507011D01*
X173237222Y-79507009D01*
X173266552Y-79471271D01*
X173349814Y-79369814D01*
X173451271Y-79286552D01*
X173487009Y-79257222D01*
X173504913Y-79247652D01*
X173643533Y-79173557D01*
X173700147Y-79156384D01*
X173813373Y-79122037D01*
X173879557Y-79115519D01*
X173945740Y-79109000D01*
X174034260Y-79109000D01*
X174100443Y-79115519D01*
X174100443Y-79115519D01*
G37*
G36*
X242574032Y-77342621D02*
X242603487Y-77351556D01*
X242630624Y-77366062D01*
X242654414Y-77385586D01*
X242673938Y-77409376D01*
X242688444Y-77436513D01*
X242697379Y-77465968D01*
X242701000Y-77502733D01*
X242701000Y-79977267D01*
X242697379Y-80014032D01*
X242688444Y-80043487D01*
X242673938Y-80070624D01*
X242654414Y-80094414D01*
X242630624Y-80113938D01*
X242603487Y-80128444D01*
X242574032Y-80137379D01*
X242537267Y-80141000D01*
X240062733Y-80141000D01*
X240025968Y-80137379D01*
X239996513Y-80128444D01*
X239969376Y-80113938D01*
X239945586Y-80094414D01*
X239926062Y-80070624D01*
X239911556Y-80043487D01*
X239902621Y-80014032D01*
X239899000Y-79977267D01*
X239899000Y-77502733D01*
X239902621Y-77465968D01*
X239911556Y-77436513D01*
X239926062Y-77409376D01*
X239945586Y-77385586D01*
X239969376Y-77366062D01*
X239996513Y-77351556D01*
X240025968Y-77342621D01*
X240062733Y-77339000D01*
X242537267Y-77339000D01*
X242574032Y-77342621D01*
X242574032Y-77342621D01*
G37*
G36*
X174100443Y-76575519D02*
X174166627Y-76582037D01*
X174279853Y-76616384D01*
X174336467Y-76633557D01*
X174475087Y-76707652D01*
X174492991Y-76717222D01*
X174528729Y-76746552D01*
X174630186Y-76829814D01*
X174713448Y-76931271D01*
X174742778Y-76967009D01*
X174742779Y-76967011D01*
X174826443Y-77123533D01*
X174826443Y-77123534D01*
X174877963Y-77293373D01*
X174895359Y-77470000D01*
X174877963Y-77646627D01*
X174843616Y-77759853D01*
X174826443Y-77816467D01*
X174752348Y-77955087D01*
X174742778Y-77972991D01*
X174713448Y-78008729D01*
X174630186Y-78110186D01*
X174528729Y-78193448D01*
X174492991Y-78222778D01*
X174492989Y-78222779D01*
X174336467Y-78306443D01*
X174279853Y-78323616D01*
X174166627Y-78357963D01*
X174100443Y-78364481D01*
X174034260Y-78371000D01*
X173945740Y-78371000D01*
X173879557Y-78364481D01*
X173813373Y-78357963D01*
X173700147Y-78323616D01*
X173643533Y-78306443D01*
X173487011Y-78222779D01*
X173487009Y-78222778D01*
X173451271Y-78193448D01*
X173349814Y-78110186D01*
X173266552Y-78008729D01*
X173237222Y-77972991D01*
X173227652Y-77955087D01*
X173153557Y-77816467D01*
X173136384Y-77759853D01*
X173102037Y-77646627D01*
X173084641Y-77470000D01*
X173102037Y-77293373D01*
X173153557Y-77123534D01*
X173153557Y-77123533D01*
X173237221Y-76967011D01*
X173237222Y-76967009D01*
X173266552Y-76931271D01*
X173349814Y-76829814D01*
X173451271Y-76746552D01*
X173487009Y-76717222D01*
X173504913Y-76707652D01*
X173643533Y-76633557D01*
X173700147Y-76616384D01*
X173813373Y-76582037D01*
X173879557Y-76575519D01*
X173945740Y-76569000D01*
X174034260Y-76569000D01*
X174100443Y-76575519D01*
X174100443Y-76575519D01*
G37*
G36*
X174100442Y-74035518D02*
X174166627Y-74042037D01*
X174279853Y-74076384D01*
X174336467Y-74093557D01*
X174475087Y-74167652D01*
X174492991Y-74177222D01*
X174528729Y-74206552D01*
X174630186Y-74289814D01*
X174713448Y-74391271D01*
X174742778Y-74427009D01*
X174742779Y-74427011D01*
X174826443Y-74583533D01*
X174826443Y-74583534D01*
X174877963Y-74753373D01*
X174895359Y-74930000D01*
X174877963Y-75106627D01*
X174843616Y-75219853D01*
X174826443Y-75276467D01*
X174752348Y-75415087D01*
X174742778Y-75432991D01*
X174713448Y-75468729D01*
X174630186Y-75570186D01*
X174528729Y-75653448D01*
X174492991Y-75682778D01*
X174492989Y-75682779D01*
X174336467Y-75766443D01*
X174279853Y-75783616D01*
X174166627Y-75817963D01*
X174100442Y-75824482D01*
X174034260Y-75831000D01*
X173945740Y-75831000D01*
X173879558Y-75824482D01*
X173813373Y-75817963D01*
X173700147Y-75783616D01*
X173643533Y-75766443D01*
X173487011Y-75682779D01*
X173487009Y-75682778D01*
X173451271Y-75653448D01*
X173349814Y-75570186D01*
X173266552Y-75468729D01*
X173237222Y-75432991D01*
X173227652Y-75415087D01*
X173153557Y-75276467D01*
X173136384Y-75219853D01*
X173102037Y-75106627D01*
X173084641Y-74930000D01*
X173102037Y-74753373D01*
X173153557Y-74583534D01*
X173153557Y-74583533D01*
X173237221Y-74427011D01*
X173237222Y-74427009D01*
X173266552Y-74391271D01*
X173349814Y-74289814D01*
X173451271Y-74206552D01*
X173487009Y-74177222D01*
X173504913Y-74167652D01*
X173643533Y-74093557D01*
X173700147Y-74076384D01*
X173813373Y-74042037D01*
X173879558Y-74035518D01*
X173945740Y-74029000D01*
X174034260Y-74029000D01*
X174100442Y-74035518D01*
X174100442Y-74035518D01*
G37*
G36*
X217366719Y-72623520D02*
X217555880Y-72680901D01*
X217730212Y-72774083D01*
X217883015Y-72899485D01*
X218008417Y-73052288D01*
X218101599Y-73226619D01*
X218158980Y-73415780D01*
X218173500Y-73563206D01*
X218173500Y-73756793D01*
X218158980Y-73904219D01*
X218101599Y-74093380D01*
X218008417Y-74267712D01*
X217883015Y-74420515D01*
X217730212Y-74545917D01*
X217555881Y-74639099D01*
X217366720Y-74696480D01*
X217170000Y-74715855D01*
X216973281Y-74696480D01*
X216784120Y-74639099D01*
X216609788Y-74545917D01*
X216456985Y-74420515D01*
X216331583Y-74267712D01*
X216238401Y-74093381D01*
X216181020Y-73904220D01*
X216166500Y-73756794D01*
X216166500Y-73563207D01*
X216181020Y-73415781D01*
X216238401Y-73226620D01*
X216331583Y-73052288D01*
X216456985Y-72899485D01*
X216609788Y-72774083D01*
X216784119Y-72680901D01*
X216973280Y-72623520D01*
X217170000Y-72604145D01*
X217366719Y-72623520D01*
X217366719Y-72623520D01*
G37*
G36*
X214826719Y-72623520D02*
X215015880Y-72680901D01*
X215190212Y-72774083D01*
X215343015Y-72899485D01*
X215468417Y-73052288D01*
X215561599Y-73226619D01*
X215618980Y-73415780D01*
X215633500Y-73563206D01*
X215633500Y-73756793D01*
X215618980Y-73904219D01*
X215561599Y-74093380D01*
X215468417Y-74267712D01*
X215343015Y-74420515D01*
X215190212Y-74545917D01*
X215015881Y-74639099D01*
X214826720Y-74696480D01*
X214630000Y-74715855D01*
X214433281Y-74696480D01*
X214244120Y-74639099D01*
X214069788Y-74545917D01*
X213916985Y-74420515D01*
X213791583Y-74267712D01*
X213698401Y-74093381D01*
X213641020Y-73904220D01*
X213626500Y-73756794D01*
X213626500Y-73563207D01*
X213641020Y-73415781D01*
X213698401Y-73226620D01*
X213791583Y-73052288D01*
X213916985Y-72899485D01*
X214069788Y-72774083D01*
X214244119Y-72680901D01*
X214433280Y-72623520D01*
X214630000Y-72604145D01*
X214826719Y-72623520D01*
X214826719Y-72623520D01*
G37*
G36*
X230066719Y-72623520D02*
X230255880Y-72680901D01*
X230430212Y-72774083D01*
X230583015Y-72899485D01*
X230708417Y-73052288D01*
X230801599Y-73226619D01*
X230858980Y-73415780D01*
X230873500Y-73563206D01*
X230873500Y-73756793D01*
X230858980Y-73904219D01*
X230801599Y-74093380D01*
X230708417Y-74267712D01*
X230583015Y-74420515D01*
X230430212Y-74545917D01*
X230255881Y-74639099D01*
X230066720Y-74696480D01*
X229870000Y-74715855D01*
X229673281Y-74696480D01*
X229484120Y-74639099D01*
X229309788Y-74545917D01*
X229156985Y-74420515D01*
X229031583Y-74267712D01*
X228938401Y-74093381D01*
X228881020Y-73904220D01*
X228866500Y-73756794D01*
X228866500Y-73563207D01*
X228881020Y-73415781D01*
X228938401Y-73226620D01*
X229031583Y-73052288D01*
X229156985Y-72899485D01*
X229309788Y-72774083D01*
X229484119Y-72680901D01*
X229673280Y-72623520D01*
X229870000Y-72604145D01*
X230066719Y-72623520D01*
X230066719Y-72623520D01*
G37*
G36*
X204666719Y-72623520D02*
X204855880Y-72680901D01*
X205030212Y-72774083D01*
X205183015Y-72899485D01*
X205308417Y-73052288D01*
X205401599Y-73226619D01*
X205458980Y-73415780D01*
X205473500Y-73563206D01*
X205473500Y-73756793D01*
X205458980Y-73904219D01*
X205401599Y-74093380D01*
X205308417Y-74267712D01*
X205183015Y-74420515D01*
X205030212Y-74545917D01*
X204855881Y-74639099D01*
X204666720Y-74696480D01*
X204470000Y-74715855D01*
X204273281Y-74696480D01*
X204084120Y-74639099D01*
X203909788Y-74545917D01*
X203756985Y-74420515D01*
X203631583Y-74267712D01*
X203538401Y-74093381D01*
X203481020Y-73904220D01*
X203466500Y-73756794D01*
X203466500Y-73563207D01*
X203481020Y-73415781D01*
X203538401Y-73226620D01*
X203631583Y-73052288D01*
X203756985Y-72899485D01*
X203909788Y-72774083D01*
X204084119Y-72680901D01*
X204273280Y-72623520D01*
X204470000Y-72604145D01*
X204666719Y-72623520D01*
X204666719Y-72623520D01*
G37*
G36*
X191966719Y-72623520D02*
X192155880Y-72680901D01*
X192330212Y-72774083D01*
X192483015Y-72899485D01*
X192608417Y-73052288D01*
X192701599Y-73226619D01*
X192758980Y-73415780D01*
X192773500Y-73563206D01*
X192773500Y-73756793D01*
X192758980Y-73904219D01*
X192701599Y-74093380D01*
X192608417Y-74267712D01*
X192483015Y-74420515D01*
X192330212Y-74545917D01*
X192155881Y-74639099D01*
X191966720Y-74696480D01*
X191770000Y-74715855D01*
X191573281Y-74696480D01*
X191384120Y-74639099D01*
X191209788Y-74545917D01*
X191056985Y-74420515D01*
X190931583Y-74267712D01*
X190838401Y-74093381D01*
X190781020Y-73904220D01*
X190766500Y-73756794D01*
X190766500Y-73563207D01*
X190781020Y-73415781D01*
X190838401Y-73226620D01*
X190931583Y-73052288D01*
X191056985Y-72899485D01*
X191209788Y-72774083D01*
X191384119Y-72680901D01*
X191573280Y-72623520D01*
X191770000Y-72604145D01*
X191966719Y-72623520D01*
X191966719Y-72623520D01*
G37*
G36*
X189426719Y-72623520D02*
X189615880Y-72680901D01*
X189790212Y-72774083D01*
X189943015Y-72899485D01*
X190068417Y-73052288D01*
X190161599Y-73226619D01*
X190218980Y-73415780D01*
X190233500Y-73563206D01*
X190233500Y-73756793D01*
X190218980Y-73904219D01*
X190161599Y-74093380D01*
X190068417Y-74267712D01*
X189943015Y-74420515D01*
X189790212Y-74545917D01*
X189615881Y-74639099D01*
X189426720Y-74696480D01*
X189230000Y-74715855D01*
X189033281Y-74696480D01*
X188844120Y-74639099D01*
X188669788Y-74545917D01*
X188516985Y-74420515D01*
X188391583Y-74267712D01*
X188298401Y-74093381D01*
X188241020Y-73904220D01*
X188226500Y-73756794D01*
X188226500Y-73563207D01*
X188241020Y-73415781D01*
X188298401Y-73226620D01*
X188391583Y-73052288D01*
X188516985Y-72899485D01*
X188669788Y-72774083D01*
X188844119Y-72680901D01*
X189033280Y-72623520D01*
X189230000Y-72604145D01*
X189426719Y-72623520D01*
X189426719Y-72623520D01*
G37*
G36*
X227526719Y-72623520D02*
X227715880Y-72680901D01*
X227890212Y-72774083D01*
X228043015Y-72899485D01*
X228168417Y-73052288D01*
X228261599Y-73226619D01*
X228318980Y-73415780D01*
X228333500Y-73563206D01*
X228333500Y-73756793D01*
X228318980Y-73904219D01*
X228261599Y-74093380D01*
X228168417Y-74267712D01*
X228043015Y-74420515D01*
X227890212Y-74545917D01*
X227715881Y-74639099D01*
X227526720Y-74696480D01*
X227330000Y-74715855D01*
X227133281Y-74696480D01*
X226944120Y-74639099D01*
X226769788Y-74545917D01*
X226616985Y-74420515D01*
X226491583Y-74267712D01*
X226398401Y-74093381D01*
X226341020Y-73904220D01*
X226326500Y-73756794D01*
X226326500Y-73563207D01*
X226341020Y-73415781D01*
X226398401Y-73226620D01*
X226491583Y-73052288D01*
X226616985Y-72899485D01*
X226769788Y-72774083D01*
X226944119Y-72680901D01*
X227133280Y-72623520D01*
X227330000Y-72604145D01*
X227526719Y-72623520D01*
X227526719Y-72623520D01*
G37*
G36*
X202126719Y-72623520D02*
X202315880Y-72680901D01*
X202490212Y-72774083D01*
X202643015Y-72899485D01*
X202768417Y-73052288D01*
X202861599Y-73226619D01*
X202918980Y-73415780D01*
X202933500Y-73563206D01*
X202933500Y-73756793D01*
X202918980Y-73904219D01*
X202861599Y-74093380D01*
X202768417Y-74267712D01*
X202643015Y-74420515D01*
X202490212Y-74545917D01*
X202315881Y-74639099D01*
X202126720Y-74696480D01*
X201930000Y-74715855D01*
X201733281Y-74696480D01*
X201544120Y-74639099D01*
X201369788Y-74545917D01*
X201216985Y-74420515D01*
X201091583Y-74267712D01*
X200998401Y-74093381D01*
X200941020Y-73904220D01*
X200926500Y-73756794D01*
X200926500Y-73563207D01*
X200941020Y-73415781D01*
X200998401Y-73226620D01*
X201091583Y-73052288D01*
X201216985Y-72899485D01*
X201369788Y-72774083D01*
X201544119Y-72680901D01*
X201733280Y-72623520D01*
X201930000Y-72604145D01*
X202126719Y-72623520D01*
X202126719Y-72623520D01*
G37*
G36*
X213093500Y-74711000D02*
X211086500Y-74711000D01*
X211086500Y-72609000D01*
X213093500Y-72609000D01*
X213093500Y-74711000D01*
X213093500Y-74711000D01*
G37*
G36*
X187693500Y-74711000D02*
X185686500Y-74711000D01*
X185686500Y-72609000D01*
X187693500Y-72609000D01*
X187693500Y-74711000D01*
X187693500Y-74711000D01*
G37*
G36*
X200393500Y-74711000D02*
X198386500Y-74711000D01*
X198386500Y-72609000D01*
X200393500Y-72609000D01*
X200393500Y-74711000D01*
X200393500Y-74711000D01*
G37*
G36*
X225793500Y-74711000D02*
X223786500Y-74711000D01*
X223786500Y-72609000D01*
X225793500Y-72609000D01*
X225793500Y-74711000D01*
X225793500Y-74711000D01*
G37*
G36*
X241608863Y-70352989D02*
X241708657Y-70372839D01*
X241814267Y-70416585D01*
X241963621Y-70478449D01*
X242193089Y-70631774D01*
X242388226Y-70826911D01*
X242541551Y-71056379D01*
X242647161Y-71311344D01*
X242701000Y-71582012D01*
X242701000Y-71857988D01*
X242647161Y-72128656D01*
X242541551Y-72383621D01*
X242388226Y-72613089D01*
X242193089Y-72808226D01*
X241963621Y-72961551D01*
X241814267Y-73023415D01*
X241708657Y-73067161D01*
X241618433Y-73085107D01*
X241437988Y-73121000D01*
X241162012Y-73121000D01*
X240981567Y-73085107D01*
X240891343Y-73067161D01*
X240785733Y-73023415D01*
X240636379Y-72961551D01*
X240406911Y-72808226D01*
X240211774Y-72613089D01*
X240058449Y-72383621D01*
X239952839Y-72128656D01*
X239899000Y-71857988D01*
X239899000Y-71582012D01*
X239952839Y-71311344D01*
X240058449Y-71056379D01*
X240211774Y-70826911D01*
X240406911Y-70631774D01*
X240636379Y-70478449D01*
X240785733Y-70416585D01*
X240891343Y-70372839D01*
X240991137Y-70352989D01*
X241162012Y-70319000D01*
X241437988Y-70319000D01*
X241608863Y-70352989D01*
X241608863Y-70352989D01*
G37*
G36*
X172351000Y-70751000D02*
X170549000Y-70751000D01*
X170549000Y-68949000D01*
X172351000Y-68949000D01*
X172351000Y-70751000D01*
X172351000Y-70751000D01*
G37*
G36*
X166480443Y-68955519D02*
X166546627Y-68962037D01*
X166659853Y-68996384D01*
X166716467Y-69013557D01*
X166855087Y-69087652D01*
X166872991Y-69097222D01*
X166908729Y-69126552D01*
X167010186Y-69209814D01*
X167093448Y-69311271D01*
X167122778Y-69347009D01*
X167122779Y-69347011D01*
X167206443Y-69503533D01*
X167206443Y-69503534D01*
X167257963Y-69673373D01*
X167275359Y-69850000D01*
X167257963Y-70026627D01*
X167223616Y-70139853D01*
X167206443Y-70196467D01*
X167140947Y-70319000D01*
X167122778Y-70352991D01*
X167106489Y-70372839D01*
X167010186Y-70490186D01*
X166908729Y-70573448D01*
X166872991Y-70602778D01*
X166872989Y-70602779D01*
X166716467Y-70686443D01*
X166659853Y-70703616D01*
X166546627Y-70737963D01*
X166480443Y-70744481D01*
X166414260Y-70751000D01*
X166325740Y-70751000D01*
X166259557Y-70744481D01*
X166193373Y-70737963D01*
X166080147Y-70703616D01*
X166023533Y-70686443D01*
X165867011Y-70602779D01*
X165867009Y-70602778D01*
X165831271Y-70573448D01*
X165729814Y-70490186D01*
X165633511Y-70372839D01*
X165617222Y-70352991D01*
X165599053Y-70319000D01*
X165533557Y-70196467D01*
X165516384Y-70139853D01*
X165482037Y-70026627D01*
X165464641Y-69850000D01*
X165482037Y-69673373D01*
X165533557Y-69503534D01*
X165533557Y-69503533D01*
X165617221Y-69347011D01*
X165617222Y-69347009D01*
X165646552Y-69311271D01*
X165729814Y-69209814D01*
X165831271Y-69126552D01*
X165867009Y-69097222D01*
X165884913Y-69087652D01*
X166023533Y-69013557D01*
X166080147Y-68996384D01*
X166193373Y-68962037D01*
X166259557Y-68955519D01*
X166325740Y-68949000D01*
X166414260Y-68949000D01*
X166480443Y-68955519D01*
X166480443Y-68955519D01*
G37*
G36*
X163940443Y-68955519D02*
X164006627Y-68962037D01*
X164119853Y-68996384D01*
X164176467Y-69013557D01*
X164315087Y-69087652D01*
X164332991Y-69097222D01*
X164368729Y-69126552D01*
X164470186Y-69209814D01*
X164553448Y-69311271D01*
X164582778Y-69347009D01*
X164582779Y-69347011D01*
X164666443Y-69503533D01*
X164666443Y-69503534D01*
X164717963Y-69673373D01*
X164735359Y-69850000D01*
X164717963Y-70026627D01*
X164683616Y-70139853D01*
X164666443Y-70196467D01*
X164600947Y-70319000D01*
X164582778Y-70352991D01*
X164566489Y-70372839D01*
X164470186Y-70490186D01*
X164368729Y-70573448D01*
X164332991Y-70602778D01*
X164332989Y-70602779D01*
X164176467Y-70686443D01*
X164119853Y-70703616D01*
X164006627Y-70737963D01*
X163940443Y-70744481D01*
X163874260Y-70751000D01*
X163785740Y-70751000D01*
X163719557Y-70744481D01*
X163653373Y-70737963D01*
X163540147Y-70703616D01*
X163483533Y-70686443D01*
X163327011Y-70602779D01*
X163327009Y-70602778D01*
X163291271Y-70573448D01*
X163189814Y-70490186D01*
X163093511Y-70372839D01*
X163077222Y-70352991D01*
X163059053Y-70319000D01*
X162993557Y-70196467D01*
X162976384Y-70139853D01*
X162942037Y-70026627D01*
X162924641Y-69850000D01*
X162942037Y-69673373D01*
X162993557Y-69503534D01*
X162993557Y-69503533D01*
X163077221Y-69347011D01*
X163077222Y-69347009D01*
X163106552Y-69311271D01*
X163189814Y-69209814D01*
X163291271Y-69126552D01*
X163327009Y-69097222D01*
X163344913Y-69087652D01*
X163483533Y-69013557D01*
X163540147Y-68996384D01*
X163653373Y-68962037D01*
X163719557Y-68955519D01*
X163785740Y-68949000D01*
X163874260Y-68949000D01*
X163940443Y-68955519D01*
X163940443Y-68955519D01*
G37*
G36*
X169020443Y-68955519D02*
X169086627Y-68962037D01*
X169199853Y-68996384D01*
X169256467Y-69013557D01*
X169395087Y-69087652D01*
X169412991Y-69097222D01*
X169448729Y-69126552D01*
X169550186Y-69209814D01*
X169633448Y-69311271D01*
X169662778Y-69347009D01*
X169662779Y-69347011D01*
X169746443Y-69503533D01*
X169746443Y-69503534D01*
X169797963Y-69673373D01*
X169815359Y-69850000D01*
X169797963Y-70026627D01*
X169763616Y-70139853D01*
X169746443Y-70196467D01*
X169680947Y-70319000D01*
X169662778Y-70352991D01*
X169646489Y-70372839D01*
X169550186Y-70490186D01*
X169448729Y-70573448D01*
X169412991Y-70602778D01*
X169412989Y-70602779D01*
X169256467Y-70686443D01*
X169199853Y-70703616D01*
X169086627Y-70737963D01*
X169020443Y-70744481D01*
X168954260Y-70751000D01*
X168865740Y-70751000D01*
X168799557Y-70744481D01*
X168733373Y-70737963D01*
X168620147Y-70703616D01*
X168563533Y-70686443D01*
X168407011Y-70602779D01*
X168407009Y-70602778D01*
X168371271Y-70573448D01*
X168269814Y-70490186D01*
X168173511Y-70372839D01*
X168157222Y-70352991D01*
X168139053Y-70319000D01*
X168073557Y-70196467D01*
X168056384Y-70139853D01*
X168022037Y-70026627D01*
X168004641Y-69850000D01*
X168022037Y-69673373D01*
X168073557Y-69503534D01*
X168073557Y-69503533D01*
X168157221Y-69347011D01*
X168157222Y-69347009D01*
X168186552Y-69311271D01*
X168269814Y-69209814D01*
X168371271Y-69126552D01*
X168407009Y-69097222D01*
X168424913Y-69087652D01*
X168563533Y-69013557D01*
X168620147Y-68996384D01*
X168733373Y-68962037D01*
X168799557Y-68955519D01*
X168865740Y-68949000D01*
X168954260Y-68949000D01*
X169020443Y-68955519D01*
X169020443Y-68955519D01*
G37*
G36*
X161400443Y-68955519D02*
X161466627Y-68962037D01*
X161579853Y-68996384D01*
X161636467Y-69013557D01*
X161775087Y-69087652D01*
X161792991Y-69097222D01*
X161828729Y-69126552D01*
X161930186Y-69209814D01*
X162013448Y-69311271D01*
X162042778Y-69347009D01*
X162042779Y-69347011D01*
X162126443Y-69503533D01*
X162126443Y-69503534D01*
X162177963Y-69673373D01*
X162195359Y-69850000D01*
X162177963Y-70026627D01*
X162143616Y-70139853D01*
X162126443Y-70196467D01*
X162060947Y-70319000D01*
X162042778Y-70352991D01*
X162026489Y-70372839D01*
X161930186Y-70490186D01*
X161828729Y-70573448D01*
X161792991Y-70602778D01*
X161792989Y-70602779D01*
X161636467Y-70686443D01*
X161579853Y-70703616D01*
X161466627Y-70737963D01*
X161400443Y-70744481D01*
X161334260Y-70751000D01*
X161245740Y-70751000D01*
X161179557Y-70744481D01*
X161113373Y-70737963D01*
X161000147Y-70703616D01*
X160943533Y-70686443D01*
X160787011Y-70602779D01*
X160787009Y-70602778D01*
X160751271Y-70573448D01*
X160649814Y-70490186D01*
X160553511Y-70372839D01*
X160537222Y-70352991D01*
X160519053Y-70319000D01*
X160453557Y-70196467D01*
X160436384Y-70139853D01*
X160402037Y-70026627D01*
X160384641Y-69850000D01*
X160402037Y-69673373D01*
X160453557Y-69503534D01*
X160453557Y-69503533D01*
X160537221Y-69347011D01*
X160537222Y-69347009D01*
X160566552Y-69311271D01*
X160649814Y-69209814D01*
X160751271Y-69126552D01*
X160787009Y-69097222D01*
X160804913Y-69087652D01*
X160943533Y-69013557D01*
X161000147Y-68996384D01*
X161113373Y-68962037D01*
X161179557Y-68955519D01*
X161245740Y-68949000D01*
X161334260Y-68949000D01*
X161400443Y-68955519D01*
X161400443Y-68955519D01*
G37*
G36*
X241618433Y-66394893D02*
X241708657Y-66412839D01*
X241814267Y-66456585D01*
X241963621Y-66518449D01*
X242193089Y-66671774D01*
X242388226Y-66866911D01*
X242541551Y-67096379D01*
X242647161Y-67351344D01*
X242701000Y-67622012D01*
X242701000Y-67897988D01*
X242647161Y-68168656D01*
X242541551Y-68423621D01*
X242388226Y-68653089D01*
X242193089Y-68848226D01*
X241963621Y-69001551D01*
X241814267Y-69063415D01*
X241708657Y-69107161D01*
X241618433Y-69125107D01*
X241437988Y-69161000D01*
X241162012Y-69161000D01*
X240981567Y-69125107D01*
X240891343Y-69107161D01*
X240785733Y-69063415D01*
X240636379Y-69001551D01*
X240406911Y-68848226D01*
X240211774Y-68653089D01*
X240058449Y-68423621D01*
X239952839Y-68168656D01*
X239899000Y-67897988D01*
X239899000Y-67622012D01*
X239952839Y-67351344D01*
X240058449Y-67096379D01*
X240211774Y-66866911D01*
X240406911Y-66671774D01*
X240636379Y-66518449D01*
X240785733Y-66456585D01*
X240891343Y-66412839D01*
X240981567Y-66394893D01*
X241162012Y-66359000D01*
X241437988Y-66359000D01*
X241618433Y-66394893D01*
X241618433Y-66394893D01*
G37*
G36*
X241618433Y-62434893D02*
X241708657Y-62452839D01*
X241814267Y-62496585D01*
X241963621Y-62558449D01*
X242193089Y-62711774D01*
X242388226Y-62906911D01*
X242541551Y-63136379D01*
X242647161Y-63391344D01*
X242701000Y-63662012D01*
X242701000Y-63937988D01*
X242647161Y-64208656D01*
X242541551Y-64463621D01*
X242388226Y-64693089D01*
X242193089Y-64888226D01*
X241963621Y-65041551D01*
X241814267Y-65103415D01*
X241708657Y-65147161D01*
X241618433Y-65165107D01*
X241437988Y-65201000D01*
X241162012Y-65201000D01*
X240981567Y-65165107D01*
X240891343Y-65147161D01*
X240785733Y-65103415D01*
X240636379Y-65041551D01*
X240406911Y-64888226D01*
X240211774Y-64693089D01*
X240058449Y-64463621D01*
X239952839Y-64208656D01*
X239899000Y-63937988D01*
X239899000Y-63662012D01*
X239952839Y-63391344D01*
X240058449Y-63136379D01*
X240211774Y-62906911D01*
X240406911Y-62711774D01*
X240636379Y-62558449D01*
X240785733Y-62496585D01*
X240891343Y-62452839D01*
X240981567Y-62434893D01*
X241162012Y-62399000D01*
X241437988Y-62399000D01*
X241618433Y-62434893D01*
X241618433Y-62434893D01*
G37*
G36*
X161400443Y-61335519D02*
X161466627Y-61342037D01*
X161579853Y-61376384D01*
X161636467Y-61393557D01*
X161775087Y-61467652D01*
X161792991Y-61477222D01*
X161828729Y-61506552D01*
X161930186Y-61589814D01*
X162013448Y-61691271D01*
X162042778Y-61727009D01*
X162042779Y-61727011D01*
X162126443Y-61883533D01*
X162126443Y-61883534D01*
X162177963Y-62053373D01*
X162195359Y-62230000D01*
X162177963Y-62406627D01*
X162143616Y-62519853D01*
X162126443Y-62576467D01*
X162054120Y-62711772D01*
X162042778Y-62732991D01*
X162013448Y-62768729D01*
X161930186Y-62870186D01*
X161828729Y-62953448D01*
X161792991Y-62982778D01*
X161792989Y-62982779D01*
X161636467Y-63066443D01*
X161579853Y-63083616D01*
X161466627Y-63117963D01*
X161400443Y-63124481D01*
X161334260Y-63131000D01*
X161245740Y-63131000D01*
X161179557Y-63124481D01*
X161113373Y-63117963D01*
X161000147Y-63083616D01*
X160943533Y-63066443D01*
X160787011Y-62982779D01*
X160787009Y-62982778D01*
X160751271Y-62953448D01*
X160649814Y-62870186D01*
X160566552Y-62768729D01*
X160537222Y-62732991D01*
X160525880Y-62711772D01*
X160453557Y-62576467D01*
X160436384Y-62519853D01*
X160402037Y-62406627D01*
X160384641Y-62230000D01*
X160402037Y-62053373D01*
X160453557Y-61883534D01*
X160453557Y-61883533D01*
X160537221Y-61727011D01*
X160537222Y-61727009D01*
X160566552Y-61691271D01*
X160649814Y-61589814D01*
X160751271Y-61506552D01*
X160787009Y-61477222D01*
X160804913Y-61467652D01*
X160943533Y-61393557D01*
X161000147Y-61376384D01*
X161113373Y-61342037D01*
X161179557Y-61335519D01*
X161245740Y-61329000D01*
X161334260Y-61329000D01*
X161400443Y-61335519D01*
X161400443Y-61335519D01*
G37*
G36*
X163940443Y-61335519D02*
X164006627Y-61342037D01*
X164119853Y-61376384D01*
X164176467Y-61393557D01*
X164315087Y-61467652D01*
X164332991Y-61477222D01*
X164368729Y-61506552D01*
X164470186Y-61589814D01*
X164553448Y-61691271D01*
X164582778Y-61727009D01*
X164582779Y-61727011D01*
X164666443Y-61883533D01*
X164666443Y-61883534D01*
X164717963Y-62053373D01*
X164735359Y-62230000D01*
X164717963Y-62406627D01*
X164683616Y-62519853D01*
X164666443Y-62576467D01*
X164594120Y-62711772D01*
X164582778Y-62732991D01*
X164553448Y-62768729D01*
X164470186Y-62870186D01*
X164368729Y-62953448D01*
X164332991Y-62982778D01*
X164332989Y-62982779D01*
X164176467Y-63066443D01*
X164119853Y-63083616D01*
X164006627Y-63117963D01*
X163940443Y-63124481D01*
X163874260Y-63131000D01*
X163785740Y-63131000D01*
X163719557Y-63124481D01*
X163653373Y-63117963D01*
X163540147Y-63083616D01*
X163483533Y-63066443D01*
X163327011Y-62982779D01*
X163327009Y-62982778D01*
X163291271Y-62953448D01*
X163189814Y-62870186D01*
X163106552Y-62768729D01*
X163077222Y-62732991D01*
X163065880Y-62711772D01*
X162993557Y-62576467D01*
X162976384Y-62519853D01*
X162942037Y-62406627D01*
X162924641Y-62230000D01*
X162942037Y-62053373D01*
X162993557Y-61883534D01*
X162993557Y-61883533D01*
X163077221Y-61727011D01*
X163077222Y-61727009D01*
X163106552Y-61691271D01*
X163189814Y-61589814D01*
X163291271Y-61506552D01*
X163327009Y-61477222D01*
X163344913Y-61467652D01*
X163483533Y-61393557D01*
X163540147Y-61376384D01*
X163653373Y-61342037D01*
X163719557Y-61335519D01*
X163785740Y-61329000D01*
X163874260Y-61329000D01*
X163940443Y-61335519D01*
X163940443Y-61335519D01*
G37*
G36*
X166480443Y-61335519D02*
X166546627Y-61342037D01*
X166659853Y-61376384D01*
X166716467Y-61393557D01*
X166855087Y-61467652D01*
X166872991Y-61477222D01*
X166908729Y-61506552D01*
X167010186Y-61589814D01*
X167093448Y-61691271D01*
X167122778Y-61727009D01*
X167122779Y-61727011D01*
X167206443Y-61883533D01*
X167206443Y-61883534D01*
X167257963Y-62053373D01*
X167275359Y-62230000D01*
X167257963Y-62406627D01*
X167223616Y-62519853D01*
X167206443Y-62576467D01*
X167134120Y-62711772D01*
X167122778Y-62732991D01*
X167093448Y-62768729D01*
X167010186Y-62870186D01*
X166908729Y-62953448D01*
X166872991Y-62982778D01*
X166872989Y-62982779D01*
X166716467Y-63066443D01*
X166659853Y-63083616D01*
X166546627Y-63117963D01*
X166480443Y-63124481D01*
X166414260Y-63131000D01*
X166325740Y-63131000D01*
X166259557Y-63124481D01*
X166193373Y-63117963D01*
X166080147Y-63083616D01*
X166023533Y-63066443D01*
X165867011Y-62982779D01*
X165867009Y-62982778D01*
X165831271Y-62953448D01*
X165729814Y-62870186D01*
X165646552Y-62768729D01*
X165617222Y-62732991D01*
X165605880Y-62711772D01*
X165533557Y-62576467D01*
X165516384Y-62519853D01*
X165482037Y-62406627D01*
X165464641Y-62230000D01*
X165482037Y-62053373D01*
X165533557Y-61883534D01*
X165533557Y-61883533D01*
X165617221Y-61727011D01*
X165617222Y-61727009D01*
X165646552Y-61691271D01*
X165729814Y-61589814D01*
X165831271Y-61506552D01*
X165867009Y-61477222D01*
X165884913Y-61467652D01*
X166023533Y-61393557D01*
X166080147Y-61376384D01*
X166193373Y-61342037D01*
X166259557Y-61335519D01*
X166325740Y-61329000D01*
X166414260Y-61329000D01*
X166480443Y-61335519D01*
X166480443Y-61335519D01*
G37*
G36*
X169020443Y-61335519D02*
X169086627Y-61342037D01*
X169199853Y-61376384D01*
X169256467Y-61393557D01*
X169395087Y-61467652D01*
X169412991Y-61477222D01*
X169448729Y-61506552D01*
X169550186Y-61589814D01*
X169633448Y-61691271D01*
X169662778Y-61727009D01*
X169662779Y-61727011D01*
X169746443Y-61883533D01*
X169746443Y-61883534D01*
X169797963Y-62053373D01*
X169815359Y-62230000D01*
X169797963Y-62406627D01*
X169763616Y-62519853D01*
X169746443Y-62576467D01*
X169674120Y-62711772D01*
X169662778Y-62732991D01*
X169633448Y-62768729D01*
X169550186Y-62870186D01*
X169448729Y-62953448D01*
X169412991Y-62982778D01*
X169412989Y-62982779D01*
X169256467Y-63066443D01*
X169199853Y-63083616D01*
X169086627Y-63117963D01*
X169020443Y-63124481D01*
X168954260Y-63131000D01*
X168865740Y-63131000D01*
X168799557Y-63124481D01*
X168733373Y-63117963D01*
X168620147Y-63083616D01*
X168563533Y-63066443D01*
X168407011Y-62982779D01*
X168407009Y-62982778D01*
X168371271Y-62953448D01*
X168269814Y-62870186D01*
X168186552Y-62768729D01*
X168157222Y-62732991D01*
X168145880Y-62711772D01*
X168073557Y-62576467D01*
X168056384Y-62519853D01*
X168022037Y-62406627D01*
X168004641Y-62230000D01*
X168022037Y-62053373D01*
X168073557Y-61883534D01*
X168073557Y-61883533D01*
X168157221Y-61727011D01*
X168157222Y-61727009D01*
X168186552Y-61691271D01*
X168269814Y-61589814D01*
X168371271Y-61506552D01*
X168407009Y-61477222D01*
X168424913Y-61467652D01*
X168563533Y-61393557D01*
X168620147Y-61376384D01*
X168733373Y-61342037D01*
X168799557Y-61335519D01*
X168865740Y-61329000D01*
X168954260Y-61329000D01*
X169020443Y-61335519D01*
X169020443Y-61335519D01*
G37*
G36*
X172351000Y-63131000D02*
X170549000Y-63131000D01*
X170549000Y-61329000D01*
X172351000Y-61329000D01*
X172351000Y-63131000D01*
X172351000Y-63131000D01*
G37*
G36*
X241618433Y-58474893D02*
X241708657Y-58492839D01*
X241814267Y-58536585D01*
X241963621Y-58598449D01*
X242193089Y-58751774D01*
X242388226Y-58946911D01*
X242541551Y-59176379D01*
X242647161Y-59431344D01*
X242701000Y-59702012D01*
X242701000Y-59977988D01*
X242647161Y-60248656D01*
X242541551Y-60503621D01*
X242388226Y-60733089D01*
X242193089Y-60928226D01*
X241963621Y-61081551D01*
X241814267Y-61143415D01*
X241708657Y-61187161D01*
X241618433Y-61205107D01*
X241437988Y-61241000D01*
X241162012Y-61241000D01*
X240981567Y-61205107D01*
X240891343Y-61187161D01*
X240785733Y-61143415D01*
X240636379Y-61081551D01*
X240406911Y-60928226D01*
X240211774Y-60733089D01*
X240058449Y-60503621D01*
X239952839Y-60248656D01*
X239899000Y-59977988D01*
X239899000Y-59702012D01*
X239952839Y-59431344D01*
X240058449Y-59176379D01*
X240211774Y-58946911D01*
X240406911Y-58751774D01*
X240636379Y-58598449D01*
X240785733Y-58536585D01*
X240891343Y-58492839D01*
X240981567Y-58474893D01*
X241162012Y-58439000D01*
X241437988Y-58439000D01*
X241618433Y-58474893D01*
X241618433Y-58474893D01*
G37*
G36*
X242574032Y-54482621D02*
X242603487Y-54491556D01*
X242630624Y-54506062D01*
X242654414Y-54525586D01*
X242673938Y-54549376D01*
X242688444Y-54576513D01*
X242697379Y-54605968D01*
X242701000Y-54642733D01*
X242701000Y-57117267D01*
X242697379Y-57154032D01*
X242688444Y-57183487D01*
X242673938Y-57210624D01*
X242654414Y-57234414D01*
X242630624Y-57253938D01*
X242603487Y-57268444D01*
X242574032Y-57277379D01*
X242537267Y-57281000D01*
X240062733Y-57281000D01*
X240025968Y-57277379D01*
X239996513Y-57268444D01*
X239969376Y-57253938D01*
X239945586Y-57234414D01*
X239926062Y-57210624D01*
X239911556Y-57183487D01*
X239902621Y-57154032D01*
X239899000Y-57117267D01*
X239899000Y-54642733D01*
X239902621Y-54605968D01*
X239911556Y-54576513D01*
X239926062Y-54549376D01*
X239945586Y-54525586D01*
X239969376Y-54506062D01*
X239996513Y-54491556D01*
X240025968Y-54482621D01*
X240062733Y-54479000D01*
X242537267Y-54479000D01*
X242574032Y-54482621D01*
X242574032Y-54482621D01*
G37*
G36*
X231738252Y-51367818D02*
X231738254Y-51367819D01*
X231738255Y-51367819D01*
X232111513Y-51522427D01*
X232111514Y-51522428D01*
X232447439Y-51746886D01*
X232733114Y-52032561D01*
X232733116Y-52032564D01*
X232957573Y-52368487D01*
X233112181Y-52741745D01*
X233191000Y-53137994D01*
X233191000Y-53542006D01*
X233112181Y-53938255D01*
X232957573Y-54311513D01*
X232780505Y-54576513D01*
X232733114Y-54647439D01*
X232447439Y-54933114D01*
X232447436Y-54933116D01*
X232111513Y-55157573D01*
X231738255Y-55312181D01*
X231738254Y-55312181D01*
X231738252Y-55312182D01*
X231342007Y-55391000D01*
X230937993Y-55391000D01*
X230541748Y-55312182D01*
X230541746Y-55312181D01*
X230541745Y-55312181D01*
X230168487Y-55157573D01*
X229832564Y-54933116D01*
X229832561Y-54933114D01*
X229546886Y-54647439D01*
X229499495Y-54576513D01*
X229322427Y-54311513D01*
X229167819Y-53938255D01*
X229089000Y-53542006D01*
X229089000Y-53137994D01*
X229167819Y-52741745D01*
X229322427Y-52368487D01*
X229546884Y-52032564D01*
X229546886Y-52032561D01*
X229832561Y-51746886D01*
X230168486Y-51522428D01*
X230168487Y-51522427D01*
X230541745Y-51367819D01*
X230541746Y-51367819D01*
X230541748Y-51367818D01*
X230937993Y-51289000D01*
X231342007Y-51289000D01*
X231738252Y-51367818D01*
X231738252Y-51367818D01*
G37*
G36*
X188558252Y-51367818D02*
X188558254Y-51367819D01*
X188558255Y-51367819D01*
X188931513Y-51522427D01*
X188931514Y-51522428D01*
X189267439Y-51746886D01*
X189553114Y-52032561D01*
X189553116Y-52032564D01*
X189777573Y-52368487D01*
X189932181Y-52741745D01*
X190011000Y-53137994D01*
X190011000Y-53542006D01*
X189932181Y-53938255D01*
X189777573Y-54311513D01*
X189600505Y-54576513D01*
X189553114Y-54647439D01*
X189267439Y-54933114D01*
X189267436Y-54933116D01*
X188931513Y-55157573D01*
X188558255Y-55312181D01*
X188558254Y-55312181D01*
X188558252Y-55312182D01*
X188162007Y-55391000D01*
X187757993Y-55391000D01*
X187361748Y-55312182D01*
X187361746Y-55312181D01*
X187361745Y-55312181D01*
X186988487Y-55157573D01*
X186652564Y-54933116D01*
X186652561Y-54933114D01*
X186366886Y-54647439D01*
X186319495Y-54576513D01*
X186142427Y-54311513D01*
X185987819Y-53938255D01*
X185909000Y-53542006D01*
X185909000Y-53137994D01*
X185987819Y-52741745D01*
X186142427Y-52368487D01*
X186366884Y-52032564D01*
X186366886Y-52032561D01*
X186652561Y-51746886D01*
X186988486Y-51522428D01*
X186988487Y-51522427D01*
X187361745Y-51367819D01*
X187361746Y-51367819D01*
X187361748Y-51367818D01*
X187757993Y-51289000D01*
X188162007Y-51289000D01*
X188558252Y-51367818D01*
X188558252Y-51367818D01*
G37*
G36*
X183478252Y-51367818D02*
X183478254Y-51367819D01*
X183478255Y-51367819D01*
X183851513Y-51522427D01*
X183851514Y-51522428D01*
X184187439Y-51746886D01*
X184473114Y-52032561D01*
X184473116Y-52032564D01*
X184697573Y-52368487D01*
X184852181Y-52741745D01*
X184931000Y-53137994D01*
X184931000Y-53542006D01*
X184852181Y-53938255D01*
X184697573Y-54311513D01*
X184520505Y-54576513D01*
X184473114Y-54647439D01*
X184187439Y-54933114D01*
X184187436Y-54933116D01*
X183851513Y-55157573D01*
X183478255Y-55312181D01*
X183478254Y-55312181D01*
X183478252Y-55312182D01*
X183082007Y-55391000D01*
X182677993Y-55391000D01*
X182281748Y-55312182D01*
X182281746Y-55312181D01*
X182281745Y-55312181D01*
X181908487Y-55157573D01*
X181572564Y-54933116D01*
X181572561Y-54933114D01*
X181286886Y-54647439D01*
X181239495Y-54576513D01*
X181062427Y-54311513D01*
X180907819Y-53938255D01*
X180829000Y-53542006D01*
X180829000Y-53137994D01*
X180907819Y-52741745D01*
X181062427Y-52368487D01*
X181286884Y-52032564D01*
X181286886Y-52032561D01*
X181572561Y-51746886D01*
X181908486Y-51522428D01*
X181908487Y-51522427D01*
X182281745Y-51367819D01*
X182281746Y-51367819D01*
X182281748Y-51367818D01*
X182677993Y-51289000D01*
X183082007Y-51289000D01*
X183478252Y-51367818D01*
X183478252Y-51367818D01*
G37*
G36*
X226658252Y-51367818D02*
X226658254Y-51367819D01*
X226658255Y-51367819D01*
X227031513Y-51522427D01*
X227031514Y-51522428D01*
X227367439Y-51746886D01*
X227653114Y-52032561D01*
X227653116Y-52032564D01*
X227877573Y-52368487D01*
X228032181Y-52741745D01*
X228111000Y-53137994D01*
X228111000Y-53542006D01*
X228032181Y-53938255D01*
X227877573Y-54311513D01*
X227700505Y-54576513D01*
X227653114Y-54647439D01*
X227367439Y-54933114D01*
X227367436Y-54933116D01*
X227031513Y-55157573D01*
X226658255Y-55312181D01*
X226658254Y-55312181D01*
X226658252Y-55312182D01*
X226262007Y-55391000D01*
X225857993Y-55391000D01*
X225461748Y-55312182D01*
X225461746Y-55312181D01*
X225461745Y-55312181D01*
X225088487Y-55157573D01*
X224752564Y-54933116D01*
X224752561Y-54933114D01*
X224466886Y-54647439D01*
X224419495Y-54576513D01*
X224242427Y-54311513D01*
X224087819Y-53938255D01*
X224009000Y-53542006D01*
X224009000Y-53137994D01*
X224087819Y-52741745D01*
X224242427Y-52368487D01*
X224466884Y-52032564D01*
X224466886Y-52032561D01*
X224752561Y-51746886D01*
X225088486Y-51522428D01*
X225088487Y-51522427D01*
X225461745Y-51367819D01*
X225461746Y-51367819D01*
X225461748Y-51367818D01*
X225857993Y-51289000D01*
X226262007Y-51289000D01*
X226658252Y-51367818D01*
X226658252Y-51367818D01*
G37*
M02*
