M48
;DRILL file {KiCad (5.0.1)-3} date 11.11.2018 20.11.49
;FORMAT={-:-/ absolute / metric / decimal}
FMAT,2
METRIC,TZ
T1C0.500
T2C0.950
T3C1.000
T4C1.100
T5C1.500
T6C1.700
T7C3.500
%
G90
G05
M71
T1
X176.53Y-60.96
X176.53Y-63.5
X176.53Y-66.04
X177.8Y-133.35
X177.8Y-138.43
X177.8Y-143.51
X179.07Y-60.96
X179.07Y-63.5
X180.34Y-135.89
X180.34Y-140.97
X180.34Y-146.05
X181.61Y-60.96
X182.88Y-80.01
X182.88Y-102.87
X185.42Y-77.47
X185.42Y-100.33
X187.96Y-80.01
X187.96Y-102.87
X187.96Y-123.19
X190.5Y-77.47
X190.5Y-100.33
X190.5Y-125.73
X193.04Y-80.01
X193.04Y-102.87
X193.04Y-123.19
X194.31Y-146.05
X195.58Y-125.73
X198.12Y-123.19
X207.01Y-146.05
X219.71Y-146.05
X222.25Y-52.07
X222.25Y-53.34
X222.25Y-54.61
X228.6Y-50.8
X228.6Y-55.88
X229.87Y-146.05
X236.855Y-51.435
X239.395Y-52.705
X241.935Y-51.435
X244.475Y-52.705
X245.11Y-71.12
X246.38Y-68.58
X247.015Y-51.435
X247.65Y-71.12
X248.92Y-68.58
X249.555Y-52.705
X250.19Y-71.12
X251.46Y-68.58
X252.095Y-51.435
T2
X161.45Y-135.89
X163.95Y-135.89
X166.45Y-135.89
X168.95Y-135.89
X171.45Y-135.89
T3
X179.07Y-95.25
X173.99Y-115.57
X173.99Y-118.11
X173.99Y-120.65
X173.99Y-123.19
X173.99Y-87.63
X173.99Y-90.17
X173.99Y-92.71
X173.99Y-95.25
X161.29Y-69.85
X163.83Y-69.85
X166.37Y-69.85
X168.91Y-69.85
X171.45Y-69.85
X173.99Y-74.93
X173.99Y-77.47
X173.99Y-80.01
X173.99Y-82.55
X161.29Y-62.23
X163.83Y-62.23
X166.37Y-62.23
X168.91Y-62.23
X171.45Y-62.23
X173.99Y-102.87
X173.99Y-105.41
X173.99Y-107.95
X173.99Y-110.49
X179.07Y-102.87
X161.29Y-128.27
X163.83Y-128.27
X166.37Y-128.27
X168.91Y-128.27
X171.45Y-128.27
T4
X186.69Y-119.38
X189.23Y-119.38
X191.77Y-119.38
X212.09Y-119.38
X214.63Y-119.38
X217.17Y-119.38
X199.39Y-142.24
X201.93Y-142.24
X204.47Y-142.24
X199.39Y-73.66
X201.93Y-73.66
X204.47Y-73.66
X199.39Y-119.38
X201.93Y-119.38
X204.47Y-119.38
X224.79Y-73.66
X227.33Y-73.66
X229.87Y-73.66
X199.39Y-96.52
X201.93Y-96.52
X204.47Y-96.52
X224.79Y-96.52
X227.33Y-96.52
X229.87Y-96.52
X186.69Y-96.52
X189.23Y-96.52
X191.77Y-96.52
X186.69Y-73.66
X189.23Y-73.66
X191.77Y-73.66
X212.09Y-96.52
X214.63Y-96.52
X217.17Y-96.52
X212.09Y-73.66
X214.63Y-73.66
X217.17Y-73.66
X224.79Y-119.38
X227.33Y-119.38
X229.87Y-119.38
X186.69Y-142.24
X189.23Y-142.24
X191.77Y-142.24
X224.79Y-142.24
X227.33Y-142.24
X229.87Y-142.24
X212.09Y-142.24
X214.63Y-142.24
X217.17Y-142.24
T5
X231.14Y-53.34
X187.96Y-53.34
X226.06Y-53.34
X182.88Y-53.34
T6
X241.3Y-124.46
X241.3Y-128.42
X241.3Y-132.38
X241.3Y-136.34
X241.3Y-140.3
X241.3Y-101.6
X241.3Y-105.56
X241.3Y-109.52
X241.3Y-113.48
X241.3Y-117.44
X241.3Y-55.88
X241.3Y-59.84
X241.3Y-63.8
X241.3Y-67.76
X241.3Y-71.72
X241.3Y-78.74
X241.3Y-82.7
X241.3Y-86.66
X241.3Y-90.62
X241.3Y-94.58
T7
X166.37Y-53.34
X166.37Y-144.78
X195.58Y-53.34
X200.66Y-53.34
X207.01Y-53.34
X213.36Y-53.34
X218.44Y-53.34
X250.19Y-99.06
T0
M30
