%TF.GenerationSoftware,KiCad,Pcbnew,(5.0.1)-3*%
%TF.CreationDate,2018-11-11T20:09:42+02:00*%
%TF.ProjectId,Fet-levy,4665742D6C6576792E6B696361645F70,rev?*%
%TF.SameCoordinates,Original*%
%TF.FileFunction,Copper,L1,Top,Signal*%
%TF.FilePolarity,Positive*%
%FSLAX46Y46*%
G04 Gerber Fmt 4.6, Leading zero omitted, Abs format (unit mm)*
G04 Created by KiCad (PCBNEW (5.0.1)-3) date 11.11.2018 20.09.42*
%MOMM*%
%LPD*%
G01*
G04 APERTURE LIST*
%TA.AperFunction,ComponentPad*%
%ADD10C,4.000000*%
%TD*%
%TA.AperFunction,ComponentPad*%
%ADD11O,1.905000X2.000000*%
%TD*%
%TA.AperFunction,ComponentPad*%
%ADD12R,1.905000X2.000000*%
%TD*%
%TA.AperFunction,Conductor*%
%ADD13C,0.100000*%
%TD*%
%TA.AperFunction,ComponentPad*%
%ADD14C,2.700000*%
%TD*%
%TA.AperFunction,ComponentPad*%
%ADD15O,1.700000X1.700000*%
%TD*%
%TA.AperFunction,ComponentPad*%
%ADD16R,1.700000X1.700000*%
%TD*%
%TA.AperFunction,ComponentPad*%
%ADD17C,1.700000*%
%TD*%
%TA.AperFunction,ComponentPad*%
%ADD18O,1.700000X1.950000*%
%TD*%
%TA.AperFunction,ViaPad*%
%ADD19C,4.500000*%
%TD*%
%TA.AperFunction,ViaPad*%
%ADD20C,1.000000*%
%TD*%
%TA.AperFunction,Conductor*%
%ADD21C,3.000000*%
%TD*%
%TA.AperFunction,Conductor*%
%ADD22C,5.000000*%
%TD*%
%TA.AperFunction,Conductor*%
%ADD23C,1.000000*%
%TD*%
%TA.AperFunction,Conductor*%
%ADD24C,0.200000*%
%TD*%
%TA.AperFunction,Conductor*%
%ADD25C,0.220000*%
%TD*%
G04 APERTURE END LIST*
D10*
%TO.P,J12,1*%
%TO.N,GND*%
X182880000Y-53340000D03*
%TD*%
%TO.P,J11,1*%
%TO.N,GND*%
X187960000Y-53340000D03*
%TD*%
%TO.P,J9,1*%
%TO.N,+12V*%
X231140000Y-53340000D03*
%TD*%
%TO.P,J10,1*%
%TO.N,+12V*%
X226060000Y-53340000D03*
%TD*%
D11*
%TO.P,Q12,3*%
%TO.N,GND*%
X229870000Y-119380000D03*
%TO.P,Q12,2*%
%TO.N,Net-(J3-Pad4)*%
X227330000Y-119380000D03*
D12*
%TO.P,Q12,1*%
%TO.N,Net-(J7-Pad4)*%
X224790000Y-119380000D03*
%TD*%
D11*
%TO.P,Q14,3*%
%TO.N,GND*%
X204470000Y-142240000D03*
%TO.P,Q14,2*%
%TO.N,Net-(J4-Pad2)*%
X201930000Y-142240000D03*
D12*
%TO.P,Q14,1*%
%TO.N,Net-(J8-Pad2)*%
X199390000Y-142240000D03*
%TD*%
%TO.P,Q13,1*%
%TO.N,Net-(J8-Pad1)*%
X186690000Y-142240000D03*
D11*
%TO.P,Q13,2*%
%TO.N,Net-(J4-Pad1)*%
X189230000Y-142240000D03*
%TO.P,Q13,3*%
%TO.N,GND*%
X191770000Y-142240000D03*
%TD*%
D12*
%TO.P,Q15,1*%
%TO.N,Net-(J8-Pad3)*%
X212090000Y-142240000D03*
D11*
%TO.P,Q15,2*%
%TO.N,Net-(J4-Pad3)*%
X214630000Y-142240000D03*
%TO.P,Q15,3*%
%TO.N,GND*%
X217170000Y-142240000D03*
%TD*%
%TO.P,Q16,3*%
%TO.N,GND*%
X229870000Y-142240000D03*
%TO.P,Q16,2*%
%TO.N,Net-(J4-Pad4)*%
X227330000Y-142240000D03*
D12*
%TO.P,Q16,1*%
%TO.N,Net-(J8-Pad4)*%
X224790000Y-142240000D03*
%TD*%
%TO.P,Q7,1*%
%TO.N,Net-(J6-Pad3)*%
X212090000Y-96520000D03*
D11*
%TO.P,Q7,2*%
%TO.N,Net-(J2-Pad3)*%
X214630000Y-96520000D03*
%TO.P,Q7,3*%
%TO.N,GND*%
X217170000Y-96520000D03*
%TD*%
%TO.P,Q9,3*%
%TO.N,GND*%
X191770000Y-119380000D03*
%TO.P,Q9,2*%
%TO.N,Net-(J3-Pad1)*%
X189230000Y-119380000D03*
D12*
%TO.P,Q9,1*%
%TO.N,Net-(J7-Pad1)*%
X186690000Y-119380000D03*
%TD*%
D11*
%TO.P,Q8,3*%
%TO.N,GND*%
X229870000Y-96520000D03*
%TO.P,Q8,2*%
%TO.N,Net-(J2-Pad4)*%
X227330000Y-96520000D03*
D12*
%TO.P,Q8,1*%
%TO.N,Net-(J6-Pad4)*%
X224790000Y-96520000D03*
%TD*%
D11*
%TO.P,Q1,3*%
%TO.N,GND*%
X191770000Y-73660000D03*
%TO.P,Q1,2*%
%TO.N,Net-(J1-Pad1)*%
X189230000Y-73660000D03*
D12*
%TO.P,Q1,1*%
%TO.N,Net-(J5-Pad1)*%
X186690000Y-73660000D03*
%TD*%
%TO.P,Q5,1*%
%TO.N,Net-(J6-Pad1)*%
X186690000Y-96520000D03*
D11*
%TO.P,Q5,2*%
%TO.N,Net-(J2-Pad1)*%
X189230000Y-96520000D03*
%TO.P,Q5,3*%
%TO.N,GND*%
X191770000Y-96520000D03*
%TD*%
D12*
%TO.P,Q11,1*%
%TO.N,Net-(J7-Pad3)*%
X212090000Y-119380000D03*
D11*
%TO.P,Q11,2*%
%TO.N,Net-(J3-Pad3)*%
X214630000Y-119380000D03*
%TO.P,Q11,3*%
%TO.N,GND*%
X217170000Y-119380000D03*
%TD*%
D12*
%TO.P,Q4,1*%
%TO.N,Net-(J5-Pad4)*%
X224790000Y-73660000D03*
D11*
%TO.P,Q4,2*%
%TO.N,Net-(J1-Pad4)*%
X227330000Y-73660000D03*
%TO.P,Q4,3*%
%TO.N,GND*%
X229870000Y-73660000D03*
%TD*%
D12*
%TO.P,Q2,1*%
%TO.N,Net-(J5-Pad2)*%
X199390000Y-73660000D03*
D11*
%TO.P,Q2,2*%
%TO.N,Net-(J1-Pad2)*%
X201930000Y-73660000D03*
%TO.P,Q2,3*%
%TO.N,GND*%
X204470000Y-73660000D03*
%TD*%
D12*
%TO.P,Q10,1*%
%TO.N,Net-(J7-Pad2)*%
X199390000Y-119380000D03*
D11*
%TO.P,Q10,2*%
%TO.N,Net-(J3-Pad2)*%
X201930000Y-119380000D03*
%TO.P,Q10,3*%
%TO.N,GND*%
X204470000Y-119380000D03*
%TD*%
%TO.P,Q3,3*%
%TO.N,GND*%
X217170000Y-73660000D03*
%TO.P,Q3,2*%
%TO.N,Net-(J1-Pad3)*%
X214630000Y-73660000D03*
D12*
%TO.P,Q3,1*%
%TO.N,Net-(J5-Pad3)*%
X212090000Y-73660000D03*
%TD*%
D11*
%TO.P,Q6,3*%
%TO.N,GND*%
X204470000Y-96520000D03*
%TO.P,Q6,2*%
%TO.N,Net-(J2-Pad2)*%
X201930000Y-96520000D03*
D12*
%TO.P,Q6,1*%
%TO.N,Net-(J6-Pad2)*%
X199390000Y-96520000D03*
%TD*%
D13*
%TO.N,Net-(J1-Pad1)*%
%TO.C,J1*%
G36*
X242424503Y-54531204D02*
X242448772Y-54534804D01*
X242472570Y-54540765D01*
X242495670Y-54549030D01*
X242517849Y-54559520D01*
X242538892Y-54572133D01*
X242558598Y-54586748D01*
X242576776Y-54603224D01*
X242593252Y-54621402D01*
X242607867Y-54641108D01*
X242620480Y-54662151D01*
X242630970Y-54684330D01*
X242639235Y-54707430D01*
X242645196Y-54731228D01*
X242648796Y-54755497D01*
X242650000Y-54780001D01*
X242650000Y-56979999D01*
X242648796Y-57004503D01*
X242645196Y-57028772D01*
X242639235Y-57052570D01*
X242630970Y-57075670D01*
X242620480Y-57097849D01*
X242607867Y-57118892D01*
X242593252Y-57138598D01*
X242576776Y-57156776D01*
X242558598Y-57173252D01*
X242538892Y-57187867D01*
X242517849Y-57200480D01*
X242495670Y-57210970D01*
X242472570Y-57219235D01*
X242448772Y-57225196D01*
X242424503Y-57228796D01*
X242399999Y-57230000D01*
X240200001Y-57230000D01*
X240175497Y-57228796D01*
X240151228Y-57225196D01*
X240127430Y-57219235D01*
X240104330Y-57210970D01*
X240082151Y-57200480D01*
X240061108Y-57187867D01*
X240041402Y-57173252D01*
X240023224Y-57156776D01*
X240006748Y-57138598D01*
X239992133Y-57118892D01*
X239979520Y-57097849D01*
X239969030Y-57075670D01*
X239960765Y-57052570D01*
X239954804Y-57028772D01*
X239951204Y-57004503D01*
X239950000Y-56979999D01*
X239950000Y-54780001D01*
X239951204Y-54755497D01*
X239954804Y-54731228D01*
X239960765Y-54707430D01*
X239969030Y-54684330D01*
X239979520Y-54662151D01*
X239992133Y-54641108D01*
X240006748Y-54621402D01*
X240023224Y-54603224D01*
X240041402Y-54586748D01*
X240061108Y-54572133D01*
X240082151Y-54559520D01*
X240104330Y-54549030D01*
X240127430Y-54540765D01*
X240151228Y-54534804D01*
X240175497Y-54531204D01*
X240200001Y-54530000D01*
X242399999Y-54530000D01*
X242424503Y-54531204D01*
X242424503Y-54531204D01*
G37*
D14*
%TD*%
%TO.P,J1,1*%
%TO.N,Net-(J1-Pad1)*%
X241300000Y-55880000D03*
%TO.P,J1,2*%
%TO.N,Net-(J1-Pad2)*%
X241300000Y-59840000D03*
%TO.P,J1,3*%
%TO.N,Net-(J1-Pad3)*%
X241300000Y-63800000D03*
%TO.P,J1,4*%
%TO.N,Net-(J1-Pad4)*%
X241300000Y-67760000D03*
%TO.P,J1,5*%
%TO.N,+12V*%
X241300000Y-71720000D03*
%TD*%
%TO.P,J2,5*%
%TO.N,+12V*%
X241300000Y-94580000D03*
%TO.P,J2,4*%
%TO.N,Net-(J2-Pad4)*%
X241300000Y-90620000D03*
%TO.P,J2,3*%
%TO.N,Net-(J2-Pad3)*%
X241300000Y-86660000D03*
%TO.P,J2,2*%
%TO.N,Net-(J2-Pad2)*%
X241300000Y-82700000D03*
D13*
%TD*%
%TO.N,Net-(J2-Pad1)*%
%TO.C,J2*%
G36*
X242424503Y-77391204D02*
X242448772Y-77394804D01*
X242472570Y-77400765D01*
X242495670Y-77409030D01*
X242517849Y-77419520D01*
X242538892Y-77432133D01*
X242558598Y-77446748D01*
X242576776Y-77463224D01*
X242593252Y-77481402D01*
X242607867Y-77501108D01*
X242620480Y-77522151D01*
X242630970Y-77544330D01*
X242639235Y-77567430D01*
X242645196Y-77591228D01*
X242648796Y-77615497D01*
X242650000Y-77640001D01*
X242650000Y-79839999D01*
X242648796Y-79864503D01*
X242645196Y-79888772D01*
X242639235Y-79912570D01*
X242630970Y-79935670D01*
X242620480Y-79957849D01*
X242607867Y-79978892D01*
X242593252Y-79998598D01*
X242576776Y-80016776D01*
X242558598Y-80033252D01*
X242538892Y-80047867D01*
X242517849Y-80060480D01*
X242495670Y-80070970D01*
X242472570Y-80079235D01*
X242448772Y-80085196D01*
X242424503Y-80088796D01*
X242399999Y-80090000D01*
X240200001Y-80090000D01*
X240175497Y-80088796D01*
X240151228Y-80085196D01*
X240127430Y-80079235D01*
X240104330Y-80070970D01*
X240082151Y-80060480D01*
X240061108Y-80047867D01*
X240041402Y-80033252D01*
X240023224Y-80016776D01*
X240006748Y-79998598D01*
X239992133Y-79978892D01*
X239979520Y-79957849D01*
X239969030Y-79935670D01*
X239960765Y-79912570D01*
X239954804Y-79888772D01*
X239951204Y-79864503D01*
X239950000Y-79839999D01*
X239950000Y-77640001D01*
X239951204Y-77615497D01*
X239954804Y-77591228D01*
X239960765Y-77567430D01*
X239969030Y-77544330D01*
X239979520Y-77522151D01*
X239992133Y-77501108D01*
X240006748Y-77481402D01*
X240023224Y-77463224D01*
X240041402Y-77446748D01*
X240061108Y-77432133D01*
X240082151Y-77419520D01*
X240104330Y-77409030D01*
X240127430Y-77400765D01*
X240151228Y-77394804D01*
X240175497Y-77391204D01*
X240200001Y-77390000D01*
X242399999Y-77390000D01*
X242424503Y-77391204D01*
X242424503Y-77391204D01*
G37*
D14*
%TO.P,J2,1*%
%TO.N,Net-(J2-Pad1)*%
X241300000Y-78740000D03*
%TD*%
%TO.P,J3,5*%
%TO.N,+12V*%
X241300000Y-117440000D03*
%TO.P,J3,4*%
%TO.N,Net-(J3-Pad4)*%
X241300000Y-113480000D03*
%TO.P,J3,3*%
%TO.N,Net-(J3-Pad3)*%
X241300000Y-109520000D03*
%TO.P,J3,2*%
%TO.N,Net-(J3-Pad2)*%
X241300000Y-105560000D03*
D13*
%TD*%
%TO.N,Net-(J3-Pad1)*%
%TO.C,J3*%
G36*
X242424503Y-100251204D02*
X242448772Y-100254804D01*
X242472570Y-100260765D01*
X242495670Y-100269030D01*
X242517849Y-100279520D01*
X242538892Y-100292133D01*
X242558598Y-100306748D01*
X242576776Y-100323224D01*
X242593252Y-100341402D01*
X242607867Y-100361108D01*
X242620480Y-100382151D01*
X242630970Y-100404330D01*
X242639235Y-100427430D01*
X242645196Y-100451228D01*
X242648796Y-100475497D01*
X242650000Y-100500001D01*
X242650000Y-102699999D01*
X242648796Y-102724503D01*
X242645196Y-102748772D01*
X242639235Y-102772570D01*
X242630970Y-102795670D01*
X242620480Y-102817849D01*
X242607867Y-102838892D01*
X242593252Y-102858598D01*
X242576776Y-102876776D01*
X242558598Y-102893252D01*
X242538892Y-102907867D01*
X242517849Y-102920480D01*
X242495670Y-102930970D01*
X242472570Y-102939235D01*
X242448772Y-102945196D01*
X242424503Y-102948796D01*
X242399999Y-102950000D01*
X240200001Y-102950000D01*
X240175497Y-102948796D01*
X240151228Y-102945196D01*
X240127430Y-102939235D01*
X240104330Y-102930970D01*
X240082151Y-102920480D01*
X240061108Y-102907867D01*
X240041402Y-102893252D01*
X240023224Y-102876776D01*
X240006748Y-102858598D01*
X239992133Y-102838892D01*
X239979520Y-102817849D01*
X239969030Y-102795670D01*
X239960765Y-102772570D01*
X239954804Y-102748772D01*
X239951204Y-102724503D01*
X239950000Y-102699999D01*
X239950000Y-100500001D01*
X239951204Y-100475497D01*
X239954804Y-100451228D01*
X239960765Y-100427430D01*
X239969030Y-100404330D01*
X239979520Y-100382151D01*
X239992133Y-100361108D01*
X240006748Y-100341402D01*
X240023224Y-100323224D01*
X240041402Y-100306748D01*
X240061108Y-100292133D01*
X240082151Y-100279520D01*
X240104330Y-100269030D01*
X240127430Y-100260765D01*
X240151228Y-100254804D01*
X240175497Y-100251204D01*
X240200001Y-100250000D01*
X242399999Y-100250000D01*
X242424503Y-100251204D01*
X242424503Y-100251204D01*
G37*
D14*
%TO.P,J3,1*%
%TO.N,Net-(J3-Pad1)*%
X241300000Y-101600000D03*
%TD*%
%TO.P,J4,5*%
%TO.N,+12V*%
X241300000Y-140300000D03*
%TO.P,J4,4*%
%TO.N,Net-(J4-Pad4)*%
X241300000Y-136340000D03*
%TO.P,J4,3*%
%TO.N,Net-(J4-Pad3)*%
X241300000Y-132380000D03*
%TO.P,J4,2*%
%TO.N,Net-(J4-Pad2)*%
X241300000Y-128420000D03*
D13*
%TD*%
%TO.N,Net-(J4-Pad1)*%
%TO.C,J4*%
G36*
X242424503Y-123111204D02*
X242448772Y-123114804D01*
X242472570Y-123120765D01*
X242495670Y-123129030D01*
X242517849Y-123139520D01*
X242538892Y-123152133D01*
X242558598Y-123166748D01*
X242576776Y-123183224D01*
X242593252Y-123201402D01*
X242607867Y-123221108D01*
X242620480Y-123242151D01*
X242630970Y-123264330D01*
X242639235Y-123287430D01*
X242645196Y-123311228D01*
X242648796Y-123335497D01*
X242650000Y-123360001D01*
X242650000Y-125559999D01*
X242648796Y-125584503D01*
X242645196Y-125608772D01*
X242639235Y-125632570D01*
X242630970Y-125655670D01*
X242620480Y-125677849D01*
X242607867Y-125698892D01*
X242593252Y-125718598D01*
X242576776Y-125736776D01*
X242558598Y-125753252D01*
X242538892Y-125767867D01*
X242517849Y-125780480D01*
X242495670Y-125790970D01*
X242472570Y-125799235D01*
X242448772Y-125805196D01*
X242424503Y-125808796D01*
X242399999Y-125810000D01*
X240200001Y-125810000D01*
X240175497Y-125808796D01*
X240151228Y-125805196D01*
X240127430Y-125799235D01*
X240104330Y-125790970D01*
X240082151Y-125780480D01*
X240061108Y-125767867D01*
X240041402Y-125753252D01*
X240023224Y-125736776D01*
X240006748Y-125718598D01*
X239992133Y-125698892D01*
X239979520Y-125677849D01*
X239969030Y-125655670D01*
X239960765Y-125632570D01*
X239954804Y-125608772D01*
X239951204Y-125584503D01*
X239950000Y-125559999D01*
X239950000Y-123360001D01*
X239951204Y-123335497D01*
X239954804Y-123311228D01*
X239960765Y-123287430D01*
X239969030Y-123264330D01*
X239979520Y-123242151D01*
X239992133Y-123221108D01*
X240006748Y-123201402D01*
X240023224Y-123183224D01*
X240041402Y-123166748D01*
X240061108Y-123152133D01*
X240082151Y-123139520D01*
X240104330Y-123129030D01*
X240127430Y-123120765D01*
X240151228Y-123114804D01*
X240175497Y-123111204D01*
X240200001Y-123110000D01*
X242399999Y-123110000D01*
X242424503Y-123111204D01*
X242424503Y-123111204D01*
G37*
D14*
%TO.P,J4,1*%
%TO.N,Net-(J4-Pad1)*%
X241300000Y-124460000D03*
%TD*%
D15*
%TO.P,J5,4*%
%TO.N,Net-(J5-Pad4)*%
X173990000Y-74930000D03*
%TO.P,J5,3*%
%TO.N,Net-(J5-Pad3)*%
X173990000Y-77470000D03*
%TO.P,J5,2*%
%TO.N,Net-(J5-Pad2)*%
X173990000Y-80010000D03*
D16*
%TO.P,J5,1*%
%TO.N,Net-(J5-Pad1)*%
X173990000Y-82550000D03*
%TD*%
D15*
%TO.P,J6,4*%
%TO.N,Net-(J6-Pad4)*%
X173990000Y-87630000D03*
%TO.P,J6,3*%
%TO.N,Net-(J6-Pad3)*%
X173990000Y-90170000D03*
%TO.P,J6,2*%
%TO.N,Net-(J6-Pad2)*%
X173990000Y-92710000D03*
D16*
%TO.P,J6,1*%
%TO.N,Net-(J6-Pad1)*%
X173990000Y-95250000D03*
%TD*%
%TO.P,J7,1*%
%TO.N,Net-(J7-Pad1)*%
X173990000Y-110490000D03*
D15*
%TO.P,J7,2*%
%TO.N,Net-(J7-Pad2)*%
X173990000Y-107950000D03*
%TO.P,J7,3*%
%TO.N,Net-(J7-Pad3)*%
X173990000Y-105410000D03*
%TO.P,J7,4*%
%TO.N,Net-(J7-Pad4)*%
X173990000Y-102870000D03*
%TD*%
D16*
%TO.P,J8,1*%
%TO.N,Net-(J8-Pad1)*%
X173990000Y-123190000D03*
D15*
%TO.P,J8,2*%
%TO.N,Net-(J8-Pad2)*%
X173990000Y-120650000D03*
%TO.P,J8,3*%
%TO.N,Net-(J8-Pad3)*%
X173990000Y-118110000D03*
%TO.P,J8,4*%
%TO.N,Net-(J8-Pad4)*%
X173990000Y-115570000D03*
%TD*%
D16*
%TO.P,J13,1*%
%TO.N,GND*%
X179070000Y-95250000D03*
%TD*%
%TO.P,J14,1*%
%TO.N,GND*%
X179070000Y-102870000D03*
%TD*%
D15*
%TO.P,J15,5*%
%TO.N,GND*%
X161290000Y-69850000D03*
%TO.P,J15,4*%
%TO.N,Net-(J15-Pad4)*%
X163830000Y-69850000D03*
%TO.P,J15,3*%
%TO.N,Net-(J15-Pad3)*%
X166370000Y-69850000D03*
%TO.P,J15,2*%
%TO.N,Net-(J15-Pad2)*%
X168910000Y-69850000D03*
D16*
%TO.P,J15,1*%
%TO.N,Net-(J15-Pad1)*%
X171450000Y-69850000D03*
%TD*%
%TO.P,J16,1*%
%TO.N,Net-(J16-Pad1)*%
X171450000Y-128270000D03*
D15*
%TO.P,J16,2*%
%TO.N,Net-(J16-Pad2)*%
X168910000Y-128270000D03*
%TO.P,J16,3*%
%TO.N,Net-(J16-Pad3)*%
X166370000Y-128270000D03*
%TO.P,J16,4*%
%TO.N,Net-(J16-Pad4)*%
X163830000Y-128270000D03*
%TO.P,J16,5*%
%TO.N,GND*%
X161290000Y-128270000D03*
%TD*%
D16*
%TO.P,J17,1*%
%TO.N,Net-(J15-Pad1)*%
X171450000Y-62230000D03*
D15*
%TO.P,J17,2*%
%TO.N,Net-(J15-Pad2)*%
X168910000Y-62230000D03*
%TO.P,J17,3*%
%TO.N,Net-(J15-Pad3)*%
X166370000Y-62230000D03*
%TO.P,J17,4*%
%TO.N,Net-(J15-Pad4)*%
X163830000Y-62230000D03*
%TO.P,J17,5*%
%TO.N,GND*%
X161290000Y-62230000D03*
%TD*%
D13*
%TO.N,Net-(J16-Pad1)*%
%TO.C,J18*%
G36*
X172074504Y-134916204D02*
X172098773Y-134919804D01*
X172122571Y-134925765D01*
X172145671Y-134934030D01*
X172167849Y-134944520D01*
X172188893Y-134957133D01*
X172208598Y-134971747D01*
X172226777Y-134988223D01*
X172243253Y-135006402D01*
X172257867Y-135026107D01*
X172270480Y-135047151D01*
X172280970Y-135069329D01*
X172289235Y-135092429D01*
X172295196Y-135116227D01*
X172298796Y-135140496D01*
X172300000Y-135165000D01*
X172300000Y-136615000D01*
X172298796Y-136639504D01*
X172295196Y-136663773D01*
X172289235Y-136687571D01*
X172280970Y-136710671D01*
X172270480Y-136732849D01*
X172257867Y-136753893D01*
X172243253Y-136773598D01*
X172226777Y-136791777D01*
X172208598Y-136808253D01*
X172188893Y-136822867D01*
X172167849Y-136835480D01*
X172145671Y-136845970D01*
X172122571Y-136854235D01*
X172098773Y-136860196D01*
X172074504Y-136863796D01*
X172050000Y-136865000D01*
X170850000Y-136865000D01*
X170825496Y-136863796D01*
X170801227Y-136860196D01*
X170777429Y-136854235D01*
X170754329Y-136845970D01*
X170732151Y-136835480D01*
X170711107Y-136822867D01*
X170691402Y-136808253D01*
X170673223Y-136791777D01*
X170656747Y-136773598D01*
X170642133Y-136753893D01*
X170629520Y-136732849D01*
X170619030Y-136710671D01*
X170610765Y-136687571D01*
X170604804Y-136663773D01*
X170601204Y-136639504D01*
X170600000Y-136615000D01*
X170600000Y-135165000D01*
X170601204Y-135140496D01*
X170604804Y-135116227D01*
X170610765Y-135092429D01*
X170619030Y-135069329D01*
X170629520Y-135047151D01*
X170642133Y-135026107D01*
X170656747Y-135006402D01*
X170673223Y-134988223D01*
X170691402Y-134971747D01*
X170711107Y-134957133D01*
X170732151Y-134944520D01*
X170754329Y-134934030D01*
X170777429Y-134925765D01*
X170801227Y-134919804D01*
X170825496Y-134916204D01*
X170850000Y-134915000D01*
X172050000Y-134915000D01*
X172074504Y-134916204D01*
X172074504Y-134916204D01*
G37*
D17*
%TD*%
%TO.P,J18,1*%
%TO.N,Net-(J16-Pad1)*%
X171450000Y-135890000D03*
D18*
%TO.P,J18,2*%
%TO.N,Net-(J16-Pad2)*%
X168950000Y-135890000D03*
%TO.P,J18,3*%
%TO.N,Net-(J16-Pad3)*%
X166450000Y-135890000D03*
%TO.P,J18,4*%
%TO.N,Net-(J16-Pad4)*%
X163950000Y-135890000D03*
%TO.P,J18,5*%
%TO.N,GND*%
X161450000Y-135890000D03*
%TD*%
D19*
%TO.N,*%
X250190000Y-99060000D03*
X166370000Y-53340000D03*
X166370000Y-144780000D03*
X195580000Y-53340000D03*
X200660000Y-53340000D03*
X207010000Y-53340000D03*
X213360000Y-53340000D03*
X218440000Y-53340000D03*
D20*
%TO.N,GND*%
X182880000Y-80010000D03*
X185420000Y-77470000D03*
X187960000Y-80010000D03*
X190500000Y-77470000D03*
X193040000Y-80010000D03*
X182880000Y-102870000D03*
X185420000Y-100330000D03*
X187960000Y-102870000D03*
X190500000Y-100330000D03*
X193040000Y-102870000D03*
X187960000Y-123190000D03*
X190500000Y-125730000D03*
X193040000Y-123190000D03*
X195580000Y-125730000D03*
X198120000Y-123190000D03*
X194310000Y-146050000D03*
X180340000Y-146050000D03*
X177800000Y-143510000D03*
X180340000Y-140970000D03*
X177800000Y-138430000D03*
X180340000Y-135890000D03*
X177800000Y-133350000D03*
X229870000Y-146050000D03*
X219710000Y-146050000D03*
X207010000Y-146050000D03*
X181610000Y-60960000D03*
X179070000Y-63500000D03*
X176530000Y-66040000D03*
X176530000Y-63500000D03*
X179070000Y-60960000D03*
X176530000Y-60960000D03*
%TO.N,+12V*%
X222250000Y-53340000D03*
X222250000Y-54610000D03*
X222250000Y-52070000D03*
X228600000Y-50800000D03*
X228600000Y-55880000D03*
X252095000Y-51435000D03*
X249555000Y-52705000D03*
X247015000Y-51435000D03*
X244475000Y-52705000D03*
X241935000Y-51435000D03*
X239395000Y-52705000D03*
X236855000Y-51435000D03*
X245110000Y-71120000D03*
X247650000Y-71120000D03*
X250190000Y-71120000D03*
X251460000Y-68580000D03*
X248920000Y-68580000D03*
X246380000Y-68580000D03*
%TD*%
D21*
%TO.N,+12V*%
X234950000Y-137160000D02*
X234950000Y-137760000D01*
D22*
X234950000Y-137160000D02*
X234950000Y-139700000D01*
X234950000Y-139700000D02*
X236220000Y-139700000D01*
D21*
X235550000Y-140300000D02*
X234950000Y-139700000D01*
X241300000Y-140300000D02*
X235550000Y-140300000D01*
X235550000Y-117440000D02*
X234950000Y-116840000D01*
X241300000Y-117440000D02*
X235550000Y-117440000D01*
D22*
X234950000Y-137160000D02*
X234950000Y-116840000D01*
D21*
X235550000Y-94580000D02*
X234950000Y-93980000D01*
X241300000Y-94580000D02*
X235550000Y-94580000D01*
D22*
X234950000Y-116840000D02*
X234950000Y-106680000D01*
D21*
X241300000Y-71720000D02*
X235550000Y-71720000D01*
X235550000Y-71720000D02*
X234950000Y-71120000D01*
D22*
X234950000Y-106680000D02*
X234950000Y-93980000D01*
X234950000Y-93980000D02*
X234950000Y-59690000D01*
D23*
%TO.N,Net-(J7-Pad1)*%
X175260000Y-110490000D02*
X173990000Y-110490000D01*
X177800000Y-113030000D02*
X175260000Y-110490000D01*
X184150000Y-113030000D02*
X177800000Y-113030000D01*
X186690000Y-119380000D02*
X186690000Y-115570000D01*
X186690000Y-115570000D02*
X184150000Y-113030000D01*
%TO.N,Net-(J7-Pad2)*%
X199390000Y-115570000D02*
X199390000Y-119380000D01*
X194310000Y-110490000D02*
X199390000Y-115570000D01*
X177800000Y-110490000D02*
X194310000Y-110490000D01*
X173990000Y-107950000D02*
X175260000Y-107950000D01*
X175260000Y-107950000D02*
X177800000Y-110490000D01*
%TO.N,Net-(J7-Pad3)*%
X212090000Y-115570000D02*
X212090000Y-119380000D01*
X204470000Y-107950000D02*
X212090000Y-115570000D01*
X177800000Y-107950000D02*
X204470000Y-107950000D01*
X173990000Y-105410000D02*
X175260000Y-105410000D01*
X175260000Y-105410000D02*
X177800000Y-107950000D01*
%TO.N,Net-(J7-Pad4)*%
X224790000Y-115570000D02*
X224790000Y-119380000D01*
X214630000Y-105410000D02*
X224790000Y-115570000D01*
X177800000Y-105410000D02*
X214630000Y-105410000D01*
X173990000Y-102870000D02*
X175260000Y-102870000D01*
X175260000Y-102870000D02*
X177800000Y-105410000D01*
%TO.N,Net-(J8-Pad1)*%
X186690000Y-138430000D02*
X186690000Y-142240000D01*
X184150000Y-135890000D02*
X186690000Y-138430000D01*
X184150000Y-130810000D02*
X184150000Y-135890000D01*
X173990000Y-123190000D02*
X176530000Y-123190000D01*
X176530000Y-123190000D02*
X184150000Y-130810000D01*
%TO.N,Net-(J8-Pad2)*%
X199390000Y-138430000D02*
X199390000Y-142240000D01*
X194310000Y-133350000D02*
X199390000Y-138430000D01*
X189230000Y-133350000D02*
X194310000Y-133350000D01*
X173990000Y-120650000D02*
X176530000Y-120650000D01*
X176530000Y-120650000D02*
X189230000Y-133350000D01*
%TO.N,Net-(J8-Pad3)*%
X212090000Y-140240000D02*
X212090000Y-142240000D01*
X212090000Y-138430000D02*
X212090000Y-140240000D01*
X204470000Y-130810000D02*
X212090000Y-138430000D01*
X189230000Y-130810000D02*
X204470000Y-130810000D01*
X173990000Y-118110000D02*
X176530000Y-118110000D01*
X176530000Y-118110000D02*
X189230000Y-130810000D01*
%TO.N,Net-(J8-Pad4)*%
X224790000Y-138430000D02*
X224790000Y-142240000D01*
X214630000Y-128270000D02*
X224790000Y-138430000D01*
X189230000Y-128270000D02*
X214630000Y-128270000D01*
X173990000Y-115570000D02*
X176530000Y-115570000D01*
X176530000Y-115570000D02*
X189230000Y-128270000D01*
%TO.N,Net-(J5-Pad4)*%
X224790000Y-73660000D02*
X224790000Y-69850000D01*
X173990000Y-74930000D02*
X176530000Y-74930000D01*
X176530000Y-74930000D02*
X177800000Y-73660000D01*
X177800000Y-73660000D02*
X177800000Y-72390000D01*
X177800000Y-72390000D02*
X177800000Y-69850000D01*
X177800000Y-69850000D02*
X185420000Y-62230000D01*
X185420000Y-62230000D02*
X209550000Y-62230000D01*
X209550000Y-62230000D02*
X217170000Y-62230000D01*
X217170000Y-62230000D02*
X224790000Y-69850000D01*
%TO.N,Net-(J5-Pad3)*%
X212090000Y-71660000D02*
X212090000Y-73660000D01*
X212090000Y-69850000D02*
X212090000Y-71660000D01*
X176530000Y-77470000D02*
X180340000Y-73660000D01*
X173990000Y-77470000D02*
X176530000Y-77470000D01*
X180340000Y-73660000D02*
X180340000Y-69850000D01*
X180340000Y-69850000D02*
X185420000Y-64770000D01*
X185420000Y-64770000D02*
X207010000Y-64770000D01*
X207010000Y-64770000D02*
X212090000Y-69850000D01*
%TO.N,Net-(J5-Pad2)*%
X176530000Y-80010000D02*
X173990000Y-80010000D01*
X199390000Y-69850000D02*
X196850000Y-67310000D01*
X199390000Y-73660000D02*
X199390000Y-69850000D01*
X185420000Y-67310000D02*
X182880000Y-69850000D01*
X196850000Y-67310000D02*
X185420000Y-67310000D01*
X182880000Y-69850000D02*
X182880000Y-73660000D01*
X182880000Y-73660000D02*
X176530000Y-80010000D01*
%TO.N,Net-(J5-Pad1)*%
X185420000Y-73660000D02*
X186690000Y-73660000D01*
X173990000Y-82550000D02*
X176530000Y-82550000D01*
X176530000Y-82550000D02*
X185420000Y-73660000D01*
%TO.N,Net-(J6-Pad4)*%
X224790000Y-92710000D02*
X224790000Y-96520000D01*
X214630000Y-82550000D02*
X224790000Y-92710000D01*
X180340000Y-82550000D02*
X214630000Y-82550000D01*
X173990000Y-87630000D02*
X175260000Y-87630000D01*
X175260000Y-87630000D02*
X180340000Y-82550000D01*
%TO.N,Net-(J6-Pad3)*%
X212090000Y-92710000D02*
X212090000Y-96520000D01*
X204470000Y-85090000D02*
X212090000Y-92710000D01*
X180340000Y-85090000D02*
X204470000Y-85090000D01*
X173990000Y-90170000D02*
X175260000Y-90170000D01*
X175260000Y-90170000D02*
X180340000Y-85090000D01*
%TO.N,Net-(J6-Pad2)*%
X175260000Y-92710000D02*
X173990000Y-92710000D01*
X180340000Y-87630000D02*
X175260000Y-92710000D01*
X194310000Y-87630000D02*
X180340000Y-87630000D01*
X199390000Y-96520000D02*
X199390000Y-92710000D01*
X199390000Y-92710000D02*
X194310000Y-87630000D01*
%TO.N,Net-(J6-Pad1)*%
X175260000Y-95250000D02*
X173990000Y-95250000D01*
X180340000Y-90170000D02*
X175260000Y-95250000D01*
X184150000Y-90170000D02*
X180340000Y-90170000D01*
X186690000Y-96520000D02*
X186690000Y-92710000D01*
X186690000Y-92710000D02*
X184150000Y-90170000D01*
%TD*%
D24*
%TO.N,+12V*%
G36*
X252825000Y-96957385D02*
X252087622Y-96220007D01*
X250856356Y-95710000D01*
X249523644Y-95710000D01*
X248292378Y-96220007D01*
X247350007Y-97162378D01*
X246840000Y-98393644D01*
X246840000Y-99726356D01*
X247350007Y-100957622D01*
X248292378Y-101899993D01*
X249523644Y-102410000D01*
X250856356Y-102410000D01*
X252087622Y-101899993D01*
X252825001Y-101162614D01*
X252825001Y-147390000D01*
X232510000Y-147390000D01*
X232510000Y-141986298D01*
X240568297Y-141986298D01*
X240746861Y-142209709D01*
X241519780Y-142276018D01*
X241853139Y-142209709D01*
X242031703Y-141986298D01*
X241300000Y-141254594D01*
X240568297Y-141986298D01*
X232510000Y-141986298D01*
X232510000Y-140519780D01*
X239323982Y-140519780D01*
X239390291Y-140853139D01*
X239613702Y-141031703D01*
X240345406Y-140300000D01*
X242254594Y-140300000D01*
X242986298Y-141031703D01*
X243209709Y-140853139D01*
X243276018Y-140080220D01*
X243209709Y-139746861D01*
X242986298Y-139568297D01*
X242254594Y-140300000D01*
X240345406Y-140300000D01*
X239613702Y-139568297D01*
X239390291Y-139746861D01*
X239323982Y-140519780D01*
X232510000Y-140519780D01*
X232510000Y-123360001D01*
X238828450Y-123360001D01*
X238828450Y-125559999D01*
X238932853Y-126084869D01*
X239230168Y-126529832D01*
X239527005Y-126728173D01*
X239222991Y-127032187D01*
X238850000Y-127932665D01*
X238850000Y-128907335D01*
X239222991Y-129807813D01*
X239815178Y-130400000D01*
X239222991Y-130992187D01*
X238850000Y-131892665D01*
X238850000Y-132867335D01*
X239222991Y-133767813D01*
X239815178Y-134360000D01*
X239222991Y-134952187D01*
X238850000Y-135852665D01*
X238850000Y-136827335D01*
X239222991Y-137727813D01*
X239912187Y-138417009D01*
X240696462Y-138741867D01*
X241300000Y-139345406D01*
X241903538Y-138741867D01*
X242687813Y-138417009D01*
X243377009Y-137727813D01*
X243750000Y-136827335D01*
X243750000Y-135852665D01*
X243377009Y-134952187D01*
X242784822Y-134360000D01*
X243377009Y-133767813D01*
X243750000Y-132867335D01*
X243750000Y-131892665D01*
X243377009Y-130992187D01*
X242784822Y-130400000D01*
X243377009Y-129807813D01*
X243750000Y-128907335D01*
X243750000Y-127932665D01*
X243377009Y-127032187D01*
X243072995Y-126728173D01*
X243369832Y-126529832D01*
X243667147Y-126084869D01*
X243771550Y-125559999D01*
X243771550Y-123360001D01*
X243667147Y-122835131D01*
X243369832Y-122390168D01*
X242924869Y-122092853D01*
X242399999Y-121988450D01*
X240200001Y-121988450D01*
X239675131Y-122092853D01*
X239230168Y-122390168D01*
X238932853Y-122835131D01*
X238828450Y-123360001D01*
X232510000Y-123360001D01*
X232510000Y-119126298D01*
X240568297Y-119126298D01*
X240746861Y-119349709D01*
X241519780Y-119416018D01*
X241853139Y-119349709D01*
X242031703Y-119126298D01*
X241300000Y-118394594D01*
X240568297Y-119126298D01*
X232510000Y-119126298D01*
X232510000Y-117659780D01*
X239323982Y-117659780D01*
X239390291Y-117993139D01*
X239613702Y-118171703D01*
X240345406Y-117440000D01*
X242254594Y-117440000D01*
X242986298Y-118171703D01*
X243209709Y-117993139D01*
X243276018Y-117220220D01*
X243209709Y-116886861D01*
X242986298Y-116708297D01*
X242254594Y-117440000D01*
X240345406Y-117440000D01*
X239613702Y-116708297D01*
X239390291Y-116886861D01*
X239323982Y-117659780D01*
X232510000Y-117659780D01*
X232510000Y-100500001D01*
X238828450Y-100500001D01*
X238828450Y-102699999D01*
X238932853Y-103224869D01*
X239230168Y-103669832D01*
X239527005Y-103868173D01*
X239222991Y-104172187D01*
X238850000Y-105072665D01*
X238850000Y-106047335D01*
X239222991Y-106947813D01*
X239815178Y-107540000D01*
X239222991Y-108132187D01*
X238850000Y-109032665D01*
X238850000Y-110007335D01*
X239222991Y-110907813D01*
X239815178Y-111500000D01*
X239222991Y-112092187D01*
X238850000Y-112992665D01*
X238850000Y-113967335D01*
X239222991Y-114867813D01*
X239912187Y-115557009D01*
X240696462Y-115881867D01*
X241300000Y-116485406D01*
X241903538Y-115881867D01*
X242687813Y-115557009D01*
X243377009Y-114867813D01*
X243750000Y-113967335D01*
X243750000Y-112992665D01*
X243377009Y-112092187D01*
X242784822Y-111500000D01*
X243377009Y-110907813D01*
X243750000Y-110007335D01*
X243750000Y-109032665D01*
X243377009Y-108132187D01*
X242784822Y-107540000D01*
X243377009Y-106947813D01*
X243750000Y-106047335D01*
X243750000Y-105072665D01*
X243377009Y-104172187D01*
X243072995Y-103868173D01*
X243369832Y-103669832D01*
X243667147Y-103224869D01*
X243771550Y-102699999D01*
X243771550Y-100500001D01*
X243667147Y-99975131D01*
X243369832Y-99530168D01*
X242924869Y-99232853D01*
X242399999Y-99128450D01*
X240200001Y-99128450D01*
X239675131Y-99232853D01*
X239230168Y-99530168D01*
X238932853Y-99975131D01*
X238828450Y-100500001D01*
X232510000Y-100500001D01*
X232510000Y-96266298D01*
X240568297Y-96266298D01*
X240746861Y-96489709D01*
X241519780Y-96556018D01*
X241853139Y-96489709D01*
X242031703Y-96266298D01*
X241300000Y-95534594D01*
X240568297Y-96266298D01*
X232510000Y-96266298D01*
X232510000Y-94799780D01*
X239323982Y-94799780D01*
X239390291Y-95133139D01*
X239613702Y-95311703D01*
X240345406Y-94580000D01*
X242254594Y-94580000D01*
X242986298Y-95311703D01*
X243209709Y-95133139D01*
X243276018Y-94360220D01*
X243209709Y-94026861D01*
X242986298Y-93848297D01*
X242254594Y-94580000D01*
X240345406Y-94580000D01*
X239613702Y-93848297D01*
X239390291Y-94026861D01*
X239323982Y-94799780D01*
X232510000Y-94799780D01*
X232510000Y-77640001D01*
X238828450Y-77640001D01*
X238828450Y-79839999D01*
X238932853Y-80364869D01*
X239230168Y-80809832D01*
X239527005Y-81008173D01*
X239222991Y-81312187D01*
X238850000Y-82212665D01*
X238850000Y-83187335D01*
X239222991Y-84087813D01*
X239815178Y-84680000D01*
X239222991Y-85272187D01*
X238850000Y-86172665D01*
X238850000Y-87147335D01*
X239222991Y-88047813D01*
X239815178Y-88640000D01*
X239222991Y-89232187D01*
X238850000Y-90132665D01*
X238850000Y-91107335D01*
X239222991Y-92007813D01*
X239912187Y-92697009D01*
X240696462Y-93021867D01*
X241300000Y-93625406D01*
X241903538Y-93021867D01*
X242687813Y-92697009D01*
X243377009Y-92007813D01*
X243750000Y-91107335D01*
X243750000Y-90132665D01*
X243377009Y-89232187D01*
X242784822Y-88640000D01*
X243377009Y-88047813D01*
X243750000Y-87147335D01*
X243750000Y-86172665D01*
X243377009Y-85272187D01*
X242784822Y-84680000D01*
X243377009Y-84087813D01*
X243750000Y-83187335D01*
X243750000Y-82212665D01*
X243377009Y-81312187D01*
X243072995Y-81008173D01*
X243369832Y-80809832D01*
X243667147Y-80364869D01*
X243771550Y-79839999D01*
X243771550Y-77640001D01*
X243667147Y-77115131D01*
X243369832Y-76670168D01*
X242924869Y-76372853D01*
X242399999Y-76268450D01*
X240200001Y-76268450D01*
X239675131Y-76372853D01*
X239230168Y-76670168D01*
X238932853Y-77115131D01*
X238828450Y-77640001D01*
X232510000Y-77640001D01*
X232510000Y-73406298D01*
X240568297Y-73406298D01*
X240746861Y-73629709D01*
X241519780Y-73696018D01*
X241853139Y-73629709D01*
X242031703Y-73406298D01*
X241300000Y-72674594D01*
X240568297Y-73406298D01*
X232510000Y-73406298D01*
X232510000Y-71939780D01*
X239323982Y-71939780D01*
X239390291Y-72273139D01*
X239613702Y-72451703D01*
X240345406Y-71720000D01*
X242254594Y-71720000D01*
X242986298Y-72451703D01*
X243209709Y-72273139D01*
X243276018Y-71500220D01*
X243209709Y-71166861D01*
X242986298Y-70988297D01*
X242254594Y-71720000D01*
X240345406Y-71720000D01*
X239613702Y-70988297D01*
X239390291Y-71166861D01*
X239323982Y-71939780D01*
X232510000Y-71939780D01*
X232510000Y-70678427D01*
X232509144Y-70665374D01*
X232440996Y-70147736D01*
X232434240Y-70122521D01*
X232234439Y-69640159D01*
X232221386Y-69617551D01*
X231903549Y-69203338D01*
X231894925Y-69193503D01*
X220371127Y-57669705D01*
X220065299Y-57271143D01*
X219875573Y-56813105D01*
X219820427Y-56394222D01*
X220337622Y-56179993D01*
X220891267Y-55626348D01*
X225046444Y-55626348D01*
X225322481Y-55886278D01*
X226353040Y-55974690D01*
X226797519Y-55886278D01*
X227073556Y-55626348D01*
X230126444Y-55626348D01*
X230402481Y-55886278D01*
X231433040Y-55974690D01*
X231877519Y-55886278D01*
X232153556Y-55626348D01*
X231307209Y-54780001D01*
X238828450Y-54780001D01*
X238828450Y-56979999D01*
X238932853Y-57504869D01*
X239230168Y-57949832D01*
X239527005Y-58148173D01*
X239222991Y-58452187D01*
X238850000Y-59352665D01*
X238850000Y-60327335D01*
X239222991Y-61227813D01*
X239815178Y-61820000D01*
X239222991Y-62412187D01*
X238850000Y-63312665D01*
X238850000Y-64287335D01*
X239222991Y-65187813D01*
X239815178Y-65780000D01*
X239222991Y-66372187D01*
X238850000Y-67272665D01*
X238850000Y-68247335D01*
X239222991Y-69147813D01*
X239912187Y-69837009D01*
X240696462Y-70161867D01*
X241300000Y-70765406D01*
X241903538Y-70161867D01*
X242687813Y-69837009D01*
X243377009Y-69147813D01*
X243750000Y-68247335D01*
X243750000Y-67272665D01*
X243377009Y-66372187D01*
X242784822Y-65780000D01*
X243377009Y-65187813D01*
X243750000Y-64287335D01*
X243750000Y-63312665D01*
X243377009Y-62412187D01*
X242784822Y-61820000D01*
X243377009Y-61227813D01*
X243750000Y-60327335D01*
X243750000Y-59352665D01*
X243377009Y-58452187D01*
X243072995Y-58148173D01*
X243369832Y-57949832D01*
X243667147Y-57504869D01*
X243771550Y-56979999D01*
X243771550Y-54780001D01*
X243667147Y-54255131D01*
X243369832Y-53810168D01*
X242924869Y-53512853D01*
X242399999Y-53408450D01*
X240200001Y-53408450D01*
X239675131Y-53512853D01*
X239230168Y-53810168D01*
X238932853Y-54255131D01*
X238828450Y-54780001D01*
X231307209Y-54780001D01*
X231140000Y-54612792D01*
X230126444Y-55626348D01*
X227073556Y-55626348D01*
X226060000Y-54612792D01*
X225046444Y-55626348D01*
X220891267Y-55626348D01*
X221279993Y-55237622D01*
X221790000Y-54006356D01*
X221790000Y-53633040D01*
X223425310Y-53633040D01*
X223513722Y-54077519D01*
X223773652Y-54353556D01*
X224787208Y-53340000D01*
X227332792Y-53340000D01*
X228346348Y-54353556D01*
X228600000Y-54084186D01*
X228853652Y-54353556D01*
X229867208Y-53340000D01*
X232412792Y-53340000D01*
X233426348Y-54353556D01*
X233686278Y-54077519D01*
X233774690Y-53046960D01*
X233686278Y-52602481D01*
X233426348Y-52326444D01*
X232412792Y-53340000D01*
X229867208Y-53340000D01*
X228853652Y-52326444D01*
X228600000Y-52595814D01*
X228346348Y-52326444D01*
X227332792Y-53340000D01*
X224787208Y-53340000D01*
X223773652Y-52326444D01*
X223513722Y-52602481D01*
X223425310Y-53633040D01*
X221790000Y-53633040D01*
X221790000Y-52673644D01*
X221279993Y-51442378D01*
X220891267Y-51053652D01*
X225046444Y-51053652D01*
X226060000Y-52067208D01*
X227073556Y-51053652D01*
X230126444Y-51053652D01*
X231140000Y-52067208D01*
X232153556Y-51053652D01*
X231877519Y-50793722D01*
X230846960Y-50705310D01*
X230402481Y-50793722D01*
X230126444Y-51053652D01*
X227073556Y-51053652D01*
X226797519Y-50793722D01*
X225766960Y-50705310D01*
X225322481Y-50793722D01*
X225046444Y-51053652D01*
X220891267Y-51053652D01*
X220542615Y-50705000D01*
X252825000Y-50705000D01*
X252825000Y-96957385D01*
X252825000Y-96957385D01*
G37*
X252825000Y-96957385D02*
X252087622Y-96220007D01*
X250856356Y-95710000D01*
X249523644Y-95710000D01*
X248292378Y-96220007D01*
X247350007Y-97162378D01*
X246840000Y-98393644D01*
X246840000Y-99726356D01*
X247350007Y-100957622D01*
X248292378Y-101899993D01*
X249523644Y-102410000D01*
X250856356Y-102410000D01*
X252087622Y-101899993D01*
X252825001Y-101162614D01*
X252825001Y-147390000D01*
X232510000Y-147390000D01*
X232510000Y-141986298D01*
X240568297Y-141986298D01*
X240746861Y-142209709D01*
X241519780Y-142276018D01*
X241853139Y-142209709D01*
X242031703Y-141986298D01*
X241300000Y-141254594D01*
X240568297Y-141986298D01*
X232510000Y-141986298D01*
X232510000Y-140519780D01*
X239323982Y-140519780D01*
X239390291Y-140853139D01*
X239613702Y-141031703D01*
X240345406Y-140300000D01*
X242254594Y-140300000D01*
X242986298Y-141031703D01*
X243209709Y-140853139D01*
X243276018Y-140080220D01*
X243209709Y-139746861D01*
X242986298Y-139568297D01*
X242254594Y-140300000D01*
X240345406Y-140300000D01*
X239613702Y-139568297D01*
X239390291Y-139746861D01*
X239323982Y-140519780D01*
X232510000Y-140519780D01*
X232510000Y-123360001D01*
X238828450Y-123360001D01*
X238828450Y-125559999D01*
X238932853Y-126084869D01*
X239230168Y-126529832D01*
X239527005Y-126728173D01*
X239222991Y-127032187D01*
X238850000Y-127932665D01*
X238850000Y-128907335D01*
X239222991Y-129807813D01*
X239815178Y-130400000D01*
X239222991Y-130992187D01*
X238850000Y-131892665D01*
X238850000Y-132867335D01*
X239222991Y-133767813D01*
X239815178Y-134360000D01*
X239222991Y-134952187D01*
X238850000Y-135852665D01*
X238850000Y-136827335D01*
X239222991Y-137727813D01*
X239912187Y-138417009D01*
X240696462Y-138741867D01*
X241300000Y-139345406D01*
X241903538Y-138741867D01*
X242687813Y-138417009D01*
X243377009Y-137727813D01*
X243750000Y-136827335D01*
X243750000Y-135852665D01*
X243377009Y-134952187D01*
X242784822Y-134360000D01*
X243377009Y-133767813D01*
X243750000Y-132867335D01*
X243750000Y-131892665D01*
X243377009Y-130992187D01*
X242784822Y-130400000D01*
X243377009Y-129807813D01*
X243750000Y-128907335D01*
X243750000Y-127932665D01*
X243377009Y-127032187D01*
X243072995Y-126728173D01*
X243369832Y-126529832D01*
X243667147Y-126084869D01*
X243771550Y-125559999D01*
X243771550Y-123360001D01*
X243667147Y-122835131D01*
X243369832Y-122390168D01*
X242924869Y-122092853D01*
X242399999Y-121988450D01*
X240200001Y-121988450D01*
X239675131Y-122092853D01*
X239230168Y-122390168D01*
X238932853Y-122835131D01*
X238828450Y-123360001D01*
X232510000Y-123360001D01*
X232510000Y-119126298D01*
X240568297Y-119126298D01*
X240746861Y-119349709D01*
X241519780Y-119416018D01*
X241853139Y-119349709D01*
X242031703Y-119126298D01*
X241300000Y-118394594D01*
X240568297Y-119126298D01*
X232510000Y-119126298D01*
X232510000Y-117659780D01*
X239323982Y-117659780D01*
X239390291Y-117993139D01*
X239613702Y-118171703D01*
X240345406Y-117440000D01*
X242254594Y-117440000D01*
X242986298Y-118171703D01*
X243209709Y-117993139D01*
X243276018Y-117220220D01*
X243209709Y-116886861D01*
X242986298Y-116708297D01*
X242254594Y-117440000D01*
X240345406Y-117440000D01*
X239613702Y-116708297D01*
X239390291Y-116886861D01*
X239323982Y-117659780D01*
X232510000Y-117659780D01*
X232510000Y-100500001D01*
X238828450Y-100500001D01*
X238828450Y-102699999D01*
X238932853Y-103224869D01*
X239230168Y-103669832D01*
X239527005Y-103868173D01*
X239222991Y-104172187D01*
X238850000Y-105072665D01*
X238850000Y-106047335D01*
X239222991Y-106947813D01*
X239815178Y-107540000D01*
X239222991Y-108132187D01*
X238850000Y-109032665D01*
X238850000Y-110007335D01*
X239222991Y-110907813D01*
X239815178Y-111500000D01*
X239222991Y-112092187D01*
X238850000Y-112992665D01*
X238850000Y-113967335D01*
X239222991Y-114867813D01*
X239912187Y-115557009D01*
X240696462Y-115881867D01*
X241300000Y-116485406D01*
X241903538Y-115881867D01*
X242687813Y-115557009D01*
X243377009Y-114867813D01*
X243750000Y-113967335D01*
X243750000Y-112992665D01*
X243377009Y-112092187D01*
X242784822Y-111500000D01*
X243377009Y-110907813D01*
X243750000Y-110007335D01*
X243750000Y-109032665D01*
X243377009Y-108132187D01*
X242784822Y-107540000D01*
X243377009Y-106947813D01*
X243750000Y-106047335D01*
X243750000Y-105072665D01*
X243377009Y-104172187D01*
X243072995Y-103868173D01*
X243369832Y-103669832D01*
X243667147Y-103224869D01*
X243771550Y-102699999D01*
X243771550Y-100500001D01*
X243667147Y-99975131D01*
X243369832Y-99530168D01*
X242924869Y-99232853D01*
X242399999Y-99128450D01*
X240200001Y-99128450D01*
X239675131Y-99232853D01*
X239230168Y-99530168D01*
X238932853Y-99975131D01*
X238828450Y-100500001D01*
X232510000Y-100500001D01*
X232510000Y-96266298D01*
X240568297Y-96266298D01*
X240746861Y-96489709D01*
X241519780Y-96556018D01*
X241853139Y-96489709D01*
X242031703Y-96266298D01*
X241300000Y-95534594D01*
X240568297Y-96266298D01*
X232510000Y-96266298D01*
X232510000Y-94799780D01*
X239323982Y-94799780D01*
X239390291Y-95133139D01*
X239613702Y-95311703D01*
X240345406Y-94580000D01*
X242254594Y-94580000D01*
X242986298Y-95311703D01*
X243209709Y-95133139D01*
X243276018Y-94360220D01*
X243209709Y-94026861D01*
X242986298Y-93848297D01*
X242254594Y-94580000D01*
X240345406Y-94580000D01*
X239613702Y-93848297D01*
X239390291Y-94026861D01*
X239323982Y-94799780D01*
X232510000Y-94799780D01*
X232510000Y-77640001D01*
X238828450Y-77640001D01*
X238828450Y-79839999D01*
X238932853Y-80364869D01*
X239230168Y-80809832D01*
X239527005Y-81008173D01*
X239222991Y-81312187D01*
X238850000Y-82212665D01*
X238850000Y-83187335D01*
X239222991Y-84087813D01*
X239815178Y-84680000D01*
X239222991Y-85272187D01*
X238850000Y-86172665D01*
X238850000Y-87147335D01*
X239222991Y-88047813D01*
X239815178Y-88640000D01*
X239222991Y-89232187D01*
X238850000Y-90132665D01*
X238850000Y-91107335D01*
X239222991Y-92007813D01*
X239912187Y-92697009D01*
X240696462Y-93021867D01*
X241300000Y-93625406D01*
X241903538Y-93021867D01*
X242687813Y-92697009D01*
X243377009Y-92007813D01*
X243750000Y-91107335D01*
X243750000Y-90132665D01*
X243377009Y-89232187D01*
X242784822Y-88640000D01*
X243377009Y-88047813D01*
X243750000Y-87147335D01*
X243750000Y-86172665D01*
X243377009Y-85272187D01*
X242784822Y-84680000D01*
X243377009Y-84087813D01*
X243750000Y-83187335D01*
X243750000Y-82212665D01*
X243377009Y-81312187D01*
X243072995Y-81008173D01*
X243369832Y-80809832D01*
X243667147Y-80364869D01*
X243771550Y-79839999D01*
X243771550Y-77640001D01*
X243667147Y-77115131D01*
X243369832Y-76670168D01*
X242924869Y-76372853D01*
X242399999Y-76268450D01*
X240200001Y-76268450D01*
X239675131Y-76372853D01*
X239230168Y-76670168D01*
X238932853Y-77115131D01*
X238828450Y-77640001D01*
X232510000Y-77640001D01*
X232510000Y-73406298D01*
X240568297Y-73406298D01*
X240746861Y-73629709D01*
X241519780Y-73696018D01*
X241853139Y-73629709D01*
X242031703Y-73406298D01*
X241300000Y-72674594D01*
X240568297Y-73406298D01*
X232510000Y-73406298D01*
X232510000Y-71939780D01*
X239323982Y-71939780D01*
X239390291Y-72273139D01*
X239613702Y-72451703D01*
X240345406Y-71720000D01*
X242254594Y-71720000D01*
X242986298Y-72451703D01*
X243209709Y-72273139D01*
X243276018Y-71500220D01*
X243209709Y-71166861D01*
X242986298Y-70988297D01*
X242254594Y-71720000D01*
X240345406Y-71720000D01*
X239613702Y-70988297D01*
X239390291Y-71166861D01*
X239323982Y-71939780D01*
X232510000Y-71939780D01*
X232510000Y-70678427D01*
X232509144Y-70665374D01*
X232440996Y-70147736D01*
X232434240Y-70122521D01*
X232234439Y-69640159D01*
X232221386Y-69617551D01*
X231903549Y-69203338D01*
X231894925Y-69193503D01*
X220371127Y-57669705D01*
X220065299Y-57271143D01*
X219875573Y-56813105D01*
X219820427Y-56394222D01*
X220337622Y-56179993D01*
X220891267Y-55626348D01*
X225046444Y-55626348D01*
X225322481Y-55886278D01*
X226353040Y-55974690D01*
X226797519Y-55886278D01*
X227073556Y-55626348D01*
X230126444Y-55626348D01*
X230402481Y-55886278D01*
X231433040Y-55974690D01*
X231877519Y-55886278D01*
X232153556Y-55626348D01*
X231307209Y-54780001D01*
X238828450Y-54780001D01*
X238828450Y-56979999D01*
X238932853Y-57504869D01*
X239230168Y-57949832D01*
X239527005Y-58148173D01*
X239222991Y-58452187D01*
X238850000Y-59352665D01*
X238850000Y-60327335D01*
X239222991Y-61227813D01*
X239815178Y-61820000D01*
X239222991Y-62412187D01*
X238850000Y-63312665D01*
X238850000Y-64287335D01*
X239222991Y-65187813D01*
X239815178Y-65780000D01*
X239222991Y-66372187D01*
X238850000Y-67272665D01*
X238850000Y-68247335D01*
X239222991Y-69147813D01*
X239912187Y-69837009D01*
X240696462Y-70161867D01*
X241300000Y-70765406D01*
X241903538Y-70161867D01*
X242687813Y-69837009D01*
X243377009Y-69147813D01*
X243750000Y-68247335D01*
X243750000Y-67272665D01*
X243377009Y-66372187D01*
X242784822Y-65780000D01*
X243377009Y-65187813D01*
X243750000Y-64287335D01*
X243750000Y-63312665D01*
X243377009Y-62412187D01*
X242784822Y-61820000D01*
X243377009Y-61227813D01*
X243750000Y-60327335D01*
X243750000Y-59352665D01*
X243377009Y-58452187D01*
X243072995Y-58148173D01*
X243369832Y-57949832D01*
X243667147Y-57504869D01*
X243771550Y-56979999D01*
X243771550Y-54780001D01*
X243667147Y-54255131D01*
X243369832Y-53810168D01*
X242924869Y-53512853D01*
X242399999Y-53408450D01*
X240200001Y-53408450D01*
X239675131Y-53512853D01*
X239230168Y-53810168D01*
X238932853Y-54255131D01*
X238828450Y-54780001D01*
X231307209Y-54780001D01*
X231140000Y-54612792D01*
X230126444Y-55626348D01*
X227073556Y-55626348D01*
X226060000Y-54612792D01*
X225046444Y-55626348D01*
X220891267Y-55626348D01*
X221279993Y-55237622D01*
X221790000Y-54006356D01*
X221790000Y-53633040D01*
X223425310Y-53633040D01*
X223513722Y-54077519D01*
X223773652Y-54353556D01*
X224787208Y-53340000D01*
X227332792Y-53340000D01*
X228346348Y-54353556D01*
X228600000Y-54084186D01*
X228853652Y-54353556D01*
X229867208Y-53340000D01*
X232412792Y-53340000D01*
X233426348Y-54353556D01*
X233686278Y-54077519D01*
X233774690Y-53046960D01*
X233686278Y-52602481D01*
X233426348Y-52326444D01*
X232412792Y-53340000D01*
X229867208Y-53340000D01*
X228853652Y-52326444D01*
X228600000Y-52595814D01*
X228346348Y-52326444D01*
X227332792Y-53340000D01*
X224787208Y-53340000D01*
X223773652Y-52326444D01*
X223513722Y-52602481D01*
X223425310Y-53633040D01*
X221790000Y-53633040D01*
X221790000Y-52673644D01*
X221279993Y-51442378D01*
X220891267Y-51053652D01*
X225046444Y-51053652D01*
X226060000Y-52067208D01*
X227073556Y-51053652D01*
X230126444Y-51053652D01*
X231140000Y-52067208D01*
X232153556Y-51053652D01*
X231877519Y-50793722D01*
X230846960Y-50705310D01*
X230402481Y-50793722D01*
X230126444Y-51053652D01*
X227073556Y-51053652D01*
X226797519Y-50793722D01*
X225766960Y-50705310D01*
X225322481Y-50793722D01*
X225046444Y-51053652D01*
X220891267Y-51053652D01*
X220542615Y-50705000D01*
X252825000Y-50705000D01*
X252825000Y-96957385D01*
D25*
%TO.N,GND*%
G36*
X164228125Y-50730117D02*
X163760117Y-51198125D01*
X163392406Y-51748443D01*
X163139123Y-52359924D01*
X163010000Y-53009069D01*
X163010000Y-53670931D01*
X163139123Y-54320076D01*
X163392406Y-54931557D01*
X163760117Y-55481875D01*
X164228125Y-55949883D01*
X164778443Y-56317594D01*
X165389924Y-56570877D01*
X166039069Y-56700000D01*
X166700931Y-56700000D01*
X167350076Y-56570877D01*
X167961557Y-56317594D01*
X168511875Y-55949883D01*
X168863102Y-55598656D01*
X181879994Y-55598656D01*
X182149960Y-55858972D01*
X182655414Y-55952994D01*
X183169499Y-55946601D01*
X183610040Y-55858972D01*
X183880006Y-55598656D01*
X186959994Y-55598656D01*
X187229960Y-55858972D01*
X187735414Y-55952994D01*
X188249499Y-55946601D01*
X188690040Y-55858972D01*
X188960006Y-55598656D01*
X187960000Y-54598650D01*
X186959994Y-55598656D01*
X183880006Y-55598656D01*
X182880000Y-54598650D01*
X181879994Y-55598656D01*
X168863102Y-55598656D01*
X168979883Y-55481875D01*
X169347594Y-54931557D01*
X169600877Y-54320076D01*
X169730000Y-53670931D01*
X169730000Y-53115414D01*
X180267006Y-53115414D01*
X180273399Y-53629499D01*
X180361028Y-54070040D01*
X180621344Y-54340006D01*
X181621350Y-53340000D01*
X184138650Y-53340000D01*
X185138656Y-54340006D01*
X185398972Y-54070040D01*
X185419295Y-53960783D01*
X185441028Y-54070040D01*
X185701344Y-54340006D01*
X186701350Y-53340000D01*
X189218650Y-53340000D01*
X190218656Y-54340006D01*
X190478972Y-54070040D01*
X190572994Y-53564586D01*
X190566601Y-53050501D01*
X190478972Y-52609960D01*
X190218656Y-52339994D01*
X189218650Y-53340000D01*
X186701350Y-53340000D01*
X185701344Y-52339994D01*
X185441028Y-52609960D01*
X185420705Y-52719217D01*
X185398972Y-52609960D01*
X185138656Y-52339994D01*
X184138650Y-53340000D01*
X181621350Y-53340000D01*
X180621344Y-52339994D01*
X180361028Y-52609960D01*
X180267006Y-53115414D01*
X169730000Y-53115414D01*
X169730000Y-53009069D01*
X169600877Y-52359924D01*
X169347594Y-51748443D01*
X168979883Y-51198125D01*
X168863102Y-51081344D01*
X181879994Y-51081344D01*
X182880000Y-52081350D01*
X183880006Y-51081344D01*
X186959994Y-51081344D01*
X187960000Y-52081350D01*
X188960006Y-51081344D01*
X188690040Y-50821028D01*
X188184586Y-50727006D01*
X187670501Y-50733399D01*
X187229960Y-50821028D01*
X186959994Y-51081344D01*
X183880006Y-51081344D01*
X183610040Y-50821028D01*
X183104586Y-50727006D01*
X182590501Y-50733399D01*
X182149960Y-50821028D01*
X181879994Y-51081344D01*
X168863102Y-51081344D01*
X168511875Y-50730117D01*
X168489251Y-50715000D01*
X193460749Y-50715000D01*
X193438125Y-50730117D01*
X192970117Y-51198125D01*
X192602406Y-51748443D01*
X192349123Y-52359924D01*
X192220000Y-53009069D01*
X192220000Y-53670931D01*
X192349123Y-54320076D01*
X192602406Y-54931557D01*
X192970117Y-55481875D01*
X193438125Y-55949883D01*
X193988443Y-56317594D01*
X194599924Y-56570877D01*
X195249069Y-56700000D01*
X195910931Y-56700000D01*
X196560076Y-56570877D01*
X197171557Y-56317594D01*
X197721875Y-55949883D01*
X198120000Y-55551758D01*
X198518125Y-55949883D01*
X199068443Y-56317594D01*
X199679924Y-56570877D01*
X200329069Y-56700000D01*
X200990931Y-56700000D01*
X201640076Y-56570877D01*
X202251557Y-56317594D01*
X202801875Y-55949883D01*
X203269883Y-55481875D01*
X203637594Y-54931557D01*
X203835000Y-54454975D01*
X204032406Y-54931557D01*
X204400117Y-55481875D01*
X204868125Y-55949883D01*
X205418443Y-56317594D01*
X206029924Y-56570877D01*
X206679069Y-56700000D01*
X207340931Y-56700000D01*
X207990076Y-56570877D01*
X208601557Y-56317594D01*
X209151875Y-55949883D01*
X209619883Y-55481875D01*
X209987594Y-54931557D01*
X210185000Y-54454975D01*
X210382406Y-54931557D01*
X210750117Y-55481875D01*
X211218125Y-55949883D01*
X211768443Y-56317594D01*
X212379924Y-56570877D01*
X213029069Y-56700000D01*
X213690931Y-56700000D01*
X214340076Y-56570877D01*
X214951557Y-56317594D01*
X215501875Y-55949883D01*
X215900000Y-55551758D01*
X216298125Y-55949883D01*
X216848443Y-56317594D01*
X217114251Y-56427695D01*
X217140856Y-56515401D01*
X217149109Y-56535324D01*
X217241519Y-56708211D01*
X217253499Y-56726140D01*
X217377862Y-56877676D01*
X217385111Y-56885675D01*
X230765509Y-70266073D01*
X230879566Y-70405051D01*
X230961760Y-70558826D01*
X231012377Y-70725690D01*
X231030000Y-70904615D01*
X231030000Y-72586663D01*
X230902602Y-72449016D01*
X230655776Y-72269921D01*
X230573185Y-72217173D01*
X230346250Y-72285366D01*
X230346250Y-73160000D01*
X230780000Y-73160000D01*
X230780000Y-74160000D01*
X230346250Y-74160000D01*
X230346250Y-75034634D01*
X230573185Y-75102827D01*
X230655776Y-75050079D01*
X230902602Y-74870984D01*
X231030000Y-74733337D01*
X231030000Y-95446663D01*
X230902602Y-95309016D01*
X230655776Y-95129921D01*
X230573185Y-95077173D01*
X230346250Y-95145366D01*
X230346250Y-96020000D01*
X230780000Y-96020000D01*
X230780000Y-97020000D01*
X230346250Y-97020000D01*
X230346250Y-97894634D01*
X230573185Y-97962827D01*
X230655776Y-97910079D01*
X230902602Y-97730984D01*
X231030000Y-97593337D01*
X231030000Y-118306663D01*
X230902602Y-118169016D01*
X230655776Y-117989921D01*
X230573185Y-117937173D01*
X230346250Y-118005366D01*
X230346250Y-118880000D01*
X230780000Y-118880000D01*
X230780000Y-119880000D01*
X230346250Y-119880000D01*
X230346250Y-120754634D01*
X230573185Y-120822827D01*
X230655776Y-120770079D01*
X230902602Y-120590984D01*
X231030000Y-120453337D01*
X231030000Y-141166663D01*
X230902602Y-141029016D01*
X230655776Y-140849921D01*
X230573185Y-140797173D01*
X230346250Y-140865366D01*
X230346250Y-141740000D01*
X230780000Y-141740000D01*
X230780000Y-142740000D01*
X230346250Y-142740000D01*
X230346250Y-143614634D01*
X230573185Y-143682827D01*
X230655776Y-143630079D01*
X230902602Y-143450984D01*
X231030000Y-143313337D01*
X231030000Y-147380000D01*
X168521758Y-147380000D01*
X168979883Y-146921875D01*
X169347594Y-146371557D01*
X169600877Y-145760076D01*
X169730000Y-145110931D01*
X169730000Y-144449069D01*
X169600877Y-143799924D01*
X169347594Y-143188443D01*
X168979883Y-142638125D01*
X168511875Y-142170117D01*
X167961557Y-141802406D01*
X167350076Y-141549123D01*
X166700931Y-141420000D01*
X166039069Y-141420000D01*
X165389924Y-141549123D01*
X164778443Y-141802406D01*
X164228125Y-142170117D01*
X163760117Y-142638125D01*
X163392406Y-143188443D01*
X163139123Y-143799924D01*
X163010000Y-144449069D01*
X163010000Y-145110931D01*
X163139123Y-145760076D01*
X163392406Y-146371557D01*
X163760117Y-146921875D01*
X164218242Y-147380000D01*
X156125000Y-147380000D01*
X156125000Y-136591761D01*
X160125736Y-136591761D01*
X160263702Y-136839030D01*
X160447257Y-137054632D01*
X160669347Y-137230281D01*
X160811729Y-137328092D01*
X161025000Y-137251500D01*
X161025000Y-136377500D01*
X160204315Y-136377500D01*
X160125736Y-136591761D01*
X156125000Y-136591761D01*
X156125000Y-135188239D01*
X160125736Y-135188239D01*
X160204315Y-135402500D01*
X161025000Y-135402500D01*
X161025000Y-134528500D01*
X161875000Y-134528500D01*
X161875000Y-135402500D01*
X162016220Y-135402500D01*
X161990000Y-135668717D01*
X161990000Y-136111282D01*
X162016220Y-136377500D01*
X161875000Y-136377500D01*
X161875000Y-137251500D01*
X162088271Y-137328092D01*
X162230653Y-137230281D01*
X162340510Y-137143396D01*
X162557365Y-137407635D01*
X162855814Y-137652565D01*
X163196311Y-137834565D01*
X163565773Y-137946640D01*
X163950000Y-137984483D01*
X164334226Y-137946640D01*
X164703688Y-137834565D01*
X165044186Y-137652565D01*
X165200000Y-137524692D01*
X165355814Y-137652565D01*
X165696311Y-137834565D01*
X166065773Y-137946640D01*
X166450000Y-137984483D01*
X166834226Y-137946640D01*
X167203688Y-137834565D01*
X167544186Y-137652565D01*
X167700000Y-137524692D01*
X167855814Y-137652565D01*
X168196311Y-137834565D01*
X168565773Y-137946640D01*
X168950000Y-137984483D01*
X169334226Y-137946640D01*
X169703688Y-137834565D01*
X170000711Y-137675803D01*
X170091441Y-137750264D01*
X170327496Y-137876437D01*
X170583630Y-137954135D01*
X170850000Y-137980370D01*
X172050000Y-137980370D01*
X172316370Y-137954135D01*
X172572504Y-137876437D01*
X172808559Y-137750264D01*
X173015462Y-137580462D01*
X173185264Y-137373559D01*
X173311437Y-137137504D01*
X173389135Y-136881370D01*
X173415370Y-136615000D01*
X173415370Y-135165000D01*
X173389135Y-134898630D01*
X173311437Y-134642496D01*
X173185264Y-134406441D01*
X173015462Y-134199538D01*
X172808559Y-134029736D01*
X172572504Y-133903563D01*
X172316370Y-133825865D01*
X172050000Y-133799630D01*
X170850000Y-133799630D01*
X170583630Y-133825865D01*
X170327496Y-133903563D01*
X170091441Y-134029736D01*
X170000711Y-134104197D01*
X169703689Y-133945435D01*
X169334227Y-133833360D01*
X168950000Y-133795517D01*
X168565774Y-133833360D01*
X168196312Y-133945435D01*
X167855814Y-134127435D01*
X167700000Y-134255308D01*
X167544186Y-134127435D01*
X167203689Y-133945435D01*
X166834227Y-133833360D01*
X166450000Y-133795517D01*
X166065774Y-133833360D01*
X165696312Y-133945435D01*
X165355814Y-134127435D01*
X165200000Y-134255308D01*
X165044186Y-134127435D01*
X164703689Y-133945435D01*
X164334227Y-133833360D01*
X163950000Y-133795517D01*
X163565774Y-133833360D01*
X163196312Y-133945435D01*
X162855814Y-134127435D01*
X162557365Y-134372365D01*
X162340510Y-134636604D01*
X162230653Y-134549719D01*
X162088271Y-134451908D01*
X161875000Y-134528500D01*
X161025000Y-134528500D01*
X160811729Y-134451908D01*
X160669347Y-134549719D01*
X160447257Y-134725368D01*
X160263702Y-134940970D01*
X160125736Y-135188239D01*
X156125000Y-135188239D01*
X156125000Y-128908274D01*
X159976891Y-128908274D01*
X160126643Y-129152185D01*
X160321102Y-129362194D01*
X160552796Y-129530230D01*
X160651729Y-129583092D01*
X160865000Y-129506500D01*
X160865000Y-128695000D01*
X160045710Y-128695000D01*
X159976891Y-128908274D01*
X156125000Y-128908274D01*
X156125000Y-127631726D01*
X159976891Y-127631726D01*
X160045710Y-127845000D01*
X160865000Y-127845000D01*
X160865000Y-127033500D01*
X161715000Y-127033500D01*
X161715000Y-127845000D01*
X161910728Y-127845000D01*
X161898360Y-127885773D01*
X161860517Y-128270000D01*
X161898360Y-128654227D01*
X161910728Y-128695000D01*
X161715000Y-128695000D01*
X161715000Y-129506500D01*
X161928271Y-129583092D01*
X162027204Y-129530230D01*
X162216209Y-129393154D01*
X162437365Y-129662635D01*
X162735814Y-129907565D01*
X163076311Y-130089565D01*
X163445773Y-130201640D01*
X163733717Y-130230000D01*
X163926283Y-130230000D01*
X164214227Y-130201640D01*
X164583689Y-130089565D01*
X164924186Y-129907565D01*
X165100000Y-129763279D01*
X165275814Y-129907565D01*
X165616311Y-130089565D01*
X165985773Y-130201640D01*
X166273717Y-130230000D01*
X166466283Y-130230000D01*
X166754227Y-130201640D01*
X167123689Y-130089565D01*
X167464186Y-129907565D01*
X167640000Y-129763279D01*
X167815814Y-129907565D01*
X168156311Y-130089565D01*
X168525773Y-130201640D01*
X168813717Y-130230000D01*
X169006283Y-130230000D01*
X169294227Y-130201640D01*
X169663689Y-130089565D01*
X169886559Y-129970438D01*
X169980334Y-130047396D01*
X170173166Y-130150468D01*
X170382402Y-130213938D01*
X170600000Y-130235370D01*
X172300000Y-130235370D01*
X172517598Y-130213938D01*
X172726834Y-130150468D01*
X172919666Y-130047396D01*
X173088686Y-129908686D01*
X173227396Y-129739666D01*
X173330468Y-129546834D01*
X173393938Y-129337598D01*
X173415370Y-129120000D01*
X173415370Y-127420000D01*
X173393938Y-127202402D01*
X173330468Y-126993166D01*
X173227396Y-126800334D01*
X173088686Y-126631314D01*
X172919666Y-126492604D01*
X172726834Y-126389532D01*
X172517598Y-126326062D01*
X172300000Y-126304630D01*
X170600000Y-126304630D01*
X170382402Y-126326062D01*
X170173166Y-126389532D01*
X169980334Y-126492604D01*
X169886559Y-126569562D01*
X169663689Y-126450435D01*
X169294227Y-126338360D01*
X169006283Y-126310000D01*
X168813717Y-126310000D01*
X168525773Y-126338360D01*
X168156311Y-126450435D01*
X167815814Y-126632435D01*
X167640000Y-126776721D01*
X167464186Y-126632435D01*
X167123689Y-126450435D01*
X166754227Y-126338360D01*
X166466283Y-126310000D01*
X166273717Y-126310000D01*
X165985773Y-126338360D01*
X165616311Y-126450435D01*
X165275814Y-126632435D01*
X165100000Y-126776721D01*
X164924186Y-126632435D01*
X164583689Y-126450435D01*
X164214227Y-126338360D01*
X163926283Y-126310000D01*
X163733717Y-126310000D01*
X163445773Y-126338360D01*
X163076311Y-126450435D01*
X162735814Y-126632435D01*
X162437365Y-126877365D01*
X162216209Y-127146846D01*
X162027204Y-127009770D01*
X161928271Y-126956908D01*
X161715000Y-127033500D01*
X160865000Y-127033500D01*
X160651729Y-126956908D01*
X160552796Y-127009770D01*
X160321102Y-127177806D01*
X160126643Y-127387815D01*
X159976891Y-127631726D01*
X156125000Y-127631726D01*
X156125000Y-102870000D01*
X172020517Y-102870000D01*
X172058360Y-103254227D01*
X172170435Y-103623689D01*
X172352435Y-103964186D01*
X172496721Y-104140000D01*
X172352435Y-104315814D01*
X172170435Y-104656311D01*
X172058360Y-105025773D01*
X172020517Y-105410000D01*
X172058360Y-105794227D01*
X172170435Y-106163689D01*
X172352435Y-106504186D01*
X172496721Y-106680000D01*
X172352435Y-106855814D01*
X172170435Y-107196311D01*
X172058360Y-107565773D01*
X172020517Y-107950000D01*
X172058360Y-108334227D01*
X172170435Y-108703689D01*
X172289562Y-108926559D01*
X172212604Y-109020334D01*
X172109532Y-109213166D01*
X172046062Y-109422402D01*
X172024630Y-109640000D01*
X172024630Y-111340000D01*
X172046062Y-111557598D01*
X172109532Y-111766834D01*
X172212604Y-111959666D01*
X172351314Y-112128686D01*
X172520334Y-112267396D01*
X172713166Y-112370468D01*
X172922402Y-112433938D01*
X173140000Y-112455370D01*
X174840000Y-112455370D01*
X174938759Y-112445643D01*
X176452919Y-113959803D01*
X176450916Y-113960000D01*
X175117774Y-113960000D01*
X175084186Y-113932435D01*
X174743689Y-113750435D01*
X174374227Y-113638360D01*
X174086283Y-113610000D01*
X173893717Y-113610000D01*
X173605773Y-113638360D01*
X173236311Y-113750435D01*
X172895814Y-113932435D01*
X172597365Y-114177365D01*
X172352435Y-114475814D01*
X172170435Y-114816311D01*
X172058360Y-115185773D01*
X172020517Y-115570000D01*
X172058360Y-115954227D01*
X172170435Y-116323689D01*
X172352435Y-116664186D01*
X172496721Y-116840000D01*
X172352435Y-117015814D01*
X172170435Y-117356311D01*
X172058360Y-117725773D01*
X172020517Y-118110000D01*
X172058360Y-118494227D01*
X172170435Y-118863689D01*
X172352435Y-119204186D01*
X172496721Y-119380000D01*
X172352435Y-119555814D01*
X172170435Y-119896311D01*
X172058360Y-120265773D01*
X172020517Y-120650000D01*
X172058360Y-121034227D01*
X172170435Y-121403689D01*
X172289562Y-121626559D01*
X172212604Y-121720334D01*
X172109532Y-121913166D01*
X172046062Y-122122402D01*
X172024630Y-122340000D01*
X172024630Y-124040000D01*
X172046062Y-124257598D01*
X172109532Y-124466834D01*
X172212604Y-124659666D01*
X172351314Y-124828686D01*
X172520334Y-124967396D01*
X172713166Y-125070468D01*
X172922402Y-125133938D01*
X173140000Y-125155370D01*
X174840000Y-125155370D01*
X175057598Y-125133938D01*
X175266834Y-125070468D01*
X175459666Y-124967396D01*
X175628686Y-124828686D01*
X175652228Y-124800000D01*
X175863117Y-124800000D01*
X182540000Y-131476884D01*
X182540001Y-135810906D01*
X182532211Y-135890000D01*
X182563296Y-136205614D01*
X182655358Y-136509101D01*
X182804857Y-136788796D01*
X182955631Y-136972514D01*
X182955635Y-136972518D01*
X183006051Y-137033950D01*
X183067483Y-137084366D01*
X185080000Y-139096884D01*
X185080001Y-140343653D01*
X184948814Y-140451314D01*
X184810104Y-140620334D01*
X184707032Y-140813166D01*
X184643562Y-141022402D01*
X184622130Y-141240000D01*
X184622130Y-143240000D01*
X184643562Y-143457598D01*
X184707032Y-143666834D01*
X184810104Y-143859666D01*
X184948814Y-144028686D01*
X185117834Y-144167396D01*
X185310666Y-144270468D01*
X185519902Y-144333938D01*
X185737500Y-144355370D01*
X187642500Y-144355370D01*
X187860098Y-144333938D01*
X188069334Y-144270468D01*
X188262166Y-144167396D01*
X188305386Y-144131927D01*
X188436898Y-144202221D01*
X188825680Y-144320157D01*
X189230000Y-144359979D01*
X189634321Y-144320157D01*
X190023103Y-144202221D01*
X190381408Y-144010703D01*
X190695464Y-143752964D01*
X190866447Y-143544621D01*
X190984224Y-143630079D01*
X191066815Y-143682827D01*
X191293750Y-143614634D01*
X191293750Y-142740000D01*
X192246250Y-142740000D01*
X192246250Y-143614634D01*
X192473185Y-143682827D01*
X192555776Y-143630079D01*
X192802602Y-143450984D01*
X193009745Y-143227177D01*
X193169246Y-142967259D01*
X193105857Y-142740000D01*
X192246250Y-142740000D01*
X191293750Y-142740000D01*
X191248042Y-142740000D01*
X191262657Y-142691820D01*
X191292500Y-142388818D01*
X191292500Y-142091181D01*
X191262657Y-141788179D01*
X191248042Y-141740000D01*
X191293750Y-141740000D01*
X191293750Y-140865366D01*
X192246250Y-140865366D01*
X192246250Y-141740000D01*
X193105857Y-141740000D01*
X193169246Y-141512741D01*
X193009745Y-141252823D01*
X192802602Y-141029016D01*
X192555776Y-140849921D01*
X192473185Y-140797173D01*
X192246250Y-140865366D01*
X191293750Y-140865366D01*
X191066815Y-140797173D01*
X190984224Y-140849921D01*
X190866447Y-140935379D01*
X190695464Y-140727036D01*
X190381408Y-140469297D01*
X190023102Y-140277779D01*
X189634320Y-140159843D01*
X189230000Y-140120021D01*
X188825679Y-140159843D01*
X188436897Y-140277779D01*
X188305386Y-140348073D01*
X188300000Y-140343653D01*
X188300000Y-138509083D01*
X188307789Y-138429999D01*
X188300000Y-138350915D01*
X188300000Y-138350906D01*
X188276705Y-138114385D01*
X188184643Y-137810899D01*
X188035144Y-137531205D01*
X188035143Y-137531203D01*
X187884369Y-137347485D01*
X187884366Y-137347482D01*
X187833950Y-137286050D01*
X187772519Y-137235635D01*
X185760000Y-135223117D01*
X185760000Y-132156884D01*
X188035634Y-134432518D01*
X188086050Y-134493950D01*
X188147482Y-134544366D01*
X188147485Y-134544369D01*
X188331203Y-134695143D01*
X188426444Y-134746050D01*
X188610899Y-134844643D01*
X188914385Y-134936705D01*
X189150906Y-134960000D01*
X189150915Y-134960000D01*
X189229999Y-134967789D01*
X189309083Y-134960000D01*
X193643117Y-134960000D01*
X197780000Y-139096883D01*
X197780001Y-140343653D01*
X197648814Y-140451314D01*
X197510104Y-140620334D01*
X197407032Y-140813166D01*
X197343562Y-141022402D01*
X197322130Y-141240000D01*
X197322130Y-143240000D01*
X197343562Y-143457598D01*
X197407032Y-143666834D01*
X197510104Y-143859666D01*
X197648814Y-144028686D01*
X197817834Y-144167396D01*
X198010666Y-144270468D01*
X198219902Y-144333938D01*
X198437500Y-144355370D01*
X200342500Y-144355370D01*
X200560098Y-144333938D01*
X200769334Y-144270468D01*
X200962166Y-144167396D01*
X201005386Y-144131927D01*
X201136898Y-144202221D01*
X201525680Y-144320157D01*
X201930000Y-144359979D01*
X202334321Y-144320157D01*
X202723103Y-144202221D01*
X203081408Y-144010703D01*
X203395464Y-143752964D01*
X203566447Y-143544621D01*
X203684224Y-143630079D01*
X203766815Y-143682827D01*
X203993750Y-143614634D01*
X203993750Y-142740000D01*
X204946250Y-142740000D01*
X204946250Y-143614634D01*
X205173185Y-143682827D01*
X205255776Y-143630079D01*
X205502602Y-143450984D01*
X205709745Y-143227177D01*
X205869246Y-142967259D01*
X205805857Y-142740000D01*
X204946250Y-142740000D01*
X203993750Y-142740000D01*
X203948042Y-142740000D01*
X203962657Y-142691820D01*
X203992500Y-142388818D01*
X203992500Y-142091181D01*
X203962657Y-141788179D01*
X203948042Y-141740000D01*
X203993750Y-141740000D01*
X203993750Y-140865366D01*
X204946250Y-140865366D01*
X204946250Y-141740000D01*
X205805857Y-141740000D01*
X205869246Y-141512741D01*
X205709745Y-141252823D01*
X205502602Y-141029016D01*
X205255776Y-140849921D01*
X205173185Y-140797173D01*
X204946250Y-140865366D01*
X203993750Y-140865366D01*
X203766815Y-140797173D01*
X203684224Y-140849921D01*
X203566447Y-140935379D01*
X203395464Y-140727036D01*
X203081408Y-140469297D01*
X202723102Y-140277779D01*
X202334320Y-140159843D01*
X201930000Y-140120021D01*
X201525679Y-140159843D01*
X201136897Y-140277779D01*
X201005386Y-140348073D01*
X201000000Y-140343653D01*
X201000000Y-138509084D01*
X201007789Y-138430000D01*
X201000000Y-138350916D01*
X201000000Y-138350906D01*
X200976705Y-138114385D01*
X200884643Y-137810899D01*
X200735144Y-137531205D01*
X200735143Y-137531203D01*
X200584369Y-137347486D01*
X200584368Y-137347485D01*
X200533950Y-137286050D01*
X200472513Y-137235630D01*
X195656883Y-132420000D01*
X203803117Y-132420000D01*
X210480000Y-139096884D01*
X210480000Y-140343653D01*
X210348814Y-140451314D01*
X210210104Y-140620334D01*
X210107032Y-140813166D01*
X210043562Y-141022402D01*
X210022130Y-141240000D01*
X210022130Y-143240000D01*
X210043562Y-143457598D01*
X210107032Y-143666834D01*
X210210104Y-143859666D01*
X210348814Y-144028686D01*
X210517834Y-144167396D01*
X210710666Y-144270468D01*
X210919902Y-144333938D01*
X211137500Y-144355370D01*
X213042500Y-144355370D01*
X213260098Y-144333938D01*
X213469334Y-144270468D01*
X213662166Y-144167396D01*
X213705386Y-144131927D01*
X213836898Y-144202221D01*
X214225680Y-144320157D01*
X214630000Y-144359979D01*
X215034321Y-144320157D01*
X215423103Y-144202221D01*
X215781408Y-144010703D01*
X216095464Y-143752964D01*
X216266447Y-143544621D01*
X216384224Y-143630079D01*
X216466815Y-143682827D01*
X216693750Y-143614634D01*
X216693750Y-142740000D01*
X217646250Y-142740000D01*
X217646250Y-143614634D01*
X217873185Y-143682827D01*
X217955776Y-143630079D01*
X218202602Y-143450984D01*
X218409745Y-143227177D01*
X218569246Y-142967259D01*
X218505857Y-142740000D01*
X217646250Y-142740000D01*
X216693750Y-142740000D01*
X216648042Y-142740000D01*
X216662657Y-142691820D01*
X216692500Y-142388818D01*
X216692500Y-142091181D01*
X216662657Y-141788179D01*
X216648042Y-141740000D01*
X216693750Y-141740000D01*
X216693750Y-140865366D01*
X217646250Y-140865366D01*
X217646250Y-141740000D01*
X218505857Y-141740000D01*
X218569246Y-141512741D01*
X218409745Y-141252823D01*
X218202602Y-141029016D01*
X217955776Y-140849921D01*
X217873185Y-140797173D01*
X217646250Y-140865366D01*
X216693750Y-140865366D01*
X216466815Y-140797173D01*
X216384224Y-140849921D01*
X216266447Y-140935379D01*
X216095464Y-140727036D01*
X215781408Y-140469297D01*
X215423102Y-140277779D01*
X215034320Y-140159843D01*
X214630000Y-140120021D01*
X214225679Y-140159843D01*
X213836897Y-140277779D01*
X213705386Y-140348073D01*
X213700000Y-140343653D01*
X213700000Y-138509083D01*
X213707789Y-138429999D01*
X213700000Y-138350915D01*
X213700000Y-138350906D01*
X213676705Y-138114385D01*
X213584643Y-137810899D01*
X213435144Y-137531205D01*
X213435143Y-137531203D01*
X213284369Y-137347485D01*
X213284366Y-137347482D01*
X213233950Y-137286050D01*
X213172519Y-137235635D01*
X205816883Y-129880000D01*
X213963117Y-129880000D01*
X223180000Y-139096883D01*
X223180001Y-140343653D01*
X223048814Y-140451314D01*
X222910104Y-140620334D01*
X222807032Y-140813166D01*
X222743562Y-141022402D01*
X222722130Y-141240000D01*
X222722130Y-143240000D01*
X222743562Y-143457598D01*
X222807032Y-143666834D01*
X222910104Y-143859666D01*
X223048814Y-144028686D01*
X223217834Y-144167396D01*
X223410666Y-144270468D01*
X223619902Y-144333938D01*
X223837500Y-144355370D01*
X225742500Y-144355370D01*
X225960098Y-144333938D01*
X226169334Y-144270468D01*
X226362166Y-144167396D01*
X226405386Y-144131927D01*
X226536898Y-144202221D01*
X226925680Y-144320157D01*
X227330000Y-144359979D01*
X227734321Y-144320157D01*
X228123103Y-144202221D01*
X228481408Y-144010703D01*
X228795464Y-143752964D01*
X228966447Y-143544621D01*
X229084224Y-143630079D01*
X229166815Y-143682827D01*
X229393750Y-143614634D01*
X229393750Y-142740000D01*
X229348042Y-142740000D01*
X229362657Y-142691820D01*
X229392500Y-142388818D01*
X229392500Y-142091181D01*
X229362657Y-141788179D01*
X229348042Y-141740000D01*
X229393750Y-141740000D01*
X229393750Y-140865366D01*
X229166815Y-140797173D01*
X229084224Y-140849921D01*
X228966447Y-140935379D01*
X228795464Y-140727036D01*
X228481408Y-140469297D01*
X228123102Y-140277779D01*
X227734320Y-140159843D01*
X227330000Y-140120021D01*
X226925679Y-140159843D01*
X226536897Y-140277779D01*
X226405386Y-140348073D01*
X226400000Y-140343653D01*
X226400000Y-138509084D01*
X226407789Y-138430000D01*
X226400000Y-138350916D01*
X226400000Y-138350906D01*
X226376705Y-138114385D01*
X226284643Y-137810899D01*
X226135144Y-137531205D01*
X226135143Y-137531203D01*
X225984369Y-137347486D01*
X225984368Y-137347485D01*
X225933950Y-137286050D01*
X225872513Y-137235630D01*
X215824368Y-127187485D01*
X215773950Y-127126050D01*
X215528796Y-126924857D01*
X215249101Y-126775357D01*
X214945615Y-126683295D01*
X214709094Y-126660000D01*
X214709084Y-126660000D01*
X214630000Y-126652211D01*
X214550916Y-126660000D01*
X189896884Y-126660000D01*
X177877080Y-114640197D01*
X177879083Y-114640000D01*
X183483117Y-114640000D01*
X185080001Y-116236885D01*
X185080000Y-117483653D01*
X184948814Y-117591314D01*
X184810104Y-117760334D01*
X184707032Y-117953166D01*
X184643562Y-118162402D01*
X184622130Y-118380000D01*
X184622130Y-120380000D01*
X184643562Y-120597598D01*
X184707032Y-120806834D01*
X184810104Y-120999666D01*
X184948814Y-121168686D01*
X185117834Y-121307396D01*
X185310666Y-121410468D01*
X185519902Y-121473938D01*
X185737500Y-121495370D01*
X187642500Y-121495370D01*
X187860098Y-121473938D01*
X188069334Y-121410468D01*
X188262166Y-121307396D01*
X188305386Y-121271927D01*
X188436898Y-121342221D01*
X188825680Y-121460157D01*
X189230000Y-121499979D01*
X189634321Y-121460157D01*
X190023103Y-121342221D01*
X190381408Y-121150703D01*
X190695464Y-120892964D01*
X190866447Y-120684621D01*
X190984224Y-120770079D01*
X191066815Y-120822827D01*
X191293750Y-120754634D01*
X191293750Y-119880000D01*
X192246250Y-119880000D01*
X192246250Y-120754634D01*
X192473185Y-120822827D01*
X192555776Y-120770079D01*
X192802602Y-120590984D01*
X193009745Y-120367177D01*
X193169246Y-120107259D01*
X193105857Y-119880000D01*
X192246250Y-119880000D01*
X191293750Y-119880000D01*
X191248042Y-119880000D01*
X191262657Y-119831820D01*
X191292500Y-119528818D01*
X191292500Y-119231181D01*
X191262657Y-118928179D01*
X191248042Y-118880000D01*
X191293750Y-118880000D01*
X191293750Y-118005366D01*
X192246250Y-118005366D01*
X192246250Y-118880000D01*
X193105857Y-118880000D01*
X193169246Y-118652741D01*
X193009745Y-118392823D01*
X192802602Y-118169016D01*
X192555776Y-117989921D01*
X192473185Y-117937173D01*
X192246250Y-118005366D01*
X191293750Y-118005366D01*
X191066815Y-117937173D01*
X190984224Y-117989921D01*
X190866447Y-118075379D01*
X190695464Y-117867036D01*
X190381408Y-117609297D01*
X190023102Y-117417779D01*
X189634320Y-117299843D01*
X189230000Y-117260021D01*
X188825679Y-117299843D01*
X188436897Y-117417779D01*
X188305386Y-117488073D01*
X188300000Y-117483653D01*
X188300000Y-115649083D01*
X188307789Y-115569999D01*
X188300000Y-115490915D01*
X188300000Y-115490906D01*
X188276705Y-115254385D01*
X188184643Y-114950899D01*
X188184642Y-114950897D01*
X188035143Y-114671203D01*
X187884369Y-114487485D01*
X187884366Y-114487482D01*
X187833950Y-114426050D01*
X187772518Y-114375634D01*
X185496883Y-112100000D01*
X193643117Y-112100000D01*
X197780000Y-116236883D01*
X197780001Y-117483653D01*
X197648814Y-117591314D01*
X197510104Y-117760334D01*
X197407032Y-117953166D01*
X197343562Y-118162402D01*
X197322130Y-118380000D01*
X197322130Y-120380000D01*
X197343562Y-120597598D01*
X197407032Y-120806834D01*
X197510104Y-120999666D01*
X197648814Y-121168686D01*
X197817834Y-121307396D01*
X198010666Y-121410468D01*
X198219902Y-121473938D01*
X198437500Y-121495370D01*
X200342500Y-121495370D01*
X200560098Y-121473938D01*
X200769334Y-121410468D01*
X200962166Y-121307396D01*
X201005386Y-121271927D01*
X201136898Y-121342221D01*
X201525680Y-121460157D01*
X201930000Y-121499979D01*
X202334321Y-121460157D01*
X202723103Y-121342221D01*
X203081408Y-121150703D01*
X203395464Y-120892964D01*
X203566447Y-120684621D01*
X203684224Y-120770079D01*
X203766815Y-120822827D01*
X203993750Y-120754634D01*
X203993750Y-119880000D01*
X204946250Y-119880000D01*
X204946250Y-120754634D01*
X205173185Y-120822827D01*
X205255776Y-120770079D01*
X205502602Y-120590984D01*
X205709745Y-120367177D01*
X205869246Y-120107259D01*
X205805857Y-119880000D01*
X204946250Y-119880000D01*
X203993750Y-119880000D01*
X203948042Y-119880000D01*
X203962657Y-119831820D01*
X203992500Y-119528818D01*
X203992500Y-119231181D01*
X203962657Y-118928179D01*
X203948042Y-118880000D01*
X203993750Y-118880000D01*
X203993750Y-118005366D01*
X204946250Y-118005366D01*
X204946250Y-118880000D01*
X205805857Y-118880000D01*
X205869246Y-118652741D01*
X205709745Y-118392823D01*
X205502602Y-118169016D01*
X205255776Y-117989921D01*
X205173185Y-117937173D01*
X204946250Y-118005366D01*
X203993750Y-118005366D01*
X203766815Y-117937173D01*
X203684224Y-117989921D01*
X203566447Y-118075379D01*
X203395464Y-117867036D01*
X203081408Y-117609297D01*
X202723102Y-117417779D01*
X202334320Y-117299843D01*
X201930000Y-117260021D01*
X201525679Y-117299843D01*
X201136897Y-117417779D01*
X201005386Y-117488073D01*
X201000000Y-117483653D01*
X201000000Y-115649084D01*
X201007789Y-115570000D01*
X201000000Y-115490916D01*
X201000000Y-115490906D01*
X200976705Y-115254385D01*
X200884643Y-114950899D01*
X200735144Y-114671205D01*
X200735143Y-114671203D01*
X200584369Y-114487486D01*
X200584368Y-114487485D01*
X200533950Y-114426050D01*
X200472513Y-114375630D01*
X195656883Y-109560000D01*
X203803117Y-109560000D01*
X210480000Y-116236884D01*
X210480001Y-117483653D01*
X210348814Y-117591314D01*
X210210104Y-117760334D01*
X210107032Y-117953166D01*
X210043562Y-118162402D01*
X210022130Y-118380000D01*
X210022130Y-120380000D01*
X210043562Y-120597598D01*
X210107032Y-120806834D01*
X210210104Y-120999666D01*
X210348814Y-121168686D01*
X210517834Y-121307396D01*
X210710666Y-121410468D01*
X210919902Y-121473938D01*
X211137500Y-121495370D01*
X213042500Y-121495370D01*
X213260098Y-121473938D01*
X213469334Y-121410468D01*
X213662166Y-121307396D01*
X213705386Y-121271927D01*
X213836898Y-121342221D01*
X214225680Y-121460157D01*
X214630000Y-121499979D01*
X215034321Y-121460157D01*
X215423103Y-121342221D01*
X215781408Y-121150703D01*
X216095464Y-120892964D01*
X216266447Y-120684621D01*
X216384224Y-120770079D01*
X216466815Y-120822827D01*
X216693750Y-120754634D01*
X216693750Y-119880000D01*
X217646250Y-119880000D01*
X217646250Y-120754634D01*
X217873185Y-120822827D01*
X217955776Y-120770079D01*
X218202602Y-120590984D01*
X218409745Y-120367177D01*
X218569246Y-120107259D01*
X218505857Y-119880000D01*
X217646250Y-119880000D01*
X216693750Y-119880000D01*
X216648042Y-119880000D01*
X216662657Y-119831820D01*
X216692500Y-119528818D01*
X216692500Y-119231181D01*
X216662657Y-118928179D01*
X216648042Y-118880000D01*
X216693750Y-118880000D01*
X216693750Y-118005366D01*
X217646250Y-118005366D01*
X217646250Y-118880000D01*
X218505857Y-118880000D01*
X218569246Y-118652741D01*
X218409745Y-118392823D01*
X218202602Y-118169016D01*
X217955776Y-117989921D01*
X217873185Y-117937173D01*
X217646250Y-118005366D01*
X216693750Y-118005366D01*
X216466815Y-117937173D01*
X216384224Y-117989921D01*
X216266447Y-118075379D01*
X216095464Y-117867036D01*
X215781408Y-117609297D01*
X215423102Y-117417779D01*
X215034320Y-117299843D01*
X214630000Y-117260021D01*
X214225679Y-117299843D01*
X213836897Y-117417779D01*
X213705386Y-117488073D01*
X213700000Y-117483653D01*
X213700000Y-115649083D01*
X213707789Y-115569999D01*
X213700000Y-115490915D01*
X213700000Y-115490906D01*
X213676705Y-115254385D01*
X213584643Y-114950899D01*
X213435144Y-114671205D01*
X213435143Y-114671203D01*
X213284369Y-114487485D01*
X213284366Y-114487482D01*
X213233950Y-114426050D01*
X213172519Y-114375635D01*
X205816883Y-107020000D01*
X213963117Y-107020000D01*
X223180000Y-116236883D01*
X223180001Y-117483653D01*
X223048814Y-117591314D01*
X222910104Y-117760334D01*
X222807032Y-117953166D01*
X222743562Y-118162402D01*
X222722130Y-118380000D01*
X222722130Y-120380000D01*
X222743562Y-120597598D01*
X222807032Y-120806834D01*
X222910104Y-120999666D01*
X223048814Y-121168686D01*
X223217834Y-121307396D01*
X223410666Y-121410468D01*
X223619902Y-121473938D01*
X223837500Y-121495370D01*
X225742500Y-121495370D01*
X225960098Y-121473938D01*
X226169334Y-121410468D01*
X226362166Y-121307396D01*
X226405386Y-121271927D01*
X226536898Y-121342221D01*
X226925680Y-121460157D01*
X227330000Y-121499979D01*
X227734321Y-121460157D01*
X228123103Y-121342221D01*
X228481408Y-121150703D01*
X228795464Y-120892964D01*
X228966447Y-120684621D01*
X229084224Y-120770079D01*
X229166815Y-120822827D01*
X229393750Y-120754634D01*
X229393750Y-119880000D01*
X229348042Y-119880000D01*
X229362657Y-119831820D01*
X229392500Y-119528818D01*
X229392500Y-119231181D01*
X229362657Y-118928179D01*
X229348042Y-118880000D01*
X229393750Y-118880000D01*
X229393750Y-118005366D01*
X229166815Y-117937173D01*
X229084224Y-117989921D01*
X228966447Y-118075379D01*
X228795464Y-117867036D01*
X228481408Y-117609297D01*
X228123102Y-117417779D01*
X227734320Y-117299843D01*
X227330000Y-117260021D01*
X226925679Y-117299843D01*
X226536897Y-117417779D01*
X226405386Y-117488073D01*
X226400000Y-117483653D01*
X226400000Y-115649084D01*
X226407789Y-115570000D01*
X226400000Y-115490916D01*
X226400000Y-115490906D01*
X226376705Y-115254385D01*
X226284643Y-114950899D01*
X226135144Y-114671205D01*
X226135143Y-114671203D01*
X225984369Y-114487486D01*
X225984368Y-114487485D01*
X225933950Y-114426050D01*
X225872513Y-114375630D01*
X215824368Y-104327485D01*
X215773950Y-104266050D01*
X215528796Y-104064857D01*
X215249101Y-103915357D01*
X214945615Y-103823295D01*
X214709094Y-103800000D01*
X214709084Y-103800000D01*
X214630000Y-103792211D01*
X214550916Y-103800000D01*
X180526038Y-103800000D01*
X180530000Y-103780080D01*
X180530000Y-103447500D01*
X180377500Y-103295000D01*
X179495000Y-103295000D01*
X179495000Y-103720000D01*
X178645000Y-103720000D01*
X178645000Y-103295000D01*
X177961884Y-103295000D01*
X176626804Y-101959920D01*
X177610000Y-101959920D01*
X177610000Y-102292500D01*
X177762500Y-102445000D01*
X178645000Y-102445000D01*
X178645000Y-101562500D01*
X179495000Y-101562500D01*
X179495000Y-102445000D01*
X180377500Y-102445000D01*
X180530000Y-102292500D01*
X180530000Y-101959920D01*
X180506558Y-101842070D01*
X180460575Y-101731057D01*
X180393818Y-101631148D01*
X180308853Y-101546182D01*
X180208944Y-101479425D01*
X180097931Y-101433442D01*
X179980080Y-101410000D01*
X179647500Y-101410000D01*
X179495000Y-101562500D01*
X178645000Y-101562500D01*
X178492500Y-101410000D01*
X178159920Y-101410000D01*
X178042069Y-101433442D01*
X177931056Y-101479425D01*
X177831147Y-101546182D01*
X177746182Y-101631148D01*
X177679425Y-101731057D01*
X177633442Y-101842070D01*
X177610000Y-101959920D01*
X176626804Y-101959920D01*
X176454370Y-101787487D01*
X176403950Y-101726050D01*
X176158796Y-101524857D01*
X175879101Y-101375357D01*
X175575615Y-101283295D01*
X175339094Y-101260000D01*
X175339084Y-101260000D01*
X175260000Y-101252211D01*
X175180916Y-101260000D01*
X175117774Y-101260000D01*
X175084186Y-101232435D01*
X174743689Y-101050435D01*
X174374227Y-100938360D01*
X174086283Y-100910000D01*
X173893717Y-100910000D01*
X173605773Y-100938360D01*
X173236311Y-101050435D01*
X172895814Y-101232435D01*
X172597365Y-101477365D01*
X172352435Y-101775814D01*
X172170435Y-102116311D01*
X172058360Y-102485773D01*
X172020517Y-102870000D01*
X156125000Y-102870000D01*
X156125000Y-74930000D01*
X172020517Y-74930000D01*
X172058360Y-75314227D01*
X172170435Y-75683689D01*
X172352435Y-76024186D01*
X172496721Y-76200000D01*
X172352435Y-76375814D01*
X172170435Y-76716311D01*
X172058360Y-77085773D01*
X172020517Y-77470000D01*
X172058360Y-77854227D01*
X172170435Y-78223689D01*
X172352435Y-78564186D01*
X172496721Y-78740000D01*
X172352435Y-78915814D01*
X172170435Y-79256311D01*
X172058360Y-79625773D01*
X172020517Y-80010000D01*
X172058360Y-80394227D01*
X172170435Y-80763689D01*
X172289562Y-80986559D01*
X172212604Y-81080334D01*
X172109532Y-81273166D01*
X172046062Y-81482402D01*
X172024630Y-81700000D01*
X172024630Y-83400000D01*
X172046062Y-83617598D01*
X172109532Y-83826834D01*
X172212604Y-84019666D01*
X172351314Y-84188686D01*
X172520334Y-84327396D01*
X172713166Y-84430468D01*
X172922402Y-84493938D01*
X173140000Y-84515370D01*
X174840000Y-84515370D01*
X175057598Y-84493938D01*
X175266834Y-84430468D01*
X175459666Y-84327396D01*
X175628686Y-84188686D01*
X175652228Y-84160000D01*
X176450916Y-84160000D01*
X176452920Y-84160197D01*
X174782133Y-85830984D01*
X174743689Y-85810435D01*
X174374227Y-85698360D01*
X174086283Y-85670000D01*
X173893717Y-85670000D01*
X173605773Y-85698360D01*
X173236311Y-85810435D01*
X172895814Y-85992435D01*
X172597365Y-86237365D01*
X172352435Y-86535814D01*
X172170435Y-86876311D01*
X172058360Y-87245773D01*
X172020517Y-87630000D01*
X172058360Y-88014227D01*
X172170435Y-88383689D01*
X172352435Y-88724186D01*
X172496721Y-88900000D01*
X172352435Y-89075814D01*
X172170435Y-89416311D01*
X172058360Y-89785773D01*
X172020517Y-90170000D01*
X172058360Y-90554227D01*
X172170435Y-90923689D01*
X172352435Y-91264186D01*
X172496721Y-91440000D01*
X172352435Y-91615814D01*
X172170435Y-91956311D01*
X172058360Y-92325773D01*
X172020517Y-92710000D01*
X172058360Y-93094227D01*
X172170435Y-93463689D01*
X172289562Y-93686559D01*
X172212604Y-93780334D01*
X172109532Y-93973166D01*
X172046062Y-94182402D01*
X172024630Y-94400000D01*
X172024630Y-96100000D01*
X172046062Y-96317598D01*
X172109532Y-96526834D01*
X172212604Y-96719666D01*
X172351314Y-96888686D01*
X172520334Y-97027396D01*
X172713166Y-97130468D01*
X172922402Y-97193938D01*
X173140000Y-97215370D01*
X174840000Y-97215370D01*
X175057598Y-97193938D01*
X175266834Y-97130468D01*
X175459666Y-97027396D01*
X175628686Y-96888686D01*
X175703077Y-96798040D01*
X175879101Y-96744643D01*
X176158796Y-96595143D01*
X176403950Y-96393950D01*
X176454371Y-96332512D01*
X176959383Y-95827500D01*
X177610000Y-95827500D01*
X177610000Y-96160080D01*
X177633442Y-96277930D01*
X177679425Y-96388943D01*
X177746182Y-96488852D01*
X177831147Y-96573818D01*
X177931056Y-96640575D01*
X178042069Y-96686558D01*
X178159920Y-96710000D01*
X178492500Y-96710000D01*
X178645000Y-96557500D01*
X178645000Y-95675000D01*
X179495000Y-95675000D01*
X179495000Y-96557500D01*
X179647500Y-96710000D01*
X179980080Y-96710000D01*
X180097931Y-96686558D01*
X180208944Y-96640575D01*
X180308853Y-96573818D01*
X180393818Y-96488852D01*
X180460575Y-96388943D01*
X180506558Y-96277930D01*
X180530000Y-96160080D01*
X180530000Y-95827500D01*
X180377500Y-95675000D01*
X179495000Y-95675000D01*
X178645000Y-95675000D01*
X177762500Y-95675000D01*
X177610000Y-95827500D01*
X176959383Y-95827500D01*
X177961883Y-94825000D01*
X178645000Y-94825000D01*
X178645000Y-94141883D01*
X178844383Y-93942500D01*
X179495000Y-93942500D01*
X179495000Y-94825000D01*
X180377500Y-94825000D01*
X180530000Y-94672500D01*
X180530000Y-94339920D01*
X180506558Y-94222070D01*
X180460575Y-94111057D01*
X180393818Y-94011148D01*
X180308853Y-93926182D01*
X180208944Y-93859425D01*
X180097931Y-93813442D01*
X179980080Y-93790000D01*
X179647500Y-93790000D01*
X179495000Y-93942500D01*
X178844383Y-93942500D01*
X181006883Y-91780000D01*
X183483117Y-91780000D01*
X185080001Y-93376885D01*
X185080000Y-94623653D01*
X184948814Y-94731314D01*
X184810104Y-94900334D01*
X184707032Y-95093166D01*
X184643562Y-95302402D01*
X184622130Y-95520000D01*
X184622130Y-97520000D01*
X184643562Y-97737598D01*
X184707032Y-97946834D01*
X184810104Y-98139666D01*
X184948814Y-98308686D01*
X185117834Y-98447396D01*
X185310666Y-98550468D01*
X185519902Y-98613938D01*
X185737500Y-98635370D01*
X187642500Y-98635370D01*
X187860098Y-98613938D01*
X188069334Y-98550468D01*
X188262166Y-98447396D01*
X188305386Y-98411927D01*
X188436898Y-98482221D01*
X188825680Y-98600157D01*
X189230000Y-98639979D01*
X189634321Y-98600157D01*
X190023103Y-98482221D01*
X190381408Y-98290703D01*
X190695464Y-98032964D01*
X190866447Y-97824621D01*
X190984224Y-97910079D01*
X191066815Y-97962827D01*
X191293750Y-97894634D01*
X191293750Y-97020000D01*
X192246250Y-97020000D01*
X192246250Y-97894634D01*
X192473185Y-97962827D01*
X192555776Y-97910079D01*
X192802602Y-97730984D01*
X193009745Y-97507177D01*
X193169246Y-97247259D01*
X193105857Y-97020000D01*
X192246250Y-97020000D01*
X191293750Y-97020000D01*
X191248042Y-97020000D01*
X191262657Y-96971820D01*
X191292500Y-96668818D01*
X191292500Y-96371181D01*
X191262657Y-96068179D01*
X191248042Y-96020000D01*
X191293750Y-96020000D01*
X191293750Y-95145366D01*
X192246250Y-95145366D01*
X192246250Y-96020000D01*
X193105857Y-96020000D01*
X193169246Y-95792741D01*
X193009745Y-95532823D01*
X192802602Y-95309016D01*
X192555776Y-95129921D01*
X192473185Y-95077173D01*
X192246250Y-95145366D01*
X191293750Y-95145366D01*
X191066815Y-95077173D01*
X190984224Y-95129921D01*
X190866447Y-95215379D01*
X190695464Y-95007036D01*
X190381408Y-94749297D01*
X190023102Y-94557779D01*
X189634320Y-94439843D01*
X189230000Y-94400021D01*
X188825679Y-94439843D01*
X188436897Y-94557779D01*
X188305386Y-94628073D01*
X188300000Y-94623653D01*
X188300000Y-92789083D01*
X188307789Y-92709999D01*
X188300000Y-92630915D01*
X188300000Y-92630906D01*
X188276705Y-92394385D01*
X188184643Y-92090899D01*
X188130479Y-91989565D01*
X188035143Y-91811203D01*
X187884369Y-91627485D01*
X187884366Y-91627482D01*
X187833950Y-91566050D01*
X187772518Y-91515634D01*
X185496883Y-89240000D01*
X193643117Y-89240000D01*
X197780001Y-93376884D01*
X197780000Y-94623653D01*
X197648814Y-94731314D01*
X197510104Y-94900334D01*
X197407032Y-95093166D01*
X197343562Y-95302402D01*
X197322130Y-95520000D01*
X197322130Y-97520000D01*
X197343562Y-97737598D01*
X197407032Y-97946834D01*
X197510104Y-98139666D01*
X197648814Y-98308686D01*
X197817834Y-98447396D01*
X198010666Y-98550468D01*
X198219902Y-98613938D01*
X198437500Y-98635370D01*
X200342500Y-98635370D01*
X200560098Y-98613938D01*
X200769334Y-98550468D01*
X200962166Y-98447396D01*
X201005386Y-98411927D01*
X201136898Y-98482221D01*
X201525680Y-98600157D01*
X201930000Y-98639979D01*
X202334321Y-98600157D01*
X202723103Y-98482221D01*
X203081408Y-98290703D01*
X203395464Y-98032964D01*
X203566447Y-97824621D01*
X203684224Y-97910079D01*
X203766815Y-97962827D01*
X203993750Y-97894634D01*
X203993750Y-97020000D01*
X204946250Y-97020000D01*
X204946250Y-97894634D01*
X205173185Y-97962827D01*
X205255776Y-97910079D01*
X205502602Y-97730984D01*
X205709745Y-97507177D01*
X205869246Y-97247259D01*
X205805857Y-97020000D01*
X204946250Y-97020000D01*
X203993750Y-97020000D01*
X203948042Y-97020000D01*
X203962657Y-96971820D01*
X203992500Y-96668818D01*
X203992500Y-96371181D01*
X203962657Y-96068179D01*
X203948042Y-96020000D01*
X203993750Y-96020000D01*
X203993750Y-95145366D01*
X204946250Y-95145366D01*
X204946250Y-96020000D01*
X205805857Y-96020000D01*
X205869246Y-95792741D01*
X205709745Y-95532823D01*
X205502602Y-95309016D01*
X205255776Y-95129921D01*
X205173185Y-95077173D01*
X204946250Y-95145366D01*
X203993750Y-95145366D01*
X203766815Y-95077173D01*
X203684224Y-95129921D01*
X203566447Y-95215379D01*
X203395464Y-95007036D01*
X203081408Y-94749297D01*
X202723102Y-94557779D01*
X202334320Y-94439843D01*
X201930000Y-94400021D01*
X201525679Y-94439843D01*
X201136897Y-94557779D01*
X201005386Y-94628073D01*
X201000000Y-94623653D01*
X201000000Y-92789084D01*
X201007789Y-92710000D01*
X201000000Y-92630916D01*
X201000000Y-92630906D01*
X200976705Y-92394385D01*
X200884643Y-92090899D01*
X200735144Y-91811205D01*
X200735143Y-91811203D01*
X200584369Y-91627486D01*
X200584368Y-91627485D01*
X200533950Y-91566050D01*
X200472512Y-91515629D01*
X195656883Y-86700000D01*
X203803117Y-86700000D01*
X210480000Y-93376884D01*
X210480001Y-94623653D01*
X210348814Y-94731314D01*
X210210104Y-94900334D01*
X210107032Y-95093166D01*
X210043562Y-95302402D01*
X210022130Y-95520000D01*
X210022130Y-97520000D01*
X210043562Y-97737598D01*
X210107032Y-97946834D01*
X210210104Y-98139666D01*
X210348814Y-98308686D01*
X210517834Y-98447396D01*
X210710666Y-98550468D01*
X210919902Y-98613938D01*
X211137500Y-98635370D01*
X213042500Y-98635370D01*
X213260098Y-98613938D01*
X213469334Y-98550468D01*
X213662166Y-98447396D01*
X213705386Y-98411927D01*
X213836898Y-98482221D01*
X214225680Y-98600157D01*
X214630000Y-98639979D01*
X215034321Y-98600157D01*
X215423103Y-98482221D01*
X215781408Y-98290703D01*
X216095464Y-98032964D01*
X216266447Y-97824621D01*
X216384224Y-97910079D01*
X216466815Y-97962827D01*
X216693750Y-97894634D01*
X216693750Y-97020000D01*
X217646250Y-97020000D01*
X217646250Y-97894634D01*
X217873185Y-97962827D01*
X217955776Y-97910079D01*
X218202602Y-97730984D01*
X218409745Y-97507177D01*
X218569246Y-97247259D01*
X218505857Y-97020000D01*
X217646250Y-97020000D01*
X216693750Y-97020000D01*
X216648042Y-97020000D01*
X216662657Y-96971820D01*
X216692500Y-96668818D01*
X216692500Y-96371181D01*
X216662657Y-96068179D01*
X216648042Y-96020000D01*
X216693750Y-96020000D01*
X216693750Y-95145366D01*
X217646250Y-95145366D01*
X217646250Y-96020000D01*
X218505857Y-96020000D01*
X218569246Y-95792741D01*
X218409745Y-95532823D01*
X218202602Y-95309016D01*
X217955776Y-95129921D01*
X217873185Y-95077173D01*
X217646250Y-95145366D01*
X216693750Y-95145366D01*
X216466815Y-95077173D01*
X216384224Y-95129921D01*
X216266447Y-95215379D01*
X216095464Y-95007036D01*
X215781408Y-94749297D01*
X215423102Y-94557779D01*
X215034320Y-94439843D01*
X214630000Y-94400021D01*
X214225679Y-94439843D01*
X213836897Y-94557779D01*
X213705386Y-94628073D01*
X213700000Y-94623653D01*
X213700000Y-92789083D01*
X213707789Y-92709999D01*
X213700000Y-92630915D01*
X213700000Y-92630906D01*
X213676705Y-92394385D01*
X213584643Y-92090899D01*
X213435144Y-91811205D01*
X213435143Y-91811203D01*
X213284369Y-91627485D01*
X213284366Y-91627482D01*
X213233950Y-91566050D01*
X213172519Y-91515635D01*
X205816883Y-84160000D01*
X213963117Y-84160000D01*
X223180000Y-93376883D01*
X223180001Y-94623653D01*
X223048814Y-94731314D01*
X222910104Y-94900334D01*
X222807032Y-95093166D01*
X222743562Y-95302402D01*
X222722130Y-95520000D01*
X222722130Y-97520000D01*
X222743562Y-97737598D01*
X222807032Y-97946834D01*
X222910104Y-98139666D01*
X223048814Y-98308686D01*
X223217834Y-98447396D01*
X223410666Y-98550468D01*
X223619902Y-98613938D01*
X223837500Y-98635370D01*
X225742500Y-98635370D01*
X225960098Y-98613938D01*
X226169334Y-98550468D01*
X226362166Y-98447396D01*
X226405386Y-98411927D01*
X226536898Y-98482221D01*
X226925680Y-98600157D01*
X227330000Y-98639979D01*
X227734321Y-98600157D01*
X228123103Y-98482221D01*
X228481408Y-98290703D01*
X228795464Y-98032964D01*
X228966447Y-97824621D01*
X229084224Y-97910079D01*
X229166815Y-97962827D01*
X229393750Y-97894634D01*
X229393750Y-97020000D01*
X229348042Y-97020000D01*
X229362657Y-96971820D01*
X229392500Y-96668818D01*
X229392500Y-96371181D01*
X229362657Y-96068179D01*
X229348042Y-96020000D01*
X229393750Y-96020000D01*
X229393750Y-95145366D01*
X229166815Y-95077173D01*
X229084224Y-95129921D01*
X228966447Y-95215379D01*
X228795464Y-95007036D01*
X228481408Y-94749297D01*
X228123102Y-94557779D01*
X227734320Y-94439843D01*
X227330000Y-94400021D01*
X226925679Y-94439843D01*
X226536897Y-94557779D01*
X226405386Y-94628073D01*
X226400000Y-94623653D01*
X226400000Y-92789084D01*
X226407789Y-92710000D01*
X226400000Y-92630916D01*
X226400000Y-92630906D01*
X226376705Y-92394385D01*
X226284643Y-92090899D01*
X226135144Y-91811205D01*
X226135143Y-91811203D01*
X225984369Y-91627486D01*
X225984368Y-91627485D01*
X225933950Y-91566050D01*
X225872513Y-91515630D01*
X215824369Y-81467486D01*
X215773950Y-81406050D01*
X215528796Y-81204857D01*
X215249101Y-81055357D01*
X214945615Y-80963295D01*
X214709094Y-80940000D01*
X214709084Y-80940000D01*
X214630000Y-80932211D01*
X214550916Y-80940000D01*
X180419084Y-80940000D01*
X180417081Y-80939803D01*
X185595500Y-75761384D01*
X185737500Y-75775370D01*
X187642500Y-75775370D01*
X187860098Y-75753938D01*
X188069334Y-75690468D01*
X188262166Y-75587396D01*
X188305386Y-75551927D01*
X188436898Y-75622221D01*
X188825680Y-75740157D01*
X189230000Y-75779979D01*
X189634321Y-75740157D01*
X190023103Y-75622221D01*
X190381408Y-75430703D01*
X190695464Y-75172964D01*
X190866447Y-74964621D01*
X190984224Y-75050079D01*
X191066815Y-75102827D01*
X191293750Y-75034634D01*
X191293750Y-74160000D01*
X192246250Y-74160000D01*
X192246250Y-75034634D01*
X192473185Y-75102827D01*
X192555776Y-75050079D01*
X192802602Y-74870984D01*
X193009745Y-74647177D01*
X193169246Y-74387259D01*
X193105857Y-74160000D01*
X192246250Y-74160000D01*
X191293750Y-74160000D01*
X191248042Y-74160000D01*
X191262657Y-74111820D01*
X191292500Y-73808818D01*
X191292500Y-73511181D01*
X191262657Y-73208179D01*
X191248042Y-73160000D01*
X191293750Y-73160000D01*
X191293750Y-72285366D01*
X192246250Y-72285366D01*
X192246250Y-73160000D01*
X193105857Y-73160000D01*
X193169246Y-72932741D01*
X193009745Y-72672823D01*
X192802602Y-72449016D01*
X192555776Y-72269921D01*
X192473185Y-72217173D01*
X192246250Y-72285366D01*
X191293750Y-72285366D01*
X191066815Y-72217173D01*
X190984224Y-72269921D01*
X190866447Y-72355379D01*
X190695464Y-72147036D01*
X190381408Y-71889297D01*
X190023102Y-71697779D01*
X189634320Y-71579843D01*
X189230000Y-71540021D01*
X188825679Y-71579843D01*
X188436897Y-71697779D01*
X188305386Y-71768073D01*
X188262166Y-71732604D01*
X188069334Y-71629532D01*
X187860098Y-71566062D01*
X187642500Y-71544630D01*
X185737500Y-71544630D01*
X185519902Y-71566062D01*
X185310666Y-71629532D01*
X185117834Y-71732604D01*
X184948814Y-71871314D01*
X184810104Y-72040334D01*
X184720230Y-72208475D01*
X184521203Y-72314857D01*
X184490000Y-72340465D01*
X184490000Y-70516883D01*
X186086884Y-68920000D01*
X196183117Y-68920000D01*
X197780001Y-70516885D01*
X197780000Y-71763653D01*
X197648814Y-71871314D01*
X197510104Y-72040334D01*
X197407032Y-72233166D01*
X197343562Y-72442402D01*
X197322130Y-72660000D01*
X197322130Y-74660000D01*
X197343562Y-74877598D01*
X197407032Y-75086834D01*
X197510104Y-75279666D01*
X197648814Y-75448686D01*
X197817834Y-75587396D01*
X198010666Y-75690468D01*
X198219902Y-75753938D01*
X198437500Y-75775370D01*
X200342500Y-75775370D01*
X200560098Y-75753938D01*
X200769334Y-75690468D01*
X200962166Y-75587396D01*
X201005386Y-75551927D01*
X201136898Y-75622221D01*
X201525680Y-75740157D01*
X201930000Y-75779979D01*
X202334321Y-75740157D01*
X202723103Y-75622221D01*
X203081408Y-75430703D01*
X203395464Y-75172964D01*
X203566447Y-74964621D01*
X203684224Y-75050079D01*
X203766815Y-75102827D01*
X203993750Y-75034634D01*
X203993750Y-74160000D01*
X204946250Y-74160000D01*
X204946250Y-75034634D01*
X205173185Y-75102827D01*
X205255776Y-75050079D01*
X205502602Y-74870984D01*
X205709745Y-74647177D01*
X205869246Y-74387259D01*
X205805857Y-74160000D01*
X204946250Y-74160000D01*
X203993750Y-74160000D01*
X203948042Y-74160000D01*
X203962657Y-74111820D01*
X203992500Y-73808818D01*
X203992500Y-73511181D01*
X203962657Y-73208179D01*
X203948042Y-73160000D01*
X203993750Y-73160000D01*
X203993750Y-72285366D01*
X204946250Y-72285366D01*
X204946250Y-73160000D01*
X205805857Y-73160000D01*
X205869246Y-72932741D01*
X205709745Y-72672823D01*
X205502602Y-72449016D01*
X205255776Y-72269921D01*
X205173185Y-72217173D01*
X204946250Y-72285366D01*
X203993750Y-72285366D01*
X203766815Y-72217173D01*
X203684224Y-72269921D01*
X203566447Y-72355379D01*
X203395464Y-72147036D01*
X203081408Y-71889297D01*
X202723102Y-71697779D01*
X202334320Y-71579843D01*
X201930000Y-71540021D01*
X201525679Y-71579843D01*
X201136897Y-71697779D01*
X201005386Y-71768073D01*
X201000000Y-71763653D01*
X201000000Y-69929083D01*
X201007789Y-69849999D01*
X201000000Y-69770915D01*
X201000000Y-69770906D01*
X200976705Y-69534385D01*
X200884643Y-69230899D01*
X200874395Y-69211726D01*
X200735143Y-68951203D01*
X200584369Y-68767485D01*
X200584366Y-68767482D01*
X200533950Y-68706050D01*
X200472518Y-68655634D01*
X198196883Y-66380000D01*
X206343117Y-66380000D01*
X210480000Y-70516883D01*
X210480000Y-71763653D01*
X210348814Y-71871314D01*
X210210104Y-72040334D01*
X210107032Y-72233166D01*
X210043562Y-72442402D01*
X210022130Y-72660000D01*
X210022130Y-74660000D01*
X210043562Y-74877598D01*
X210107032Y-75086834D01*
X210210104Y-75279666D01*
X210348814Y-75448686D01*
X210517834Y-75587396D01*
X210710666Y-75690468D01*
X210919902Y-75753938D01*
X211137500Y-75775370D01*
X213042500Y-75775370D01*
X213260098Y-75753938D01*
X213469334Y-75690468D01*
X213662166Y-75587396D01*
X213705386Y-75551927D01*
X213836898Y-75622221D01*
X214225680Y-75740157D01*
X214630000Y-75779979D01*
X215034321Y-75740157D01*
X215423103Y-75622221D01*
X215781408Y-75430703D01*
X216095464Y-75172964D01*
X216266447Y-74964621D01*
X216384224Y-75050079D01*
X216466815Y-75102827D01*
X216693750Y-75034634D01*
X216693750Y-74160000D01*
X217646250Y-74160000D01*
X217646250Y-75034634D01*
X217873185Y-75102827D01*
X217955776Y-75050079D01*
X218202602Y-74870984D01*
X218409745Y-74647177D01*
X218569246Y-74387259D01*
X218505857Y-74160000D01*
X217646250Y-74160000D01*
X216693750Y-74160000D01*
X216648042Y-74160000D01*
X216662657Y-74111820D01*
X216692500Y-73808818D01*
X216692500Y-73511181D01*
X216662657Y-73208179D01*
X216648042Y-73160000D01*
X216693750Y-73160000D01*
X216693750Y-72285366D01*
X217646250Y-72285366D01*
X217646250Y-73160000D01*
X218505857Y-73160000D01*
X218569246Y-72932741D01*
X218409745Y-72672823D01*
X218202602Y-72449016D01*
X217955776Y-72269921D01*
X217873185Y-72217173D01*
X217646250Y-72285366D01*
X216693750Y-72285366D01*
X216466815Y-72217173D01*
X216384224Y-72269921D01*
X216266447Y-72355379D01*
X216095464Y-72147036D01*
X215781408Y-71889297D01*
X215423102Y-71697779D01*
X215034320Y-71579843D01*
X214630000Y-71540021D01*
X214225679Y-71579843D01*
X213836897Y-71697779D01*
X213705386Y-71768073D01*
X213700000Y-71763653D01*
X213700000Y-69929084D01*
X213707789Y-69850000D01*
X213700000Y-69770916D01*
X213700000Y-69770906D01*
X213676705Y-69534385D01*
X213584643Y-69230899D01*
X213435144Y-68951205D01*
X213435143Y-68951203D01*
X213314863Y-68804643D01*
X213233950Y-68706050D01*
X213172513Y-68655630D01*
X208356883Y-63840000D01*
X216503117Y-63840000D01*
X223180001Y-70516885D01*
X223180000Y-71763653D01*
X223048814Y-71871314D01*
X222910104Y-72040334D01*
X222807032Y-72233166D01*
X222743562Y-72442402D01*
X222722130Y-72660000D01*
X222722130Y-74660000D01*
X222743562Y-74877598D01*
X222807032Y-75086834D01*
X222910104Y-75279666D01*
X223048814Y-75448686D01*
X223217834Y-75587396D01*
X223410666Y-75690468D01*
X223619902Y-75753938D01*
X223837500Y-75775370D01*
X225742500Y-75775370D01*
X225960098Y-75753938D01*
X226169334Y-75690468D01*
X226362166Y-75587396D01*
X226405386Y-75551927D01*
X226536898Y-75622221D01*
X226925680Y-75740157D01*
X227330000Y-75779979D01*
X227734321Y-75740157D01*
X228123103Y-75622221D01*
X228481408Y-75430703D01*
X228795464Y-75172964D01*
X228966447Y-74964621D01*
X229084224Y-75050079D01*
X229166815Y-75102827D01*
X229393750Y-75034634D01*
X229393750Y-74160000D01*
X229348042Y-74160000D01*
X229362657Y-74111820D01*
X229392500Y-73808818D01*
X229392500Y-73511181D01*
X229362657Y-73208179D01*
X229348042Y-73160000D01*
X229393750Y-73160000D01*
X229393750Y-72285366D01*
X229166815Y-72217173D01*
X229084224Y-72269921D01*
X228966447Y-72355379D01*
X228795464Y-72147036D01*
X228481408Y-71889297D01*
X228123102Y-71697779D01*
X227734320Y-71579843D01*
X227330000Y-71540021D01*
X226925679Y-71579843D01*
X226536897Y-71697779D01*
X226405386Y-71768073D01*
X226400000Y-71763653D01*
X226400000Y-69929083D01*
X226407789Y-69849999D01*
X226400000Y-69770915D01*
X226400000Y-69770906D01*
X226376705Y-69534385D01*
X226284643Y-69230899D01*
X226135144Y-68951205D01*
X226135143Y-68951203D01*
X225984369Y-68767485D01*
X225984366Y-68767482D01*
X225933950Y-68706050D01*
X225872518Y-68655634D01*
X218364371Y-61147488D01*
X218313950Y-61086050D01*
X218068796Y-60884857D01*
X217789101Y-60735357D01*
X217485615Y-60643295D01*
X217249094Y-60620000D01*
X217249084Y-60620000D01*
X217170000Y-60612211D01*
X217090916Y-60620000D01*
X185499083Y-60620000D01*
X185419999Y-60612211D01*
X185340915Y-60620000D01*
X185340906Y-60620000D01*
X185104385Y-60643295D01*
X184800899Y-60735357D01*
X184670703Y-60804948D01*
X184521203Y-60884857D01*
X184337485Y-61035631D01*
X184337482Y-61035634D01*
X184276050Y-61086050D01*
X184225634Y-61147482D01*
X176717483Y-68655634D01*
X176656051Y-68706050D01*
X176605635Y-68767482D01*
X176605631Y-68767486D01*
X176454857Y-68951204D01*
X176315606Y-69211726D01*
X176305358Y-69230899D01*
X176213297Y-69534384D01*
X176213296Y-69534386D01*
X176182211Y-69850000D01*
X176190001Y-69929093D01*
X176190000Y-72310905D01*
X176190000Y-72993116D01*
X175863117Y-73320000D01*
X175117774Y-73320000D01*
X175084186Y-73292435D01*
X174743689Y-73110435D01*
X174374227Y-72998360D01*
X174086283Y-72970000D01*
X173893717Y-72970000D01*
X173605773Y-72998360D01*
X173236311Y-73110435D01*
X172895814Y-73292435D01*
X172597365Y-73537365D01*
X172352435Y-73835814D01*
X172170435Y-74176311D01*
X172058360Y-74545773D01*
X172020517Y-74930000D01*
X156125000Y-74930000D01*
X156125000Y-70488274D01*
X159976891Y-70488274D01*
X160126643Y-70732185D01*
X160321102Y-70942194D01*
X160552796Y-71110230D01*
X160651729Y-71163092D01*
X160865000Y-71086500D01*
X160865000Y-70275000D01*
X160045710Y-70275000D01*
X159976891Y-70488274D01*
X156125000Y-70488274D01*
X156125000Y-69211726D01*
X159976891Y-69211726D01*
X160045710Y-69425000D01*
X160865000Y-69425000D01*
X160865000Y-68613500D01*
X161715000Y-68613500D01*
X161715000Y-69425000D01*
X161910728Y-69425000D01*
X161898360Y-69465773D01*
X161860517Y-69850000D01*
X161898360Y-70234227D01*
X161910728Y-70275000D01*
X161715000Y-70275000D01*
X161715000Y-71086500D01*
X161928271Y-71163092D01*
X162027204Y-71110230D01*
X162216209Y-70973154D01*
X162437365Y-71242635D01*
X162735814Y-71487565D01*
X163076311Y-71669565D01*
X163445773Y-71781640D01*
X163733717Y-71810000D01*
X163926283Y-71810000D01*
X164214227Y-71781640D01*
X164583689Y-71669565D01*
X164924186Y-71487565D01*
X165100000Y-71343279D01*
X165275814Y-71487565D01*
X165616311Y-71669565D01*
X165985773Y-71781640D01*
X166273717Y-71810000D01*
X166466283Y-71810000D01*
X166754227Y-71781640D01*
X167123689Y-71669565D01*
X167464186Y-71487565D01*
X167640000Y-71343279D01*
X167815814Y-71487565D01*
X168156311Y-71669565D01*
X168525773Y-71781640D01*
X168813717Y-71810000D01*
X169006283Y-71810000D01*
X169294227Y-71781640D01*
X169663689Y-71669565D01*
X169886559Y-71550438D01*
X169980334Y-71627396D01*
X170173166Y-71730468D01*
X170382402Y-71793938D01*
X170600000Y-71815370D01*
X172300000Y-71815370D01*
X172517598Y-71793938D01*
X172726834Y-71730468D01*
X172919666Y-71627396D01*
X173088686Y-71488686D01*
X173227396Y-71319666D01*
X173330468Y-71126834D01*
X173393938Y-70917598D01*
X173415370Y-70700000D01*
X173415370Y-69000000D01*
X173393938Y-68782402D01*
X173330468Y-68573166D01*
X173227396Y-68380334D01*
X173088686Y-68211314D01*
X172919666Y-68072604D01*
X172726834Y-67969532D01*
X172517598Y-67906062D01*
X172300000Y-67884630D01*
X170600000Y-67884630D01*
X170382402Y-67906062D01*
X170173166Y-67969532D01*
X169980334Y-68072604D01*
X169886559Y-68149562D01*
X169663689Y-68030435D01*
X169294227Y-67918360D01*
X169006283Y-67890000D01*
X168813717Y-67890000D01*
X168525773Y-67918360D01*
X168156311Y-68030435D01*
X167815814Y-68212435D01*
X167640000Y-68356721D01*
X167464186Y-68212435D01*
X167123689Y-68030435D01*
X166754227Y-67918360D01*
X166466283Y-67890000D01*
X166273717Y-67890000D01*
X165985773Y-67918360D01*
X165616311Y-68030435D01*
X165275814Y-68212435D01*
X165100000Y-68356721D01*
X164924186Y-68212435D01*
X164583689Y-68030435D01*
X164214227Y-67918360D01*
X163926283Y-67890000D01*
X163733717Y-67890000D01*
X163445773Y-67918360D01*
X163076311Y-68030435D01*
X162735814Y-68212435D01*
X162437365Y-68457365D01*
X162216209Y-68726846D01*
X162027204Y-68589770D01*
X161928271Y-68536908D01*
X161715000Y-68613500D01*
X160865000Y-68613500D01*
X160651729Y-68536908D01*
X160552796Y-68589770D01*
X160321102Y-68757806D01*
X160126643Y-68967815D01*
X159976891Y-69211726D01*
X156125000Y-69211726D01*
X156125000Y-62868274D01*
X159976891Y-62868274D01*
X160126643Y-63112185D01*
X160321102Y-63322194D01*
X160552796Y-63490230D01*
X160651729Y-63543092D01*
X160865000Y-63466500D01*
X160865000Y-62655000D01*
X160045710Y-62655000D01*
X159976891Y-62868274D01*
X156125000Y-62868274D01*
X156125000Y-61591726D01*
X159976891Y-61591726D01*
X160045710Y-61805000D01*
X160865000Y-61805000D01*
X160865000Y-60993500D01*
X161715000Y-60993500D01*
X161715000Y-61805000D01*
X161910728Y-61805000D01*
X161898360Y-61845773D01*
X161860517Y-62230000D01*
X161898360Y-62614227D01*
X161910728Y-62655000D01*
X161715000Y-62655000D01*
X161715000Y-63466500D01*
X161928271Y-63543092D01*
X162027204Y-63490230D01*
X162216209Y-63353154D01*
X162437365Y-63622635D01*
X162735814Y-63867565D01*
X163076311Y-64049565D01*
X163445773Y-64161640D01*
X163733717Y-64190000D01*
X163926283Y-64190000D01*
X164214227Y-64161640D01*
X164583689Y-64049565D01*
X164924186Y-63867565D01*
X165100000Y-63723279D01*
X165275814Y-63867565D01*
X165616311Y-64049565D01*
X165985773Y-64161640D01*
X166273717Y-64190000D01*
X166466283Y-64190000D01*
X166754227Y-64161640D01*
X167123689Y-64049565D01*
X167464186Y-63867565D01*
X167640000Y-63723279D01*
X167815814Y-63867565D01*
X168156311Y-64049565D01*
X168525773Y-64161640D01*
X168813717Y-64190000D01*
X169006283Y-64190000D01*
X169294227Y-64161640D01*
X169663689Y-64049565D01*
X169886559Y-63930438D01*
X169980334Y-64007396D01*
X170173166Y-64110468D01*
X170382402Y-64173938D01*
X170600000Y-64195370D01*
X172300000Y-64195370D01*
X172517598Y-64173938D01*
X172726834Y-64110468D01*
X172919666Y-64007396D01*
X173088686Y-63868686D01*
X173227396Y-63699666D01*
X173330468Y-63506834D01*
X173393938Y-63297598D01*
X173415370Y-63080000D01*
X173415370Y-61380000D01*
X173393938Y-61162402D01*
X173330468Y-60953166D01*
X173227396Y-60760334D01*
X173088686Y-60591314D01*
X172919666Y-60452604D01*
X172726834Y-60349532D01*
X172517598Y-60286062D01*
X172300000Y-60264630D01*
X170600000Y-60264630D01*
X170382402Y-60286062D01*
X170173166Y-60349532D01*
X169980334Y-60452604D01*
X169886559Y-60529562D01*
X169663689Y-60410435D01*
X169294227Y-60298360D01*
X169006283Y-60270000D01*
X168813717Y-60270000D01*
X168525773Y-60298360D01*
X168156311Y-60410435D01*
X167815814Y-60592435D01*
X167640000Y-60736721D01*
X167464186Y-60592435D01*
X167123689Y-60410435D01*
X166754227Y-60298360D01*
X166466283Y-60270000D01*
X166273717Y-60270000D01*
X165985773Y-60298360D01*
X165616311Y-60410435D01*
X165275814Y-60592435D01*
X165100000Y-60736721D01*
X164924186Y-60592435D01*
X164583689Y-60410435D01*
X164214227Y-60298360D01*
X163926283Y-60270000D01*
X163733717Y-60270000D01*
X163445773Y-60298360D01*
X163076311Y-60410435D01*
X162735814Y-60592435D01*
X162437365Y-60837365D01*
X162216209Y-61106846D01*
X162027204Y-60969770D01*
X161928271Y-60916908D01*
X161715000Y-60993500D01*
X160865000Y-60993500D01*
X160651729Y-60916908D01*
X160552796Y-60969770D01*
X160321102Y-61137806D01*
X160126643Y-61347815D01*
X159976891Y-61591726D01*
X156125000Y-61591726D01*
X156125000Y-50715000D01*
X164250749Y-50715000D01*
X164228125Y-50730117D01*
X164228125Y-50730117D01*
G37*
X164228125Y-50730117D02*
X163760117Y-51198125D01*
X163392406Y-51748443D01*
X163139123Y-52359924D01*
X163010000Y-53009069D01*
X163010000Y-53670931D01*
X163139123Y-54320076D01*
X163392406Y-54931557D01*
X163760117Y-55481875D01*
X164228125Y-55949883D01*
X164778443Y-56317594D01*
X165389924Y-56570877D01*
X166039069Y-56700000D01*
X166700931Y-56700000D01*
X167350076Y-56570877D01*
X167961557Y-56317594D01*
X168511875Y-55949883D01*
X168863102Y-55598656D01*
X181879994Y-55598656D01*
X182149960Y-55858972D01*
X182655414Y-55952994D01*
X183169499Y-55946601D01*
X183610040Y-55858972D01*
X183880006Y-55598656D01*
X186959994Y-55598656D01*
X187229960Y-55858972D01*
X187735414Y-55952994D01*
X188249499Y-55946601D01*
X188690040Y-55858972D01*
X188960006Y-55598656D01*
X187960000Y-54598650D01*
X186959994Y-55598656D01*
X183880006Y-55598656D01*
X182880000Y-54598650D01*
X181879994Y-55598656D01*
X168863102Y-55598656D01*
X168979883Y-55481875D01*
X169347594Y-54931557D01*
X169600877Y-54320076D01*
X169730000Y-53670931D01*
X169730000Y-53115414D01*
X180267006Y-53115414D01*
X180273399Y-53629499D01*
X180361028Y-54070040D01*
X180621344Y-54340006D01*
X181621350Y-53340000D01*
X184138650Y-53340000D01*
X185138656Y-54340006D01*
X185398972Y-54070040D01*
X185419295Y-53960783D01*
X185441028Y-54070040D01*
X185701344Y-54340006D01*
X186701350Y-53340000D01*
X189218650Y-53340000D01*
X190218656Y-54340006D01*
X190478972Y-54070040D01*
X190572994Y-53564586D01*
X190566601Y-53050501D01*
X190478972Y-52609960D01*
X190218656Y-52339994D01*
X189218650Y-53340000D01*
X186701350Y-53340000D01*
X185701344Y-52339994D01*
X185441028Y-52609960D01*
X185420705Y-52719217D01*
X185398972Y-52609960D01*
X185138656Y-52339994D01*
X184138650Y-53340000D01*
X181621350Y-53340000D01*
X180621344Y-52339994D01*
X180361028Y-52609960D01*
X180267006Y-53115414D01*
X169730000Y-53115414D01*
X169730000Y-53009069D01*
X169600877Y-52359924D01*
X169347594Y-51748443D01*
X168979883Y-51198125D01*
X168863102Y-51081344D01*
X181879994Y-51081344D01*
X182880000Y-52081350D01*
X183880006Y-51081344D01*
X186959994Y-51081344D01*
X187960000Y-52081350D01*
X188960006Y-51081344D01*
X188690040Y-50821028D01*
X188184586Y-50727006D01*
X187670501Y-50733399D01*
X187229960Y-50821028D01*
X186959994Y-51081344D01*
X183880006Y-51081344D01*
X183610040Y-50821028D01*
X183104586Y-50727006D01*
X182590501Y-50733399D01*
X182149960Y-50821028D01*
X181879994Y-51081344D01*
X168863102Y-51081344D01*
X168511875Y-50730117D01*
X168489251Y-50715000D01*
X193460749Y-50715000D01*
X193438125Y-50730117D01*
X192970117Y-51198125D01*
X192602406Y-51748443D01*
X192349123Y-52359924D01*
X192220000Y-53009069D01*
X192220000Y-53670931D01*
X192349123Y-54320076D01*
X192602406Y-54931557D01*
X192970117Y-55481875D01*
X193438125Y-55949883D01*
X193988443Y-56317594D01*
X194599924Y-56570877D01*
X195249069Y-56700000D01*
X195910931Y-56700000D01*
X196560076Y-56570877D01*
X197171557Y-56317594D01*
X197721875Y-55949883D01*
X198120000Y-55551758D01*
X198518125Y-55949883D01*
X199068443Y-56317594D01*
X199679924Y-56570877D01*
X200329069Y-56700000D01*
X200990931Y-56700000D01*
X201640076Y-56570877D01*
X202251557Y-56317594D01*
X202801875Y-55949883D01*
X203269883Y-55481875D01*
X203637594Y-54931557D01*
X203835000Y-54454975D01*
X204032406Y-54931557D01*
X204400117Y-55481875D01*
X204868125Y-55949883D01*
X205418443Y-56317594D01*
X206029924Y-56570877D01*
X206679069Y-56700000D01*
X207340931Y-56700000D01*
X207990076Y-56570877D01*
X208601557Y-56317594D01*
X209151875Y-55949883D01*
X209619883Y-55481875D01*
X209987594Y-54931557D01*
X210185000Y-54454975D01*
X210382406Y-54931557D01*
X210750117Y-55481875D01*
X211218125Y-55949883D01*
X211768443Y-56317594D01*
X212379924Y-56570877D01*
X213029069Y-56700000D01*
X213690931Y-56700000D01*
X214340076Y-56570877D01*
X214951557Y-56317594D01*
X215501875Y-55949883D01*
X215900000Y-55551758D01*
X216298125Y-55949883D01*
X216848443Y-56317594D01*
X217114251Y-56427695D01*
X217140856Y-56515401D01*
X217149109Y-56535324D01*
X217241519Y-56708211D01*
X217253499Y-56726140D01*
X217377862Y-56877676D01*
X217385111Y-56885675D01*
X230765509Y-70266073D01*
X230879566Y-70405051D01*
X230961760Y-70558826D01*
X231012377Y-70725690D01*
X231030000Y-70904615D01*
X231030000Y-72586663D01*
X230902602Y-72449016D01*
X230655776Y-72269921D01*
X230573185Y-72217173D01*
X230346250Y-72285366D01*
X230346250Y-73160000D01*
X230780000Y-73160000D01*
X230780000Y-74160000D01*
X230346250Y-74160000D01*
X230346250Y-75034634D01*
X230573185Y-75102827D01*
X230655776Y-75050079D01*
X230902602Y-74870984D01*
X231030000Y-74733337D01*
X231030000Y-95446663D01*
X230902602Y-95309016D01*
X230655776Y-95129921D01*
X230573185Y-95077173D01*
X230346250Y-95145366D01*
X230346250Y-96020000D01*
X230780000Y-96020000D01*
X230780000Y-97020000D01*
X230346250Y-97020000D01*
X230346250Y-97894634D01*
X230573185Y-97962827D01*
X230655776Y-97910079D01*
X230902602Y-97730984D01*
X231030000Y-97593337D01*
X231030000Y-118306663D01*
X230902602Y-118169016D01*
X230655776Y-117989921D01*
X230573185Y-117937173D01*
X230346250Y-118005366D01*
X230346250Y-118880000D01*
X230780000Y-118880000D01*
X230780000Y-119880000D01*
X230346250Y-119880000D01*
X230346250Y-120754634D01*
X230573185Y-120822827D01*
X230655776Y-120770079D01*
X230902602Y-120590984D01*
X231030000Y-120453337D01*
X231030000Y-141166663D01*
X230902602Y-141029016D01*
X230655776Y-140849921D01*
X230573185Y-140797173D01*
X230346250Y-140865366D01*
X230346250Y-141740000D01*
X230780000Y-141740000D01*
X230780000Y-142740000D01*
X230346250Y-142740000D01*
X230346250Y-143614634D01*
X230573185Y-143682827D01*
X230655776Y-143630079D01*
X230902602Y-143450984D01*
X231030000Y-143313337D01*
X231030000Y-147380000D01*
X168521758Y-147380000D01*
X168979883Y-146921875D01*
X169347594Y-146371557D01*
X169600877Y-145760076D01*
X169730000Y-145110931D01*
X169730000Y-144449069D01*
X169600877Y-143799924D01*
X169347594Y-143188443D01*
X168979883Y-142638125D01*
X168511875Y-142170117D01*
X167961557Y-141802406D01*
X167350076Y-141549123D01*
X166700931Y-141420000D01*
X166039069Y-141420000D01*
X165389924Y-141549123D01*
X164778443Y-141802406D01*
X164228125Y-142170117D01*
X163760117Y-142638125D01*
X163392406Y-143188443D01*
X163139123Y-143799924D01*
X163010000Y-144449069D01*
X163010000Y-145110931D01*
X163139123Y-145760076D01*
X163392406Y-146371557D01*
X163760117Y-146921875D01*
X164218242Y-147380000D01*
X156125000Y-147380000D01*
X156125000Y-136591761D01*
X160125736Y-136591761D01*
X160263702Y-136839030D01*
X160447257Y-137054632D01*
X160669347Y-137230281D01*
X160811729Y-137328092D01*
X161025000Y-137251500D01*
X161025000Y-136377500D01*
X160204315Y-136377500D01*
X160125736Y-136591761D01*
X156125000Y-136591761D01*
X156125000Y-135188239D01*
X160125736Y-135188239D01*
X160204315Y-135402500D01*
X161025000Y-135402500D01*
X161025000Y-134528500D01*
X161875000Y-134528500D01*
X161875000Y-135402500D01*
X162016220Y-135402500D01*
X161990000Y-135668717D01*
X161990000Y-136111282D01*
X162016220Y-136377500D01*
X161875000Y-136377500D01*
X161875000Y-137251500D01*
X162088271Y-137328092D01*
X162230653Y-137230281D01*
X162340510Y-137143396D01*
X162557365Y-137407635D01*
X162855814Y-137652565D01*
X163196311Y-137834565D01*
X163565773Y-137946640D01*
X163950000Y-137984483D01*
X164334226Y-137946640D01*
X164703688Y-137834565D01*
X165044186Y-137652565D01*
X165200000Y-137524692D01*
X165355814Y-137652565D01*
X165696311Y-137834565D01*
X166065773Y-137946640D01*
X166450000Y-137984483D01*
X166834226Y-137946640D01*
X167203688Y-137834565D01*
X167544186Y-137652565D01*
X167700000Y-137524692D01*
X167855814Y-137652565D01*
X168196311Y-137834565D01*
X168565773Y-137946640D01*
X168950000Y-137984483D01*
X169334226Y-137946640D01*
X169703688Y-137834565D01*
X170000711Y-137675803D01*
X170091441Y-137750264D01*
X170327496Y-137876437D01*
X170583630Y-137954135D01*
X170850000Y-137980370D01*
X172050000Y-137980370D01*
X172316370Y-137954135D01*
X172572504Y-137876437D01*
X172808559Y-137750264D01*
X173015462Y-137580462D01*
X173185264Y-137373559D01*
X173311437Y-137137504D01*
X173389135Y-136881370D01*
X173415370Y-136615000D01*
X173415370Y-135165000D01*
X173389135Y-134898630D01*
X173311437Y-134642496D01*
X173185264Y-134406441D01*
X173015462Y-134199538D01*
X172808559Y-134029736D01*
X172572504Y-133903563D01*
X172316370Y-133825865D01*
X172050000Y-133799630D01*
X170850000Y-133799630D01*
X170583630Y-133825865D01*
X170327496Y-133903563D01*
X170091441Y-134029736D01*
X170000711Y-134104197D01*
X169703689Y-133945435D01*
X169334227Y-133833360D01*
X168950000Y-133795517D01*
X168565774Y-133833360D01*
X168196312Y-133945435D01*
X167855814Y-134127435D01*
X167700000Y-134255308D01*
X167544186Y-134127435D01*
X167203689Y-133945435D01*
X166834227Y-133833360D01*
X166450000Y-133795517D01*
X166065774Y-133833360D01*
X165696312Y-133945435D01*
X165355814Y-134127435D01*
X165200000Y-134255308D01*
X165044186Y-134127435D01*
X164703689Y-133945435D01*
X164334227Y-133833360D01*
X163950000Y-133795517D01*
X163565774Y-133833360D01*
X163196312Y-133945435D01*
X162855814Y-134127435D01*
X162557365Y-134372365D01*
X162340510Y-134636604D01*
X162230653Y-134549719D01*
X162088271Y-134451908D01*
X161875000Y-134528500D01*
X161025000Y-134528500D01*
X160811729Y-134451908D01*
X160669347Y-134549719D01*
X160447257Y-134725368D01*
X160263702Y-134940970D01*
X160125736Y-135188239D01*
X156125000Y-135188239D01*
X156125000Y-128908274D01*
X159976891Y-128908274D01*
X160126643Y-129152185D01*
X160321102Y-129362194D01*
X160552796Y-129530230D01*
X160651729Y-129583092D01*
X160865000Y-129506500D01*
X160865000Y-128695000D01*
X160045710Y-128695000D01*
X159976891Y-128908274D01*
X156125000Y-128908274D01*
X156125000Y-127631726D01*
X159976891Y-127631726D01*
X160045710Y-127845000D01*
X160865000Y-127845000D01*
X160865000Y-127033500D01*
X161715000Y-127033500D01*
X161715000Y-127845000D01*
X161910728Y-127845000D01*
X161898360Y-127885773D01*
X161860517Y-128270000D01*
X161898360Y-128654227D01*
X161910728Y-128695000D01*
X161715000Y-128695000D01*
X161715000Y-129506500D01*
X161928271Y-129583092D01*
X162027204Y-129530230D01*
X162216209Y-129393154D01*
X162437365Y-129662635D01*
X162735814Y-129907565D01*
X163076311Y-130089565D01*
X163445773Y-130201640D01*
X163733717Y-130230000D01*
X163926283Y-130230000D01*
X164214227Y-130201640D01*
X164583689Y-130089565D01*
X164924186Y-129907565D01*
X165100000Y-129763279D01*
X165275814Y-129907565D01*
X165616311Y-130089565D01*
X165985773Y-130201640D01*
X166273717Y-130230000D01*
X166466283Y-130230000D01*
X166754227Y-130201640D01*
X167123689Y-130089565D01*
X167464186Y-129907565D01*
X167640000Y-129763279D01*
X167815814Y-129907565D01*
X168156311Y-130089565D01*
X168525773Y-130201640D01*
X168813717Y-130230000D01*
X169006283Y-130230000D01*
X169294227Y-130201640D01*
X169663689Y-130089565D01*
X169886559Y-129970438D01*
X169980334Y-130047396D01*
X170173166Y-130150468D01*
X170382402Y-130213938D01*
X170600000Y-130235370D01*
X172300000Y-130235370D01*
X172517598Y-130213938D01*
X172726834Y-130150468D01*
X172919666Y-130047396D01*
X173088686Y-129908686D01*
X173227396Y-129739666D01*
X173330468Y-129546834D01*
X173393938Y-129337598D01*
X173415370Y-129120000D01*
X173415370Y-127420000D01*
X173393938Y-127202402D01*
X173330468Y-126993166D01*
X173227396Y-126800334D01*
X173088686Y-126631314D01*
X172919666Y-126492604D01*
X172726834Y-126389532D01*
X172517598Y-126326062D01*
X172300000Y-126304630D01*
X170600000Y-126304630D01*
X170382402Y-126326062D01*
X170173166Y-126389532D01*
X169980334Y-126492604D01*
X169886559Y-126569562D01*
X169663689Y-126450435D01*
X169294227Y-126338360D01*
X169006283Y-126310000D01*
X168813717Y-126310000D01*
X168525773Y-126338360D01*
X168156311Y-126450435D01*
X167815814Y-126632435D01*
X167640000Y-126776721D01*
X167464186Y-126632435D01*
X167123689Y-126450435D01*
X166754227Y-126338360D01*
X166466283Y-126310000D01*
X166273717Y-126310000D01*
X165985773Y-126338360D01*
X165616311Y-126450435D01*
X165275814Y-126632435D01*
X165100000Y-126776721D01*
X164924186Y-126632435D01*
X164583689Y-126450435D01*
X164214227Y-126338360D01*
X163926283Y-126310000D01*
X163733717Y-126310000D01*
X163445773Y-126338360D01*
X163076311Y-126450435D01*
X162735814Y-126632435D01*
X162437365Y-126877365D01*
X162216209Y-127146846D01*
X162027204Y-127009770D01*
X161928271Y-126956908D01*
X161715000Y-127033500D01*
X160865000Y-127033500D01*
X160651729Y-126956908D01*
X160552796Y-127009770D01*
X160321102Y-127177806D01*
X160126643Y-127387815D01*
X159976891Y-127631726D01*
X156125000Y-127631726D01*
X156125000Y-102870000D01*
X172020517Y-102870000D01*
X172058360Y-103254227D01*
X172170435Y-103623689D01*
X172352435Y-103964186D01*
X172496721Y-104140000D01*
X172352435Y-104315814D01*
X172170435Y-104656311D01*
X172058360Y-105025773D01*
X172020517Y-105410000D01*
X172058360Y-105794227D01*
X172170435Y-106163689D01*
X172352435Y-106504186D01*
X172496721Y-106680000D01*
X172352435Y-106855814D01*
X172170435Y-107196311D01*
X172058360Y-107565773D01*
X172020517Y-107950000D01*
X172058360Y-108334227D01*
X172170435Y-108703689D01*
X172289562Y-108926559D01*
X172212604Y-109020334D01*
X172109532Y-109213166D01*
X172046062Y-109422402D01*
X172024630Y-109640000D01*
X172024630Y-111340000D01*
X172046062Y-111557598D01*
X172109532Y-111766834D01*
X172212604Y-111959666D01*
X172351314Y-112128686D01*
X172520334Y-112267396D01*
X172713166Y-112370468D01*
X172922402Y-112433938D01*
X173140000Y-112455370D01*
X174840000Y-112455370D01*
X174938759Y-112445643D01*
X176452919Y-113959803D01*
X176450916Y-113960000D01*
X175117774Y-113960000D01*
X175084186Y-113932435D01*
X174743689Y-113750435D01*
X174374227Y-113638360D01*
X174086283Y-113610000D01*
X173893717Y-113610000D01*
X173605773Y-113638360D01*
X173236311Y-113750435D01*
X172895814Y-113932435D01*
X172597365Y-114177365D01*
X172352435Y-114475814D01*
X172170435Y-114816311D01*
X172058360Y-115185773D01*
X172020517Y-115570000D01*
X172058360Y-115954227D01*
X172170435Y-116323689D01*
X172352435Y-116664186D01*
X172496721Y-116840000D01*
X172352435Y-117015814D01*
X172170435Y-117356311D01*
X172058360Y-117725773D01*
X172020517Y-118110000D01*
X172058360Y-118494227D01*
X172170435Y-118863689D01*
X172352435Y-119204186D01*
X172496721Y-119380000D01*
X172352435Y-119555814D01*
X172170435Y-119896311D01*
X172058360Y-120265773D01*
X172020517Y-120650000D01*
X172058360Y-121034227D01*
X172170435Y-121403689D01*
X172289562Y-121626559D01*
X172212604Y-121720334D01*
X172109532Y-121913166D01*
X172046062Y-122122402D01*
X172024630Y-122340000D01*
X172024630Y-124040000D01*
X172046062Y-124257598D01*
X172109532Y-124466834D01*
X172212604Y-124659666D01*
X172351314Y-124828686D01*
X172520334Y-124967396D01*
X172713166Y-125070468D01*
X172922402Y-125133938D01*
X173140000Y-125155370D01*
X174840000Y-125155370D01*
X175057598Y-125133938D01*
X175266834Y-125070468D01*
X175459666Y-124967396D01*
X175628686Y-124828686D01*
X175652228Y-124800000D01*
X175863117Y-124800000D01*
X182540000Y-131476884D01*
X182540001Y-135810906D01*
X182532211Y-135890000D01*
X182563296Y-136205614D01*
X182655358Y-136509101D01*
X182804857Y-136788796D01*
X182955631Y-136972514D01*
X182955635Y-136972518D01*
X183006051Y-137033950D01*
X183067483Y-137084366D01*
X185080000Y-139096884D01*
X185080001Y-140343653D01*
X184948814Y-140451314D01*
X184810104Y-140620334D01*
X184707032Y-140813166D01*
X184643562Y-141022402D01*
X184622130Y-141240000D01*
X184622130Y-143240000D01*
X184643562Y-143457598D01*
X184707032Y-143666834D01*
X184810104Y-143859666D01*
X184948814Y-144028686D01*
X185117834Y-144167396D01*
X185310666Y-144270468D01*
X185519902Y-144333938D01*
X185737500Y-144355370D01*
X187642500Y-144355370D01*
X187860098Y-144333938D01*
X188069334Y-144270468D01*
X188262166Y-144167396D01*
X188305386Y-144131927D01*
X188436898Y-144202221D01*
X188825680Y-144320157D01*
X189230000Y-144359979D01*
X189634321Y-144320157D01*
X190023103Y-144202221D01*
X190381408Y-144010703D01*
X190695464Y-143752964D01*
X190866447Y-143544621D01*
X190984224Y-143630079D01*
X191066815Y-143682827D01*
X191293750Y-143614634D01*
X191293750Y-142740000D01*
X192246250Y-142740000D01*
X192246250Y-143614634D01*
X192473185Y-143682827D01*
X192555776Y-143630079D01*
X192802602Y-143450984D01*
X193009745Y-143227177D01*
X193169246Y-142967259D01*
X193105857Y-142740000D01*
X192246250Y-142740000D01*
X191293750Y-142740000D01*
X191248042Y-142740000D01*
X191262657Y-142691820D01*
X191292500Y-142388818D01*
X191292500Y-142091181D01*
X191262657Y-141788179D01*
X191248042Y-141740000D01*
X191293750Y-141740000D01*
X191293750Y-140865366D01*
X192246250Y-140865366D01*
X192246250Y-141740000D01*
X193105857Y-141740000D01*
X193169246Y-141512741D01*
X193009745Y-141252823D01*
X192802602Y-141029016D01*
X192555776Y-140849921D01*
X192473185Y-140797173D01*
X192246250Y-140865366D01*
X191293750Y-140865366D01*
X191066815Y-140797173D01*
X190984224Y-140849921D01*
X190866447Y-140935379D01*
X190695464Y-140727036D01*
X190381408Y-140469297D01*
X190023102Y-140277779D01*
X189634320Y-140159843D01*
X189230000Y-140120021D01*
X188825679Y-140159843D01*
X188436897Y-140277779D01*
X188305386Y-140348073D01*
X188300000Y-140343653D01*
X188300000Y-138509083D01*
X188307789Y-138429999D01*
X188300000Y-138350915D01*
X188300000Y-138350906D01*
X188276705Y-138114385D01*
X188184643Y-137810899D01*
X188035144Y-137531205D01*
X188035143Y-137531203D01*
X187884369Y-137347485D01*
X187884366Y-137347482D01*
X187833950Y-137286050D01*
X187772519Y-137235635D01*
X185760000Y-135223117D01*
X185760000Y-132156884D01*
X188035634Y-134432518D01*
X188086050Y-134493950D01*
X188147482Y-134544366D01*
X188147485Y-134544369D01*
X188331203Y-134695143D01*
X188426444Y-134746050D01*
X188610899Y-134844643D01*
X188914385Y-134936705D01*
X189150906Y-134960000D01*
X189150915Y-134960000D01*
X189229999Y-134967789D01*
X189309083Y-134960000D01*
X193643117Y-134960000D01*
X197780000Y-139096883D01*
X197780001Y-140343653D01*
X197648814Y-140451314D01*
X197510104Y-140620334D01*
X197407032Y-140813166D01*
X197343562Y-141022402D01*
X197322130Y-141240000D01*
X197322130Y-143240000D01*
X197343562Y-143457598D01*
X197407032Y-143666834D01*
X197510104Y-143859666D01*
X197648814Y-144028686D01*
X197817834Y-144167396D01*
X198010666Y-144270468D01*
X198219902Y-144333938D01*
X198437500Y-144355370D01*
X200342500Y-144355370D01*
X200560098Y-144333938D01*
X200769334Y-144270468D01*
X200962166Y-144167396D01*
X201005386Y-144131927D01*
X201136898Y-144202221D01*
X201525680Y-144320157D01*
X201930000Y-144359979D01*
X202334321Y-144320157D01*
X202723103Y-144202221D01*
X203081408Y-144010703D01*
X203395464Y-143752964D01*
X203566447Y-143544621D01*
X203684224Y-143630079D01*
X203766815Y-143682827D01*
X203993750Y-143614634D01*
X203993750Y-142740000D01*
X204946250Y-142740000D01*
X204946250Y-143614634D01*
X205173185Y-143682827D01*
X205255776Y-143630079D01*
X205502602Y-143450984D01*
X205709745Y-143227177D01*
X205869246Y-142967259D01*
X205805857Y-142740000D01*
X204946250Y-142740000D01*
X203993750Y-142740000D01*
X203948042Y-142740000D01*
X203962657Y-142691820D01*
X203992500Y-142388818D01*
X203992500Y-142091181D01*
X203962657Y-141788179D01*
X203948042Y-141740000D01*
X203993750Y-141740000D01*
X203993750Y-140865366D01*
X204946250Y-140865366D01*
X204946250Y-141740000D01*
X205805857Y-141740000D01*
X205869246Y-141512741D01*
X205709745Y-141252823D01*
X205502602Y-141029016D01*
X205255776Y-140849921D01*
X205173185Y-140797173D01*
X204946250Y-140865366D01*
X203993750Y-140865366D01*
X203766815Y-140797173D01*
X203684224Y-140849921D01*
X203566447Y-140935379D01*
X203395464Y-140727036D01*
X203081408Y-140469297D01*
X202723102Y-140277779D01*
X202334320Y-140159843D01*
X201930000Y-140120021D01*
X201525679Y-140159843D01*
X201136897Y-140277779D01*
X201005386Y-140348073D01*
X201000000Y-140343653D01*
X201000000Y-138509084D01*
X201007789Y-138430000D01*
X201000000Y-138350916D01*
X201000000Y-138350906D01*
X200976705Y-138114385D01*
X200884643Y-137810899D01*
X200735144Y-137531205D01*
X200735143Y-137531203D01*
X200584369Y-137347486D01*
X200584368Y-137347485D01*
X200533950Y-137286050D01*
X200472513Y-137235630D01*
X195656883Y-132420000D01*
X203803117Y-132420000D01*
X210480000Y-139096884D01*
X210480000Y-140343653D01*
X210348814Y-140451314D01*
X210210104Y-140620334D01*
X210107032Y-140813166D01*
X210043562Y-141022402D01*
X210022130Y-141240000D01*
X210022130Y-143240000D01*
X210043562Y-143457598D01*
X210107032Y-143666834D01*
X210210104Y-143859666D01*
X210348814Y-144028686D01*
X210517834Y-144167396D01*
X210710666Y-144270468D01*
X210919902Y-144333938D01*
X211137500Y-144355370D01*
X213042500Y-144355370D01*
X213260098Y-144333938D01*
X213469334Y-144270468D01*
X213662166Y-144167396D01*
X213705386Y-144131927D01*
X213836898Y-144202221D01*
X214225680Y-144320157D01*
X214630000Y-144359979D01*
X215034321Y-144320157D01*
X215423103Y-144202221D01*
X215781408Y-144010703D01*
X216095464Y-143752964D01*
X216266447Y-143544621D01*
X216384224Y-143630079D01*
X216466815Y-143682827D01*
X216693750Y-143614634D01*
X216693750Y-142740000D01*
X217646250Y-142740000D01*
X217646250Y-143614634D01*
X217873185Y-143682827D01*
X217955776Y-143630079D01*
X218202602Y-143450984D01*
X218409745Y-143227177D01*
X218569246Y-142967259D01*
X218505857Y-142740000D01*
X217646250Y-142740000D01*
X216693750Y-142740000D01*
X216648042Y-142740000D01*
X216662657Y-142691820D01*
X216692500Y-142388818D01*
X216692500Y-142091181D01*
X216662657Y-141788179D01*
X216648042Y-141740000D01*
X216693750Y-141740000D01*
X216693750Y-140865366D01*
X217646250Y-140865366D01*
X217646250Y-141740000D01*
X218505857Y-141740000D01*
X218569246Y-141512741D01*
X218409745Y-141252823D01*
X218202602Y-141029016D01*
X217955776Y-140849921D01*
X217873185Y-140797173D01*
X217646250Y-140865366D01*
X216693750Y-140865366D01*
X216466815Y-140797173D01*
X216384224Y-140849921D01*
X216266447Y-140935379D01*
X216095464Y-140727036D01*
X215781408Y-140469297D01*
X215423102Y-140277779D01*
X215034320Y-140159843D01*
X214630000Y-140120021D01*
X214225679Y-140159843D01*
X213836897Y-140277779D01*
X213705386Y-140348073D01*
X213700000Y-140343653D01*
X213700000Y-138509083D01*
X213707789Y-138429999D01*
X213700000Y-138350915D01*
X213700000Y-138350906D01*
X213676705Y-138114385D01*
X213584643Y-137810899D01*
X213435144Y-137531205D01*
X213435143Y-137531203D01*
X213284369Y-137347485D01*
X213284366Y-137347482D01*
X213233950Y-137286050D01*
X213172519Y-137235635D01*
X205816883Y-129880000D01*
X213963117Y-129880000D01*
X223180000Y-139096883D01*
X223180001Y-140343653D01*
X223048814Y-140451314D01*
X222910104Y-140620334D01*
X222807032Y-140813166D01*
X222743562Y-141022402D01*
X222722130Y-141240000D01*
X222722130Y-143240000D01*
X222743562Y-143457598D01*
X222807032Y-143666834D01*
X222910104Y-143859666D01*
X223048814Y-144028686D01*
X223217834Y-144167396D01*
X223410666Y-144270468D01*
X223619902Y-144333938D01*
X223837500Y-144355370D01*
X225742500Y-144355370D01*
X225960098Y-144333938D01*
X226169334Y-144270468D01*
X226362166Y-144167396D01*
X226405386Y-144131927D01*
X226536898Y-144202221D01*
X226925680Y-144320157D01*
X227330000Y-144359979D01*
X227734321Y-144320157D01*
X228123103Y-144202221D01*
X228481408Y-144010703D01*
X228795464Y-143752964D01*
X228966447Y-143544621D01*
X229084224Y-143630079D01*
X229166815Y-143682827D01*
X229393750Y-143614634D01*
X229393750Y-142740000D01*
X229348042Y-142740000D01*
X229362657Y-142691820D01*
X229392500Y-142388818D01*
X229392500Y-142091181D01*
X229362657Y-141788179D01*
X229348042Y-141740000D01*
X229393750Y-141740000D01*
X229393750Y-140865366D01*
X229166815Y-140797173D01*
X229084224Y-140849921D01*
X228966447Y-140935379D01*
X228795464Y-140727036D01*
X228481408Y-140469297D01*
X228123102Y-140277779D01*
X227734320Y-140159843D01*
X227330000Y-140120021D01*
X226925679Y-140159843D01*
X226536897Y-140277779D01*
X226405386Y-140348073D01*
X226400000Y-140343653D01*
X226400000Y-138509084D01*
X226407789Y-138430000D01*
X226400000Y-138350916D01*
X226400000Y-138350906D01*
X226376705Y-138114385D01*
X226284643Y-137810899D01*
X226135144Y-137531205D01*
X226135143Y-137531203D01*
X225984369Y-137347486D01*
X225984368Y-137347485D01*
X225933950Y-137286050D01*
X225872513Y-137235630D01*
X215824368Y-127187485D01*
X215773950Y-127126050D01*
X215528796Y-126924857D01*
X215249101Y-126775357D01*
X214945615Y-126683295D01*
X214709094Y-126660000D01*
X214709084Y-126660000D01*
X214630000Y-126652211D01*
X214550916Y-126660000D01*
X189896884Y-126660000D01*
X177877080Y-114640197D01*
X177879083Y-114640000D01*
X183483117Y-114640000D01*
X185080001Y-116236885D01*
X185080000Y-117483653D01*
X184948814Y-117591314D01*
X184810104Y-117760334D01*
X184707032Y-117953166D01*
X184643562Y-118162402D01*
X184622130Y-118380000D01*
X184622130Y-120380000D01*
X184643562Y-120597598D01*
X184707032Y-120806834D01*
X184810104Y-120999666D01*
X184948814Y-121168686D01*
X185117834Y-121307396D01*
X185310666Y-121410468D01*
X185519902Y-121473938D01*
X185737500Y-121495370D01*
X187642500Y-121495370D01*
X187860098Y-121473938D01*
X188069334Y-121410468D01*
X188262166Y-121307396D01*
X188305386Y-121271927D01*
X188436898Y-121342221D01*
X188825680Y-121460157D01*
X189230000Y-121499979D01*
X189634321Y-121460157D01*
X190023103Y-121342221D01*
X190381408Y-121150703D01*
X190695464Y-120892964D01*
X190866447Y-120684621D01*
X190984224Y-120770079D01*
X191066815Y-120822827D01*
X191293750Y-120754634D01*
X191293750Y-119880000D01*
X192246250Y-119880000D01*
X192246250Y-120754634D01*
X192473185Y-120822827D01*
X192555776Y-120770079D01*
X192802602Y-120590984D01*
X193009745Y-120367177D01*
X193169246Y-120107259D01*
X193105857Y-119880000D01*
X192246250Y-119880000D01*
X191293750Y-119880000D01*
X191248042Y-119880000D01*
X191262657Y-119831820D01*
X191292500Y-119528818D01*
X191292500Y-119231181D01*
X191262657Y-118928179D01*
X191248042Y-118880000D01*
X191293750Y-118880000D01*
X191293750Y-118005366D01*
X192246250Y-118005366D01*
X192246250Y-118880000D01*
X193105857Y-118880000D01*
X193169246Y-118652741D01*
X193009745Y-118392823D01*
X192802602Y-118169016D01*
X192555776Y-117989921D01*
X192473185Y-117937173D01*
X192246250Y-118005366D01*
X191293750Y-118005366D01*
X191066815Y-117937173D01*
X190984224Y-117989921D01*
X190866447Y-118075379D01*
X190695464Y-117867036D01*
X190381408Y-117609297D01*
X190023102Y-117417779D01*
X189634320Y-117299843D01*
X189230000Y-117260021D01*
X188825679Y-117299843D01*
X188436897Y-117417779D01*
X188305386Y-117488073D01*
X188300000Y-117483653D01*
X188300000Y-115649083D01*
X188307789Y-115569999D01*
X188300000Y-115490915D01*
X188300000Y-115490906D01*
X188276705Y-115254385D01*
X188184643Y-114950899D01*
X188184642Y-114950897D01*
X188035143Y-114671203D01*
X187884369Y-114487485D01*
X187884366Y-114487482D01*
X187833950Y-114426050D01*
X187772518Y-114375634D01*
X185496883Y-112100000D01*
X193643117Y-112100000D01*
X197780000Y-116236883D01*
X197780001Y-117483653D01*
X197648814Y-117591314D01*
X197510104Y-117760334D01*
X197407032Y-117953166D01*
X197343562Y-118162402D01*
X197322130Y-118380000D01*
X197322130Y-120380000D01*
X197343562Y-120597598D01*
X197407032Y-120806834D01*
X197510104Y-120999666D01*
X197648814Y-121168686D01*
X197817834Y-121307396D01*
X198010666Y-121410468D01*
X198219902Y-121473938D01*
X198437500Y-121495370D01*
X200342500Y-121495370D01*
X200560098Y-121473938D01*
X200769334Y-121410468D01*
X200962166Y-121307396D01*
X201005386Y-121271927D01*
X201136898Y-121342221D01*
X201525680Y-121460157D01*
X201930000Y-121499979D01*
X202334321Y-121460157D01*
X202723103Y-121342221D01*
X203081408Y-121150703D01*
X203395464Y-120892964D01*
X203566447Y-120684621D01*
X203684224Y-120770079D01*
X203766815Y-120822827D01*
X203993750Y-120754634D01*
X203993750Y-119880000D01*
X204946250Y-119880000D01*
X204946250Y-120754634D01*
X205173185Y-120822827D01*
X205255776Y-120770079D01*
X205502602Y-120590984D01*
X205709745Y-120367177D01*
X205869246Y-120107259D01*
X205805857Y-119880000D01*
X204946250Y-119880000D01*
X203993750Y-119880000D01*
X203948042Y-119880000D01*
X203962657Y-119831820D01*
X203992500Y-119528818D01*
X203992500Y-119231181D01*
X203962657Y-118928179D01*
X203948042Y-118880000D01*
X203993750Y-118880000D01*
X203993750Y-118005366D01*
X204946250Y-118005366D01*
X204946250Y-118880000D01*
X205805857Y-118880000D01*
X205869246Y-118652741D01*
X205709745Y-118392823D01*
X205502602Y-118169016D01*
X205255776Y-117989921D01*
X205173185Y-117937173D01*
X204946250Y-118005366D01*
X203993750Y-118005366D01*
X203766815Y-117937173D01*
X203684224Y-117989921D01*
X203566447Y-118075379D01*
X203395464Y-117867036D01*
X203081408Y-117609297D01*
X202723102Y-117417779D01*
X202334320Y-117299843D01*
X201930000Y-117260021D01*
X201525679Y-117299843D01*
X201136897Y-117417779D01*
X201005386Y-117488073D01*
X201000000Y-117483653D01*
X201000000Y-115649084D01*
X201007789Y-115570000D01*
X201000000Y-115490916D01*
X201000000Y-115490906D01*
X200976705Y-115254385D01*
X200884643Y-114950899D01*
X200735144Y-114671205D01*
X200735143Y-114671203D01*
X200584369Y-114487486D01*
X200584368Y-114487485D01*
X200533950Y-114426050D01*
X200472513Y-114375630D01*
X195656883Y-109560000D01*
X203803117Y-109560000D01*
X210480000Y-116236884D01*
X210480001Y-117483653D01*
X210348814Y-117591314D01*
X210210104Y-117760334D01*
X210107032Y-117953166D01*
X210043562Y-118162402D01*
X210022130Y-118380000D01*
X210022130Y-120380000D01*
X210043562Y-120597598D01*
X210107032Y-120806834D01*
X210210104Y-120999666D01*
X210348814Y-121168686D01*
X210517834Y-121307396D01*
X210710666Y-121410468D01*
X210919902Y-121473938D01*
X211137500Y-121495370D01*
X213042500Y-121495370D01*
X213260098Y-121473938D01*
X213469334Y-121410468D01*
X213662166Y-121307396D01*
X213705386Y-121271927D01*
X213836898Y-121342221D01*
X214225680Y-121460157D01*
X214630000Y-121499979D01*
X215034321Y-121460157D01*
X215423103Y-121342221D01*
X215781408Y-121150703D01*
X216095464Y-120892964D01*
X216266447Y-120684621D01*
X216384224Y-120770079D01*
X216466815Y-120822827D01*
X216693750Y-120754634D01*
X216693750Y-119880000D01*
X217646250Y-119880000D01*
X217646250Y-120754634D01*
X217873185Y-120822827D01*
X217955776Y-120770079D01*
X218202602Y-120590984D01*
X218409745Y-120367177D01*
X218569246Y-120107259D01*
X218505857Y-119880000D01*
X217646250Y-119880000D01*
X216693750Y-119880000D01*
X216648042Y-119880000D01*
X216662657Y-119831820D01*
X216692500Y-119528818D01*
X216692500Y-119231181D01*
X216662657Y-118928179D01*
X216648042Y-118880000D01*
X216693750Y-118880000D01*
X216693750Y-118005366D01*
X217646250Y-118005366D01*
X217646250Y-118880000D01*
X218505857Y-118880000D01*
X218569246Y-118652741D01*
X218409745Y-118392823D01*
X218202602Y-118169016D01*
X217955776Y-117989921D01*
X217873185Y-117937173D01*
X217646250Y-118005366D01*
X216693750Y-118005366D01*
X216466815Y-117937173D01*
X216384224Y-117989921D01*
X216266447Y-118075379D01*
X216095464Y-117867036D01*
X215781408Y-117609297D01*
X215423102Y-117417779D01*
X215034320Y-117299843D01*
X214630000Y-117260021D01*
X214225679Y-117299843D01*
X213836897Y-117417779D01*
X213705386Y-117488073D01*
X213700000Y-117483653D01*
X213700000Y-115649083D01*
X213707789Y-115569999D01*
X213700000Y-115490915D01*
X213700000Y-115490906D01*
X213676705Y-115254385D01*
X213584643Y-114950899D01*
X213435144Y-114671205D01*
X213435143Y-114671203D01*
X213284369Y-114487485D01*
X213284366Y-114487482D01*
X213233950Y-114426050D01*
X213172519Y-114375635D01*
X205816883Y-107020000D01*
X213963117Y-107020000D01*
X223180000Y-116236883D01*
X223180001Y-117483653D01*
X223048814Y-117591314D01*
X222910104Y-117760334D01*
X222807032Y-117953166D01*
X222743562Y-118162402D01*
X222722130Y-118380000D01*
X222722130Y-120380000D01*
X222743562Y-120597598D01*
X222807032Y-120806834D01*
X222910104Y-120999666D01*
X223048814Y-121168686D01*
X223217834Y-121307396D01*
X223410666Y-121410468D01*
X223619902Y-121473938D01*
X223837500Y-121495370D01*
X225742500Y-121495370D01*
X225960098Y-121473938D01*
X226169334Y-121410468D01*
X226362166Y-121307396D01*
X226405386Y-121271927D01*
X226536898Y-121342221D01*
X226925680Y-121460157D01*
X227330000Y-121499979D01*
X227734321Y-121460157D01*
X228123103Y-121342221D01*
X228481408Y-121150703D01*
X228795464Y-120892964D01*
X228966447Y-120684621D01*
X229084224Y-120770079D01*
X229166815Y-120822827D01*
X229393750Y-120754634D01*
X229393750Y-119880000D01*
X229348042Y-119880000D01*
X229362657Y-119831820D01*
X229392500Y-119528818D01*
X229392500Y-119231181D01*
X229362657Y-118928179D01*
X229348042Y-118880000D01*
X229393750Y-118880000D01*
X229393750Y-118005366D01*
X229166815Y-117937173D01*
X229084224Y-117989921D01*
X228966447Y-118075379D01*
X228795464Y-117867036D01*
X228481408Y-117609297D01*
X228123102Y-117417779D01*
X227734320Y-117299843D01*
X227330000Y-117260021D01*
X226925679Y-117299843D01*
X226536897Y-117417779D01*
X226405386Y-117488073D01*
X226400000Y-117483653D01*
X226400000Y-115649084D01*
X226407789Y-115570000D01*
X226400000Y-115490916D01*
X226400000Y-115490906D01*
X226376705Y-115254385D01*
X226284643Y-114950899D01*
X226135144Y-114671205D01*
X226135143Y-114671203D01*
X225984369Y-114487486D01*
X225984368Y-114487485D01*
X225933950Y-114426050D01*
X225872513Y-114375630D01*
X215824368Y-104327485D01*
X215773950Y-104266050D01*
X215528796Y-104064857D01*
X215249101Y-103915357D01*
X214945615Y-103823295D01*
X214709094Y-103800000D01*
X214709084Y-103800000D01*
X214630000Y-103792211D01*
X214550916Y-103800000D01*
X180526038Y-103800000D01*
X180530000Y-103780080D01*
X180530000Y-103447500D01*
X180377500Y-103295000D01*
X179495000Y-103295000D01*
X179495000Y-103720000D01*
X178645000Y-103720000D01*
X178645000Y-103295000D01*
X177961884Y-103295000D01*
X176626804Y-101959920D01*
X177610000Y-101959920D01*
X177610000Y-102292500D01*
X177762500Y-102445000D01*
X178645000Y-102445000D01*
X178645000Y-101562500D01*
X179495000Y-101562500D01*
X179495000Y-102445000D01*
X180377500Y-102445000D01*
X180530000Y-102292500D01*
X180530000Y-101959920D01*
X180506558Y-101842070D01*
X180460575Y-101731057D01*
X180393818Y-101631148D01*
X180308853Y-101546182D01*
X180208944Y-101479425D01*
X180097931Y-101433442D01*
X179980080Y-101410000D01*
X179647500Y-101410000D01*
X179495000Y-101562500D01*
X178645000Y-101562500D01*
X178492500Y-101410000D01*
X178159920Y-101410000D01*
X178042069Y-101433442D01*
X177931056Y-101479425D01*
X177831147Y-101546182D01*
X177746182Y-101631148D01*
X177679425Y-101731057D01*
X177633442Y-101842070D01*
X177610000Y-101959920D01*
X176626804Y-101959920D01*
X176454370Y-101787487D01*
X176403950Y-101726050D01*
X176158796Y-101524857D01*
X175879101Y-101375357D01*
X175575615Y-101283295D01*
X175339094Y-101260000D01*
X175339084Y-101260000D01*
X175260000Y-101252211D01*
X175180916Y-101260000D01*
X175117774Y-101260000D01*
X175084186Y-101232435D01*
X174743689Y-101050435D01*
X174374227Y-100938360D01*
X174086283Y-100910000D01*
X173893717Y-100910000D01*
X173605773Y-100938360D01*
X173236311Y-101050435D01*
X172895814Y-101232435D01*
X172597365Y-101477365D01*
X172352435Y-101775814D01*
X172170435Y-102116311D01*
X172058360Y-102485773D01*
X172020517Y-102870000D01*
X156125000Y-102870000D01*
X156125000Y-74930000D01*
X172020517Y-74930000D01*
X172058360Y-75314227D01*
X172170435Y-75683689D01*
X172352435Y-76024186D01*
X172496721Y-76200000D01*
X172352435Y-76375814D01*
X172170435Y-76716311D01*
X172058360Y-77085773D01*
X172020517Y-77470000D01*
X172058360Y-77854227D01*
X172170435Y-78223689D01*
X172352435Y-78564186D01*
X172496721Y-78740000D01*
X172352435Y-78915814D01*
X172170435Y-79256311D01*
X172058360Y-79625773D01*
X172020517Y-80010000D01*
X172058360Y-80394227D01*
X172170435Y-80763689D01*
X172289562Y-80986559D01*
X172212604Y-81080334D01*
X172109532Y-81273166D01*
X172046062Y-81482402D01*
X172024630Y-81700000D01*
X172024630Y-83400000D01*
X172046062Y-83617598D01*
X172109532Y-83826834D01*
X172212604Y-84019666D01*
X172351314Y-84188686D01*
X172520334Y-84327396D01*
X172713166Y-84430468D01*
X172922402Y-84493938D01*
X173140000Y-84515370D01*
X174840000Y-84515370D01*
X175057598Y-84493938D01*
X175266834Y-84430468D01*
X175459666Y-84327396D01*
X175628686Y-84188686D01*
X175652228Y-84160000D01*
X176450916Y-84160000D01*
X176452920Y-84160197D01*
X174782133Y-85830984D01*
X174743689Y-85810435D01*
X174374227Y-85698360D01*
X174086283Y-85670000D01*
X173893717Y-85670000D01*
X173605773Y-85698360D01*
X173236311Y-85810435D01*
X172895814Y-85992435D01*
X172597365Y-86237365D01*
X172352435Y-86535814D01*
X172170435Y-86876311D01*
X172058360Y-87245773D01*
X172020517Y-87630000D01*
X172058360Y-88014227D01*
X172170435Y-88383689D01*
X172352435Y-88724186D01*
X172496721Y-88900000D01*
X172352435Y-89075814D01*
X172170435Y-89416311D01*
X172058360Y-89785773D01*
X172020517Y-90170000D01*
X172058360Y-90554227D01*
X172170435Y-90923689D01*
X172352435Y-91264186D01*
X172496721Y-91440000D01*
X172352435Y-91615814D01*
X172170435Y-91956311D01*
X172058360Y-92325773D01*
X172020517Y-92710000D01*
X172058360Y-93094227D01*
X172170435Y-93463689D01*
X172289562Y-93686559D01*
X172212604Y-93780334D01*
X172109532Y-93973166D01*
X172046062Y-94182402D01*
X172024630Y-94400000D01*
X172024630Y-96100000D01*
X172046062Y-96317598D01*
X172109532Y-96526834D01*
X172212604Y-96719666D01*
X172351314Y-96888686D01*
X172520334Y-97027396D01*
X172713166Y-97130468D01*
X172922402Y-97193938D01*
X173140000Y-97215370D01*
X174840000Y-97215370D01*
X175057598Y-97193938D01*
X175266834Y-97130468D01*
X175459666Y-97027396D01*
X175628686Y-96888686D01*
X175703077Y-96798040D01*
X175879101Y-96744643D01*
X176158796Y-96595143D01*
X176403950Y-96393950D01*
X176454371Y-96332512D01*
X176959383Y-95827500D01*
X177610000Y-95827500D01*
X177610000Y-96160080D01*
X177633442Y-96277930D01*
X177679425Y-96388943D01*
X177746182Y-96488852D01*
X177831147Y-96573818D01*
X177931056Y-96640575D01*
X178042069Y-96686558D01*
X178159920Y-96710000D01*
X178492500Y-96710000D01*
X178645000Y-96557500D01*
X178645000Y-95675000D01*
X179495000Y-95675000D01*
X179495000Y-96557500D01*
X179647500Y-96710000D01*
X179980080Y-96710000D01*
X180097931Y-96686558D01*
X180208944Y-96640575D01*
X180308853Y-96573818D01*
X180393818Y-96488852D01*
X180460575Y-96388943D01*
X180506558Y-96277930D01*
X180530000Y-96160080D01*
X180530000Y-95827500D01*
X180377500Y-95675000D01*
X179495000Y-95675000D01*
X178645000Y-95675000D01*
X177762500Y-95675000D01*
X177610000Y-95827500D01*
X176959383Y-95827500D01*
X177961883Y-94825000D01*
X178645000Y-94825000D01*
X178645000Y-94141883D01*
X178844383Y-93942500D01*
X179495000Y-93942500D01*
X179495000Y-94825000D01*
X180377500Y-94825000D01*
X180530000Y-94672500D01*
X180530000Y-94339920D01*
X180506558Y-94222070D01*
X180460575Y-94111057D01*
X180393818Y-94011148D01*
X180308853Y-93926182D01*
X180208944Y-93859425D01*
X180097931Y-93813442D01*
X179980080Y-93790000D01*
X179647500Y-93790000D01*
X179495000Y-93942500D01*
X178844383Y-93942500D01*
X181006883Y-91780000D01*
X183483117Y-91780000D01*
X185080001Y-93376885D01*
X185080000Y-94623653D01*
X184948814Y-94731314D01*
X184810104Y-94900334D01*
X184707032Y-95093166D01*
X184643562Y-95302402D01*
X184622130Y-95520000D01*
X184622130Y-97520000D01*
X184643562Y-97737598D01*
X184707032Y-97946834D01*
X184810104Y-98139666D01*
X184948814Y-98308686D01*
X185117834Y-98447396D01*
X185310666Y-98550468D01*
X185519902Y-98613938D01*
X185737500Y-98635370D01*
X187642500Y-98635370D01*
X187860098Y-98613938D01*
X188069334Y-98550468D01*
X188262166Y-98447396D01*
X188305386Y-98411927D01*
X188436898Y-98482221D01*
X188825680Y-98600157D01*
X189230000Y-98639979D01*
X189634321Y-98600157D01*
X190023103Y-98482221D01*
X190381408Y-98290703D01*
X190695464Y-98032964D01*
X190866447Y-97824621D01*
X190984224Y-97910079D01*
X191066815Y-97962827D01*
X191293750Y-97894634D01*
X191293750Y-97020000D01*
X192246250Y-97020000D01*
X192246250Y-97894634D01*
X192473185Y-97962827D01*
X192555776Y-97910079D01*
X192802602Y-97730984D01*
X193009745Y-97507177D01*
X193169246Y-97247259D01*
X193105857Y-97020000D01*
X192246250Y-97020000D01*
X191293750Y-97020000D01*
X191248042Y-97020000D01*
X191262657Y-96971820D01*
X191292500Y-96668818D01*
X191292500Y-96371181D01*
X191262657Y-96068179D01*
X191248042Y-96020000D01*
X191293750Y-96020000D01*
X191293750Y-95145366D01*
X192246250Y-95145366D01*
X192246250Y-96020000D01*
X193105857Y-96020000D01*
X193169246Y-95792741D01*
X193009745Y-95532823D01*
X192802602Y-95309016D01*
X192555776Y-95129921D01*
X192473185Y-95077173D01*
X192246250Y-95145366D01*
X191293750Y-95145366D01*
X191066815Y-95077173D01*
X190984224Y-95129921D01*
X190866447Y-95215379D01*
X190695464Y-95007036D01*
X190381408Y-94749297D01*
X190023102Y-94557779D01*
X189634320Y-94439843D01*
X189230000Y-94400021D01*
X188825679Y-94439843D01*
X188436897Y-94557779D01*
X188305386Y-94628073D01*
X188300000Y-94623653D01*
X188300000Y-92789083D01*
X188307789Y-92709999D01*
X188300000Y-92630915D01*
X188300000Y-92630906D01*
X188276705Y-92394385D01*
X188184643Y-92090899D01*
X188130479Y-91989565D01*
X188035143Y-91811203D01*
X187884369Y-91627485D01*
X187884366Y-91627482D01*
X187833950Y-91566050D01*
X187772518Y-91515634D01*
X185496883Y-89240000D01*
X193643117Y-89240000D01*
X197780001Y-93376884D01*
X197780000Y-94623653D01*
X197648814Y-94731314D01*
X197510104Y-94900334D01*
X197407032Y-95093166D01*
X197343562Y-95302402D01*
X197322130Y-95520000D01*
X197322130Y-97520000D01*
X197343562Y-97737598D01*
X197407032Y-97946834D01*
X197510104Y-98139666D01*
X197648814Y-98308686D01*
X197817834Y-98447396D01*
X198010666Y-98550468D01*
X198219902Y-98613938D01*
X198437500Y-98635370D01*
X200342500Y-98635370D01*
X200560098Y-98613938D01*
X200769334Y-98550468D01*
X200962166Y-98447396D01*
X201005386Y-98411927D01*
X201136898Y-98482221D01*
X201525680Y-98600157D01*
X201930000Y-98639979D01*
X202334321Y-98600157D01*
X202723103Y-98482221D01*
X203081408Y-98290703D01*
X203395464Y-98032964D01*
X203566447Y-97824621D01*
X203684224Y-97910079D01*
X203766815Y-97962827D01*
X203993750Y-97894634D01*
X203993750Y-97020000D01*
X204946250Y-97020000D01*
X204946250Y-97894634D01*
X205173185Y-97962827D01*
X205255776Y-97910079D01*
X205502602Y-97730984D01*
X205709745Y-97507177D01*
X205869246Y-97247259D01*
X205805857Y-97020000D01*
X204946250Y-97020000D01*
X203993750Y-97020000D01*
X203948042Y-97020000D01*
X203962657Y-96971820D01*
X203992500Y-96668818D01*
X203992500Y-96371181D01*
X203962657Y-96068179D01*
X203948042Y-96020000D01*
X203993750Y-96020000D01*
X203993750Y-95145366D01*
X204946250Y-95145366D01*
X204946250Y-96020000D01*
X205805857Y-96020000D01*
X205869246Y-95792741D01*
X205709745Y-95532823D01*
X205502602Y-95309016D01*
X205255776Y-95129921D01*
X205173185Y-95077173D01*
X204946250Y-95145366D01*
X203993750Y-95145366D01*
X203766815Y-95077173D01*
X203684224Y-95129921D01*
X203566447Y-95215379D01*
X203395464Y-95007036D01*
X203081408Y-94749297D01*
X202723102Y-94557779D01*
X202334320Y-94439843D01*
X201930000Y-94400021D01*
X201525679Y-94439843D01*
X201136897Y-94557779D01*
X201005386Y-94628073D01*
X201000000Y-94623653D01*
X201000000Y-92789084D01*
X201007789Y-92710000D01*
X201000000Y-92630916D01*
X201000000Y-92630906D01*
X200976705Y-92394385D01*
X200884643Y-92090899D01*
X200735144Y-91811205D01*
X200735143Y-91811203D01*
X200584369Y-91627486D01*
X200584368Y-91627485D01*
X200533950Y-91566050D01*
X200472512Y-91515629D01*
X195656883Y-86700000D01*
X203803117Y-86700000D01*
X210480000Y-93376884D01*
X210480001Y-94623653D01*
X210348814Y-94731314D01*
X210210104Y-94900334D01*
X210107032Y-95093166D01*
X210043562Y-95302402D01*
X210022130Y-95520000D01*
X210022130Y-97520000D01*
X210043562Y-97737598D01*
X210107032Y-97946834D01*
X210210104Y-98139666D01*
X210348814Y-98308686D01*
X210517834Y-98447396D01*
X210710666Y-98550468D01*
X210919902Y-98613938D01*
X211137500Y-98635370D01*
X213042500Y-98635370D01*
X213260098Y-98613938D01*
X213469334Y-98550468D01*
X213662166Y-98447396D01*
X213705386Y-98411927D01*
X213836898Y-98482221D01*
X214225680Y-98600157D01*
X214630000Y-98639979D01*
X215034321Y-98600157D01*
X215423103Y-98482221D01*
X215781408Y-98290703D01*
X216095464Y-98032964D01*
X216266447Y-97824621D01*
X216384224Y-97910079D01*
X216466815Y-97962827D01*
X216693750Y-97894634D01*
X216693750Y-97020000D01*
X217646250Y-97020000D01*
X217646250Y-97894634D01*
X217873185Y-97962827D01*
X217955776Y-97910079D01*
X218202602Y-97730984D01*
X218409745Y-97507177D01*
X218569246Y-97247259D01*
X218505857Y-97020000D01*
X217646250Y-97020000D01*
X216693750Y-97020000D01*
X216648042Y-97020000D01*
X216662657Y-96971820D01*
X216692500Y-96668818D01*
X216692500Y-96371181D01*
X216662657Y-96068179D01*
X216648042Y-96020000D01*
X216693750Y-96020000D01*
X216693750Y-95145366D01*
X217646250Y-95145366D01*
X217646250Y-96020000D01*
X218505857Y-96020000D01*
X218569246Y-95792741D01*
X218409745Y-95532823D01*
X218202602Y-95309016D01*
X217955776Y-95129921D01*
X217873185Y-95077173D01*
X217646250Y-95145366D01*
X216693750Y-95145366D01*
X216466815Y-95077173D01*
X216384224Y-95129921D01*
X216266447Y-95215379D01*
X216095464Y-95007036D01*
X215781408Y-94749297D01*
X215423102Y-94557779D01*
X215034320Y-94439843D01*
X214630000Y-94400021D01*
X214225679Y-94439843D01*
X213836897Y-94557779D01*
X213705386Y-94628073D01*
X213700000Y-94623653D01*
X213700000Y-92789083D01*
X213707789Y-92709999D01*
X213700000Y-92630915D01*
X213700000Y-92630906D01*
X213676705Y-92394385D01*
X213584643Y-92090899D01*
X213435144Y-91811205D01*
X213435143Y-91811203D01*
X213284369Y-91627485D01*
X213284366Y-91627482D01*
X213233950Y-91566050D01*
X213172519Y-91515635D01*
X205816883Y-84160000D01*
X213963117Y-84160000D01*
X223180000Y-93376883D01*
X223180001Y-94623653D01*
X223048814Y-94731314D01*
X222910104Y-94900334D01*
X222807032Y-95093166D01*
X222743562Y-95302402D01*
X222722130Y-95520000D01*
X222722130Y-97520000D01*
X222743562Y-97737598D01*
X222807032Y-97946834D01*
X222910104Y-98139666D01*
X223048814Y-98308686D01*
X223217834Y-98447396D01*
X223410666Y-98550468D01*
X223619902Y-98613938D01*
X223837500Y-98635370D01*
X225742500Y-98635370D01*
X225960098Y-98613938D01*
X226169334Y-98550468D01*
X226362166Y-98447396D01*
X226405386Y-98411927D01*
X226536898Y-98482221D01*
X226925680Y-98600157D01*
X227330000Y-98639979D01*
X227734321Y-98600157D01*
X228123103Y-98482221D01*
X228481408Y-98290703D01*
X228795464Y-98032964D01*
X228966447Y-97824621D01*
X229084224Y-97910079D01*
X229166815Y-97962827D01*
X229393750Y-97894634D01*
X229393750Y-97020000D01*
X229348042Y-97020000D01*
X229362657Y-96971820D01*
X229392500Y-96668818D01*
X229392500Y-96371181D01*
X229362657Y-96068179D01*
X229348042Y-96020000D01*
X229393750Y-96020000D01*
X229393750Y-95145366D01*
X229166815Y-95077173D01*
X229084224Y-95129921D01*
X228966447Y-95215379D01*
X228795464Y-95007036D01*
X228481408Y-94749297D01*
X228123102Y-94557779D01*
X227734320Y-94439843D01*
X227330000Y-94400021D01*
X226925679Y-94439843D01*
X226536897Y-94557779D01*
X226405386Y-94628073D01*
X226400000Y-94623653D01*
X226400000Y-92789084D01*
X226407789Y-92710000D01*
X226400000Y-92630916D01*
X226400000Y-92630906D01*
X226376705Y-92394385D01*
X226284643Y-92090899D01*
X226135144Y-91811205D01*
X226135143Y-91811203D01*
X225984369Y-91627486D01*
X225984368Y-91627485D01*
X225933950Y-91566050D01*
X225872513Y-91515630D01*
X215824369Y-81467486D01*
X215773950Y-81406050D01*
X215528796Y-81204857D01*
X215249101Y-81055357D01*
X214945615Y-80963295D01*
X214709094Y-80940000D01*
X214709084Y-80940000D01*
X214630000Y-80932211D01*
X214550916Y-80940000D01*
X180419084Y-80940000D01*
X180417081Y-80939803D01*
X185595500Y-75761384D01*
X185737500Y-75775370D01*
X187642500Y-75775370D01*
X187860098Y-75753938D01*
X188069334Y-75690468D01*
X188262166Y-75587396D01*
X188305386Y-75551927D01*
X188436898Y-75622221D01*
X188825680Y-75740157D01*
X189230000Y-75779979D01*
X189634321Y-75740157D01*
X190023103Y-75622221D01*
X190381408Y-75430703D01*
X190695464Y-75172964D01*
X190866447Y-74964621D01*
X190984224Y-75050079D01*
X191066815Y-75102827D01*
X191293750Y-75034634D01*
X191293750Y-74160000D01*
X192246250Y-74160000D01*
X192246250Y-75034634D01*
X192473185Y-75102827D01*
X192555776Y-75050079D01*
X192802602Y-74870984D01*
X193009745Y-74647177D01*
X193169246Y-74387259D01*
X193105857Y-74160000D01*
X192246250Y-74160000D01*
X191293750Y-74160000D01*
X191248042Y-74160000D01*
X191262657Y-74111820D01*
X191292500Y-73808818D01*
X191292500Y-73511181D01*
X191262657Y-73208179D01*
X191248042Y-73160000D01*
X191293750Y-73160000D01*
X191293750Y-72285366D01*
X192246250Y-72285366D01*
X192246250Y-73160000D01*
X193105857Y-73160000D01*
X193169246Y-72932741D01*
X193009745Y-72672823D01*
X192802602Y-72449016D01*
X192555776Y-72269921D01*
X192473185Y-72217173D01*
X192246250Y-72285366D01*
X191293750Y-72285366D01*
X191066815Y-72217173D01*
X190984224Y-72269921D01*
X190866447Y-72355379D01*
X190695464Y-72147036D01*
X190381408Y-71889297D01*
X190023102Y-71697779D01*
X189634320Y-71579843D01*
X189230000Y-71540021D01*
X188825679Y-71579843D01*
X188436897Y-71697779D01*
X188305386Y-71768073D01*
X188262166Y-71732604D01*
X188069334Y-71629532D01*
X187860098Y-71566062D01*
X187642500Y-71544630D01*
X185737500Y-71544630D01*
X185519902Y-71566062D01*
X185310666Y-71629532D01*
X185117834Y-71732604D01*
X184948814Y-71871314D01*
X184810104Y-72040334D01*
X184720230Y-72208475D01*
X184521203Y-72314857D01*
X184490000Y-72340465D01*
X184490000Y-70516883D01*
X186086884Y-68920000D01*
X196183117Y-68920000D01*
X197780001Y-70516885D01*
X197780000Y-71763653D01*
X197648814Y-71871314D01*
X197510104Y-72040334D01*
X197407032Y-72233166D01*
X197343562Y-72442402D01*
X197322130Y-72660000D01*
X197322130Y-74660000D01*
X197343562Y-74877598D01*
X197407032Y-75086834D01*
X197510104Y-75279666D01*
X197648814Y-75448686D01*
X197817834Y-75587396D01*
X198010666Y-75690468D01*
X198219902Y-75753938D01*
X198437500Y-75775370D01*
X200342500Y-75775370D01*
X200560098Y-75753938D01*
X200769334Y-75690468D01*
X200962166Y-75587396D01*
X201005386Y-75551927D01*
X201136898Y-75622221D01*
X201525680Y-75740157D01*
X201930000Y-75779979D01*
X202334321Y-75740157D01*
X202723103Y-75622221D01*
X203081408Y-75430703D01*
X203395464Y-75172964D01*
X203566447Y-74964621D01*
X203684224Y-75050079D01*
X203766815Y-75102827D01*
X203993750Y-75034634D01*
X203993750Y-74160000D01*
X204946250Y-74160000D01*
X204946250Y-75034634D01*
X205173185Y-75102827D01*
X205255776Y-75050079D01*
X205502602Y-74870984D01*
X205709745Y-74647177D01*
X205869246Y-74387259D01*
X205805857Y-74160000D01*
X204946250Y-74160000D01*
X203993750Y-74160000D01*
X203948042Y-74160000D01*
X203962657Y-74111820D01*
X203992500Y-73808818D01*
X203992500Y-73511181D01*
X203962657Y-73208179D01*
X203948042Y-73160000D01*
X203993750Y-73160000D01*
X203993750Y-72285366D01*
X204946250Y-72285366D01*
X204946250Y-73160000D01*
X205805857Y-73160000D01*
X205869246Y-72932741D01*
X205709745Y-72672823D01*
X205502602Y-72449016D01*
X205255776Y-72269921D01*
X205173185Y-72217173D01*
X204946250Y-72285366D01*
X203993750Y-72285366D01*
X203766815Y-72217173D01*
X203684224Y-72269921D01*
X203566447Y-72355379D01*
X203395464Y-72147036D01*
X203081408Y-71889297D01*
X202723102Y-71697779D01*
X202334320Y-71579843D01*
X201930000Y-71540021D01*
X201525679Y-71579843D01*
X201136897Y-71697779D01*
X201005386Y-71768073D01*
X201000000Y-71763653D01*
X201000000Y-69929083D01*
X201007789Y-69849999D01*
X201000000Y-69770915D01*
X201000000Y-69770906D01*
X200976705Y-69534385D01*
X200884643Y-69230899D01*
X200874395Y-69211726D01*
X200735143Y-68951203D01*
X200584369Y-68767485D01*
X200584366Y-68767482D01*
X200533950Y-68706050D01*
X200472518Y-68655634D01*
X198196883Y-66380000D01*
X206343117Y-66380000D01*
X210480000Y-70516883D01*
X210480000Y-71763653D01*
X210348814Y-71871314D01*
X210210104Y-72040334D01*
X210107032Y-72233166D01*
X210043562Y-72442402D01*
X210022130Y-72660000D01*
X210022130Y-74660000D01*
X210043562Y-74877598D01*
X210107032Y-75086834D01*
X210210104Y-75279666D01*
X210348814Y-75448686D01*
X210517834Y-75587396D01*
X210710666Y-75690468D01*
X210919902Y-75753938D01*
X211137500Y-75775370D01*
X213042500Y-75775370D01*
X213260098Y-75753938D01*
X213469334Y-75690468D01*
X213662166Y-75587396D01*
X213705386Y-75551927D01*
X213836898Y-75622221D01*
X214225680Y-75740157D01*
X214630000Y-75779979D01*
X215034321Y-75740157D01*
X215423103Y-75622221D01*
X215781408Y-75430703D01*
X216095464Y-75172964D01*
X216266447Y-74964621D01*
X216384224Y-75050079D01*
X216466815Y-75102827D01*
X216693750Y-75034634D01*
X216693750Y-74160000D01*
X217646250Y-74160000D01*
X217646250Y-75034634D01*
X217873185Y-75102827D01*
X217955776Y-75050079D01*
X218202602Y-74870984D01*
X218409745Y-74647177D01*
X218569246Y-74387259D01*
X218505857Y-74160000D01*
X217646250Y-74160000D01*
X216693750Y-74160000D01*
X216648042Y-74160000D01*
X216662657Y-74111820D01*
X216692500Y-73808818D01*
X216692500Y-73511181D01*
X216662657Y-73208179D01*
X216648042Y-73160000D01*
X216693750Y-73160000D01*
X216693750Y-72285366D01*
X217646250Y-72285366D01*
X217646250Y-73160000D01*
X218505857Y-73160000D01*
X218569246Y-72932741D01*
X218409745Y-72672823D01*
X218202602Y-72449016D01*
X217955776Y-72269921D01*
X217873185Y-72217173D01*
X217646250Y-72285366D01*
X216693750Y-72285366D01*
X216466815Y-72217173D01*
X216384224Y-72269921D01*
X216266447Y-72355379D01*
X216095464Y-72147036D01*
X215781408Y-71889297D01*
X215423102Y-71697779D01*
X215034320Y-71579843D01*
X214630000Y-71540021D01*
X214225679Y-71579843D01*
X213836897Y-71697779D01*
X213705386Y-71768073D01*
X213700000Y-71763653D01*
X213700000Y-69929084D01*
X213707789Y-69850000D01*
X213700000Y-69770916D01*
X213700000Y-69770906D01*
X213676705Y-69534385D01*
X213584643Y-69230899D01*
X213435144Y-68951205D01*
X213435143Y-68951203D01*
X213314863Y-68804643D01*
X213233950Y-68706050D01*
X213172513Y-68655630D01*
X208356883Y-63840000D01*
X216503117Y-63840000D01*
X223180001Y-70516885D01*
X223180000Y-71763653D01*
X223048814Y-71871314D01*
X222910104Y-72040334D01*
X222807032Y-72233166D01*
X222743562Y-72442402D01*
X222722130Y-72660000D01*
X222722130Y-74660000D01*
X222743562Y-74877598D01*
X222807032Y-75086834D01*
X222910104Y-75279666D01*
X223048814Y-75448686D01*
X223217834Y-75587396D01*
X223410666Y-75690468D01*
X223619902Y-75753938D01*
X223837500Y-75775370D01*
X225742500Y-75775370D01*
X225960098Y-75753938D01*
X226169334Y-75690468D01*
X226362166Y-75587396D01*
X226405386Y-75551927D01*
X226536898Y-75622221D01*
X226925680Y-75740157D01*
X227330000Y-75779979D01*
X227734321Y-75740157D01*
X228123103Y-75622221D01*
X228481408Y-75430703D01*
X228795464Y-75172964D01*
X228966447Y-74964621D01*
X229084224Y-75050079D01*
X229166815Y-75102827D01*
X229393750Y-75034634D01*
X229393750Y-74160000D01*
X229348042Y-74160000D01*
X229362657Y-74111820D01*
X229392500Y-73808818D01*
X229392500Y-73511181D01*
X229362657Y-73208179D01*
X229348042Y-73160000D01*
X229393750Y-73160000D01*
X229393750Y-72285366D01*
X229166815Y-72217173D01*
X229084224Y-72269921D01*
X228966447Y-72355379D01*
X228795464Y-72147036D01*
X228481408Y-71889297D01*
X228123102Y-71697779D01*
X227734320Y-71579843D01*
X227330000Y-71540021D01*
X226925679Y-71579843D01*
X226536897Y-71697779D01*
X226405386Y-71768073D01*
X226400000Y-71763653D01*
X226400000Y-69929083D01*
X226407789Y-69849999D01*
X226400000Y-69770915D01*
X226400000Y-69770906D01*
X226376705Y-69534385D01*
X226284643Y-69230899D01*
X226135144Y-68951205D01*
X226135143Y-68951203D01*
X225984369Y-68767485D01*
X225984366Y-68767482D01*
X225933950Y-68706050D01*
X225872518Y-68655634D01*
X218364371Y-61147488D01*
X218313950Y-61086050D01*
X218068796Y-60884857D01*
X217789101Y-60735357D01*
X217485615Y-60643295D01*
X217249094Y-60620000D01*
X217249084Y-60620000D01*
X217170000Y-60612211D01*
X217090916Y-60620000D01*
X185499083Y-60620000D01*
X185419999Y-60612211D01*
X185340915Y-60620000D01*
X185340906Y-60620000D01*
X185104385Y-60643295D01*
X184800899Y-60735357D01*
X184670703Y-60804948D01*
X184521203Y-60884857D01*
X184337485Y-61035631D01*
X184337482Y-61035634D01*
X184276050Y-61086050D01*
X184225634Y-61147482D01*
X176717483Y-68655634D01*
X176656051Y-68706050D01*
X176605635Y-68767482D01*
X176605631Y-68767486D01*
X176454857Y-68951204D01*
X176315606Y-69211726D01*
X176305358Y-69230899D01*
X176213297Y-69534384D01*
X176213296Y-69534386D01*
X176182211Y-69850000D01*
X176190001Y-69929093D01*
X176190000Y-72310905D01*
X176190000Y-72993116D01*
X175863117Y-73320000D01*
X175117774Y-73320000D01*
X175084186Y-73292435D01*
X174743689Y-73110435D01*
X174374227Y-72998360D01*
X174086283Y-72970000D01*
X173893717Y-72970000D01*
X173605773Y-72998360D01*
X173236311Y-73110435D01*
X172895814Y-73292435D01*
X172597365Y-73537365D01*
X172352435Y-73835814D01*
X172170435Y-74176311D01*
X172058360Y-74545773D01*
X172020517Y-74930000D01*
X156125000Y-74930000D01*
X156125000Y-70488274D01*
X159976891Y-70488274D01*
X160126643Y-70732185D01*
X160321102Y-70942194D01*
X160552796Y-71110230D01*
X160651729Y-71163092D01*
X160865000Y-71086500D01*
X160865000Y-70275000D01*
X160045710Y-70275000D01*
X159976891Y-70488274D01*
X156125000Y-70488274D01*
X156125000Y-69211726D01*
X159976891Y-69211726D01*
X160045710Y-69425000D01*
X160865000Y-69425000D01*
X160865000Y-68613500D01*
X161715000Y-68613500D01*
X161715000Y-69425000D01*
X161910728Y-69425000D01*
X161898360Y-69465773D01*
X161860517Y-69850000D01*
X161898360Y-70234227D01*
X161910728Y-70275000D01*
X161715000Y-70275000D01*
X161715000Y-71086500D01*
X161928271Y-71163092D01*
X162027204Y-71110230D01*
X162216209Y-70973154D01*
X162437365Y-71242635D01*
X162735814Y-71487565D01*
X163076311Y-71669565D01*
X163445773Y-71781640D01*
X163733717Y-71810000D01*
X163926283Y-71810000D01*
X164214227Y-71781640D01*
X164583689Y-71669565D01*
X164924186Y-71487565D01*
X165100000Y-71343279D01*
X165275814Y-71487565D01*
X165616311Y-71669565D01*
X165985773Y-71781640D01*
X166273717Y-71810000D01*
X166466283Y-71810000D01*
X166754227Y-71781640D01*
X167123689Y-71669565D01*
X167464186Y-71487565D01*
X167640000Y-71343279D01*
X167815814Y-71487565D01*
X168156311Y-71669565D01*
X168525773Y-71781640D01*
X168813717Y-71810000D01*
X169006283Y-71810000D01*
X169294227Y-71781640D01*
X169663689Y-71669565D01*
X169886559Y-71550438D01*
X169980334Y-71627396D01*
X170173166Y-71730468D01*
X170382402Y-71793938D01*
X170600000Y-71815370D01*
X172300000Y-71815370D01*
X172517598Y-71793938D01*
X172726834Y-71730468D01*
X172919666Y-71627396D01*
X173088686Y-71488686D01*
X173227396Y-71319666D01*
X173330468Y-71126834D01*
X173393938Y-70917598D01*
X173415370Y-70700000D01*
X173415370Y-69000000D01*
X173393938Y-68782402D01*
X173330468Y-68573166D01*
X173227396Y-68380334D01*
X173088686Y-68211314D01*
X172919666Y-68072604D01*
X172726834Y-67969532D01*
X172517598Y-67906062D01*
X172300000Y-67884630D01*
X170600000Y-67884630D01*
X170382402Y-67906062D01*
X170173166Y-67969532D01*
X169980334Y-68072604D01*
X169886559Y-68149562D01*
X169663689Y-68030435D01*
X169294227Y-67918360D01*
X169006283Y-67890000D01*
X168813717Y-67890000D01*
X168525773Y-67918360D01*
X168156311Y-68030435D01*
X167815814Y-68212435D01*
X167640000Y-68356721D01*
X167464186Y-68212435D01*
X167123689Y-68030435D01*
X166754227Y-67918360D01*
X166466283Y-67890000D01*
X166273717Y-67890000D01*
X165985773Y-67918360D01*
X165616311Y-68030435D01*
X165275814Y-68212435D01*
X165100000Y-68356721D01*
X164924186Y-68212435D01*
X164583689Y-68030435D01*
X164214227Y-67918360D01*
X163926283Y-67890000D01*
X163733717Y-67890000D01*
X163445773Y-67918360D01*
X163076311Y-68030435D01*
X162735814Y-68212435D01*
X162437365Y-68457365D01*
X162216209Y-68726846D01*
X162027204Y-68589770D01*
X161928271Y-68536908D01*
X161715000Y-68613500D01*
X160865000Y-68613500D01*
X160651729Y-68536908D01*
X160552796Y-68589770D01*
X160321102Y-68757806D01*
X160126643Y-68967815D01*
X159976891Y-69211726D01*
X156125000Y-69211726D01*
X156125000Y-62868274D01*
X159976891Y-62868274D01*
X160126643Y-63112185D01*
X160321102Y-63322194D01*
X160552796Y-63490230D01*
X160651729Y-63543092D01*
X160865000Y-63466500D01*
X160865000Y-62655000D01*
X160045710Y-62655000D01*
X159976891Y-62868274D01*
X156125000Y-62868274D01*
X156125000Y-61591726D01*
X159976891Y-61591726D01*
X160045710Y-61805000D01*
X160865000Y-61805000D01*
X160865000Y-60993500D01*
X161715000Y-60993500D01*
X161715000Y-61805000D01*
X161910728Y-61805000D01*
X161898360Y-61845773D01*
X161860517Y-62230000D01*
X161898360Y-62614227D01*
X161910728Y-62655000D01*
X161715000Y-62655000D01*
X161715000Y-63466500D01*
X161928271Y-63543092D01*
X162027204Y-63490230D01*
X162216209Y-63353154D01*
X162437365Y-63622635D01*
X162735814Y-63867565D01*
X163076311Y-64049565D01*
X163445773Y-64161640D01*
X163733717Y-64190000D01*
X163926283Y-64190000D01*
X164214227Y-64161640D01*
X164583689Y-64049565D01*
X164924186Y-63867565D01*
X165100000Y-63723279D01*
X165275814Y-63867565D01*
X165616311Y-64049565D01*
X165985773Y-64161640D01*
X166273717Y-64190000D01*
X166466283Y-64190000D01*
X166754227Y-64161640D01*
X167123689Y-64049565D01*
X167464186Y-63867565D01*
X167640000Y-63723279D01*
X167815814Y-63867565D01*
X168156311Y-64049565D01*
X168525773Y-64161640D01*
X168813717Y-64190000D01*
X169006283Y-64190000D01*
X169294227Y-64161640D01*
X169663689Y-64049565D01*
X169886559Y-63930438D01*
X169980334Y-64007396D01*
X170173166Y-64110468D01*
X170382402Y-64173938D01*
X170600000Y-64195370D01*
X172300000Y-64195370D01*
X172517598Y-64173938D01*
X172726834Y-64110468D01*
X172919666Y-64007396D01*
X173088686Y-63868686D01*
X173227396Y-63699666D01*
X173330468Y-63506834D01*
X173393938Y-63297598D01*
X173415370Y-63080000D01*
X173415370Y-61380000D01*
X173393938Y-61162402D01*
X173330468Y-60953166D01*
X173227396Y-60760334D01*
X173088686Y-60591314D01*
X172919666Y-60452604D01*
X172726834Y-60349532D01*
X172517598Y-60286062D01*
X172300000Y-60264630D01*
X170600000Y-60264630D01*
X170382402Y-60286062D01*
X170173166Y-60349532D01*
X169980334Y-60452604D01*
X169886559Y-60529562D01*
X169663689Y-60410435D01*
X169294227Y-60298360D01*
X169006283Y-60270000D01*
X168813717Y-60270000D01*
X168525773Y-60298360D01*
X168156311Y-60410435D01*
X167815814Y-60592435D01*
X167640000Y-60736721D01*
X167464186Y-60592435D01*
X167123689Y-60410435D01*
X166754227Y-60298360D01*
X166466283Y-60270000D01*
X166273717Y-60270000D01*
X165985773Y-60298360D01*
X165616311Y-60410435D01*
X165275814Y-60592435D01*
X165100000Y-60736721D01*
X164924186Y-60592435D01*
X164583689Y-60410435D01*
X164214227Y-60298360D01*
X163926283Y-60270000D01*
X163733717Y-60270000D01*
X163445773Y-60298360D01*
X163076311Y-60410435D01*
X162735814Y-60592435D01*
X162437365Y-60837365D01*
X162216209Y-61106846D01*
X162027204Y-60969770D01*
X161928271Y-60916908D01*
X161715000Y-60993500D01*
X160865000Y-60993500D01*
X160651729Y-60916908D01*
X160552796Y-60969770D01*
X160321102Y-61137806D01*
X160126643Y-61347815D01*
X159976891Y-61591726D01*
X156125000Y-61591726D01*
X156125000Y-50715000D01*
X164250749Y-50715000D01*
X164228125Y-50730117D01*
%TD*%
M02*
